<?xml version="1.0" encoding="UTF-8" standalone="no"?>
<svg
   xmlns:ns0="http://www.iki.fi/pav/software/textext/"
   xmlns:dc="http://purl.org/dc/elements/1.1/"
   xmlns:cc="http://creativecommons.org/ns#"
   xmlns:rdf="http://www.w3.org/1999/02/22-rdf-syntax-ns#"
   xmlns:svg="http://www.w3.org/2000/svg"
   xmlns="http://www.w3.org/2000/svg"
   xmlns:xlink="http://www.w3.org/1999/xlink"
   xmlns:sodipodi="http://sodipodi.sourceforge.net/DTD/sodipodi-0.dtd"
   xmlns:inkscape="http://www.inkscape.org/namespaces/inkscape"
   width="371.4097mm"
   height="324.43985mm"
   viewBox="0 0 371.4097 324.43985"
   version="1.1"
   id="svg1163"
   inkscape:version="1.0.1 (3bc2e813f5, 2020-09-07, custom)"
   sodipodi:docname="pulse_shapes.svg">
  <defs
     id="defs1157">
    <marker
       inkscape:stockid="Arrow2Lstart"
       orient="auto"
       refY="0"
       refX="0"
       id="Arrow2Lstart"
       style="overflow:visible">
      <path
         id="path3817"
         style="font-size:12px;fill-rule:evenodd;stroke-width:0.625;stroke-linejoin:round"
         d="M 8.7185878,4.0337352 -2.2072895,0.01601326 8.7185884,-4.0017078 c -1.7454984,2.3720609 -1.7354408,5.6174519 -6e-7,8.035443 z"
         transform="matrix(1.1,0,0,1.1,1.1,0)" />
    </marker>
    <marker
       inkscape:stockid="Arrow1Lstart"
       orient="auto"
       refY="0"
       refX="0"
       id="Arrow1Lstart"
       style="overflow:visible">
      <path
         id="path3799"
         d="M 0,0 5,-5 -12.5,0 5,5 Z"
         style="fill-rule:evenodd;stroke:#000000;stroke-width:1pt;marker-start:none"
         transform="matrix(0.8,0,0,0.8,10,0)" />
    </marker>
    <marker
       inkscape:stockid="Arrow1Lend"
       orient="auto"
       refY="0"
       refX="0"
       id="Arrow1Lend"
       style="overflow:visible">
      <path
         id="path3802"
         d="M 0,0 5,-5 -12.5,0 5,5 Z"
         style="fill-rule:evenodd;stroke:#000000;stroke-width:1pt;marker-start:none"
         transform="matrix(-0.8,0,0,-0.8,-10,0)" />
    </marker>
    <clipPath
       id="pcefa9357e3">
      <rect
         height="288"
         width="288"
         x="7.1999998"
         y="7.1999998"
         id="rect8889" />
    </clipPath>
    <clipPath
       id="p7dc21d055d">
      <rect
         height="288"
         width="288"
         x="7.1999998"
         y="7.1999998"
         id="rect16" />
    </clipPath>
    <clipPath
       id="p7dc21d055d-6">
      <rect
         height="288"
         width="288"
         x="7.1999998"
         y="7.1999998"
         id="rect16-7" />
    </clipPath>
  </defs>
  <sodipodi:namedview
     id="base"
     pagecolor="#ffffff"
     bordercolor="#666666"
     borderopacity="1.0"
     inkscape:pageopacity="0.0"
     inkscape:pageshadow="2"
     inkscape:zoom="0.49497475"
     inkscape:cx="751.21336"
     inkscape:cy="578.65401"
     inkscape:document-units="mm"
     inkscape:current-layer="layer1-6"
     inkscape:document-rotation="0"
     showgrid="false"
     inkscape:window-width="1920"
     inkscape:window-height="1015"
     inkscape:window-x="0"
     inkscape:window-y="0"
     inkscape:window-maximized="1"
     fit-margin-top="0"
     fit-margin-left="0"
     fit-margin-right="0"
     fit-margin-bottom="0" />
  <metadata
     id="metadata1160">
    <rdf:RDF>
      <cc:Work
         rdf:about="">
        <dc:format>image/svg+xml</dc:format>
        <dc:type
           rdf:resource="http://purl.org/dc/dcmitype/StillImage" />
        <dc:title></dc:title>
      </cc:Work>
    </rdf:RDF>
  </metadata>
  <g
     inkscape:label="Layer 1"
     inkscape:groupmode="layer"
     id="layer1"
     transform="translate(14.707988,-17.206251)">
    <g
       inkscape:label="Layer 1"
       id="layer1-6"
       transform="matrix(0.26458333,0,0,0.26458333,211.7612,-41.908366)">
      <g
         transform="matrix(4.7428709,0,0,-4.2190673,-1708.6942,3269.657)"
         xml:space="preserve"
         style="font-style:normal;font-variant:normal;font-weight:normal;font-stretch:normal;letter-spacing:normal;word-spacing:normal;text-anchor:start;fill:none;stroke:#000000;stroke-width:0.223548;stroke-linecap:butt;stroke-linejoin:miter;stroke-miterlimit:10.433;stroke-dasharray:none;stroke-dashoffset:0;stroke-opacity:1"
         ns0:text="$\n\\omega\n$"
         ns0:preamble=""
         id="g3745">

</g>
      <path
         inkscape:connector-curvature="0"
         style="fill:none;stroke:#000000;stroke-width:2;stroke-linecap:butt;stroke-linejoin:miter;stroke-miterlimit:4;stroke-dasharray:none;stroke-dashoffset:0;stroke-opacity:0.44186"
         d="m -838.28995,763.21938 h 394.29386 -2.17043"
         id="path3186" />
      <path
         sodipodi:nodetypes="ccssssccssssssssssssssssssssssssssssssssscsssssssssscsssssssssssssssssssssssssssssssssssssssscsssscccc"
         inkscape:connector-curvature="0"
         style="fill:none;stroke:#d61515;stroke-width:4;stroke-linecap:butt;stroke-linejoin:miter;stroke-miterlimit:10.433;stroke-dasharray:none;stroke-dashoffset:0;stroke-opacity:1"
         d="m -768.34495,762.96883 48.74324,-0.007 c 0.48217,-4e-5 0.96434,-0.0449 1.4465,-0.13465 0.48217,-0.0897 0.96434,-0.22436 1.4465,-0.40343 0.48217,-0.17908 0.96433,-0.40285 1.4465,-0.67059 0.48216,-0.26773 0.96433,-0.57971 1.44649,-0.93502 0.48217,-0.35532 0.96434,-0.75425 1.4465,-1.19571 0.48217,-0.44147 0.96434,-0.92574 1.4465,-1.45159 0.48217,-0.52584 0.96433,-1.09351 1.4465,-1.70161 0.48216,-0.60809 0.96433,-1.25686 1.4465,-1.94477 0.48216,-0.68791 0.96433,-1.41516 1.4465,-2.18011 0.48217,-0.76494 0.96434,-1.56778 1.4465,-2.40668 0.48217,-0.83889 0.96433,-1.71407 1.4465,-2.62355 0.48216,-0.90948 0.96433,-1.85346 1.4465,-2.82986 0.48216,-0.97639 0.96433,-1.98539 1.4465,-3.02477 0.48216,-1.03938 0.96433,-2.10933 1.44649,-3.2075 0.48217,-1.09818 0.96433,-2.22476 1.4465,-3.37733 0.48216,-1.15255 0.96433,-2.33124 1.4465,-3.53354 0.48216,-1.20229 0.96433,-2.42834 1.4465,-3.67553 0.48216,-1.24719 0.96433,-2.51565 1.44649,-3.80272 0.48217,-1.28706 0.96434,-2.59284 1.4465,-3.9146 0.48217,-1.32175 0.96433,-2.65958 1.4465,-4.0107 0.48217,-1.35113 0.96433,-2.71563 1.4465,-4.09069 0.48216,-1.37505 0.96433,-2.76072 1.4465,-4.15416 0.48216,-1.39345 0.96433,-2.79472 1.44649,-4.20094 0.48217,-1.40623 0.96433,-2.81744 1.4465,-4.23079 0.48217,-1.41335 0.96433,-2.82883 1.4465,-4.2436 0.48217,-1.41478 0.96433,-2.82883 1.4465,-4.23933 0.48216,-1.41051 0.96433,-2.81744 1.44649,-4.21799 0.48217,-1.40055 0.96433,-2.79469 1.4465,-4.17966 0.48217,-1.38496 0.96433,-2.76069 1.4465,-4.1245 0.48217,-1.3638 0.96433,-2.71559 1.4465,-4.05273 0.48216,-1.33714 0.96433,-2.65955 1.44649,-3.96465 0.48217,-1.3051 0.96434,-2.5928 1.4465,-3.86061 0.48217,-1.2678 0.96434,-2.5156 1.4465,-3.741 0.48217,-1.22541 0.96433,-2.42828 1.4465,-3.60635 0.48216,-1.17807 0.96433,-2.33119 1.44649,-3.45718 0.48217,-1.12598 0.96434,-2.22469 1.4465,-3.29406 0.48217,-1.06938 0.96434,-2.10925 1.4465,-3.11771 0.48217,-1.00846 0.96433,-1.98532 1.4465,-2.92879 0.48216,-0.94348 0.96433,-1.85338 1.4465,-2.72808 0.48216,-0.8747 0.96433,-1.71399 1.44649,-2.51639 0.48217,-0.80239 0.96434,-1.56768 1.4465,-2.29454 0.48217,-0.72687 0.96433,-1.41509 1.4465,-2.06349 0.48217,-0.64841 0.96433,-1.25677 1.4465,-1.82411 0.48216,-0.56733 0.96433,-1.0934 1.4465,-1.57738 0.48216,-0.48399 0.96433,-0.92564 1.44649,-1.32432 0.48217,-0.39868 0.96434,-0.75413 1.4465,-1.0659 0.48217,-0.31178 0.96433,-0.5796 1.4465,-0.80321 0.48216,-0.22361 0.96433,-0.40274 1.4465,-0.53728 0.48216,-0.13454 0.96433,-0.22425 1.44649,-0.26918 0.48217,-0.0449 0.96434,-0.0449 1.4465,0 0.48217,0.0449 0.96433,0.13473 1.4465,0.26918 0.48217,0.13445 0.96433,0.31376 1.4465,0.53728 0.48216,0.22352 0.96433,0.49152 1.4465,0.80321 0.48216,0.31168 0.96433,0.66731 1.44649,1.0659 0.48217,0.3986 0.96434,0.84042 1.4465,1.32432 0.48217,0.4839 0.96433,1.01012 1.4465,1.57738 0.48216,0.56726 0.96433,1.17578 1.4465,1.82411 0.48216,0.64833 0.96433,1.33669 1.44649,2.06349 0.48217,0.72678 0.96434,1.49222 1.4465,2.29454 0.48217,0.80233 0.96433,1.64176 1.4465,2.51639 0.48217,0.87463 0.96433,1.78467 1.4465,2.72808 0.48216,0.94341 0.96433,1.92039 1.4465,2.92879 0.48216,1.00839 0.96433,2.04838 1.44649,3.11771 0.48217,1.06932 0.96433,2.16813 1.4465,3.29406 0.48217,1.12594 0.96433,2.27915 1.4465,3.45718 0.48216,1.17802 0.96433,2.38099 1.4465,3.60635 0.48216,1.22536 0.96433,2.47324 1.44649,3.741 0.48217,1.26777 0.96434,2.55554 1.4465,3.86061 0.48217,1.30506 0.96433,2.62753 1.4465,3.96465 0.48217,1.33711 0.96433,2.68896 1.4465,4.05273 0.48216,1.36378 0.96433,2.73956 1.4465,4.1245 0.48216,1.38495 0.96433,2.77912 1.44649,4.17966 0.48217,1.40055 0.96433,2.80749 1.4465,4.21799 0.48217,1.41049 0.96433,2.82456 1.4465,4.23933 0.48216,1.41477 0.96433,2.83025 1.4465,4.2436 0.48216,1.41335 0.96433,2.82455 1.44649,4.23079 0.48217,1.40624 0.96434,2.80747 1.4465,4.20094 0.48217,1.39346 0.96433,2.77909 1.4465,4.15416 0.48217,1.37508 0.96433,2.73953 1.4465,4.09069 0.48216,1.35115 0.96433,2.68892 1.44649,4.0107 0.48217,1.32179 0.96434,2.6275 1.4465,3.9146 0.48217,1.28711 0.96433,2.55549 1.4465,3.80272 0.48217,1.24724 0.96433,2.47319 1.4465,3.67553 0.48216,1.20234 0.96433,2.38093 1.4465,3.53354 0.48216,1.15261 0.96433,2.27909 1.44649,3.37733 0.48217,1.09823 0.96434,2.16806 1.4465,3.2075 0.48217,1.03944 0.96433,2.04831 1.4465,3.02477 0.48217,0.97646 0.96433,1.92031 1.4465,2.82986 0.48216,0.90954 0.96433,1.78458 1.44649,2.62355 0.48217,0.83897 0.96434,1.64166 1.4465,2.40668 0.48217,0.76501 0.96433,1.49213 1.4465,2.18011 0.48217,0.68798 0.96433,1.3366 1.4465,1.94477 0.48216,0.60819 0.96433,1.17569 1.4465,1.70161 0.48216,0.52593 0.96433,1.01003 1.44649,1.45159 0.48217,0.44155 0.96434,0.8403 1.4465,1.19571 0.48217,0.3554 0.96433,0.6672 1.4465,0.93502 0.48217,0.26783 0.96433,0.49142 1.4465,0.67059 0.48216,0.17916 0.96433,0.31364 1.44649,0.40343 0.48217,0.0898 0.96434,0.13461 1.4465,0.13465 l 41.14798,0.007"
         title="cos (x)"
         id="path3437" />
      <g
         id="g11435"
         transform="translate(0,26)">
        <path
           inkscape:connector-curvature="0"
           id="path3186-4"
           d="m -838.28995,963.18525 h 394.29386 -2.17043"
           style="fill:none;stroke:#000000;stroke-width:2;stroke-linecap:butt;stroke-linejoin:miter;stroke-miterlimit:4;stroke-dasharray:none;stroke-dashoffset:0;stroke-opacity:0.44186" />
        <path
           style="color:#000000;display:inline;overflow:visible;visibility:visible;fill:#def08c;fill-opacity:1;fill-rule:evenodd;stroke:#d61515;stroke-width:4;stroke-linecap:round;stroke-linejoin:round;stroke-miterlimit:10.433;stroke-dasharray:none;stroke-dashoffset:0;stroke-opacity:1;marker:none;enable-background:accumulate"
           d="m -769.33504,962.18525 h 234.35539 v 0"
           id="path4253"
           inkscape:connector-curvature="0" />
        <path
           style="color:#000000;font-style:normal;font-variant:normal;font-weight:normal;font-stretch:normal;font-size:medium;line-height:normal;font-family:Sans;-inkscape-font-specification:Sans;text-indent:0;text-align:start;text-decoration:none;text-decoration-line:none;letter-spacing:normal;word-spacing:normal;text-transform:none;writing-mode:lr-tb;direction:ltr;baseline-shift:baseline;text-anchor:start;display:inline;overflow:visible;visibility:visible;fill:#d61515;fill-opacity:1;fill-rule:evenodd;stroke:none;stroke-width:4;marker:none;enable-background:accumulate"
           d="m -649.3125,833.40625 a 2.0002,2.0002 0 0 0 -1.96875,2.03125 v 126.75 a 2.0002,2.0002 0 1 0 4,0 v -126.75 a 2.0002,2.0002 0 0 0 -2.03125,-2.03125 z"
           id="path4255"
           inkscape:connector-curvature="0" />
        <g
           style="fill:#d71515;fill-opacity:1;stroke:#d71515;stroke-width:0.025;stroke-miterlimit:4;stroke-dasharray:none;stroke-opacity:1"
           id="g11422"
           transform="matrix(0,-4,4,0,-649.28577,835.44035)">
          <circle
             style="fill:#d71515;fill-opacity:1;stroke:#d71515;stroke-width:0.025;stroke-miterlimit:4;stroke-dasharray:none;stroke-opacity:1"
             id="circle11424"
             r="0.80000001"
             cy="0"
             cx="3" />
          <circle
             style="fill:#d71515;fill-opacity:1;stroke:#d71515;stroke-width:0.025;stroke-miterlimit:4;stroke-dasharray:none;stroke-opacity:1"
             id="circle11426"
             r="0.80000001"
             cy="0"
             cx="6.5" />
          <circle
             style="fill:#d71515;fill-opacity:1;stroke:#d71515;stroke-width:0.025;stroke-miterlimit:4;stroke-dasharray:none;stroke-opacity:1"
             id="circle11428"
             r="0.80000001"
             cy="0"
             cx="10" />
        </g>
      </g>
      <g
         id="g11452"
         transform="translate(-17.656599,27.91633)"
         inkscape:transform-center-x="26.956919"
         inkscape:transform-center-y="-7.2614423">
        <path
           id="path3186-9"
           d="m -838.28995,1139.7908 h 394.29386 -2.17043"
           style="fill:none;stroke:#000000;stroke-width:2;stroke-linecap:butt;stroke-linejoin:miter;stroke-miterlimit:4;stroke-dasharray:none;stroke-dashoffset:0;stroke-opacity:0.44186"
           inkscape:connector-curvature="0" />
        <path
           inkscape:connector-curvature="0"
           style="fill:none;stroke:#d71515;stroke-width:4;stroke-linecap:butt;stroke-linejoin:miter;stroke-miterlimit:10.433;stroke-dasharray:none;stroke-dashoffset:0;stroke-opacity:1"
           d="m -750.405,1139.8708 c 0.78276,0.6476 1.56552,1.3083 2.34828,1.9616 0.78276,0.6532 1.56551,1.2988 2.34827,1.9158 0.78276,0.6169 1.56552,1.205 2.34828,1.7443 0.78275,0.5393 1.56551,1.0293 2.34826,1.4527 0.78276,0.4233 1.56552,0.7794 2.34828,1.0543 0.78276,0.2748 1.56552,0.4679 2.34827,0.5697 0.78276,0.1018 1.56553,0.1118 2.34828,0.026 0.78276,-0.086 1.56552,-0.2684 2.34827,-0.5456 0.78276,-0.2773 1.56553,-0.6498 2.34828,-1.1099 0.78276,-0.46 1.56551,-1.0081 2.34827,-1.6306 0.78275,-0.6224 1.56552,-1.3197 2.34827,-2.0729 0.78276,-0.7533 1.56552,-1.5627 2.34827,-2.405 0.78276,-0.8424 1.56553,-1.7179 2.34828,-2.6001 0.78276,-0.8821 1.56552,-1.771 2.34827,-2.6384 0.78276,-0.8674 1.56553,-1.7132 2.34828,-2.5092 0.78276,-0.796 1.56552,-1.5418 2.34827,-2.2109 0.78276,-0.6691 1.56552,-1.261 2.34828,-1.7524 0.78275,-0.4914 1.56551,-0.8817 2.34827,-1.1526 0.78275,-0.2709 1.56552,-0.4216 2.34828,-0.4402 0.78275,-0.019 1.56551,0.096 2.34827,0.3481 0.78275,0.2521 1.56551,0.6427 2.34828,1.1684 0.78275,0.5257 1.56551,1.1872 2.34827,1.9727 0.78275,0.7855 1.56551,1.6957 2.34827,2.7105 0.78276,1.0149 1.56551,2.1349 2.34827,3.3324 0.78276,1.1976 1.56552,2.473 2.34828,3.7921 0.78275,1.319 1.56551,2.6819 2.34827,4.0492 0.78275,1.3673 1.56551,2.739 2.34828,4.0724 0.78275,1.3334 1.56551,2.6282 2.34827,3.8406 0.78276,1.2124 1.56551,2.3417 2.34828,3.3452 0.78275,1.0034 1.56551,1.8801 2.34827,2.5906 0.78275,0.7104 1.56551,1.2534 2.34827,1.595 0.78276,0.3417 1.56551,0.4805 2.34827,0.39 0.78276,-0.091 1.56551,-0.4117 2.34828,-0.9812 0.78276,-0.5695 1.56551,-1.3887 2.34827,-2.4646 0.78276,-1.0759 1.56551,-2.4101 2.34828,-3.9981 0.78276,-1.588 1.56551,-3.4314 2.34827,-5.5143 0.78276,-2.0829 1.56551,-4.4066 2.34828,-6.944 0.78275,-2.5373 1.56551,-5.2894 2.34826,-8.2185 0.78276,-2.9292 1.56552,-6.0363 2.34828,-9.2745 0.78276,-3.2383 1.56552,-6.6082 2.34827,-10.0558 0.78276,-3.4475 1.56552,-6.973 2.34828,-10.517 0.78276,-3.544 1.56552,-7.1066 2.34827,-10.6259 0.78276,-3.5193 1.56552,-6.9949 2.34828,-10.3651 0.78276,-3.3702 1.56551,-6.6342 2.34827,-9.7331 0.78275,-3.0989 1.56551,-6.0316 2.34827,-8.7447 0.78276,-2.713 1.56552,-5.2051 2.34827,-7.4306 0.78276,-2.2255 1.56552,-4.1828 2.34828,-5.8364 0.78276,-1.6535 1.56552,-3.0014 2.34827,-4.0198 0.78276,-1.0184 1.56552,-1.7053 2.34828,-2.0494 0.78276,-0.3441 1.56552,-0.3434 2.34827,0 0.78276,0.3434 1.56551,1.0316 2.34827,2.0494 0.78277,1.0177 1.56552,2.3669 2.34828,4.0198 0.78276,1.653 1.56551,3.6114 2.34827,5.8364 0.78276,2.225 1.56552,4.718 2.34828,7.4306 0.78275,2.7127 1.56551,5.6461 2.34827,8.7447 0.78276,3.0986 1.56552,6.3631 2.34827,9.7331 0.78276,3.3699 1.56552,6.8458 2.34827,10.3651 0.78277,3.5192 1.56553,7.0818 2.34828,10.6259 0.78276,3.5441 1.56551,7.0693 2.34827,10.517 0.78277,3.4477 1.56552,6.8173 2.34828,10.0558 0.78276,3.2385 1.56551,6.345 2.34827,9.2745 0.78276,2.9295 1.56552,5.6808 2.34828,8.2185 0.78275,2.5378 1.56551,4.8606 2.34827,6.944 0.78276,2.0833 1.56552,3.9258 2.34827,5.5143 0.78276,1.5886 1.56552,2.9217 2.34827,3.9981 0.78277,1.0764 1.56553,1.8946 2.34828,2.4646 0.78276,0.5699 1.56552,0.8903 2.34827,0.9812 0.78277,0.091 1.56552,-0.049 2.34828,-0.39 0.78276,-0.3412 1.56551,-0.8849 2.34827,-1.595 0.78277,-0.7101 1.56552,-1.5874 2.34828,-2.5906 0.78275,-1.0032 1.56551,-2.133 2.34827,-3.3452 0.78276,-1.2122 1.56552,-2.5073 2.34828,-3.8406 0.78275,-1.3333 1.56551,-2.7051 2.34826,-4.0724 0.78277,-1.3673 1.56553,-2.7301 2.34828,-4.0492 0.78276,-1.3192 1.56552,-2.5944 2.34827,-3.7921 0.78276,-1.1977 1.56552,-2.3173 2.34828,-3.3324 0.78276,-1.015 1.56551,-1.9248 2.34827,-2.7105 0.78276,-0.7858 1.56552,-1.4468 2.34828,-1.9727 0.78275,-0.5259 1.56551,-0.916 2.34827,-1.1684 0.78275,-0.2524 1.56552,-0.3664 2.34828,-0.3481 0.78275,0.018 1.56551,0.1695 2.34826,0.4402 0.78276,0.2706 1.56553,0.6614 2.34828,1.1526 0.78276,0.4912 1.56552,1.0835 2.34827,1.7524 0.78276,0.669 1.56553,1.415 2.34828,2.2109 0.78276,0.7959 1.56551,1.6418 2.34827,2.5092 0.78276,0.8674 1.56552,1.7562 2.34828,2.6384 0.78276,0.8822 1.56551,1.7576 2.34827,2.6001 0.78275,0.8424 1.56552,1.6516 2.34828,2.405 0.78275,0.7533 1.56551,1.4503 2.34827,2.0729 0.78275,0.6227 1.56552,1.1704 2.34827,1.6306 0.78276,0.4603 1.56552,0.8324 2.34827,1.1099 0.78276,0.2774 1.56553,0.4595 2.34828,0.5456 0.78276,0.086 1.56551,0.076 2.34827,-0.026 0.78276,-0.1016 1.56552,-0.295 2.34828,-0.5697 0.78276,-0.2747 1.56551,-0.6311 2.34827,-1.0543 0.78276,-0.4232 1.56552,-0.9135 2.34828,-1.4527 0.78275,-0.5392 1.56551,-1.1274 2.34827,-1.7443 0.78275,-0.6169 1.56552,-1.2626 2.34827,-1.9158 0.78276,-0.6533 1.56552,-1.314 2.34827,-1.9616"
           title="sin (x) /x"
           id="path10001" />
        <g
           style="stroke-linecap:butt;stroke-linejoin:round"
           id="g8907"
           transform="matrix(0.6772981,0,0,0.6772981,328.80356,198.61251)"
           inkscape:export-filename="/home/sh/g889.png"
           inkscape:export-xdpi="96"
           inkscape:export-ydpi="96">
          <g
             id="figure_1"
             transform="translate(-7.04858,59.623917)">
            <g
               id="axes_1"
               transform="translate(-130.00149,30.599672)">
              <g
                 id="line2d_1">
                <path
                   clip-path="url(#pcefa9357e3)"
                   d="m 20.290909,171.59101 1.572482,-62.52334 1.048321,-34.819076 1.048321,-27.07408 0.786241,-14.418328 0.52416,-6.613274 0.524161,-4.156584 0.26208,-1.154101 0.26208,-0.541318 0.26208,0.06595 0.262081,0.665371 0.26208,1.254655 0.52416,4.225645 0.524161,6.407384 0.786241,13.354582 0.786241,17.269268 1.048321,27.801878 1.834561,56.068218 2.096643,63.12481 1.310401,32.44603 1.048321,19.69734 0.786241,10.46672 0.52416,4.78577 0.524161,2.99096 0.26208,0.82051 0.26208,0.37309 0.26208,-0.0702 0.262081,-0.5077 0.26208,-0.9377 0.524161,-3.12747 0.52416,-4.71844 0.786241,-9.80596 0.786241,-12.65672 1.048321,-20.34886 1.834562,-40.9802 2.096642,-46.06788 1.310401,-23.64296 1.048321,-14.33017 0.786241,-7.597794 0.52416,-3.462955 0.524161,-2.15172 0.26208,-0.582912 0.26208,-0.256236 0.262081,0.06737 0.26208,0.386668 0.52416,1.707944 0.524161,2.903778 0.786241,6.428387 0.78624,8.62611 1.048322,14.24748 1.572481,25.10036 2.620803,42.41617 1.310401,17.22804 1.048321,10.42522 0.786241,5.51499 0.52416,2.50554 0.524161,1.5476 0.26208,0.41379 0.26208,0.17528 0.262081,-0.0609 0.26208,-0.29399 0.52416,-1.26989 0.524161,-2.14211 0.786241,-4.72412 0.786241,-6.32502 1.048321,-10.43115 1.572481,-18.35155 2.620803,-30.96066 1.310401,-12.55347 1.048321,-7.58419 0.786241,-4.00296 0.52416,-1.81266 0.524161,-1.11283 0.26208,-0.2935 0.262081,-0.11935 0.26208,0.0531 0.26208,0.22317 0.524161,0.94388 0.52416,1.58005 0.786241,3.47151 0.786241,4.63764 1.048321,7.63692 1.572481,13.41717 2.620803,22.59875 1.310401,9.14715 1.048321,5.51724 0.786241,2.90536 0.524161,1.31126 0.52416,0.8 0.524161,0.28883 0.26208,-0.045 0.52416,-0.46022 0.524161,-0.93667 0.52416,-1.38651 0.786241,-2.8494 1.048321,-5.01929 1.310402,-7.68899 3.931204,-24.39915 1.04832,-4.93178 0.78624,-2.8892 0.78624,-2.10861 0.52416,-0.94846 0.52416,-0.57496 0.52416,-0.20168 0.52416,0.1655 0.52417,0.52096 0.52416,0.85938 0.78624,1.87433 0.78624,2.49306 1.04832,4.09325 1.57248,7.1717 2.6208,12.03982 1.3104,4.85634 1.04832,2.91957 0.78625,1.53029 0.52416,0.68597 0.52416,0.41312 0.52416,0.14054 0.52416,-0.12749 0.52416,-0.38687 0.52416,-0.63368 0.78624,-1.37715 0.78624,-1.82781 1.04832,-2.99663 1.57248,-5.24318 2.6208,-8.78782 1.31041,-3.53846 1.04832,-2.12373 0.78624,-1.11053 0.78624,-0.66942 0.52416,-0.19699 0.52416,7.4e-4 0.52416,0.19356 0.52416,0.37852 0.78624,0.89081 0.78624,1.23678 1.04832,2.08868 1.57249,3.75395 2.88288,7.07815 1.3104,2.57817 1.04832,1.5448 0.78624,0.80587 0.78624,0.4835 0.78624,0.15606 0.78624,-0.16476 0.78624,-0.46788 0.78624,-0.74333 1.04833,-1.3557 1.3104,-2.1299 4.45536,-7.77037 1.04832,-1.30346 1.04832,-0.93061 0.78624,-0.42853 0.78625,-0.1896 0.78624,0.0472 0.78624,0.27349 0.78624,0.48181 1.04832,0.92303 1.3104,1.49924 2.6208,3.49682 1.83456,2.23325 1.31041,1.22355 1.04832,0.67609 1.04832,0.37474 0.78624,0.0775 1.04832,-0.16111 1.04832,-0.43942 1.04832,-0.67684 1.57248,-1.3406 4.71745,-4.3301 1.3104,-0.77321 1.04832,-0.3827 1.04832,-0.15759 1.04832,0.0662 1.04832,0.27498 1.31041,0.59471 1.57248,0.98105 4.71744,3.16045 1.3104,0.56251 1.3104,0.32132 1.31041,0.064 1.3104,-0.18381 1.3104,-0.39885 1.83456,-0.81924 4.71744,-2.30672 1.57249,-0.47054 1.57248,-0.21203 1.57248,0.0567 1.57248,0.29818 2.09664,0.66904 4.97953,1.75257 1.83456,0.34626 1.57248,0.0872 1.83456,-0.13978 2.09665,-0.41608 7.07616,-1.68066 1.83456,-0.11507 2.09665,0.10302 2.35872,0.35295 6.81409,1.17827 2.35872,0.0804 2.35872,-0.14332 3.40704,-0.45708 4.19329,-0.53431 2.6208,-0.11707 2.88288,0.10764 4.45537,0.44863 3.9312,0.31686 3.14496,0.0277 3.66913,-0.20444 2.09664,-0.16685 v 0"
                   style="fill:none;fill-opacity:1;stroke:#ff002b;stroke-width:2.83465;stroke-linecap:square;stroke-miterlimit:4;stroke-dasharray:none;stroke-opacity:1"
                   id="path8884"
                   transform="matrix(1.8379397,0,0,1.8379397,-68.012453,-129.49434)" />
              </g>
            </g>
          </g>
        </g>
        <g
           id="line2d_1-3"
           style="fill:none;fill-opacity:1;stroke:#ff0000;stroke-width:2.25;stroke-linecap:butt;stroke-linejoin:round;stroke-miterlimit:4;stroke-dasharray:none;stroke-opacity:1"
           transform="matrix(1.3333333,0,0,1.3333333,191.58379,807.20721)">
          <path
             clip-path="url(#p7dc21d055d)"
             d="m 20.290909,20.290909 0.26208,1.205261 0.524161,4.048981 0.52416,6.135431 0.786241,12.796382 0.786241,16.578186 1.048321,26.780168 1.834562,54.446142 2.358722,69.49825 1.310402,31.52123 1.048321,19.22135 0.78624,10.31222 0.524161,4.7879 0.52416,3.07822 0.262081,0.89549 0.26208,0.46834 0.26208,0.0446 0.26208,-0.37409 0.262081,-0.78628 0.52416,-2.77577 0.524161,-4.31043 0.786241,-9.1152 0.78624,-11.91334 1.048321,-19.36443 1.572482,-33.73946 2.620803,-56.8205 1.310401,-23.26835 1.048321,-14.28825 0.786241,-7.73861 0.52416,-3.640088 0.524161,-2.392966 0.52416,-1.140197 0.262081,-0.103734 0.26208,0.20304 0.26208,0.505306 0.524161,1.893995 0.52416,3.022529 0.786241,6.486985 0.786241,8.55664 1.048321,13.99749 1.572481,24.53528 2.620803,41.619 1.310401,17.17141 1.048321,10.61638 0.786241,5.80244 0.524161,2.76293 0.52416,1.85341 0.524161,0.93815 0.26208,0.12786 0.26208,-0.0969 0.26208,-0.31846 0.524161,-1.28536 0.52416,-2.11506 0.786241,-4.61206 0.786241,-6.14239 1.048321,-10.11455 1.572482,-17.83781 2.882883,-33.22134 1.048321,-9.92546 1.048321,-7.88467 0.78624,-4.34723 0.524161,-2.09397 0.524161,-1.4308 0.52416,-0.76224 0.26208,-0.13153 0.262081,0.0331 0.26208,0.19549 0.52416,0.86684 0.524161,1.4767 0.786241,3.27565 0.78624,4.40684 1.048321,7.30617 1.572482,12.96548 2.882883,24.33405 1.310401,8.93905 1.048321,5.43807 0.786241,2.90804 0.524161,1.34409 0.52416,0.8573 0.524161,0.36947 0.26208,0.003 0.52416,-0.34828 0.524161,-0.80728 0.52416,-1.24304 0.786241,-2.6163 0.786241,-3.40928 1.048321,-5.53003 1.572482,-9.61615 2.620802,-16.15575 1.310402,-6.59926 1.048321,-4.04302 0.78624,-2.18292 0.524161,-1.02245 0.524161,-0.66734 0.524161,-0.31084 0.52416,0.0417 0.52416,0.38504 0.52416,0.71431 0.78624,1.64681 0.78624,2.26431 1.04832,3.80803 1.57249,6.84491 3.14496,14.10576 1.04832,3.81282 1.04832,3.00448 0.78624,1.6372 0.78624,1.06779 0.52416,0.38718 0.52416,0.12745 0.52416,-0.1279 0.52416,-0.37514 0.52416,-0.61077 0.78624,-1.32464 0.78625,-1.75842 1.04832,-2.88914 1.57248,-5.08479 2.88288,-9.44573 1.3104,-3.43237 1.04832,-2.06797 0.78624,-1.09106 0.78624,-0.67089 0.52417,-0.20963 0.52416,-0.0208 0.52416,0.16372 0.52416,0.34134 0.78624,0.8238 0.78624,1.16049 1.04832,1.98176 1.57248,3.61007 3.40704,8.11738 1.31041,2.41091 1.04832,1.41553 0.78624,0.71933 0.78624,0.41004 0.78624,0.0982 0.78624,-0.20566 0.78624,-0.49165 0.78624,-0.75087 1.04832,-1.34383 1.3104,-2.08936 4.71745,-7.98875 1.04832,-1.22976 1.04832,-0.86844 0.78624,-0.39285 0.78624,-0.16489 0.78624,0.0603 0.78624,0.27542 1.04832,0.67155 1.04833,0.96657 1.3104,1.51368 4.71744,5.85166 1.3104,1.10079 1.04832,0.58015 1.04833,0.28876 1.04832,-0.006 1.04832,-0.28575 1.04832,-0.53552 1.3104,-0.95328 1.83456,-1.66962 3.14496,-2.89876 1.31041,-0.92396 1.3104,-0.63912 1.04832,-0.27725 1.04832,-0.0615 1.04832,0.14763 1.3104,0.44903 1.3104,0.68704 2.09665,1.39825 2.88288,1.93936 1.57248,0.79663 1.3104,0.43153 1.3104,0.19063 1.3104,-0.0534 1.3104,-0.27798 1.57249,-0.57437 2.35872,-1.15196 2.88288,-1.39726 1.83456,-0.62745 1.57249,-0.2838 1.57248,-0.0265 1.57248,0.21603 1.83456,0.49669 3.14496,1.14866 2.62081,0.85484 1.83456,0.37091 1.83456,0.12253 1.83456,-0.12692 2.09664,-0.39396 7.60033,-1.74243 2.09664,-0.094 2.09665,0.14028 2.6208,0.41929 5.76576,1.01413 2.35873,0.14539 2.35872,-0.0756 2.88288,-0.32349 6.28993,-0.78284 2.6208,-0.0721 2.88288,0.1399 10.48321,0.77604 3.40705,-0.13125 3.40704,-0.25564 v 0"
             style="fill:none;fill-opacity:1;stroke:#ff0000;stroke-width:2.25;stroke-linecap:square;stroke-miterlimit:4;stroke-dasharray:none;stroke-opacity:1"
             id="path11"
             transform="translate(-2.9054915,-164.17119)" />
          <g
             id="g958"
             transform="matrix(0.6570008,0,0,1,-77.997365,0)">
            <g
               id="g962">
              <path
                 clip-path="url(#p7dc21d055d-6)"
                 d="m 20.290909,20.290909 0.26208,1.205261 0.524161,4.048981 0.52416,6.135431 0.786241,12.796382 0.786241,16.578186 1.048321,26.780168 1.834562,54.446142 2.358722,69.49825 1.310402,31.52123 1.048321,19.22135 0.78624,10.31222 0.524161,4.7879 0.52416,3.07822 0.262081,0.89549 0.26208,0.46834 0.26208,0.0446 0.26208,-0.37409 0.262081,-0.78628 0.52416,-2.77577 0.524161,-4.31043 0.786241,-9.1152 0.78624,-11.91334 1.048321,-19.36443 1.572482,-33.73946 2.620803,-56.8205 1.310401,-23.26835 1.048321,-14.28825 0.786241,-7.73861 0.52416,-3.640088 0.524161,-2.392966 0.52416,-1.140197 0.262081,-0.103734 0.26208,0.20304 0.26208,0.505306 0.524161,1.893995 0.52416,3.022529 0.786241,6.486985 0.786241,8.55664 1.048321,13.99749 1.572481,24.53528 2.620803,41.619 1.310401,17.17141 1.048321,10.61638 0.786241,5.80244 0.524161,2.76293 0.52416,1.85341 0.524161,0.93815 0.26208,0.12786 0.26208,-0.0969 0.26208,-0.31846 0.524161,-1.28536 0.52416,-2.11506 0.786241,-4.61206 0.786241,-6.14239 1.048321,-10.11455 1.572482,-17.83781 2.882883,-33.22134 1.048321,-9.92546 1.048321,-7.88467 0.78624,-4.34723 0.524161,-2.09397 0.524161,-1.4308 0.52416,-0.76224 0.26208,-0.13153 0.262081,0.0331 0.26208,0.19549 0.52416,0.86684 0.524161,1.4767 0.786241,3.27565 0.78624,4.40684 1.048321,7.30617 1.572482,12.96548 2.882883,24.33405 1.310401,8.93905 1.048321,5.43807 0.786241,2.90804 0.524161,1.34409 0.52416,0.8573 0.524161,0.36947 0.26208,0.003 0.52416,-0.34828 0.524161,-0.80728 0.52416,-1.24304 0.786241,-2.6163 0.786241,-3.40928 1.048321,-5.53003 1.572482,-9.61615 2.620802,-16.15575 1.310402,-6.59926 1.048321,-4.04302 0.78624,-2.18292 0.524161,-1.02245 0.524161,-0.66734 0.524161,-0.31084 0.52416,0.0417 0.52416,0.38504 0.52416,0.71431 0.78624,1.64681 0.78624,2.26431 1.04832,3.80803 1.57249,6.84491 3.14496,14.10576 1.04832,3.81282 1.04832,3.00448 0.78624,1.6372 0.78624,1.06779 0.52416,0.38718 0.52416,0.12745 0.52416,-0.1279 0.52416,-0.37514 0.52416,-0.61077 0.78624,-1.32464 0.78625,-1.75842 1.04832,-2.88914 1.57248,-5.08479 2.88288,-9.44573 1.3104,-3.43237 1.04832,-2.06797 0.78624,-1.09106 0.78624,-0.67089 0.52417,-0.20963 0.52416,-0.0208 0.52416,0.16372 0.52416,0.34134 0.78624,0.8238 0.78624,1.16049 1.04832,1.98176 1.57248,3.61007 3.40704,8.11738 1.31041,2.41091 1.04832,1.41553 0.78624,0.71933 0.78624,0.41004 0.78624,0.0982 0.78624,-0.20566 0.78624,-0.49165 0.78624,-0.75087 1.04832,-1.34383 1.3104,-2.08936 4.71745,-7.98875 1.04832,-1.22976 1.04832,-0.86844 0.78624,-0.39285 0.78624,-0.16489 0.78624,0.0603 0.78624,0.27542 1.04832,0.67155 1.04833,0.96657 1.3104,1.51368 4.71744,5.85166 1.3104,1.10079 1.04832,0.58015 1.04833,0.28876 1.04832,-0.006 1.04832,-0.28575 1.04832,-0.53552 1.3104,-0.95328 1.83456,-1.66962 3.14496,-2.89876 1.31041,-0.92396 1.3104,-0.63912 1.04832,-0.27725 1.04832,-0.0615 1.04832,0.14763 1.3104,0.44903 1.3104,0.68704 2.09665,1.39825 2.88288,1.93936 1.57248,0.79663 1.3104,0.43153 1.3104,0.19063 1.3104,-0.0534 1.3104,-0.27798 1.57249,-0.57437 2.35872,-1.15196 2.88288,-1.39726 1.83456,-0.62745 1.57249,-0.2838 1.57248,-0.0265 1.57248,0.21603 1.83456,0.49669 3.14496,1.14866 2.62081,0.85484 1.83456,0.37091 1.83456,0.12253 1.83456,-0.12692 2.09664,-0.39396 7.60033,-1.74243 2.09664,-0.094 2.09665,0.14028 2.6208,0.41929 5.76576,1.01413 2.35873,0.14539 2.35872,-0.0756 2.88288,-0.32349 6.28993,-0.78284 2.6208,-0.0721 2.88288,0.1399 10.48321,0.77604 3.40705,-0.13125 3.40704,-0.25564 v 0"
                 style="fill:none;fill-opacity:1;stroke:#ff0000;stroke-width:3.49716;stroke-linecap:square;stroke-linejoin:round;stroke-miterlimit:4;stroke-dasharray:none;stroke-opacity:1"
                 id="path11-5"
                 transform="translate(256.25809,177.04074)" />
              <use
                 x="0"
                 y="0"
                 xlink:href="#path11-5"
                 id="use944"
                 transform="matrix(-1,0,0,1,553.36007,-1.2052605)"
                 width="100%"
                 height="100%"
                 style="stroke-width:10.4915;stroke-miterlimit:4;stroke-dasharray:none" />
            </g>
          </g>
        </g>
      </g>
      <g
         id="g11458"
         transform="translate(0,-24)">
        <path
           id="path3186-9-4"
           d="m -838.28995,1392.6479 h 394.29386 -2.17043"
           style="fill:none;stroke:#000000;stroke-width:2;stroke-linecap:butt;stroke-linejoin:miter;stroke-miterlimit:4;stroke-dasharray:none;stroke-dashoffset:0;stroke-opacity:0.44186"
           inkscape:connector-curvature="0" />
        <path
           inkscape:connector-curvature="0"
           style="fill:none;stroke:#d71515;stroke-width:4;stroke-linecap:butt;stroke-linejoin:miter;stroke-miterlimit:10.433;stroke-dasharray:none;stroke-dashoffset:0;stroke-opacity:1"
           d="m -765.27985,1392.4847 c 0.78907,0 1.57815,0 2.36722,0 0.78908,0 1.57816,0 2.36724,0 0.78907,0 1.57814,0 2.36721,0 0.78908,0 1.57815,0 2.36722,0 0.78909,0 1.57817,0 2.36723,0 0.78909,0 1.57816,0 2.36723,0 0.78908,-10e-5 1.57815,-10e-5 2.36723,-10e-5 0.78908,0 1.57815,-10e-5 2.36722,-10e-5 0.78908,-10e-5 1.57816,-2e-4 2.36722,-3e-4 0.78909,-1e-4 1.57817,-2e-4 2.36724,-4e-4 0.78908,-10e-5 1.57815,-4e-4 2.36722,-7e-4 0.78908,-3e-4 1.57815,-7e-4 2.36723,0 0.78907,-5e-4 1.57816,0 2.36723,0 0.78907,-9e-4 1.57815,0 2.36722,0 0.78907,0 1.57815,0 2.36723,-0.01 0.78907,0 1.57815,-0.01 2.36723,-0.01 0.78906,0 1.57815,-0.01 2.36722,-0.015 0.78907,-0.01 1.57816,-0.014 2.36723,-0.023 0.78907,-0.01 1.57815,-0.021 2.36722,-0.036 0.78907,-0.014 1.57815,-0.032 2.36723,-0.054 0.78907,-0.022 1.57816,-0.048 2.36723,-0.081 0.78907,-0.033 1.57814,-0.072 2.36722,-0.1196 0.78907,-0.048 1.57814,-0.1045 2.36723,-0.1733 0.78908,-0.069 1.57814,-0.1498 2.36723,-0.2472 0.78907,-0.097 1.57814,-0.2112 2.36722,-0.3467 0.78907,-0.1356 1.57815,-0.2931 2.36723,-0.4787 0.78907,-0.1857 1.57814,-0.3998 2.36722,-0.6499 0.78908,-0.2501 1.57814,-0.5364 2.36723,-0.8677 0.78907,-0.3312 1.57815,-0.7077 2.36723,-1.139 0.78907,-0.4314 1.57814,-0.9179 2.36722,-1.47 0.78907,-0.5521 1.57814,-1.1701 2.36721,-1.8645 0.7891,-0.6943 1.57817,-1.4656 2.36724,-2.3235 0.78908,-0.858 1.57815,-1.8032 2.36722,-2.8443 0.78908,-1.0411 1.57816,-2.1786 2.36723,-3.4186 0.78909,-1.2401 1.57816,-2.5834 2.36722,-4.0327 0.78909,-1.4493 1.57816,-3.0053 2.36723,-4.6663 0.78908,-1.6609 1.57816,-3.4275 2.36723,-5.2927 0.78908,-1.8651 1.57816,-3.8295 2.36722,-5.88 0.78909,-2.0504 1.57816,-4.1875 2.36722,-6.3916 0.78909,-2.2041 1.57817,-4.4757 2.36724,-6.789 0.78907,-2.3133 1.57815,-4.6684 2.36722,-7.0339 0.78907,-2.3656 1.57816,-4.7415 2.36723,-7.0919 0.78908,-2.3503 1.57816,-4.6749 2.36723,-6.9349 0.78907,-2.26 1.57815,-4.4549 2.36722,-6.5454 0.78907,-2.0904 1.57816,-4.0756 2.36724,-5.9177 0.78906,-1.8422 1.57815,-3.5403 2.36722,-5.0608 0.78907,-1.5204 1.57815,-2.862 2.36722,-3.9976 0.78908,-1.1355 1.57816,-2.0637 2.36723,-2.7657 0.78907,-0.7019 1.57814,-1.1763 2.36723,-1.4139 0.78906,-0.2377 1.57814,-0.2372 2.36723,0 0.78907,0.2372 1.57814,0.7124 2.36722,1.4139 0.78907,0.7015 1.57814,1.6306 2.36722,2.7657 0.78907,1.1352 1.57815,2.4775 2.36724,3.9976 0.78906,1.5202 1.57814,3.2189 2.36722,5.0608 0.78907,1.8418 1.57814,3.8275 2.36722,5.9177 0.78908,2.0903 1.57815,4.2855 2.36723,6.5454 0.78908,2.2599 1.57814,4.5846 2.36723,6.9349 0.78907,2.3504 1.57814,4.7263 2.36722,7.0919 0.78908,2.3655 1.57815,4.7206 2.36722,7.0339 0.78908,2.3134 1.57815,4.5847 2.36722,6.789 0.78909,2.2043 1.57816,4.341 2.36724,6.3916 0.78908,2.0507 1.57815,4.0147 2.36722,5.88 0.78908,1.8654 1.57815,3.6316 2.36722,5.2927 0.78909,1.6612 1.57816,3.2168 2.36723,4.6663 0.78909,1.4495 1.57816,2.7924 2.36723,4.0327 0.78908,1.2402 1.57815,2.3773 2.36723,3.4186 0.78908,1.0412 1.57816,1.9861 2.36722,2.8443 0.78907,0.8581 1.57816,1.629 2.36722,2.3235 0.78908,0.6946 1.57817,1.3123 2.36724,1.8645 0.78907,0.5522 1.57815,1.0385 2.36722,1.47 0.78907,0.4314 1.57816,0.8077 2.36722,1.139 0.78909,0.3314 1.57817,0.6175 2.36723,0.8677 0.78908,0.2502 1.57816,0.4641 2.36723,0.6499 0.78907,0.1857 1.57815,0.343 2.36723,0.4787 0.78907,0.1356 1.57816,0.2493 2.36722,0.3467 0.78908,0.098 1.57816,0.1784 2.36723,0.2472 0.78907,0.069 1.57815,0.1255 2.36723,0.1733 0.78907,0.048 1.57814,0.087 2.36723,0.1196 0.78906,0.033 1.57814,0.059 2.36722,0.081 0.78908,0.022 1.57815,0.04 2.36723,0.054 0.78907,0.015 1.57814,0.026 2.36722,0.036 0.78907,0.01 1.57814,0.017 2.36724,0.023 0.78906,0.01 1.57814,0.011 2.36722,0.015 0.78907,0 1.57814,0.01 2.36722,0.01 0.78907,0 1.57815,0 2.36723,0.01 0.78907,0 1.57814,0 2.36722,0 0.78907,9e-4 1.57815,0 2.36722,0 0.78909,5e-4 1.57816,9e-4 2.36723,0 0.78908,3e-4 1.57815,6e-4 2.36722,7e-4 0.78909,2e-4 1.57815,3e-4 2.36724,4e-4 0.78908,10e-5 1.57815,2e-4 2.36722,3e-4 0.78908,0 1.57815,10e-5 2.36722,10e-5 0.78908,0 1.57816,0 2.36723,10e-5 0.78909,0 1.57815,0 2.36723,0 0.78908,0 1.57815,0 2.36722,0 0.78908,0 1.57816,0 2.36723,0 0.78907,0 1.57815,0 2.36722,0 0.78908,0 1.57816,0 2.36724,0 0.78907,0 1.57815,0 2.36722,0"
           title="10**(0.05*(-x**2))"
           id="path11329" />
      </g>
      <flowRoot
         xml:space="preserve"
         id="flowRoot11484"
         style="font-style:normal;font-variant:normal;font-weight:normal;font-stretch:normal;line-height:0.01%;font-family:Arial;-inkscape-font-specification:Arial;text-align:start;letter-spacing:0px;word-spacing:0px;writing-mode:lr-tb;text-anchor:start;fill:#000000;fill-opacity:1;stroke:none;stroke-width:1px;stroke-linecap:butt;stroke-linejoin:miter;stroke-opacity:1"><flowRegion
           id="flowRegion11486"><rect
             id="rect11488"
             width="100"
             height="920"
             x="67.14286"
             y="-22.857178"
             style="font-weight:normal;-inkscape-font-specification:Arial" /></flowRegion><flowPara
           id="flowPara11490"
           style="font-size:72px;line-height:1"> </flowPara></flowRoot>
      <g
         id="g6684">
        <path
           style="color:#000000;font-style:normal;font-variant:normal;font-weight:normal;font-stretch:normal;font-size:medium;line-height:normal;font-family:Sans;-inkscape-font-specification:Sans;text-indent:0;text-align:start;text-decoration:none;text-decoration-line:none;letter-spacing:normal;word-spacing:normal;text-transform:none;writing-mode:lr-tb;direction:ltr;baseline-shift:baseline;text-anchor:start;display:inline;overflow:visible;visibility:visible;fill:#000000;fill-opacity:0.443137;stroke:none;stroke-width:2;marker:none;enable-background:accumulate"
           d="m -838.28125,567.65625 v 2 h 392.125 H -444 v -2 h -2.15625 z"
           id="path3186-0"
           inkscape:connector-curvature="0" />
        <path
           sodipodi:nodetypes="ccccccc"
           inkscape:connector-curvature="0"
           id="path10052"
           d="m -766.71427,569.2194 h 91.28556 v -97.1429 h 56.67712 v 97.1429 h 58.03729 24"
           style="color:#000000;display:inline;overflow:visible;visibility:visible;fill:none;stroke:#d71515;stroke-width:4;stroke-linecap:round;stroke-linejoin:round;stroke-miterlimit:10.433;stroke-dasharray:none;stroke-dashoffset:0;stroke-opacity:1;marker:none;enable-background:accumulate" />
        <path
           d="m -467.54741,559.77371 24.03693,8.83899 -24.03693,8.83899 c 3.84009,-5.21854 3.81797,-12.3584 0,-17.67798 z"
           style="font-size:12px;fill:#717171;fill-opacity:1;fill-rule:evenodd;stroke:#000000;stroke-width:0.625;stroke-linejoin:round;stroke-opacity:0.443137"
           id="path6676"
           inkscape:connector-curvature="0" />
        <text
           id="text6680"
           y="620.93359"
           x="-465.00003"
           style="font-style:oblique;font-variant:normal;font-weight:normal;font-stretch:normal;line-height:0%;font-family:Arial;-inkscape-font-specification:'Arial Oblique';text-align:start;letter-spacing:0px;word-spacing:0px;writing-mode:lr-tb;text-anchor:start;fill:#717171;fill-opacity:1;stroke:none"
           xml:space="preserve"><tspan
             y="620.93359"
             x="-465.00003"
             id="tspan6682"
             sodipodi:role="line"
             style="font-size:40px;line-height:1">t</tspan></text>
      </g>
    </g>
  </g>
</svg>
