<?xml version="1.0" encoding="UTF-8" standalone="no"?>
<svg
   xmlns:ns0="http://www.iki.fi/pav/software/textext/"
   xmlns:dc="http://purl.org/dc/elements/1.1/"
   xmlns:cc="http://creativecommons.org/ns#"
   xmlns:rdf="http://www.w3.org/1999/02/22-rdf-syntax-ns#"
   xmlns:svg="http://www.w3.org/2000/svg"
   xmlns="http://www.w3.org/2000/svg"
   xmlns:sodipodi="http://sodipodi.sourceforge.net/DTD/sodipodi-0.dtd"
   xmlns:inkscape="http://www.inkscape.org/namespaces/inkscape"
   width="210mm"
   height="297mm"
   viewBox="0 0 210 297"
   version="1.1"
   id="svg1163"
   inkscape:version="1.0.1 (3bc2e813f5, 2020-09-07)"
   sodipodi:docname="pulse_shapes.svg">
  <defs
     id="defs1157">
    <marker
       inkscape:stockid="Arrow2Lstart"
       orient="auto"
       refY="0.0"
       refX="0.0"
       id="Arrow2Lstart"
       style="overflow:visible">
      <path
         id="path3817"
         style="font-size:12.0;fill-rule:evenodd;stroke-width:0.62500000;stroke-linejoin:round"
         d="M 8.7185878,4.0337352 L -2.2072895,0.016013256 L 8.7185884,-4.0017078 C 6.9730900,-1.6296469 6.9831476,1.6157441 8.7185878,4.0337352 z "
         transform="scale(1.1) translate(1,0)" />
    </marker>
    <marker
       inkscape:stockid="Arrow1Lstart"
       orient="auto"
       refY="0.0"
       refX="0.0"
       id="Arrow1Lstart"
       style="overflow:visible">
      <path
         id="path3799"
         d="M 0.0,0.0 L 5.0,-5.0 L -12.5,0.0 L 5.0,5.0 L 0.0,0.0 z "
         style="fill-rule:evenodd;stroke:#000000;stroke-width:1.0pt;marker-start:none"
         transform="scale(0.8) translate(12.5,0)" />
    </marker>
    <marker
       inkscape:stockid="Arrow1Lend"
       orient="auto"
       refY="0.0"
       refX="0.0"
       id="Arrow1Lend"
       style="overflow:visible;">
      <path
         id="path3802"
         d="M 0.0,0.0 L 5.0,-5.0 L -12.5,0.0 L 5.0,5.0 L 0.0,0.0 z "
         style="fill-rule:evenodd;stroke:#000000;stroke-width:1.0pt;marker-start:none;"
         transform="scale(0.8) rotate(180) translate(12.5,0)" />
    </marker>
  </defs>
  <sodipodi:namedview
     id="base"
     pagecolor="#ffffff"
     bordercolor="#666666"
     borderopacity="1.0"
     inkscape:pageopacity="0.0"
     inkscape:pageshadow="2"
     inkscape:zoom="0.35"
     inkscape:cx="400"
     inkscape:cy="560"
     inkscape:document-units="mm"
     inkscape:current-layer="g11452"
     inkscape:document-rotation="0"
     showgrid="false"
     inkscape:window-width="1496"
     inkscape:window-height="1013"
     inkscape:window-x="0"
     inkscape:window-y="0"
     inkscape:window-maximized="0" />
  <metadata
     id="metadata1160">
    <rdf:RDF>
      <cc:Work
         rdf:about="">
        <dc:format>image/svg+xml</dc:format>
        <dc:type
           rdf:resource="http://purl.org/dc/dcmitype/StillImage" />
        <dc:title></dc:title>
      </cc:Work>
    </rdf:RDF>
  </metadata>
  <g
     inkscape:label="Layer 1"
     inkscape:groupmode="layer"
     id="layer1">
    <g
       inkscape:label="Layer 1"
       id="layer1-6"
       transform="matrix(0.26458333,0,0,0.26458333,211.7612,-41.908366)">
      <rect
         style="color:#000000;display:inline;overflow:visible;visibility:visible;fill:#ffffff;fill-opacity:1;fill-rule:evenodd;stroke:none;stroke-width:0.1;marker:none;enable-background:accumulate"
         id="rect11482"
         width="454.28571"
         height="957.14282"
         x="-1345.0427"
         y="272.63916" />
      <g
         transform="matrix(4.7428709,0,0,-4.2190673,-1708.6942,3269.657)"
         xml:space="preserve"
         style="font-style:normal;font-variant:normal;font-weight:normal;font-stretch:normal;letter-spacing:normal;word-spacing:normal;text-anchor:start;fill:none;stroke:#000000;stroke-width:0.223548;stroke-linecap:butt;stroke-linejoin:miter;stroke-miterlimit:10.433;stroke-dasharray:none;stroke-dashoffset:0;stroke-opacity:1"
         ns0:text="$\n\\omega\n$"
         ns0:preamble=""
         id="g3745">

</g>
      <path
         inkscape:connector-curvature="0"
         style="fill:none;stroke:#000000;stroke-width:2;stroke-linecap:butt;stroke-linejoin:miter;stroke-miterlimit:4;stroke-dasharray:none;stroke-dashoffset:0;stroke-opacity:0.44186"
         d="m -838.28995,763.21938 h 394.29386 -2.17043"
         id="path3186" />
      <path
         sodipodi:nodetypes="ccssssccssssssssssssssssssssssssssssssssscsssssssssscsssssssssssssssssssssssssssssssssssssssscsssscccc"
         inkscape:connector-curvature="0"
         style="fill:none;stroke:#d61515;stroke-width:4;stroke-linecap:butt;stroke-linejoin:miter;stroke-miterlimit:10.433;stroke-dasharray:none;stroke-dashoffset:0;stroke-opacity:1"
         d="m -768.34495,762.96883 48.74324,-0.007 c 0.48217,-4e-5 0.96434,-0.0449 1.4465,-0.13465 0.48217,-0.0897 0.96434,-0.22436 1.4465,-0.40343 0.48217,-0.17908 0.96433,-0.40285 1.4465,-0.67059 0.48216,-0.26773 0.96433,-0.57971 1.44649,-0.93502 0.48217,-0.35532 0.96434,-0.75425 1.4465,-1.19571 0.48217,-0.44147 0.96434,-0.92574 1.4465,-1.45159 0.48217,-0.52584 0.96433,-1.09351 1.4465,-1.70161 0.48216,-0.60809 0.96433,-1.25686 1.4465,-1.94477 0.48216,-0.68791 0.96433,-1.41516 1.4465,-2.18011 0.48217,-0.76494 0.96434,-1.56778 1.4465,-2.40668 0.48217,-0.83889 0.96433,-1.71407 1.4465,-2.62355 0.48216,-0.90948 0.96433,-1.85346 1.4465,-2.82986 0.48216,-0.97639 0.96433,-1.98539 1.4465,-3.02477 0.48216,-1.03938 0.96433,-2.10933 1.44649,-3.2075 0.48217,-1.09818 0.96433,-2.22476 1.4465,-3.37733 0.48216,-1.15255 0.96433,-2.33124 1.4465,-3.53354 0.48216,-1.20229 0.96433,-2.42834 1.4465,-3.67553 0.48216,-1.24719 0.96433,-2.51565 1.44649,-3.80272 0.48217,-1.28706 0.96434,-2.59284 1.4465,-3.9146 0.48217,-1.32175 0.96433,-2.65958 1.4465,-4.0107 0.48217,-1.35113 0.96433,-2.71563 1.4465,-4.09069 0.48216,-1.37505 0.96433,-2.76072 1.4465,-4.15416 0.48216,-1.39345 0.96433,-2.79472 1.44649,-4.20094 0.48217,-1.40623 0.96433,-2.81744 1.4465,-4.23079 0.48217,-1.41335 0.96433,-2.82883 1.4465,-4.2436 0.48217,-1.41478 0.96433,-2.82883 1.4465,-4.23933 0.48216,-1.41051 0.96433,-2.81744 1.44649,-4.21799 0.48217,-1.40055 0.96433,-2.79469 1.4465,-4.17966 0.48217,-1.38496 0.96433,-2.76069 1.4465,-4.1245 0.48217,-1.3638 0.96433,-2.71559 1.4465,-4.05273 0.48216,-1.33714 0.96433,-2.65955 1.44649,-3.96465 0.48217,-1.3051 0.96434,-2.5928 1.4465,-3.86061 0.48217,-1.2678 0.96434,-2.5156 1.4465,-3.741 0.48217,-1.22541 0.96433,-2.42828 1.4465,-3.60635 0.48216,-1.17807 0.96433,-2.33119 1.44649,-3.45718 0.48217,-1.12598 0.96434,-2.22469 1.4465,-3.29406 0.48217,-1.06938 0.96434,-2.10925 1.4465,-3.11771 0.48217,-1.00846 0.96433,-1.98532 1.4465,-2.92879 0.48216,-0.94348 0.96433,-1.85338 1.4465,-2.72808 0.48216,-0.8747 0.96433,-1.71399 1.44649,-2.51639 0.48217,-0.80239 0.96434,-1.56768 1.4465,-2.29454 0.48217,-0.72687 0.96433,-1.41509 1.4465,-2.06349 0.48217,-0.64841 0.96433,-1.25677 1.4465,-1.82411 0.48216,-0.56733 0.96433,-1.0934 1.4465,-1.57738 0.48216,-0.48399 0.96433,-0.92564 1.44649,-1.32432 0.48217,-0.39868 0.96434,-0.75413 1.4465,-1.0659 0.48217,-0.31178 0.96433,-0.5796 1.4465,-0.80321 0.48216,-0.22361 0.96433,-0.40274 1.4465,-0.53728 0.48216,-0.13454 0.96433,-0.22425 1.44649,-0.26918 0.48217,-0.0449 0.96434,-0.0449 1.4465,0 0.48217,0.0449 0.96433,0.13473 1.4465,0.26918 0.48217,0.13445 0.96433,0.31376 1.4465,0.53728 0.48216,0.22352 0.96433,0.49152 1.4465,0.80321 0.48216,0.31168 0.96433,0.66731 1.44649,1.0659 0.48217,0.3986 0.96434,0.84042 1.4465,1.32432 0.48217,0.4839 0.96433,1.01012 1.4465,1.57738 0.48216,0.56726 0.96433,1.17578 1.4465,1.82411 0.48216,0.64833 0.96433,1.33669 1.44649,2.06349 0.48217,0.72678 0.96434,1.49222 1.4465,2.29454 0.48217,0.80233 0.96433,1.64176 1.4465,2.51639 0.48217,0.87463 0.96433,1.78467 1.4465,2.72808 0.48216,0.94341 0.96433,1.92039 1.4465,2.92879 0.48216,1.00839 0.96433,2.04838 1.44649,3.11771 0.48217,1.06932 0.96433,2.16813 1.4465,3.29406 0.48217,1.12594 0.96433,2.27915 1.4465,3.45718 0.48216,1.17802 0.96433,2.38099 1.4465,3.60635 0.48216,1.22536 0.96433,2.47324 1.44649,3.741 0.48217,1.26777 0.96434,2.55554 1.4465,3.86061 0.48217,1.30506 0.96433,2.62753 1.4465,3.96465 0.48217,1.33711 0.96433,2.68896 1.4465,4.05273 0.48216,1.36378 0.96433,2.73956 1.4465,4.1245 0.48216,1.38495 0.96433,2.77912 1.44649,4.17966 0.48217,1.40055 0.96433,2.80749 1.4465,4.21799 0.48217,1.41049 0.96433,2.82456 1.4465,4.23933 0.48216,1.41477 0.96433,2.83025 1.4465,4.2436 0.48216,1.41335 0.96433,2.82455 1.44649,4.23079 0.48217,1.40624 0.96434,2.80747 1.4465,4.20094 0.48217,1.39346 0.96433,2.77909 1.4465,4.15416 0.48217,1.37508 0.96433,2.73953 1.4465,4.09069 0.48216,1.35115 0.96433,2.68892 1.44649,4.0107 0.48217,1.32179 0.96434,2.6275 1.4465,3.9146 0.48217,1.28711 0.96433,2.55549 1.4465,3.80272 0.48217,1.24724 0.96433,2.47319 1.4465,3.67553 0.48216,1.20234 0.96433,2.38093 1.4465,3.53354 0.48216,1.15261 0.96433,2.27909 1.44649,3.37733 0.48217,1.09823 0.96434,2.16806 1.4465,3.2075 0.48217,1.03944 0.96433,2.04831 1.4465,3.02477 0.48217,0.97646 0.96433,1.92031 1.4465,2.82986 0.48216,0.90954 0.96433,1.78458 1.44649,2.62355 0.48217,0.83897 0.96434,1.64166 1.4465,2.40668 0.48217,0.76501 0.96433,1.49213 1.4465,2.18011 0.48217,0.68798 0.96433,1.3366 1.4465,1.94477 0.48216,0.60819 0.96433,1.17569 1.4465,1.70161 0.48216,0.52593 0.96433,1.01003 1.44649,1.45159 0.48217,0.44155 0.96434,0.8403 1.4465,1.19571 0.48217,0.3554 0.96433,0.6672 1.4465,0.93502 0.48217,0.26783 0.96433,0.49142 1.4465,0.67059 0.48216,0.17916 0.96433,0.31364 1.44649,0.40343 0.48217,0.0898 0.96434,0.13461 1.4465,0.13465 l 41.14798,0.007"
         title="cos (x)"
         id="path3437" />
      <g
         id="g11435"
         transform="translate(0,26)">
        <path
           inkscape:connector-curvature="0"
           id="path3186-4"
           d="m -838.28995,963.18525 h 394.29386 -2.17043"
           style="fill:none;stroke:#000000;stroke-width:2;stroke-linecap:butt;stroke-linejoin:miter;stroke-miterlimit:4;stroke-dasharray:none;stroke-dashoffset:0;stroke-opacity:0.44186" />
        <path
           style="color:#000000;display:inline;overflow:visible;visibility:visible;fill:#def08c;fill-opacity:1;fill-rule:evenodd;stroke:#d61515;stroke-width:4;stroke-linecap:round;stroke-linejoin:round;stroke-miterlimit:10.433;stroke-dasharray:none;stroke-dashoffset:0;stroke-opacity:1;marker:none;enable-background:accumulate"
           d="m -769.33504,962.18525 h 234.35539 v 0"
           id="path4253"
           inkscape:connector-curvature="0" />
        <path
           style="color:#000000;font-style:normal;font-variant:normal;font-weight:normal;font-stretch:normal;font-size:medium;line-height:normal;font-family:Sans;-inkscape-font-specification:Sans;text-indent:0;text-align:start;text-decoration:none;text-decoration-line:none;letter-spacing:normal;word-spacing:normal;text-transform:none;writing-mode:lr-tb;direction:ltr;baseline-shift:baseline;text-anchor:start;display:inline;overflow:visible;visibility:visible;fill:#d61515;fill-opacity:1;fill-rule:evenodd;stroke:none;stroke-width:4;marker:none;enable-background:accumulate"
           d="m -649.3125,833.40625 a 2.0002,2.0002 0 0 0 -1.96875,2.03125 v 126.75 a 2.0002,2.0002 0 1 0 4,0 v -126.75 a 2.0002,2.0002 0 0 0 -2.03125,-2.03125 z"
           id="path4255"
           inkscape:connector-curvature="0" />
        <g
           style="fill:#d71515;fill-opacity:1;stroke:#d71515;stroke-width:0.025;stroke-miterlimit:4;stroke-dasharray:none;stroke-opacity:1"
           id="g11422"
           transform="matrix(0,-4,4,0,-649.28577,835.44035)">
          <circle
             style="fill:#d71515;fill-opacity:1;stroke:#d71515;stroke-width:0.025;stroke-miterlimit:4;stroke-dasharray:none;stroke-opacity:1"
             id="circle11424"
             r="0.80000001"
             cy="0"
             cx="3" />
          <circle
             style="fill:#d71515;fill-opacity:1;stroke:#d71515;stroke-width:0.025;stroke-miterlimit:4;stroke-dasharray:none;stroke-opacity:1"
             id="circle11426"
             r="0.80000001"
             cy="0"
             cx="6.5" />
          <circle
             style="fill:#d71515;fill-opacity:1;stroke:#d71515;stroke-width:0.025;stroke-miterlimit:4;stroke-dasharray:none;stroke-opacity:1"
             id="circle11428"
             r="0.80000001"
             cy="0"
             cx="10" />
        </g>
      </g>
      <g
         id="g11452"
         transform="translate(0,26)"
         inkscape:transform-center-x="26.956919"
         inkscape:transform-center-y="-7.2614423">
        <path
           id="path3186-9"
           d="m -838.28995,1139.7908 h 394.29386 -2.17043"
           style="fill:none;stroke:#000000;stroke-width:2;stroke-linecap:butt;stroke-linejoin:miter;stroke-miterlimit:4;stroke-dasharray:none;stroke-dashoffset:0;stroke-opacity:0.44186"
           inkscape:connector-curvature="0" />
        <path
           inkscape:connector-curvature="0"
           style="fill:none;stroke:#d71515;stroke-width:4;stroke-linecap:butt;stroke-linejoin:miter;stroke-miterlimit:10.433;stroke-dasharray:none;stroke-dashoffset:0;stroke-opacity:1"
           d="m -373.76054,1051.1276 c 0.78276,0.6476 1.56552,1.3083 2.34828,1.9616 0.78276,0.6532 1.56551,1.2988 2.34827,1.9158 0.78276,0.6169 1.56552,1.205 2.34828,1.7443 0.78275,0.5393 1.56551,1.0293 2.34826,1.4527 0.78276,0.4233 1.56552,0.7794 2.34828,1.0543 0.78276,0.2748 1.56552,0.4679 2.34827,0.5697 0.78276,0.1018 1.56553,0.1118 2.34828,0.026 0.78276,-0.086 1.56552,-0.2684 2.34827,-0.5456 0.78276,-0.2773 1.56553,-0.6498 2.34828,-1.1099 0.78276,-0.46 1.56551,-1.0081 2.34827,-1.6306 0.78275,-0.6224 1.56552,-1.3197 2.34827,-2.0729 0.78276,-0.7533 1.56552,-1.5627 2.34827,-2.405 0.78276,-0.8424 1.56553,-1.7179 2.34828,-2.6001 0.78276,-0.8821 1.56552,-1.771 2.34827,-2.6384 0.78276,-0.8674 1.56553,-1.7132 2.34828,-2.5092 0.78276,-0.796 1.56552,-1.5418 2.34827,-2.2109 0.78276,-0.6691 1.56552,-1.261 2.34828,-1.7524 0.78275,-0.4914 1.56551,-0.8817 2.34827,-1.1526 0.78275,-0.2709 1.56552,-0.4216 2.34828,-0.4402 0.78275,-0.019 1.56551,0.096 2.34827,0.3481 0.78275,0.2521 1.56551,0.6427 2.34828,1.1684 0.78275,0.5257 1.56551,1.1872 2.34827,1.9727 0.78275,0.7855 1.56551,1.6957 2.34827,2.7105 0.78276,1.0149 1.56551,2.1349 2.34827,3.3324 0.78276,1.1976 1.56552,2.473 2.34828,3.7921 0.78275,1.319 1.56551,2.6819 2.34827,4.0492 0.78275,1.3673 1.56551,2.739 2.34828,4.0724 0.78275,1.3334 1.56551,2.6282 2.34827,3.8406 0.78276,1.2124 1.56551,2.3417 2.34828,3.3452 0.78275,1.0034 1.56551,1.8801 2.34827,2.5906 0.78275,0.7104 1.56551,1.2534 2.34827,1.595 0.78276,0.3417 1.56551,0.4805 2.34827,0.39 0.78276,-0.091 1.56551,-0.4117 2.34828,-0.9812 0.78276,-0.5695 1.56551,-1.3887 2.34827,-2.4646 0.78276,-1.0759 1.56551,-2.4101 2.34828,-3.9981 0.78276,-1.588 1.56551,-3.4314 2.34827,-5.5143 0.78276,-2.0829 1.56551,-4.4066 2.34828,-6.944 0.78275,-2.5373 1.56551,-5.2894 2.34826,-8.2185 0.78276,-2.9292 1.56552,-6.0363 2.34828,-9.2745 0.78276,-3.2383 1.56552,-6.6082 2.34827,-10.0558 0.78276,-3.4475 1.56552,-6.973 2.34828,-10.517 0.78276,-3.544 1.56552,-7.1066 2.34827,-10.6259 0.78276,-3.51928 1.56552,-6.99488 2.34828,-10.36508 0.78276,-3.3702 1.56551,-6.6342 2.34827,-9.7331 0.78275,-3.0989 1.56551,-6.0316 2.34827,-8.7447 0.78276,-2.713 1.56552,-5.2051 2.34827,-7.4306 0.78276,-2.2255 1.56552,-4.1828 2.34828,-5.8364 0.78276,-1.6535 1.56552,-3.0014 2.34827,-4.0198 0.78276,-1.0184 1.56552,-1.7053 2.34828,-2.0494 0.78276,-0.3441 1.56552,-0.3434 2.34827,0 0.78276,0.3434 1.56551,1.0316 2.34827,2.0494 0.78277,1.0177 1.56552,2.3669 2.34828,4.0198 0.78276,1.653 1.56551,3.6114 2.34827,5.8364 0.78276,2.225 1.56552,4.718 2.34828,7.4306 0.78275,2.7127 1.56551,5.6461 2.34827,8.7447 0.78276,3.0986 1.56552,6.3631 2.34827,9.7331 0.78276,3.3699 1.56552,6.8458 2.34827,10.36508 0.78277,3.5192 1.56553,7.0818 2.34828,10.6259 0.78276,3.5441 1.56551,7.0693 2.34827,10.517 0.78277,3.4477 1.56552,6.8173 2.34828,10.0558 0.78276,3.2385 1.56551,6.345 2.34827,9.2745 0.78276,2.9295 1.56552,5.6808 2.34828,8.2185 0.78275,2.5378 1.56551,4.8606 2.34827,6.944 0.78276,2.0833 1.56552,3.9258 2.34827,5.5143 0.78276,1.5886 1.56552,2.9217 2.34827,3.9981 0.78277,1.0764 1.56553,1.8946 2.34828,2.4646 0.78276,0.5699 1.56552,0.8903 2.34827,0.9812 0.78277,0.091 1.56552,-0.049 2.34828,-0.39 0.78276,-0.3412 1.56551,-0.8849 2.34827,-1.595 0.78277,-0.7101 1.56552,-1.5874 2.34828,-2.5906 0.78275,-1.0032 1.56551,-2.133 2.34827,-3.3452 0.78276,-1.2122 1.56552,-2.5073 2.34828,-3.8406 0.78275,-1.3333 1.56551,-2.7051 2.34826,-4.0724 0.78277,-1.3673 1.56553,-2.7301 2.34828,-4.0492 0.78276,-1.3192 1.56552,-2.5944 2.34827,-3.7921 0.78276,-1.1977 1.56552,-2.3173 2.34828,-3.3324 0.78276,-1.015 1.56551,-1.9248 2.34827,-2.7105 0.78276,-0.7858 1.56552,-1.4468 2.34828,-1.9727 0.78275,-0.5259 1.56551,-0.916 2.34827,-1.1684 0.78275,-0.2524 1.56552,-0.3664 2.34828,-0.3481 0.78275,0.018 1.56551,0.1695 2.34826,0.4402 0.78276,0.2706 1.56553,0.6614 2.34828,1.1526 0.78276,0.4912 1.56552,1.0835 2.34827,1.7524 0.78276,0.669 1.56553,1.415 2.34828,2.2109 0.78276,0.7959 1.56551,1.6418 2.34827,2.5092 0.78276,0.8674 1.56552,1.7562 2.34828,2.6384 0.78276,0.8822 1.56551,1.7576 2.34827,2.6001 0.78275,0.8424 1.56552,1.6516 2.34828,2.405 0.78275,0.7533 1.56551,1.4503 2.34827,2.0729 0.78275,0.6227 1.56552,1.1704 2.34827,1.6306 0.78276,0.4603 1.56552,0.8324 2.34827,1.1099 0.78276,0.2774 1.56553,0.4595 2.34828,0.5456 0.78276,0.086 1.56551,0.076 2.34827,-0.026 0.78276,-0.1016 1.56552,-0.295 2.34828,-0.5697 0.78276,-0.2747 1.56551,-0.6311 2.34827,-1.0543 0.78276,-0.4232 1.56552,-0.9135 2.34828,-1.4527 0.78275,-0.5392 1.56551,-1.1274 2.34827,-1.7443 0.78275,-0.6169 1.56552,-1.2626 2.34827,-1.9158 0.78276,-0.6533 1.56552,-1.314 2.34827,-1.9616"
           title="sin (x) /x"
           id="path10001" />
      </g>
      <g
         id="g11458"
         transform="translate(0,-24)">
        <path
           id="path3186-9-4"
           d="m -838.28995,1392.6479 h 394.29386 -2.17043"
           style="fill:none;stroke:#000000;stroke-width:2;stroke-linecap:butt;stroke-linejoin:miter;stroke-miterlimit:4;stroke-dasharray:none;stroke-dashoffset:0;stroke-opacity:0.44186"
           inkscape:connector-curvature="0" />
        <path
           inkscape:connector-curvature="0"
           style="fill:none;stroke:#d71515;stroke-width:4;stroke-linecap:butt;stroke-linejoin:miter;stroke-miterlimit:10.433;stroke-dasharray:none;stroke-dashoffset:0;stroke-opacity:1"
           d="m -765.27985,1392.4847 c 0.78907,0 1.57815,0 2.36722,0 0.78908,0 1.57816,0 2.36724,0 0.78907,0 1.57814,0 2.36721,0 0.78908,0 1.57815,0 2.36722,0 0.78909,0 1.57817,0 2.36723,0 0.78909,0 1.57816,0 2.36723,0 0.78908,-10e-5 1.57815,-10e-5 2.36723,-10e-5 0.78908,0 1.57815,-10e-5 2.36722,-10e-5 0.78908,-10e-5 1.57816,-2e-4 2.36722,-3e-4 0.78909,-1e-4 1.57817,-2e-4 2.36724,-4e-4 0.78908,-10e-5 1.57815,-4e-4 2.36722,-7e-4 0.78908,-3e-4 1.57815,-7e-4 2.36723,0 0.78907,-5e-4 1.57816,0 2.36723,0 0.78907,-9e-4 1.57815,0 2.36722,0 0.78907,0 1.57815,0 2.36723,-0.01 0.78907,0 1.57815,-0.01 2.36723,-0.01 0.78906,0 1.57815,-0.01 2.36722,-0.015 0.78907,-0.01 1.57816,-0.014 2.36723,-0.023 0.78907,-0.01 1.57815,-0.021 2.36722,-0.036 0.78907,-0.014 1.57815,-0.032 2.36723,-0.054 0.78907,-0.022 1.57816,-0.048 2.36723,-0.081 0.78907,-0.033 1.57814,-0.072 2.36722,-0.1196 0.78907,-0.048 1.57814,-0.1045 2.36723,-0.1733 0.78908,-0.069 1.57814,-0.1498 2.36723,-0.2472 0.78907,-0.097 1.57814,-0.2112 2.36722,-0.3467 0.78907,-0.1356 1.57815,-0.2931 2.36723,-0.4787 0.78907,-0.1857 1.57814,-0.3998 2.36722,-0.6499 0.78908,-0.2501 1.57814,-0.5364 2.36723,-0.8677 0.78907,-0.3312 1.57815,-0.7077 2.36723,-1.139 0.78907,-0.4314 1.57814,-0.9179 2.36722,-1.47 0.78907,-0.5521 1.57814,-1.1701 2.36721,-1.8645 0.7891,-0.6943 1.57817,-1.4656 2.36724,-2.3235 0.78908,-0.858 1.57815,-1.8032 2.36722,-2.8443 0.78908,-1.0411 1.57816,-2.1786 2.36723,-3.4186 0.78909,-1.2401 1.57816,-2.5834 2.36722,-4.0327 0.78909,-1.4493 1.57816,-3.0053 2.36723,-4.6663 0.78908,-1.6609 1.57816,-3.4275 2.36723,-5.2927 0.78908,-1.8651 1.57816,-3.8295 2.36722,-5.88 0.78909,-2.0504 1.57816,-4.1875 2.36722,-6.3916 0.78909,-2.2041 1.57817,-4.4757 2.36724,-6.789 0.78907,-2.3133 1.57815,-4.6684 2.36722,-7.0339 0.78907,-2.3656 1.57816,-4.7415 2.36723,-7.0919 0.78908,-2.3503 1.57816,-4.6749 2.36723,-6.9349 0.78907,-2.26 1.57815,-4.4549 2.36722,-6.5454 0.78907,-2.0904 1.57816,-4.0756 2.36724,-5.9177 0.78906,-1.8422 1.57815,-3.5403 2.36722,-5.0608 0.78907,-1.5204 1.57815,-2.862 2.36722,-3.9976 0.78908,-1.1355 1.57816,-2.0637 2.36723,-2.7657 0.78907,-0.7019 1.57814,-1.1763 2.36723,-1.4139 0.78906,-0.2377 1.57814,-0.2372 2.36723,0 0.78907,0.2372 1.57814,0.7124 2.36722,1.4139 0.78907,0.7015 1.57814,1.6306 2.36722,2.7657 0.78907,1.1352 1.57815,2.4775 2.36724,3.9976 0.78906,1.5202 1.57814,3.2189 2.36722,5.0608 0.78907,1.8418 1.57814,3.8275 2.36722,5.9177 0.78908,2.0903 1.57815,4.2855 2.36723,6.5454 0.78908,2.2599 1.57814,4.5846 2.36723,6.9349 0.78907,2.3504 1.57814,4.7263 2.36722,7.0919 0.78908,2.3655 1.57815,4.7206 2.36722,7.0339 0.78908,2.3134 1.57815,4.5847 2.36722,6.789 0.78909,2.2043 1.57816,4.341 2.36724,6.3916 0.78908,2.0507 1.57815,4.0147 2.36722,5.88 0.78908,1.8654 1.57815,3.6316 2.36722,5.2927 0.78909,1.6612 1.57816,3.2168 2.36723,4.6663 0.78909,1.4495 1.57816,2.7924 2.36723,4.0327 0.78908,1.2402 1.57815,2.3773 2.36723,3.4186 0.78908,1.0412 1.57816,1.9861 2.36722,2.8443 0.78907,0.8581 1.57816,1.629 2.36722,2.3235 0.78908,0.6946 1.57817,1.3123 2.36724,1.8645 0.78907,0.5522 1.57815,1.0385 2.36722,1.47 0.78907,0.4314 1.57816,0.8077 2.36722,1.139 0.78909,0.3314 1.57817,0.6175 2.36723,0.8677 0.78908,0.2502 1.57816,0.4641 2.36723,0.6499 0.78907,0.1857 1.57815,0.343 2.36723,0.4787 0.78907,0.1356 1.57816,0.2493 2.36722,0.3467 0.78908,0.098 1.57816,0.1784 2.36723,0.2472 0.78907,0.069 1.57815,0.1255 2.36723,0.1733 0.78907,0.048 1.57814,0.087 2.36723,0.1196 0.78906,0.033 1.57814,0.059 2.36722,0.081 0.78908,0.022 1.57815,0.04 2.36723,0.054 0.78907,0.015 1.57814,0.026 2.36722,0.036 0.78907,0.01 1.57814,0.017 2.36724,0.023 0.78906,0.01 1.57814,0.011 2.36722,0.015 0.78907,0 1.57814,0.01 2.36722,0.01 0.78907,0 1.57815,0 2.36723,0.01 0.78907,0 1.57814,0 2.36722,0 0.78907,9e-4 1.57815,0 2.36722,0 0.78909,5e-4 1.57816,9e-4 2.36723,0 0.78908,3e-4 1.57815,6e-4 2.36722,7e-4 0.78909,2e-4 1.57815,3e-4 2.36724,4e-4 0.78908,10e-5 1.57815,2e-4 2.36722,3e-4 0.78908,0 1.57815,10e-5 2.36722,10e-5 0.78908,0 1.57816,0 2.36723,10e-5 0.78909,0 1.57815,0 2.36723,0 0.78908,0 1.57815,0 2.36722,0 0.78908,0 1.57816,0 2.36723,0 0.78907,0 1.57815,0 2.36722,0 0.78908,0 1.57816,0 2.36724,0 0.78907,0 1.57815,0 2.36722,0"
           title="10**(0.05*(-x**2))"
           id="path11329" />
      </g>
      <text
         xml:space="preserve"
         style="font-style:normal;font-variant:normal;font-weight:normal;font-stretch:normal;line-height:0%;font-family:Arial;-inkscape-font-specification:Arial;text-align:start;letter-spacing:0px;word-spacing:0px;writing-mode:lr-tb;text-anchor:start;fill:#000000;fill-opacity:1;stroke:none"
         x="-766.45428"
         y="673.79077"
         id="text11466"><tspan
           sodipodi:role="line"
           id="tspan11468"
           x="-766.45428"
           y="673.79077"
           style="font-size:72px;line-height:1">b</tspan></text>
      <text
         xml:space="preserve"
         style="font-style:normal;font-variant:normal;font-weight:normal;font-stretch:normal;line-height:0%;font-family:Arial;-inkscape-font-specification:Arial;text-align:start;letter-spacing:0px;word-spacing:0px;writing-mode:lr-tb;text-anchor:start;fill:#000000;fill-opacity:1;stroke:none"
         x="-764.08124"
         y="885.21942"
         id="text11470"><tspan
           sodipodi:role="line"
           id="tspan11472"
           x="-764.08124"
           y="885.21942"
           style="font-size:72px;line-height:1">c</tspan></text>
      <text
         xml:space="preserve"
         style="font-style:normal;font-variant:normal;font-weight:normal;font-stretch:normal;line-height:0%;font-family:Arial;-inkscape-font-specification:Arial;text-align:start;letter-spacing:0px;word-spacing:0px;writing-mode:lr-tb;text-anchor:start;fill:#000000;fill-opacity:1;stroke:none"
         x="-764.66132"
         y="1091.7909"
         id="text11474"><tspan
           sodipodi:role="line"
           id="tspan11476"
           x="-764.66132"
           y="1091.7909"
           style="font-size:72px;line-height:1">d</tspan></text>
      <text
         xml:space="preserve"
         style="font-style:normal;font-variant:normal;font-weight:normal;font-stretch:normal;line-height:0%;font-family:Arial;-inkscape-font-specification:Arial;text-align:start;letter-spacing:0px;word-spacing:0px;writing-mode:lr-tb;text-anchor:start;fill:#000000;fill-opacity:1;stroke:none"
         x="-763.3078"
         y="1294.0765"
         id="text11478"><tspan
           sodipodi:role="line"
           id="tspan11480"
           x="-763.3078"
           y="1294.0765"
           style="font-size:72px;line-height:1">e</tspan></text>
      <flowRoot
         xml:space="preserve"
         id="flowRoot11484"
         style="font-style:normal;font-variant:normal;font-weight:normal;font-stretch:normal;line-height:0.01%;font-family:Arial;-inkscape-font-specification:Arial;text-align:start;letter-spacing:0px;word-spacing:0px;writing-mode:lr-tb;text-anchor:start;fill:#000000;fill-opacity:1;stroke:none;stroke-width:1px;stroke-linecap:butt;stroke-linejoin:miter;stroke-opacity:1"><flowRegion
           id="flowRegion11486"><rect
             id="rect11488"
             width="100"
             height="920"
             x="67.14286"
             y="-22.857178"
             style="font-weight:normal;-inkscape-font-specification:Arial" /></flowRegion><flowPara
           id="flowPara11490"
           style="font-size:72px;line-height:1"> </flowPara></flowRoot>
      <g
         id="g6684">
        <path
           style="color:#000000;font-style:normal;font-variant:normal;font-weight:normal;font-stretch:normal;font-size:medium;line-height:normal;font-family:Sans;-inkscape-font-specification:Sans;text-indent:0;text-align:start;text-decoration:none;text-decoration-line:none;letter-spacing:normal;word-spacing:normal;text-transform:none;writing-mode:lr-tb;direction:ltr;baseline-shift:baseline;text-anchor:start;display:inline;overflow:visible;visibility:visible;fill:#000000;fill-opacity:0.443137;stroke:none;stroke-width:2;marker:none;enable-background:accumulate"
           d="m -838.28125,567.65625 v 2 h 392.125 H -444 v -2 h -2.15625 z"
           id="path3186-0"
           inkscape:connector-curvature="0" />
        <path
           sodipodi:nodetypes="ccccccc"
           inkscape:connector-curvature="0"
           id="path10052"
           d="m -766.71427,569.2194 h 91.28556 v -97.1429 h 56.67712 v 97.1429 h 58.03729 24"
           style="color:#000000;display:inline;overflow:visible;visibility:visible;fill:none;stroke:#d71515;stroke-width:4;stroke-linecap:round;stroke-linejoin:round;stroke-miterlimit:10.433;stroke-dasharray:none;stroke-dashoffset:0;stroke-opacity:1;marker:none;enable-background:accumulate" />
        <text
           transform="translate(-935.00006,-244.78069)"
           id="text11462"
           y="761.42865"
           x="171.42857"
           style="font-style:normal;font-variant:normal;font-weight:normal;font-stretch:normal;line-height:0%;font-family:Arial;-inkscape-font-specification:Arial;text-align:start;letter-spacing:0px;word-spacing:0px;writing-mode:lr-tb;text-anchor:start;fill:#000000;fill-opacity:1;stroke:none"
           xml:space="preserve"><tspan
             y="761.42865"
             x="171.42857"
             id="tspan11464"
             sodipodi:role="line"
             style="font-size:72px;line-height:1">a</tspan></text>
        <path
           d="m -467.54741,559.77371 24.03693,8.83899 -24.03693,8.83899 c 3.84009,-5.21854 3.81797,-12.3584 0,-17.67798 z"
           style="font-size:12px;fill:#717171;fill-opacity:1;fill-rule:evenodd;stroke:#000000;stroke-width:0.625;stroke-linejoin:round;stroke-opacity:0.443137"
           id="path6676"
           inkscape:connector-curvature="0" />
        <text
           id="text6680"
           y="620.93359"
           x="-465.00003"
           style="font-style:oblique;font-variant:normal;font-weight:normal;font-stretch:normal;line-height:0%;font-family:Arial;-inkscape-font-specification:'Arial Oblique';text-align:start;letter-spacing:0px;word-spacing:0px;writing-mode:lr-tb;text-anchor:start;fill:#717171;fill-opacity:1;stroke:none"
           xml:space="preserve"><tspan
             y="620.93359"
             x="-465.00003"
             id="tspan6682"
             sodipodi:role="line"
             style="font-size:40px;line-height:1">t</tspan></text>
      </g>
    </g>
  </g>
</svg>
