<?xml version="1.0" encoding="UTF-8" standalone="no"?>
<svg
   xmlns:dc="http://purl.org/dc/elements/1.1/"
   xmlns:cc="http://creativecommons.org/ns#"
   xmlns:rdf="http://www.w3.org/1999/02/22-rdf-syntax-ns#"
   xmlns:svg="http://www.w3.org/2000/svg"
   xmlns="http://www.w3.org/2000/svg"
   xmlns:xlink="http://www.w3.org/1999/xlink"
   xmlns:sodipodi="http://sodipodi.sourceforge.net/DTD/sodipodi-0.dtd"
   xmlns:inkscape="http://www.inkscape.org/namespaces/inkscape"
   width="615.34479"
   height="264.41342"
   id="svg3039"
   version="1.1"
   inkscape:version="1.0.1 (3bc2e813f5, 2020-09-07, custom)"
   sodipodi:docname="PIETA.svg">
  <sodipodi:namedview
     inkscape:document-units="mm"
     id="base"
     pagecolor="#ffffff"
     bordercolor="#666666"
     borderopacity="1.0"
     inkscape:pageopacity="0.0"
     inkscape:pageshadow="2"
     inkscape:zoom="0.98994949"
     inkscape:cx="271.2039"
     inkscape:cy="179.96441"
     inkscape:current-layer="layer1"
     showgrid="false"
     inkscape:window-width="1920"
     inkscape:window-height="1015"
     inkscape:window-x="0"
     inkscape:window-y="0"
     inkscape:window-maximized="1"
     inkscape:snap-global="false"
     units="mm"
     fit-margin-top="0"
     fit-margin-left="0"
     fit-margin-right="0"
     fit-margin-bottom="0"
     inkscape:document-rotation="0">
    <inkscape:grid
       id="grid5086"
       type="xygrid"
       empspacing="5"
       visible="true"
       enabled="true"
       snapvisiblegridlinesonly="true"
       originx="-104.52699"
       originy="-657.74981"
       spacingx="1"
       spacingy="1" />
  </sodipodi:namedview>
  <defs
     id="defs3">
    <marker
       inkscape:stockid="Arrow2Mstart"
       orient="auto"
       refY="0"
       refX="0"
       id="Arrow2Mstart"
       style="overflow:visible">
      <path
         id="path3811"
         style="fill-rule:evenodd;stroke-width:0.625;stroke-linejoin:round"
         d="M 8.7185878,4.0337352 -2.2072895,0.01601326 8.7185884,-4.0017078 c -1.7454984,2.3720609 -1.7354408,5.6174519 -6e-7,8.035443 z"
         transform="scale(0.6,0.6)"
         inkscape:connector-curvature="0" />
    </marker>
    <marker
       inkscape:stockid="Arrow2Mstart"
       orient="auto"
       refY="0"
       refX="0"
       id="Arrow2Mstart-2"
       style="overflow:visible">
      <path
         id="path3811-3"
         style="fill-rule:evenodd;stroke-width:0.625;stroke-linejoin:round"
         d="M 8.7185878,4.0337352 -2.2072895,0.01601326 8.7185884,-4.0017078 c -1.7454984,2.3720609 -1.7354408,5.6174519 -6e-7,8.035443 z"
         transform="scale(0.6,0.6)"
         inkscape:connector-curvature="0" />
    </marker>
    <marker
       inkscape:stockid="Arrow1Mend"
       orient="auto"
       refY="0"
       refX="0"
       id="Arrow1Mend"
       style="overflow:visible">
      <path
         id="path3796"
         d="M 0,0 5,-5 -12.5,0 5,5 0,0 z"
         style="fill-rule:evenodd;stroke:#000000;stroke-width:1pt"
         transform="matrix(-0.4,0,0,-0.4,-4,0)"
         inkscape:connector-curvature="0" />
    </marker>
    <marker
       inkscape:stockid="Arrow2Mstart"
       orient="auto"
       refY="0"
       refX="0"
       id="Arrow2Mstart-3"
       style="overflow:visible">
      <path
         id="path3811-0"
         style="fill-rule:evenodd;stroke-width:0.625;stroke-linejoin:round"
         d="M 8.7185878,4.0337352 -2.2072895,0.01601326 8.7185884,-4.0017078 c -1.7454984,2.3720609 -1.7354408,5.6174519 -6e-7,8.035443 z"
         transform="scale(0.6,0.6)"
         inkscape:connector-curvature="0" />
    </marker>
    <marker
       inkscape:stockid="Arrow1Mend"
       orient="auto"
       refY="0"
       refX="0"
       id="Arrow1Mend-3"
       style="overflow:visible">
      <path
         id="path3796-9"
         d="M 0,0 5,-5 -12.5,0 5,5 0,0 z"
         style="fill-rule:evenodd;stroke:#000000;stroke-width:1pt"
         transform="matrix(-0.4,0,0,-0.4,-4,0)"
         inkscape:connector-curvature="0" />
    </marker>
    <marker
       inkscape:stockid="Arrow2Mstart"
       orient="auto"
       refY="0"
       refX="0"
       id="Arrow2Mstart-0"
       style="overflow:visible">
      <path
         id="path3811-09"
         style="fill-rule:evenodd;stroke-width:0.625;stroke-linejoin:round"
         d="M 8.7185878,4.0337352 -2.2072895,0.01601326 8.7185884,-4.0017078 c -1.7454984,2.3720609 -1.7354408,5.6174519 -6e-7,8.035443 z"
         transform="scale(0.6,0.6)"
         inkscape:connector-curvature="0" />
    </marker>
    <marker
       inkscape:stockid="Arrow1Mend"
       orient="auto"
       refY="0"
       refX="0"
       id="Arrow1Mend-7"
       style="overflow:visible">
      <path
         id="path3796-2"
         d="M 0,0 5,-5 -12.5,0 5,5 0,0 z"
         style="fill-rule:evenodd;stroke:#000000;stroke-width:1pt"
         transform="matrix(-0.4,0,0,-0.4,-4,0)"
         inkscape:connector-curvature="0" />
    </marker>
  </defs>
  <metadata
     id="metadata4">
    <rdf:RDF>
      <cc:Work
         rdf:about="">
        <dc:format>image/svg+xml</dc:format>
        <dc:type
           rdf:resource="http://purl.org/dc/dcmitype/StillImage" />
        <dc:title></dc:title>
      </cc:Work>
    </rdf:RDF>
  </metadata>
  <g
     inkscape:label="Layer 1"
     inkscape:groupmode="layer"
     id="layer1"
     transform="translate(-104.52699,-130.19897)">
    <path
       style="fill:none;stroke:#000000;stroke-width:1.38007426;stroke-linecap:butt;stroke-linejoin:miter;stroke-miterlimit:4;stroke-opacity:1;stroke-dasharray:none;marker-end:none"
       d="m 142.4219,247.28153 572.63748,0 -1.5951,0"
       id="path2991"
       inkscape:connector-curvature="0" />
    <rect
       style="fill:#000000;stroke:none"
       id="rect2993"
       width="7.0866141"
       height="89.112473"
       x="141.73228"
       y="158.52019" />
    <rect
       style="fill:#000000;stroke:none"
       id="rect2993-9"
       width="14.173228"
       height="89.112473"
       x="255.1181"
       y="158.26767" />
    <use
       x="0"
       y="0"
       xlink:href="#rect2993-9"
       id="use3653"
       transform="translate(226.77166,0.7142856)"
       width="744.09448"
       height="1052.3622" />
    <path
       inkscape:connector-curvature="0"
       style="fill:none;stroke:#000000;stroke-width:0.43584982px;stroke-linecap:butt;stroke-linejoin:miter;stroke-opacity:1"
       d="m 375.92309,210.99938 c 0.74943,22.20811 1.06702,66.77148 2.2483,66.62435 1.14831,0.22177 1.0253,-48.94568 1.94171,-49.07916 0.78509,0.27541 1.60106,37.68609 2.24829,37.69848 0.56994,0.0668 1.09009,-27.10812 1.94172,-27.50328 0.55508,0.5831 0.96275,17.2732 1.43073,17.54519 0.42149,-0.0448 1.02366,-13.74175 1.53293,-13.51455 0.34065,0.0449 0.6813,8.78962 1.02195,8.7726 0.39709,0.52382 1.07081,-6.81765 1.43073,-6.87581 0.30206,0.1664 0.26368,3.8475 0.61318,4.03065 0.20939,-0.14185 0.9058,-3.35091 1.12415,-3.31936 0.26301,0.0962 0.52683,2.97721 0.81756,2.84516 0.37389,-0.0666 0.5577,-1.06975 0.81756,-1.65968"
       id="path4333"
       sodipodi:nodetypes="ccccccccccccc" />
    <path
       inkscape:connector-curvature="0"
       style="fill:none;stroke:#000000;stroke-width:0.43584982px;stroke-linecap:butt;stroke-linejoin:miter;stroke-opacity:1"
       d="m 375.42735,210.99939 c -0.74943,22.20811 -1.06702,66.77148 -2.2483,66.62435 -1.14831,0.22177 -1.0253,-48.94568 -1.94171,-49.07916 -0.78509,0.27541 -1.60106,37.68609 -2.24829,37.69848 -0.56994,0.0668 -1.09009,-27.10813 -1.94172,-27.50328 -0.55508,0.5831 -0.96275,17.2732 -1.43073,17.54519 -0.42149,-0.0448 -1.02366,-13.74175 -1.53293,-13.51455 -0.34065,0.0449 -0.6813,8.78962 -1.02195,8.7726 -0.39709,0.52381 -1.07081,-6.81765 -1.43073,-6.87581 -0.30206,0.1664 -0.26368,3.8475 -0.61318,4.03065 -0.20939,-0.14185 -0.9058,-3.35091 -1.12415,-3.31936 -0.26301,0.0962 -0.52683,2.9772 -0.81756,2.84516 -0.37389,-0.0667 -0.5577,-1.06975 -0.81756,-1.65968"
       id="path4333-9"
       sodipodi:nodetypes="ccccccccccccc" />
    <path
       inkscape:connector-curvature="0"
       style="fill:none;stroke:#000000;stroke-width:0.43584982px;stroke-linecap:butt;stroke-linejoin:miter;stroke-opacity:1"
       d="m 614.66572,211.12193 c 0.74943,22.20811 1.06702,66.77148 2.2483,66.62435 1.14831,0.22177 1.0253,-48.94568 1.94171,-49.07916 0.78509,0.27541 1.60106,37.68609 2.24829,37.69848 0.56994,0.0668 1.09009,-27.10812 1.94172,-27.50328 0.55508,0.5831 0.96275,17.2732 1.43073,17.54519 0.42149,-0.0448 1.02366,-13.74175 1.53293,-13.51455 0.34065,0.0449 0.6813,8.78962 1.02195,8.7726 0.39709,0.52382 1.07081,-6.81765 1.43073,-6.87581 0.30206,0.1664 0.26368,3.8475 0.61318,4.03065 0.20939,-0.14185 0.9058,-3.35091 1.12415,-3.31936 0.26301,0.0962 0.52683,2.97721 0.81756,2.84516 0.37389,-0.0666 0.5577,-1.06975 0.81756,-1.65968"
       id="path4333-99"
       sodipodi:nodetypes="ccccccccccccc" />
    <path
       inkscape:connector-curvature="0"
       style="fill:none;stroke:#000000;stroke-width:0.43584982px;stroke-linecap:butt;stroke-linejoin:miter;stroke-opacity:1"
       d="m 614.16998,211.12194 c -0.74943,22.20811 -1.06702,66.77148 -2.2483,66.62435 -1.14831,0.22177 -1.0253,-48.94568 -1.94171,-49.07916 -0.78509,0.27541 -1.60106,37.68609 -2.24829,37.69848 -0.56994,0.0668 -1.09009,-27.10813 -1.94172,-27.50328 -0.55508,0.5831 -0.96275,17.2732 -1.43073,17.54519 -0.42149,-0.0448 -1.02366,-13.74175 -1.53293,-13.51455 -0.34065,0.0449 -0.6813,8.78962 -1.02195,8.7726 -0.39709,0.52381 -1.07081,-6.81765 -1.43073,-6.87581 -0.30206,0.1664 -0.26368,3.8475 -0.61318,4.03065 -0.20939,-0.14185 -0.9058,-3.35091 -1.12415,-3.31936 -0.26301,0.0962 -0.52683,2.9772 -0.81756,2.84516 -0.37389,-0.0667 -0.5577,-1.06975 -0.81756,-1.65968"
       id="path4333-9-0"
       sodipodi:nodetypes="ccccccccccccc" />
    <path
       style="fill:none;stroke:#000000;stroke-width:0.72617543;stroke-linecap:butt;stroke-linejoin:miter;stroke-miterlimit:4;stroke-opacity:1;stroke-dasharray:none;marker-start:url(#Arrow2Mstart);marker-end:url(#Arrow1Mend)"
       d="m 149.12353,292.78715 111.23067,0"
       id="path4680"
       inkscape:connector-curvature="0" />
    <path
       style="fill:none;stroke:#000000;stroke-width:0.7285893;stroke-linecap:butt;stroke-linejoin:miter;stroke-miterlimit:4;stroke-opacity:1;stroke-dasharray:none;marker-start:url(#Arrow2Mstart);marker-end:url(#Arrow1Mend)"
       d="m 263.03266,292.82615 224.43233,0"
       id="path4680-4"
       inkscape:connector-curvature="0" />
    <use
       x="0"
       y="0"
       xlink:href="#path4680-4"
       id="use4757"
       transform="translate(227.02031,-0.00615731)"
       width="744.09448"
       height="1052.3622" />
    <g
       transform="matrix(0.42848471,0,0,0.42848471,65.756496,154.93324)"
       id="g5457">
      <g
         style="font-style:normal;font-variant:normal;font-weight:normal;font-stretch:normal;letter-spacing:normal;word-spacing:normal;text-anchor:start;fill:none;stroke:#000000;stroke-linecap:butt;stroke-linejoin:miter;stroke-miterlimit:10.43299961;stroke-opacity:1;stroke-dasharray:none;stroke-dashoffset:0"
         id="g5459"
         transform="matrix(1.0629921,0,0,-1.0629921,-186.02362,789.27165)"
         xml:space="preserve"
         stroke-miterlimit="10.433"
         font-style="normal"
         font-variant="normal"
         font-weight="normal"
         font-stretch="normal"
         font-size-adjust="none"
         letter-spacing="normal"
         word-spacing="normal"><path
           style="fill:#000000;stroke-width:0"
           inkscape:connector-curvature="0"
           d="m 470.16,424.78 h 8.38 c 0.65,0 2.43,0 2.43,1.7 0,1.19 -1.04,1.19 -1.98,1.19 h -13.95 c -1,0 -2.94,0 -5.13,-2.35 -1.66,-1.78 -3.05,-4.17 -3.05,-4.48 0,-0.05 0,-0.48 0.6,-0.48 0.4,0 0.5,0.18 0.79,0.59 2.46,3.83 5.29,3.83 6.33,3.83 h 4.14 l -4.89,-15.99 c -0.19,-0.59 -0.48,-1.64 -0.48,-1.84 0,-0.55 0.34,-1.34 1.44,-1.34 1.64,0 1.89,1.39 2.04,2.14 z"
           id="path5461" /></g>
    </g>
    <path
       style="fill:none;stroke:#000000;stroke-width:0.35284513;stroke-linecap:butt;stroke-linejoin:miter;stroke-miterlimit:4;stroke-opacity:1;stroke-dasharray:none;marker-end:none"
       d="m 141.90905,323.96689 573.66221,0 -1.59795,0"
       id="path2991-1"
       inkscape:connector-curvature="0" />
    <g
       transform="matrix(0.24919954,0,0,0.24919954,44.562499,237.52407)"
       id="g6195">
      <g
         style="font-style:normal;font-variant:normal;font-weight:normal;font-stretch:normal;letter-spacing:normal;word-spacing:normal;text-anchor:start;fill:none;stroke:#000000;stroke-linecap:butt;stroke-linejoin:miter;stroke-miterlimit:10.43299961;stroke-opacity:1;stroke-dasharray:none;stroke-dashoffset:0"
         id="g6197"
         transform="matrix(1.0629921,0,0,-1.0629921,-186.02362,789.27165)"
         xml:space="preserve"
         stroke-miterlimit="10.433"
         font-style="normal"
         font-variant="normal"
         font-weight="normal"
         font-stretch="normal"
         font-size-adjust="none"
         letter-spacing="normal"
         word-spacing="normal"><path
           style="fill:#000000;stroke-width:0"
           inkscape:connector-curvature="0"
           d="m 475.89,417.65 h 13.91 c 0.69,0 1.64,0 1.64,1 0,1 -0.95,1 -1.64,1 h -13.91 v 13.96 c 0,0.68 0,1.64 -1,1.64 -0.98,0 -0.98,-0.96 -0.98,-1.64 v -13.96 h -13.95 c -0.71,0 -1.64,0 -1.64,-1 0,-1 0.93,-1 1.64,-1 h 13.95 v -13.94 c 0,-0.7 0,-1.65 0.98,-1.65 1,0 1,0.95 1,1.65 z"
           id="path6199" /><path
           style="fill:#000000;stroke-width:0"
           inkscape:connector-curvature="0"
           d="m 508.92,438.09 0,0.05 0,0.06 0,0.05 0,0.05 0,0.05 0,0.05 0,0.04 0,0.05 -0.01,0.04 0,0.04 0,0.04 0,0.04 0,0.04 0,0.03 -0.01,0.04 0,0.03 -0.01,0.07 -0.01,0.06 -0.01,0.05 -0.01,0.05 -0.02,0.05 -0.02,0.04 -0.02,0.04 -0.02,0.03 -0.03,0.03 -0.04,0.03 -0.03,0.03 -0.04,0.02 -0.04,0.02 -0.03,0.01 -0.02,0.01 -0.03,0 -0.03,0.01 -0.02,0.01 -0.03,0 -0.03,0.01 -0.04,0 -0.03,0.01 -0.03,0 -0.04,0 -0.04,0.01 -0.04,0 -0.04,0 -0.04,0 -0.04,0 -0.05,0 -0.04,0.01 -0.05,0 -0.05,0 -0.05,0 -0.05,0 c -3.1,-3.19 -7.47,-3.19 -9.07,-3.19 v -1.55 c 1,0 3.94,0 6.52,1.3 v -25.81 c 0,-1.8 -0.14,-2.39 -4.62,-2.39 h -1.6 v -1.55 c 1.75,0.16 6.08,0.16 8.06,0.16 2,0 6.33,0 8.08,-0.16 v 1.55 h -1.59 c -4.49,0 -4.64,0.54 -4.64,2.39 z"
           id="path6201" /></g>
    </g>
    <g
       transform="matrix(0.23600979,0,0,0.23600979,48.464263,298.98222)"
       id="g6295">
      <g
         style="font-style:normal;font-variant:normal;font-weight:normal;font-stretch:normal;letter-spacing:normal;word-spacing:normal;text-anchor:start;fill:none;stroke:#000000;stroke-linecap:butt;stroke-linejoin:miter;stroke-miterlimit:10.43299961;stroke-opacity:1;stroke-dasharray:none;stroke-dashoffset:0"
         word-spacing="normal"
         letter-spacing="normal"
         font-size-adjust="none"
         font-stretch="normal"
         font-weight="normal"
         font-variant="normal"
         font-style="normal"
         stroke-miterlimit="10.433"
         xml:space="preserve"
         transform="matrix(1.0629921,0,0,-1.0629921,-186.02362,789.27165)"
         id="g6297"><path
           style="fill:#000000;stroke-width:0"
           inkscape:connector-curvature="0"
           id="path6299"
           d="m 488.35,417.65 0.16,0 0.16,0 0.15,0.01 0.08,0 0.08,0.01 0.07,0 0.08,0.01 0.07,0.01 0.07,0.01 0.07,0.02 0.07,0.02 0.07,0.02 0.06,0.02 0.06,0.02 0.06,0.03 0.05,0.03 0.06,0.04 0.05,0.03 0.04,0.05 0.04,0.04 0.04,0.05 0.02,0.03 0.02,0.03 0.01,0.03 0.02,0.03 0.01,0.03 0.02,0.03 0.01,0.04 0.01,0.03 0.01,0.04 0,0.04 0.01,0.04 0.01,0.04 0,0.04 0.01,0.04 0,0.05 0,0.04 c 0,1 -0.91,1 -1.75,1 h -26.96 c -0.84,0 -1.73,0 -1.73,-1 0,-1 0.89,-1 1.73,-1 z" /><path
           style="fill:#000000;stroke-width:0"
           inkscape:connector-curvature="0"
           id="path6301"
           d="m 508.92,438.09 0,0.05 0,0.06 0,0.05 0,0.05 0,0.05 0,0.05 0,0.04 0,0.05 -0.01,0.04 0,0.04 0,0.04 0,0.04 0,0.04 0,0.03 -0.01,0.04 0,0.03 -0.01,0.07 -0.01,0.06 -0.01,0.05 -0.01,0.05 -0.02,0.05 -0.02,0.04 -0.02,0.04 -0.02,0.03 -0.03,0.03 -0.04,0.03 -0.03,0.03 -0.04,0.02 -0.04,0.02 -0.03,0.01 -0.02,0.01 -0.03,0 -0.03,0.01 -0.02,0.01 -0.03,0 -0.03,0.01 -0.04,0 -0.03,0.01 -0.03,0 -0.04,0 -0.04,0.01 -0.04,0 -0.04,0 -0.04,0 -0.04,0 -0.05,0 -0.04,0.01 -0.05,0 -0.05,0 -0.05,0 -0.05,0 c -3.1,-3.19 -7.47,-3.19 -9.07,-3.19 v -1.55 c 1,0 3.94,0 6.52,1.3 v -25.81 c 0,-1.8 -0.14,-2.39 -4.62,-2.39 h -1.6 v -1.55 c 1.75,0.16 6.08,0.16 8.06,0.16 2,0 6.33,0 8.08,-0.16 v 1.55 h -1.59 c -4.49,0 -4.64,0.54 -4.64,2.39 z" /></g>
    </g>
    <g
       transform="matrix(0.26485404,0,0,0.26485404,48.215329,261.69535)"
       id="g6403">
      <g
         style="font-style:normal;font-variant:normal;font-weight:normal;font-stretch:normal;letter-spacing:normal;word-spacing:normal;text-anchor:start;fill:none;stroke:#000000;stroke-linecap:butt;stroke-linejoin:miter;stroke-miterlimit:10.43299961;stroke-opacity:1;stroke-dasharray:none;stroke-dashoffset:0"
         id="g6405"
         transform="matrix(1.0629921,0,0,-1.0629921,-186.02362,789.27165)"
         xml:space="preserve"
         stroke-miterlimit="10.433"
         font-style="normal"
         font-variant="normal"
         font-weight="normal"
         font-stretch="normal"
         font-size-adjust="none"
         letter-spacing="normal"
         word-spacing="normal"><path
           style="fill:#000000;stroke-width:0"
           inkscape:connector-curvature="0"
           d="m 478.44,422.14 0,0.74 -0.01,0.75 -0.02,0.75 -0.04,0.74 -0.04,0.75 -0.06,0.74 -0.08,0.74 -0.09,0.73 -0.12,0.73 -0.14,0.73 -0.16,0.72 -0.19,0.72 -0.21,0.72 -0.25,0.7 -0.28,0.7 -0.15,0.35 -0.16,0.34 c -2.28,4.8 -6.37,5.6 -8.47,5.6 -2.98,0 -6.62,-1.3 -8.67,-5.94 -1.59,-3.44 -1.84,-7.33 -1.84,-11.31 0,-3.74 0.2,-8.22 2.25,-12 2.14,-4.03 5.78,-5.03 8.22,-5.03 v 1.09 c -1.94,0 -4.89,1.25 -5.79,6.03 -0.54,2.98 -0.54,7.56 -0.54,10.52 0,3.18 0,6.46 0.4,9.15 0.94,5.94 4.68,6.38 5.93,6.38 1.64,0 4.93,-0.89 5.87,-5.83 0.5,-2.78 0.5,-6.58 0.5,-9.7 0,-3.75 0,-7.13 -0.55,-10.32 -0.75,-4.73 -3.59,-6.23 -5.82,-6.23 h 0 v -1.09 c 2.68,0 6.46,1.04 8.67,5.78 1.59,3.43 1.84,7.31 1.84,11.25 z"
           id="path6407" /></g>
    </g>
    <g
       id="g6600"
       transform="matrix(0.39825092,0,0,0.39825092,-13.531281,210.75074)">
      <g
         word-spacing="normal"
         letter-spacing="normal"
         font-size-adjust="none"
         font-stretch="normal"
         font-weight="normal"
         font-variant="normal"
         font-style="normal"
         stroke-miterlimit="10.433"
         xml:space="preserve"
         transform="matrix(1.0629921,0,0,-1.0629921,-186.02362,789.27165)"
         id="g6602"
         style="font-style:normal;font-variant:normal;font-weight:normal;font-stretch:normal;letter-spacing:normal;word-spacing:normal;text-anchor:start;fill:none;stroke:#000000;stroke-linecap:butt;stroke-linejoin:miter;stroke-miterlimit:10.43299961;stroke-opacity:1;stroke-dasharray:none;stroke-dashoffset:0"><path
           id="path6604"
           d="m 457.75,400.12 -0.03,-0.15 -0.04,-0.15 -0.03,-0.14 -0.03,-0.13 -0.04,-0.13 -0.03,-0.11 -0.04,-0.12 -0.03,-0.1 -0.04,-0.1 -0.04,-0.09 -0.04,-0.09 -0.05,-0.08 -0.05,-0.07 -0.05,-0.07 -0.06,-0.07 -0.06,-0.06 -0.07,-0.05 -0.07,-0.05 -0.08,-0.04 -0.09,-0.04 -0.09,-0.04 -0.1,-0.03 -0.11,-0.03 -0.12,-0.02 -0.13,-0.02 -0.06,-0.01 -0.07,-0.01 -0.07,-0.01 -0.08,-0.01 -0.07,0 -0.08,-0.01 -0.08,0 -0.09,-0.01 -0.08,0 -0.09,0 -0.1,0 -0.09,0 -0.1,-0.01 -0.1,0 c -0.6,0 -1.14,0 -1.14,-0.93 0,-0.41 0.25,-0.61 0.64,-0.61 1.36,0 2.79,0.15 4.18,0.15 1.64,0 3.35,-0.15 4.94,-0.15 0.25,0 0.89,0 0.89,1 0,0.54 -0.5,0.54 -1.19,0.54 -2.5,0 -2.5,0.36 -2.5,0.8 0,0.61 2.1,8.72 2.46,9.97 0.64,-1.44 2.03,-3.19 4.58,-3.19 l -0.05,1.1 c -3.3,0 -3.94,4.14 -3.94,4.43 0,0.1 0,0.21 0.14,0.8 l 2.46,9.77 c 0.34,1.34 1.68,2.73 2.57,3.48 1.75,1.55 3.21,1.89 4.05,1.89 1.98,0 3.19,-1.73 3.19,-4.69 0,-2.93 -1.64,-8.65 -2.55,-10.56 -1.69,-3.48 -4.08,-5.12 -5.92,-5.12 l 0.05,-1.1 c 5.78,0 12,7.27 12,14.6 0,4.68 -2.83,7.96 -6.63,7.96 -2.48,0 -4.87,-1.78 -6.51,-3.73 -0.5,2.69 -2.65,3.73 -4.49,3.73 -2.3,0 -3.25,-1.93 -3.69,-2.82 -0.9,-1.71 -1.54,-4.69 -1.54,-4.85 0,-0.5 0.5,-0.5 0.59,-0.5 0.5,0 0.55,0.07 0.84,1.16 0.86,3.53 1.85,5.92 3.64,5.92 0.85,0 1.55,-0.39 1.55,-2.28 0,-1.16 -0.15,-1.7 -0.34,-2.55 z"
           inkscape:connector-curvature="0"
           style="fill:#000000;stroke-width:0" /></g>
    </g>
    <use
       x="0"
       y="0"
       xlink:href="#path2991-1"
       id="use4933"
       transform="translate(3.6169594e-6,28.346461)"
       width="744.09448"
       height="1052.3622" />
    <use
       x="0"
       y="0"
       xlink:href="#use4933"
       id="use4935"
       transform="translate(0,28.346457)"
       width="744.09448"
       height="1052.3622" />
    <g
       transform="matrix(1,0,0,4.911058,-69.700525,-1426.334)"
       id="g5000">
      <g
         style="font-style:normal;font-variant:normal;font-weight:normal;font-stretch:normal;letter-spacing:normal;word-spacing:normal;text-anchor:start;fill:none;stroke:#000000;stroke-linecap:butt;stroke-linejoin:miter;stroke-miterlimit:10.43299961;stroke-opacity:1;stroke-dasharray:none;stroke-dashoffset:0"
         id="content"
         transform="matrix(1.0629921,0,0,-1.0629921,-186.02362,789.27165)"
         xml:space="preserve"
         stroke-miterlimit="10.433"
         font-style="normal"
         font-variant="normal"
         font-weight="normal"
         font-stretch="normal"
         font-size-adjust="none"
         letter-spacing="normal"
         word-spacing="normal"><path
           style="fill:#000000;stroke-width:0"
           inkscape:connector-curvature="0"
           d="m 469.61,436.93 0.01,0.19 0.01,0.2 0.02,0.2 0.03,0.21 0.04,0.21 0.05,0.22 0.06,0.21 0.07,0.22 0.08,0.22 0.1,0.22 0.11,0.22 0.12,0.22 0.14,0.22 0.15,0.21 0.16,0.21 0.18,0.21 0.2,0.2 0.21,0.2 0.23,0.19 0.25,0.18 0.26,0.18 0.29,0.16 0.3,0.16 0.32,0.15 0.34,0.13 0.37,0.13 0.38,0.11 0.41,0.1 0.21,0.05 0.22,0.04 0.22,0.03 0.23,0.04 0.23,0.03 0.24,0.02 0.25,0.03 0.25,0.01 c 0.25,0.05 0.45,0.25 0.45,0.55 0,0.55 -0.41,0.55 -0.95,0.55 -4.99,0 -9.52,-2.53 -9.56,-6.22 v -11.36 c 0,-1.94 0,-3.55 -2,-5.19 -1.74,-1.43 -3.65,-1.54 -4.74,-1.59 -0.25,-0.05 -0.44,-0.25 -0.44,-0.55 0,-0.5 0.3,-0.5 0.8,-0.54 3.28,-0.21 5.67,-1.99 6.22,-4.44 0.16,-0.55 0.16,-0.64 0.16,-2.44 v -9.86 c 0,-2.09 0,-3.69 2.39,-5.58 1.93,-1.5 5.23,-2.04 7.17,-2.04 0.54,0 0.95,0 0.95,0.54 0,0.5 -0.31,0.5 -0.8,0.55 -3.14,0.2 -5.59,1.8 -6.23,4.33 -0.16,0.45 -0.16,0.54 -0.16,2.34 v 10.47 c 0,2.3 -0.39,3.14 -1.98,4.73 -1.05,1.05 -2.5,1.55 -3.89,1.94 4.09,1.14 5.87,3.44 5.87,6.33 z"
           id="path5003" /></g>
    </g>
    <use
       height="1052.3622"
       width="744.09448"
       transform="matrix(-1,0,0,1,952.12743,1.4387167e-8)"
       id="use5082"
       xlink:href="#g5000"
       y="0"
       x="0" />
    <path
       inkscape:connector-curvature="0"
       id="path5088"
       d="m 142.17897,352.29185 6.56599,-28.53681 106.31856,0.25253 13.63706,56.31601 212.88965,0 13.88959,-56.56854 219.20311,0.25253"
       style="fill:none;stroke:#000000;stroke-width:1.41732287;stroke-linecap:butt;stroke-linejoin:miter;stroke-miterlimit:4;stroke-opacity:1;stroke-dasharray:none" />
    <path
       inkscape:connector-curvature="0"
       id="path5088-0"
       d="m 142.06691,351.85221 6.56599,28.53681 106.31856,-0.25253 13.63706,-56.31601 212.88965,0 13.88959,56.56854 219.20311,-0.25253"
       style="fill:none;stroke:#000000;stroke-width:1.41732287;stroke-linecap:butt;stroke-linejoin:miter;stroke-miterlimit:4;stroke-opacity:1;stroke-dasharray:4.25196862, 4.25196862;stroke-dashoffset:0" />
    <g
       transform="translate(263.85902,-5.2661336)"
       id="g6347">
      <g
         style="font-style:normal;font-variant:normal;font-weight:normal;font-stretch:normal;letter-spacing:normal;word-spacing:normal;text-anchor:start;fill:none;stroke:#000000;stroke-linecap:butt;stroke-linejoin:miter;stroke-miterlimit:10.43299961;stroke-opacity:1;stroke-dasharray:none;stroke-dashoffset:0"
         id="g6349"
         transform="matrix(0.36623867,0,0,-0.36623867,-64.091768,461.50859)"
         xml:space="preserve"
         stroke-miterlimit="10.433"
         font-style="normal"
         font-variant="normal"
         font-weight="normal"
         font-stretch="normal"
         font-size-adjust="none"
         letter-spacing="normal"
         word-spacing="normal"><path
           style="fill:#000000;stroke-width:0"
           inkscape:connector-curvature="0"
           d="m 461.85,410.04 5.28,5.13 c 7.76,6.87 10.76,9.56 10.76,14.54 0,5.69 -4.48,9.68 -10.56,9.68 -5.64,0 -9.33,-4.6 -9.33,-9.03 0,-2.79 2.5,-2.79 2.64,-2.79 0.86,0 2.6,0.6 2.6,2.64 0,1.3 -0.89,2.6 -2.64,2.6 -0.39,0 -0.5,0 -0.64,-0.05 1.14,3.24 3.83,5.08 6.72,5.08 4.53,0 6.68,-4.05 6.68,-8.13 0,-3.98 -2.5,-7.92 -5.23,-11.01 l -9.56,-10.66 C 458,407.5 458,407.4 458,406.2 h 18.49 l 1.4,8.67 h -1.25 c -0.25,-1.5 -0.59,-3.69 -1.09,-4.44 -0.36,-0.39 -3.64,-0.39 -4.73,-0.39 z"
           id="path6351" /><path
           style="fill:#000000;stroke-width:0"
           inkscape:connector-curvature="0"
           d="m 495.12,424.78 h 8.37 c 0.66,0 2.44,0 2.44,1.7 0,1.19 -1.05,1.19 -1.98,1.19 h -13.96 c -1,0 -2.94,0 -5.12,-2.35 -1.66,-1.78 -3.05,-4.17 -3.05,-4.48 0,-0.05 0,-0.48 0.59,-0.48 0.41,0 0.5,0.18 0.8,0.59 2.45,3.83 5.28,3.83 6.33,3.83 h 4.14 l -4.89,-15.99 c -0.19,-0.59 -0.49,-1.64 -0.49,-1.84 0,-0.55 0.35,-1.34 1.44,-1.34 1.64,0 1.89,1.39 2.05,2.14 z"
           id="path6353" /></g>
    </g>
    <use
       height="256.36707"
       width="615.34479"
       transform="translate(243.57143,0.71428362)"
       id="use6427"
       xlink:href="#g6347"
       y="0"
       x="0" />
    <g
       id="g3127"
       transform="matrix(1.3148461,0,0,1.3148461,-3.3017107,-264.52218)">
      <g
         word-spacing="normal"
         letter-spacing="normal"
         font-size-adjust="none"
         font-stretch="normal"
         font-weight="normal"
         font-variant="normal"
         font-style="normal"
         stroke-miterlimit="10.433"
         xml:space="preserve"
         transform="matrix(0.36623867,0,0,-0.36623867,-64.091768,461.50859)"
         id="g3129"
         style="font-style:normal;font-variant:normal;font-weight:normal;font-stretch:normal;letter-spacing:normal;word-spacing:normal;text-anchor:start;fill:none;stroke:#000000;stroke-linecap:butt;stroke-linejoin:miter;stroke-miterlimit:10.43299961;stroke-opacity:1;stroke-dasharray:none;stroke-dashoffset:0"><path
           id="path3131"
           d="m 473.8,422.04 v -1.59 c 0,-11.66 -5.17,-13.95 -8.06,-13.95 -0.86,0 -3.55,0.11 -4.89,1.79 2.19,0 2.59,1.44 2.59,2.3 0,1.53 -1.2,2.28 -2.3,2.28 -0.79,0 -2.28,-0.44 -2.28,-2.39 0,-3.33 2.69,-5.37 6.93,-5.37 6.42,0 12.5,6.76 12.5,17.48 0,13.41 -5.74,16.8 -10.16,16.8 -2.75,0 -5.19,-0.91 -7.33,-3.14 -2.05,-2.25 -3.19,-4.35 -3.19,-8.08 0,-6.22 4.39,-11.11 9.97,-11.11 l 0.05,1.14 c -0.8,0 -3.09,0 -4.64,3.14 -0.89,1.84 -0.89,4.34 -0.89,6.78 0,2.69 0,5.03 1.04,6.88 1.35,2.48 3.24,3.14 4.99,3.14 2.28,0 3.94,-1.71 4.78,-3.94 0.59,-1.59 0.8,-4.74 0.8,-7.03 0,-4.13 -1.71,-8.97 -6.08,-8.97 h 0 l -0.05,-1.14 c 3.03,0 5.08,2.09 6.22,4.98 z"
           inkscape:connector-curvature="0"
           style="fill:#000000;stroke-width:0" /><path
           id="path3133"
           d="m 503.4,422.14 -0.01,0.74 -0.01,0.75 -0.02,0.75 -0.03,0.74 -0.04,0.75 -0.06,0.74 -0.08,0.74 -0.1,0.73 -0.11,0.73 -0.14,0.73 -0.16,0.72 -0.19,0.72 -0.22,0.72 -0.24,0.7 -0.28,0.7 -0.15,0.35 -0.16,0.34 c -2.28,4.8 -6.38,5.6 -8.47,5.6 -2.98,0 -6.63,-1.3 -8.67,-5.94 -1.6,-3.44 -1.85,-7.33 -1.85,-11.31 0,-3.74 0.21,-8.22 2.25,-12 2.14,-4.03 5.79,-5.03 8.22,-5.03 v 1.09 c -1.93,0 -4.89,1.25 -5.78,6.03 -0.55,2.98 -0.55,7.56 -0.55,10.52 0,3.18 0,6.46 0.41,9.15 0.94,5.94 4.67,6.38 5.92,6.38 1.64,0 4.94,-0.89 5.88,-5.83 0.5,-2.78 0.5,-6.58 0.5,-9.7 0,-3.75 0,-7.13 -0.55,-10.32 -0.75,-4.73 -3.59,-6.23 -5.83,-6.23 h 0 v -1.09 c 2.69,0 6.47,1.04 8.67,5.78 1.6,3.43 1.85,7.31 1.85,11.25 z"
           inkscape:connector-curvature="0"
           style="fill:#000000;stroke-width:0" /><path
           id="path3135"
           d="m 523.11,432.92 -0.01,0.39 -0.03,0.38 -0.04,0.38 -0.07,0.38 -0.09,0.36 -0.1,0.36 -0.12,0.35 -0.13,0.34 -0.15,0.33 -0.17,0.33 -0.18,0.31 -0.2,0.3 -0.21,0.3 -0.22,0.28 -0.24,0.27 -0.25,0.26 -0.26,0.24 -0.27,0.24 -0.28,0.22 -0.3,0.2 -0.3,0.19 -0.32,0.18 -0.32,0.17 -0.33,0.14 -0.34,0.14 -0.35,0.11 -0.35,0.1 -0.36,0.08 -0.37,0.07 -0.38,0.04 -0.37,0.03 -0.39,0.01 v -1.7 c 3.29,0 5.79,-2.66 5.79,-5.75 0,-3.25 -2.58,-5.78 -5.79,-5.78 h 0 c -3.26,0 -5.78,2.64 -5.78,5.75 0,3.23 2.58,5.78 5.78,5.78 v 1.7 c -4.17,0 -7.48,-3.37 -7.48,-7.45 0,-4.22 3.37,-7.5 7.48,-7.5 4.19,0 7.5,3.39 7.5,7.47 z"
           inkscape:connector-curvature="0"
           style="fill:#000000;stroke-width:0" /><path
           id="path3137"
           d="m 514.11,397.53 -0.03,-0.11 -0.04,-0.12 -0.04,-0.12 -0.05,-0.12 -0.06,-0.13 -0.05,-0.12 -0.07,-0.13 -0.06,-0.13 -0.07,-0.12 -0.08,-0.13 -0.08,-0.13 -0.09,-0.13 -0.08,-0.12 -0.1,-0.13 -0.09,-0.12 -0.11,-0.11 -0.1,-0.12 -0.11,-0.11 -0.12,-0.1 -0.11,-0.11 -0.13,-0.09 -0.12,-0.09 -0.13,-0.08 -0.14,-0.08 -0.13,-0.07 -0.14,-0.06 -0.15,-0.06 -0.15,-0.04 -0.15,-0.04 -0.16,-0.02 -0.16,-0.02 -0.16,-0.01 c -0.11,0 -1.16,0 -1.89,0.49 1.43,0.45 1.53,1.72 1.53,1.92 0,0.77 -0.6,1.3 -1.39,1.3 -0.97,0 -1.99,-0.85 -1.99,-2.14 0,-1.74 1.96,-2.53 3.66,-2.53 1.61,0 3.03,1 3.91,2.46 0.82,-1.84 2.75,-2.46 4.14,-2.46 4.01,0 6.14,4.34 6.14,5.32 0,0.46 -0.46,0.46 -0.56,0.46 -0.49,0 -0.52,-0.17 -0.66,-0.6 -0.74,-2.4 -2.83,-4.22 -4.78,-4.22 -1.39,0 -2.13,0.94 -2.13,2.27 0,0.91 0.85,4.08 1.82,7.95 0.7,2.68 2.26,3.55 3.42,3.55 0.06,0 1.14,0 1.87,-0.48 -1.11,-0.32 -1.53,-1.3 -1.53,-1.93 0,-0.76 0.59,-1.28 1.39,-1.28 0.81,0 1.95,0.66 1.95,2.13 0,1.95 -2.23,2.53 -3.62,2.53 -1.73,0 -3.14,-1.14 -3.91,-2.47 -0.62,1.44 -2.22,2.47 -4.17,2.47 -3.91,0 -6.14,-4.28 -6.14,-5.33 0,-0.45 0.5,-0.45 0.59,-0.45 0.46,0 0.49,0.14 0.68,0.59 0.86,2.72 3.06,4.22 4.76,4.22 1.16,0 2.09,-0.62 2.09,-2.3 0,-0.7 -0.42,-2.43 -0.73,-3.62 z"
           inkscape:connector-curvature="0"
           style="fill:#000000;stroke-width:0" /></g>
    </g>
    <g
       transform="matrix(1.318816,0,0,1.318816,332.44157,-265.714)"
       id="g3291">
      <g
         style="font-style:normal;font-variant:normal;font-weight:normal;font-stretch:normal;letter-spacing:normal;word-spacing:normal;text-anchor:start;fill:none;stroke:#000000;stroke-linecap:butt;stroke-linejoin:miter;stroke-miterlimit:10.43299961;stroke-opacity:1;stroke-dasharray:none;stroke-dashoffset:0"
         id="g3293"
         transform="matrix(0.36623867,0,0,-0.36623867,-64.091768,461.50859)"
         xml:space="preserve"
         stroke-miterlimit="10.433"
         font-style="normal"
         font-variant="normal"
         font-weight="normal"
         font-stretch="normal"
         font-size-adjust="none"
         letter-spacing="normal"
         word-spacing="normal"><path
           style="fill:#000000;stroke-width:0"
           inkscape:connector-curvature="0"
           d="m 470.16,438.09 0,0.05 0,0.06 0,0.05 0,0.05 0,0.05 0,0.05 0,0.04 0,0.05 0,0.04 0,0.04 -0.01,0.04 0,0.04 0,0.04 0,0.03 0,0.04 -0.01,0.03 -0.01,0.07 0,0.06 -0.02,0.05 -0.01,0.05 -0.02,0.05 -0.02,0.04 -0.02,0.04 -0.02,0.03 -0.03,0.03 -0.03,0.03 -0.04,0.03 -0.04,0.02 -0.04,0.02 -0.03,0.01 -0.02,0.01 -0.03,0 -0.02,0.01 -0.03,0.01 -0.03,0 -0.03,0.01 -0.03,0 -0.04,0.01 -0.03,0 -0.04,0 -0.03,0.01 -0.04,0 -0.04,0 -0.05,0 -0.04,0 -0.04,0 -0.05,0.01 -0.05,0 -0.05,0 -0.05,0 -0.05,0 c -3.09,-3.19 -7.47,-3.19 -9.06,-3.19 v -1.55 c 1,0 3.93,0 6.51,1.3 v -25.81 c 0,-1.8 -0.14,-2.39 -4.62,-2.39 h -1.6 v -1.55 c 1.75,0.16 6.08,0.16 8.07,0.16 2,0 6.32,0 8.07,-0.16 v 1.55 h -1.59 c -4.48,0 -4.64,0.54 -4.64,2.39 z"
           id="path3295" /><path
           style="fill:#000000;stroke-width:0"
           inkscape:connector-curvature="0"
           d="m 495.87,424.23 0.33,0.18 0.33,0.17 0.32,0.19 0.31,0.19 0.3,0.19 0.3,0.2 0.29,0.2 0.28,0.2 0.27,0.21 0.26,0.22 0.25,0.21 0.24,0.23 0.24,0.22 0.22,0.24 0.22,0.23 0.2,0.24 0.19,0.24 0.19,0.25 0.17,0.25 0.16,0.26 0.15,0.26 0.13,0.27 0.13,0.27 0.11,0.27 0.1,0.28 0.09,0.28 0.07,0.28 0.07,0.29 0.04,0.29 0.04,0.3 0.02,0.3 0.01,0.31 c 0,4.59 -4.44,7.44 -8.97,7.44 l -0.05,-1.25 c 3.64,0 6.83,-2.6 6.83,-6.19 0,-2.83 -1.95,-5.22 -4.94,-6.97 l -6.17,3.98 c -2.3,1.5 -2.5,3.19 -2.5,4.04 0,3.04 3.25,5.14 6.78,5.14 l 0.05,1.25 c -4.98,0 -9.02,-3.69 -9.02,-8.33 0,-0.89 0.1,-3.14 2.19,-5.49 0.55,-0.59 2.39,-1.84 3.64,-2.68 l 1.14,-0.75 6.14,-3.88 c 1.39,-0.95 3.74,-2.45 3.74,-5.48 0,-3.69 -3.74,-6.28 -7.83,-6.28 -4.28,0 -7.88,3.09 -7.88,7.21 0,2.9 1.6,6.08 5.83,8.43 h 0 l -1.14,0.75 c -2.89,-1.44 -7.17,-4.24 -7.17,-9.18 0,-5.28 5.08,-8.6 10.31,-8.6 5.63,0 10.36,4.14 10.36,9.46 0,1.79 -0.54,4.04 -2.44,6.13 -0.95,1.05 -1.75,1.55 -4.93,3.53 z"
           id="path3297" /><path
           style="fill:#000000;stroke-width:0"
           inkscape:connector-curvature="0"
           d="m 528.35,422.14 0,0.74 -0.01,0.75 -0.02,0.75 -0.03,0.74 -0.05,0.75 -0.06,0.74 -0.07,0.74 -0.1,0.73 -0.11,0.73 -0.14,0.73 -0.17,0.72 -0.18,0.72 -0.22,0.72 -0.25,0.7 -0.27,0.7 -0.16,0.35 -0.16,0.34 c -2.28,4.8 -6.37,5.6 -8.46,5.6 -2.99,0 -6.63,-1.3 -8.68,-5.94 -1.59,-3.44 -1.84,-7.33 -1.84,-11.31 0,-3.74 0.2,-8.22 2.25,-12 2.14,-4.03 5.78,-5.03 8.22,-5.03 v 1.09 c -1.94,0 -4.89,1.25 -5.78,6.03 -0.55,2.98 -0.55,7.56 -0.55,10.52 0,3.18 0,6.46 0.41,9.15 0.93,5.94 4.67,6.38 5.92,6.38 1.64,0 4.94,-0.89 5.88,-5.83 0.5,-2.78 0.5,-6.58 0.5,-9.7 0,-3.75 0,-7.13 -0.55,-10.32 -0.75,-4.73 -3.6,-6.23 -5.83,-6.23 h 0 v -1.09 c 2.69,0 6.47,1.04 8.67,5.78 1.59,3.43 1.84,7.31 1.84,11.25 z"
           id="path3299" /><path
           style="fill:#000000;stroke-width:0"
           inkscape:connector-curvature="0"
           d="m 548.07,432.92 -0.01,0.39 -0.03,0.38 -0.05,0.38 -0.06,0.38 -0.09,0.36 -0.1,0.36 -0.12,0.35 -0.13,0.34 -0.16,0.33 -0.16,0.33 -0.18,0.31 -0.2,0.3 -0.21,0.3 -0.22,0.28 -0.24,0.27 -0.25,0.26 -0.26,0.24 -0.27,0.24 -0.29,0.22 -0.29,0.2 -0.31,0.19 -0.31,0.18 -0.32,0.17 -0.33,0.14 -0.34,0.14 -0.35,0.11 -0.36,0.1 -0.36,0.08 -0.37,0.07 -0.37,0.04 -0.38,0.03 -0.38,0.01 v -1.7 c 3.28,0 5.78,-2.66 5.78,-5.75 0,-3.25 -2.58,-5.78 -5.78,-5.78 h 0 c -3.27,0 -5.78,2.64 -5.78,5.75 0,3.23 2.58,5.78 5.78,5.78 v 1.7 c -4.17,0 -7.48,-3.37 -7.48,-7.45 0,-4.22 3.37,-7.5 7.48,-7.5 4.19,0 7.5,3.39 7.5,7.47 z"
           id="path3301" /><path
           style="fill:#000000;stroke-width:0"
           inkscape:connector-curvature="0"
           d="m 549.77,406.98 0.01,0.02 0.01,0.02 0,0.03 0.01,0.02 0,0.02 0.01,0.02 0.01,0.03 0.01,0.04 0.01,0.03 0.01,0.03 0,0.03 0.01,0.03 0.01,0.03 0,0.02 0.01,0.03 0,0.02 0.01,0.02 0,0.02 0.01,0.02 0,0.02 0,0.02 0,0.02 0.01,0.02 0,0.03 0,0.03 0,0.04 0,0.03 0,0.02 0,0.02 0,0.02 0,0.02 c 0,0.68 -0.56,1.11 -1.15,1.11 -0.38,0 -1.05,-0.18 -1.42,-0.83 -0.11,-0.22 -0.39,-1.33 -0.57,-2.03 l -0.73,-2.89 c -0.2,-0.83 -1.28,-5.22 -1.39,-5.61 -0.03,0 -1.56,-3.04 -4.28,-3.04 -2.38,0 -2.38,2.27 -2.38,2.9 0,1.89 0.8,4.07 1.85,6.76 0.42,1.11 0.59,1.53 0.59,2.13 0,1.67 -1.42,2.95 -3.31,2.95 -3.52,0 -5.08,-4.74 -5.08,-5.33 0,-0.45 0.48,-0.45 0.59,-0.45 0.49,0 0.52,0.17 0.63,0.56 0.87,2.89 2.37,4.25 3.76,4.25 0.6,0 0.86,-0.39 0.86,-1.22 0,-0.8 -0.31,-1.56 -0.48,-2.01 -1.67,-4.25 -2.02,-5.55 -2.02,-7.08 0,-0.6 0,-2.24 1.36,-3.35 1.08,-0.9 2.55,-1.07 3.49,-1.07 1.39,0 2.64,0.51 3.79,1.56 -0.45,-1.92 -0.84,-3.38 -2.29,-5.13 -0.94,-1.07 -2.35,-2.22 -4.19,-2.22 -0.24,0 -1.88,0 -2.61,1.15 1.87,0.2 1.87,1.89 1.87,1.92 0,1.11 -1,1.31 -1.35,1.31 -0.86,0 -2.02,-0.69 -2.02,-2.3 0,-1.76 1.67,-3.06 4.14,-3.06 3.53,0 7.81,2.72 8.89,7.08 z"
           id="path3303" /></g>
    </g>
    <g
       id="g3315"
       transform="matrix(1.4015087,0,0,1.4015087,109.52576,-289.1112)">
      <g
         word-spacing="normal"
         letter-spacing="normal"
         font-size-adjust="none"
         font-stretch="normal"
         font-weight="normal"
         font-variant="normal"
         font-style="normal"
         stroke-miterlimit="10.433"
         xml:space="preserve"
         transform="matrix(0.36623867,0,0,-0.36623867,-64.091768,461.50859)"
         id="g3317"
         style="font-style:normal;font-variant:normal;font-weight:normal;font-stretch:normal;letter-spacing:normal;word-spacing:normal;text-anchor:start;fill:none;stroke:#000000;stroke-linecap:butt;stroke-linejoin:miter;stroke-miterlimit:10.43299961;stroke-opacity:1;stroke-dasharray:none;stroke-dashoffset:0"><path
           id="path3319"
           d="m 470.16,438.09 0,0.05 0,0.06 0,0.05 0,0.05 0,0.05 0,0.05 0,0.04 0,0.05 0,0.04 0,0.04 -0.01,0.04 0,0.04 0,0.04 0,0.03 0,0.04 -0.01,0.03 -0.01,0.07 0,0.06 -0.02,0.05 -0.01,0.05 -0.02,0.05 -0.02,0.04 -0.02,0.04 -0.02,0.03 -0.03,0.03 -0.03,0.03 -0.04,0.03 -0.04,0.02 -0.04,0.02 -0.03,0.01 -0.02,0.01 -0.03,0 -0.02,0.01 -0.03,0.01 -0.03,0 -0.03,0.01 -0.03,0 -0.04,0.01 -0.03,0 -0.04,0 -0.03,0.01 -0.04,0 -0.04,0 -0.05,0 -0.04,0 -0.04,0 -0.05,0.01 -0.05,0 -0.05,0 -0.05,0 -0.05,0 c -3.09,-3.19 -7.47,-3.19 -9.06,-3.19 v -1.55 c 1,0 3.93,0 6.51,1.3 v -25.81 c 0,-1.8 -0.14,-2.39 -4.62,-2.39 h -1.6 v -1.55 c 1.75,0.16 6.08,0.16 8.07,0.16 2,0 6.32,0 8.07,-0.16 v 1.55 h -1.59 c -4.48,0 -4.64,0.54 -4.64,2.39 z"
           inkscape:connector-curvature="0"
           style="fill:#000000;stroke-width:0" /><path
           id="path3321"
           d="m 495.87,424.23 0.33,0.18 0.33,0.17 0.32,0.19 0.31,0.19 0.3,0.19 0.3,0.2 0.29,0.2 0.28,0.2 0.27,0.21 0.26,0.22 0.25,0.21 0.24,0.23 0.24,0.22 0.22,0.24 0.22,0.23 0.2,0.24 0.19,0.24 0.19,0.25 0.17,0.25 0.16,0.26 0.15,0.26 0.13,0.27 0.13,0.27 0.11,0.27 0.1,0.28 0.09,0.28 0.07,0.28 0.07,0.29 0.04,0.29 0.04,0.3 0.02,0.3 0.01,0.31 c 0,4.59 -4.44,7.44 -8.97,7.44 l -0.05,-1.25 c 3.64,0 6.83,-2.6 6.83,-6.19 0,-2.83 -1.95,-5.22 -4.94,-6.97 l -6.17,3.98 c -2.3,1.5 -2.5,3.19 -2.5,4.04 0,3.04 3.25,5.14 6.78,5.14 l 0.05,1.25 c -4.98,0 -9.02,-3.69 -9.02,-8.33 0,-0.89 0.1,-3.14 2.19,-5.49 0.55,-0.59 2.39,-1.84 3.64,-2.68 l 1.14,-0.75 6.14,-3.88 c 1.39,-0.95 3.74,-2.45 3.74,-5.48 0,-3.69 -3.74,-6.28 -7.83,-6.28 -4.28,0 -7.88,3.09 -7.88,7.21 0,2.9 1.6,6.08 5.83,8.43 h 0 l -1.14,0.75 c -2.89,-1.44 -7.17,-4.24 -7.17,-9.18 0,-5.28 5.08,-8.6 10.31,-8.6 5.63,0 10.36,4.14 10.36,9.46 0,1.79 -0.54,4.04 -2.44,6.13 -0.95,1.05 -1.75,1.55 -4.93,3.53 z"
           inkscape:connector-curvature="0"
           style="fill:#000000;stroke-width:0" /><path
           id="path3323"
           d="m 528.35,422.14 0,0.74 -0.01,0.75 -0.02,0.75 -0.03,0.74 -0.05,0.75 -0.06,0.74 -0.07,0.74 -0.1,0.73 -0.11,0.73 -0.14,0.73 -0.17,0.72 -0.18,0.72 -0.22,0.72 -0.25,0.7 -0.27,0.7 -0.16,0.35 -0.16,0.34 c -2.28,4.8 -6.37,5.6 -8.46,5.6 -2.99,0 -6.63,-1.3 -8.68,-5.94 -1.59,-3.44 -1.84,-7.33 -1.84,-11.31 0,-3.74 0.2,-8.22 2.25,-12 2.14,-4.03 5.78,-5.03 8.22,-5.03 v 1.09 c -1.94,0 -4.89,1.25 -5.78,6.03 -0.55,2.98 -0.55,7.56 -0.55,10.52 0,3.18 0,6.46 0.41,9.15 0.93,5.94 4.67,6.38 5.92,6.38 1.64,0 4.94,-0.89 5.88,-5.83 0.5,-2.78 0.5,-6.58 0.5,-9.7 0,-3.75 0,-7.13 -0.55,-10.32 -0.75,-4.73 -3.6,-6.23 -5.83,-6.23 h 0 v -1.09 c 2.69,0 6.47,1.04 8.67,5.78 1.59,3.43 1.84,7.31 1.84,11.25 z"
           inkscape:connector-curvature="0"
           style="fill:#000000;stroke-width:0" /><path
           id="path3325"
           d="m 548.07,432.92 -0.01,0.39 -0.03,0.38 -0.05,0.38 -0.06,0.38 -0.09,0.36 -0.1,0.36 -0.12,0.35 -0.13,0.34 -0.16,0.33 -0.16,0.33 -0.18,0.31 -0.2,0.3 -0.21,0.3 -0.22,0.28 -0.24,0.27 -0.25,0.26 -0.26,0.24 -0.27,0.24 -0.29,0.22 -0.29,0.2 -0.31,0.19 -0.31,0.18 -0.32,0.17 -0.33,0.14 -0.34,0.14 -0.35,0.11 -0.36,0.1 -0.36,0.08 -0.37,0.07 -0.37,0.04 -0.38,0.03 -0.38,0.01 v -1.7 c 3.28,0 5.78,-2.66 5.78,-5.75 0,-3.25 -2.58,-5.78 -5.78,-5.78 h 0 c -3.27,0 -5.78,2.64 -5.78,5.75 0,3.23 2.58,5.78 5.78,5.78 v 1.7 c -4.17,0 -7.48,-3.37 -7.48,-7.45 0,-4.22 3.37,-7.5 7.48,-7.5 4.19,0 7.5,3.39 7.5,7.47 z"
           inkscape:connector-curvature="0"
           style="fill:#000000;stroke-width:0" /><path
           id="path3327"
           d="m 541.41,393.53 0.07,-0.01 0.08,0 0.07,-0.01 0.07,0 0.15,-0.01 0.15,0 0.15,0 0.15,0 0.15,0 0.15,0 c 6.27,0 12.02,5.12 12.02,10.62 l -1.25,-0.7 c 0,-3.52 -4.39,-7.56 -10.39,-7.56 -0.32,0 -0.8,0 -1.11,0.04 h 0 c 0.68,4 0.97,5.56 2.64,7.83 1.58,2.13 3.42,3.11 5.15,3.11 2.41,0 3.71,-1.61 3.71,-3.42 l 1.25,0.7 c 0,3.09 -1.85,5.08 -4.57,5.08 -4.81,0 -7.35,-6.13 -8.32,-8.74 -0.46,-1.29 -1.22,-3.73 -1.44,-4.39 -3.83,0.52 -6.27,2.27 -6.27,4.85 0,0.03 0.21,3.94 3.03,7.06 0.25,0.25 0.29,0.31 0.29,0.45 0,0.43 -0.46,0.43 -0.57,0.43 -0.31,0 -0.45,0 -1.11,-0.77 -1.95,-2.41 -2.86,-6.03 -2.86,-7.53 0,-3.1 2.27,-5.78 6.77,-6.75 -1.75,-5.41 -1.95,-6.06 -1.95,-6.38 0,-0.95 0.79,-1.12 1.17,-1.12 0.39,0 1.09,0.25 1.36,0.76 0.25,0.54 0.56,2.32 1.26,6.46 z"
           inkscape:connector-curvature="0"
           style="fill:#000000;stroke-width:0" /><path
           id="path3329"
           d="m 564.07,396.5 -0.09,0.94 v 6.45 c 0,0.78 0,0.95 1.22,0.95 h 3.48 c 4.07,0 4.94,-1.75 4.94,-3.68 0,-2.05 -0.97,-3.72 -4.95,-3.72 h -4.69 l 0.09,-0.94 h 5.47 c 3.33,0 7,1.89 7,4.66 0,2.61 -3.29,4.78 -7.25,4.78 h -10.61 v -1.1 h 0.74 c 2.01,0 2.01,-0.25 2.01,-1.03 v -12.76 c 0,-0.78 0,-1.03 -2.01,-1.03 h -0.74 v -1.1 c 1.11,0.05 2.66,0.1 4.08,0.1 1.42,0 2.97,-0.05 4.08,-0.1 v 1.1 h -0.74 c -2.03,0 -2.03,0.25 -2.03,1.03 z"
           inkscape:connector-curvature="0"
           style="fill:#000000;stroke-width:0" /></g>
    </g>
    <path
       style="fill:none;stroke:#000000;stroke-width:1.0629921;stroke-linecap:butt;stroke-linejoin:miter;stroke-miterlimit:4;stroke-opacity:1;stroke-dasharray:none"
       d="m 43.436559,125.04723 0,47.98225"
       id="path3060"
       inkscape:connector-curvature="0"
       transform="translate(104.52699,123.07405)" />
    <use
       x="0"
       y="0"
       xlink:href="#path3060"
       id="use3062"
       transform="translate(113.64216,0)"
       width="615.34479"
       height="256.36707" />
    <use
       x="0"
       y="0"
       xlink:href="#use3062"
       id="use3064"
       transform="translate(227.28432,0)"
       width="615.34479"
       height="256.36707" />
  </g>
</svg>
