<?xml version="1.0" encoding="UTF-8" standalone="no"?>
<svg
   xmlns:dc="http://purl.org/dc/elements/1.1/"
   xmlns:cc="http://creativecommons.org/ns#"
   xmlns:rdf="http://www.w3.org/1999/02/22-rdf-syntax-ns#"
   xmlns:svg="http://www.w3.org/2000/svg"
   xmlns="http://www.w3.org/2000/svg"
   xmlns:xlink="http://www.w3.org/1999/xlink"
   xmlns:sodipodi="http://sodipodi.sourceforge.net/DTD/sodipodi-0.dtd"
   xmlns:inkscape="http://www.inkscape.org/namespaces/inkscape"
   sodipodi:docname="oil_in_pore_of_sphere_packing_temp.svg"
   inkscape:version="1.0 (1.0+r73+1)"
   id="svg5139"
   version="1.1"
   viewBox="0 0 170.21278 147.29498"
   height="147.29498mm"
   width="170.21278mm">
  <defs
     id="defs5133">
    <g
       id="g4756">
      <symbol
         id="symbol5042"
         overflow="visible">
        <path
           id="path3721"
           d=""
           style="stroke:none" />
      </symbol>
      <symbol
         id="symbol3066"
         overflow="visible">
        <path
           id="path349"
           d="m 1.71875,-3.75 v -0.65625 l -1.4375,0.109375 v 0.3125 c 0.703125,0 0.78125,0.0625 0.78125,0.5 v 4.65625 C 1.0625,1.625 0.953125,1.625 0.28125,1.625 V 1.9375 C 0.625,1.921875 1.140625,1.90625 1.390625,1.90625 c 0.28125,0 0.78125,0.015625 1.125,0.03125 V 1.625 C 1.859375,1.625 1.75,1.625 1.75,1.171875 V -0.59375 c 0.046875,0.171875 0.46875,0.703125 1.21875,0.703125 1.1875,0 2.21875,-0.984375 2.21875,-2.265625 0,-1.265625 -0.953125,-2.25 -2.078125,-2.25 -0.78125,0 -1.203125,0.4375 -1.390625,0.65625 z M 1.75,-1.140625 v -2.21875 C 2.03125,-3.875 2.515625,-4.15625 3.03125,-4.15625 c 0.734375,0 1.328125,0.875 1.328125,2 0,1.203125 -0.6875,2.046875 -1.421875,2.046875 -0.40625,0 -0.78125,-0.203125 -1.046875,-0.609375 C 1.75,-0.921875 1.75,-0.9375 1.75,-1.140625 Z m 0,0"
           style="stroke:none" />
      </symbol>
      <symbol
         id="symbol8406"
         overflow="visible">
        <path
           id="path2901"
           d="M 1.109375,-2.515625 C 1.171875,-4 2.015625,-4.25 2.359375,-4.25 c 1.015625,0 1.125,1.34375 1.125,1.734375 z m 0,0.21875 h 2.78125 c 0.21875,0 0.25,0 0.25,-0.21875 0,-0.984375 -0.546875,-1.953125 -1.78125,-1.953125 -1.15625,0 -2.078125,1.03125 -2.078125,2.28125 0,1.328125 1.046875,2.296875 2.1875,2.296875 C 3.6875,0.109375 4.140625,-1 4.140625,-1.1875 4.140625,-1.28125 4.0625,-1.3125 4,-1.3125 c -0.078125,0 -0.109375,0.0625 -0.125,0.140625 -0.34375,1.03125 -1.25,1.03125 -1.34375,1.03125 -0.5,0 -0.890625,-0.296875 -1.125,-0.671875 -0.296875,-0.46875 -0.296875,-1.125 -0.296875,-1.484375 z m 0,0"
           style="stroke:none" />
      </symbol>
      <symbol
         id="symbol2647"
         overflow="visible">
        <path
           id="path9902"
           d="M 1.09375,-3.421875 V -0.75 c 0,0.4375 -0.109375,0.4375 -0.78125,0.4375 V 0 c 0.359375,-0.015625 0.859375,-0.03125 1.140625,-0.03125 0.25,0 0.765625,0.015625 1.109375,0.03125 v -0.3125 c -0.671875,0 -0.78125,0 -0.78125,-0.4375 V -2.59375 C 1.78125,-3.625 2.5,-4.1875 3.125,-4.1875 c 0.640625,0 0.75,0.53125 0.75,1.109375 V -0.75 c 0,0.4375 -0.109375,0.4375 -0.78125,0.4375 V 0 c 0.34375,-0.015625 0.859375,-0.03125 1.125,-0.03125 0.25,0 0.78125,0.015625 1.109375,0.03125 v -0.3125 c -0.515625,0 -0.765625,0 -0.765625,-0.296875 v -1.90625 c 0,-0.859375 0,-1.15625 -0.3125,-1.515625 -0.140625,-0.171875 -0.46875,-0.375 -1.046875,-0.375 C 2.46875,-4.40625 2,-3.984375 1.71875,-3.359375 V -4.40625 L 0.3125,-4.296875 v 0.3125 c 0.703125,0 0.78125,0.0625 0.78125,0.5625 z m 0,0"
           style="stroke:none" />
      </symbol>
      <symbol
         id="symbol4183"
         overflow="visible">
        <path
           id="path9227"
           d="m 3.78125,-0.546875 v 0.65625 L 5.25,0 v -0.3125 c -0.6875,0 -0.78125,-0.0625 -0.78125,-0.5625 V -6.921875 L 3.046875,-6.8125 V -6.5 c 0.6875,0 0.765625,0.0625 0.765625,0.5625 v 2.15625 c -0.28125,-0.359375 -0.71875,-0.625 -1.25,-0.625 -1.171875,0 -2.21875,0.984375 -2.21875,2.265625 0,1.265625 0.96875,2.25 2.109375,2.25 0.640625,0 1.078125,-0.34375 1.328125,-0.65625 z m 0,-2.671875 v 2.046875 c 0,0.171875 0,0.1875 -0.109375,0.359375 C 3.375,-0.328125 2.9375,-0.109375 2.5,-0.109375 2.046875,-0.109375 1.6875,-0.375 1.453125,-0.75 1.203125,-1.15625 1.171875,-1.71875 1.171875,-2.140625 1.171875,-2.5 1.1875,-3.09375 1.46875,-3.546875 1.6875,-3.859375 2.0625,-4.1875 2.609375,-4.1875 c 0.34375,0 0.765625,0.15625 1.0625,0.59375 0.109375,0.171875 0.109375,0.1875 0.109375,0.375 z m 0,0"
           style="stroke:none" />
      </symbol>
      <symbol
         id="symbol441"
         overflow="visible">
        <path
           id="path1606"
           d="M 3.890625,-0.78125 V 0.109375 L 5.328125,0 V -0.3125 C 4.640625,-0.3125 4.5625,-0.375 4.5625,-0.875 v -3.53125 l -1.46875,0.109375 v 0.3125 c 0.6875,0 0.78125,0.0625 0.78125,0.5625 v 1.765625 c 0,0.875 -0.484375,1.546875 -1.21875,1.546875 -0.828125,0 -0.875,-0.46875 -0.875,-0.984375 v -3.3125 L 0.3125,-4.296875 v 0.3125 c 0.78125,0 0.78125,0.03125 0.78125,0.90625 v 1.5 c 0,0.78125 0,1.6875 1.515625,1.6875 0.5625,0 1,-0.28125 1.28125,-0.890625 z m 0,0"
           style="stroke:none" />
      </symbol>
      <symbol
         id="symbol528"
         overflow="visible">
        <path
           id="path9949"
           d="M 1.765625,-6.921875 0.328125,-6.8125 V -6.5 c 0.703125,0 0.78125,0.0625 0.78125,0.5625 V -0.75 c 0,0.4375 -0.109375,0.4375 -0.78125,0.4375 V 0 C 0.65625,-0.015625 1.1875,-0.03125 1.4375,-0.03125 c 0.25,0 0.734375,0.015625 1.109375,0.03125 v -0.3125 c -0.671875,0 -0.78125,0 -0.78125,-0.4375 z m 0,0"
           style="stroke:none" />
      </symbol>
      <symbol
         id="symbol8347"
         overflow="visible">
        <path
           id="path1550"
           d="m 3.3125,-0.75 c 0.046875,0.390625 0.3125,0.8125 0.78125,0.8125 0.21875,0 0.828125,-0.140625 0.828125,-0.953125 v -0.5625 h -0.25 v 0.5625 c 0,0.578125 -0.25,0.640625 -0.359375,0.640625 -0.328125,0 -0.375,-0.453125 -0.375,-0.5 v -1.984375 c 0,-0.421875 0,-0.8125 -0.359375,-1.1875 C 3.1875,-4.3125 2.6875,-4.46875 2.21875,-4.46875 c -0.828125,0 -1.515625,0.46875 -1.515625,1.125 0,0.296875 0.203125,0.46875 0.46875,0.46875 0.28125,0 0.453125,-0.203125 0.453125,-0.453125 0,-0.125 -0.046875,-0.453125 -0.515625,-0.453125 C 1.390625,-4.140625 1.875,-4.25 2.1875,-4.25 c 0.5,0 1.0625,0.390625 1.0625,1.28125 v 0.359375 c -0.515625,0.03125 -1.203125,0.0625 -1.828125,0.359375 -0.75,0.34375 -1,0.859375 -1,1.296875 0,0.8125 0.96875,1.0625 1.59375,1.0625 0.65625,0 1.109375,-0.40625 1.296875,-0.859375 z M 3.25,-2.390625 v 1 c 0,0.9375 -0.71875,1.28125 -1.171875,1.28125 -0.484375,0 -0.890625,-0.34375 -0.890625,-0.84375 0,-0.546875 0.421875,-1.375 2.0625,-1.4375 z m 0,0"
           style="stroke:none" />
      </symbol>
      <symbol
         id="symbol8030"
         overflow="visible">
        <path
           id="path8475"
           d="M 1.671875,-3.3125 V -4.40625 L 0.28125,-4.296875 v 0.3125 c 0.703125,0 0.78125,0.0625 0.78125,0.5625 V -0.75 c 0,0.4375 -0.109375,0.4375 -0.78125,0.4375 V 0 c 0.390625,-0.015625 0.859375,-0.03125 1.140625,-0.03125 0.390625,0 0.859375,0 1.265625,0.03125 V -0.3125 H 2.46875 c -0.734375,0 -0.75,-0.109375 -0.75,-0.46875 V -2.3125 c 0,-0.984375 0.421875,-1.875 1.171875,-1.875 0.0625,0 0.09375,0 0.109375,0.015625 -0.03125,0 -0.234375,0.125 -0.234375,0.390625 0,0.265625 0.21875,0.421875 0.4375,0.421875 0.171875,0 0.421875,-0.125 0.421875,-0.4375 0,-0.3125 -0.3125,-0.609375 -0.734375,-0.609375 -0.734375,0 -1.09375,0.671875 -1.21875,1.09375 z m 0,0"
           style="stroke:none" />
      </symbol>
    </g>
    <g
       id="g2224">
      <symbol
         id="symbol5129"
         overflow="visible">
        <path
           id="path8074"
           d=""
           style="stroke:none" />
      </symbol>
      <symbol
         id="symbol142"
         overflow="visible">
        <path
           id="path9574"
           d="M 1.671875,-3.3125 V -4.40625 L 0.28125,-4.296875 v 0.3125 c 0.703125,0 0.78125,0.0625 0.78125,0.5625 V -0.75 c 0,0.4375 -0.109375,0.4375 -0.78125,0.4375 V 0 c 0.390625,-0.015625 0.859375,-0.03125 1.140625,-0.03125 0.390625,0 0.859375,0 1.265625,0.03125 V -0.3125 H 2.46875 c -0.734375,0 -0.75,-0.109375 -0.75,-0.46875 V -2.3125 c 0,-0.984375 0.421875,-1.875 1.171875,-1.875 0.0625,0 0.09375,0 0.109375,0.015625 -0.03125,0 -0.234375,0.125 -0.234375,0.390625 0,0.265625 0.21875,0.421875 0.4375,0.421875 0.171875,0 0.421875,-0.125 0.421875,-0.4375 0,-0.3125 -0.3125,-0.609375 -0.734375,-0.609375 -0.734375,0 -1.09375,0.671875 -1.21875,1.09375 z m 0,0"
           style="stroke:none" />
      </symbol>
      <symbol
         id="symbol7372"
         overflow="visible">
        <path
           id="path1036"
           d="M 1.765625,-4.40625 0.375,-4.296875 v 0.3125 c 0.640625,0 0.734375,0.0625 0.734375,0.546875 V -0.75 c 0,0.4375 -0.109375,0.4375 -0.78125,0.4375 V 0 C 0.640625,-0.015625 1.1875,-0.03125 1.421875,-0.03125 1.78125,-0.03125 2.125,-0.015625 2.46875,0 v -0.3125 c -0.671875,0 -0.703125,-0.046875 -0.703125,-0.4375 z m 0.03125,-1.734375 c 0,-0.3125 -0.234375,-0.53125 -0.515625,-0.53125 -0.3125,0 -0.53125,0.265625 -0.53125,0.53125 0,0.265625 0.21875,0.53125 0.53125,0.53125 0.28125,0 0.515625,-0.21875 0.515625,-0.53125 z m 0,0"
           style="stroke:none" />
      </symbol>
      <symbol
         id="symbol9875"
         overflow="visible">
        <path
           id="path8623"
           d="M 1.09375,-3.421875 V -0.75 c 0,0.4375 -0.109375,0.4375 -0.78125,0.4375 V 0 c 0.359375,-0.015625 0.859375,-0.03125 1.140625,-0.03125 0.25,0 0.765625,0.015625 1.109375,0.03125 v -0.3125 c -0.671875,0 -0.78125,0 -0.78125,-0.4375 V -2.59375 C 1.78125,-3.625 2.5,-4.1875 3.125,-4.1875 c 0.640625,0 0.75,0.53125 0.75,1.109375 V -0.75 c 0,0.4375 -0.109375,0.4375 -0.78125,0.4375 V 0 c 0.34375,-0.015625 0.859375,-0.03125 1.125,-0.03125 0.25,0 0.78125,0.015625 1.109375,0.03125 v -0.3125 c -0.515625,0 -0.765625,0 -0.765625,-0.296875 v -1.90625 c 0,-0.859375 0,-1.15625 -0.3125,-1.515625 -0.140625,-0.171875 -0.46875,-0.375 -1.046875,-0.375 C 2.46875,-4.40625 2,-3.984375 1.71875,-3.359375 V -4.40625 L 0.3125,-4.296875 v 0.3125 c 0.703125,0 0.78125,0.0625 0.78125,0.5625 z m 0,0"
           style="stroke:none" />
      </symbol>
      <symbol
         id="symbol6648"
         overflow="visible">
        <path
           id="path3008"
           d="m 2.21875,-1.71875 c -0.875,0 -0.875,-1 -0.875,-1.21875 0,-0.265625 0.015625,-0.59375 0.15625,-0.84375 0.078125,-0.109375 0.3125,-0.390625 0.71875,-0.390625 0.859375,0 0.859375,0.984375 0.859375,1.21875 0,0.265625 0,0.59375 -0.15625,0.84375 C 2.84375,-2 2.609375,-1.71875 2.21875,-1.71875 Z M 1.0625,-1.328125 c 0,-0.03125 0,-0.265625 0.15625,-0.46875 0.390625,0.28125 0.8125,0.3125 1,0.3125 0.921875,0 1.609375,-0.6875 1.609375,-1.453125 0,-0.375 -0.15625,-0.734375 -0.40625,-0.96875 C 3.78125,-4.25 4.140625,-4.296875 4.3125,-4.296875 c 0.03125,0 0.078125,0 0.109375,0.015625 C 4.3125,-4.25 4.25,-4.140625 4.25,-4.015625 c 0,0.171875 0.140625,0.28125 0.296875,0.28125 0.09375,0 0.28125,-0.0625 0.28125,-0.296875 0,-0.171875 -0.109375,-0.484375 -0.5,-0.484375 -0.203125,0 -0.640625,0.0625 -1.0625,0.46875 C 2.84375,-4.375 2.4375,-4.40625 2.21875,-4.40625 c -0.9375,0 -1.625,0.6875 -1.625,1.453125 0,0.4375 0.21875,0.8125 0.46875,1.03125 -0.125,0.140625 -0.3125,0.46875 -0.3125,0.828125 0,0.3125 0.140625,0.6875 0.453125,0.890625 -0.609375,0.15625 -0.921875,0.59375 -0.921875,0.984375 0,0.71875 0.984375,1.265625 2.203125,1.265625 1.171875,0 2.203125,-0.5 2.203125,-1.28125 0,-0.34375 -0.125,-0.859375 -0.640625,-1.140625 -0.53125,-0.265625 -1.109375,-0.265625 -1.71875,-0.265625 -0.25,0 -0.671875,0 -0.75,-0.015625 C 1.265625,-0.703125 1.0625,-1 1.0625,-1.328125 Z M 2.5,1.828125 c -1.015625,0 -1.703125,-0.515625 -1.703125,-1.046875 0,-0.453125 0.375,-0.828125 0.8125,-0.84375 h 0.59375 c 0.859375,0 1.96875,0 1.96875,0.84375 0,0.546875 -0.703125,1.046875 -1.671875,1.046875 z m 0,0"
           style="stroke:none" />
      </symbol>
      <symbol
         id="symbol8023"
         overflow="visible">
        <path
           id="path1192"
           d="m 2.078125,-1.9375 c 0.21875,0.046875 1.03125,0.203125 1.03125,0.921875 0,0.5 -0.34375,0.90625 -1.125,0.90625 -0.84375,0 -1.203125,-0.5625 -1.390625,-1.421875 C 0.5625,-1.65625 0.5625,-1.6875 0.453125,-1.6875 c -0.125,0 -0.125,0.0625 -0.125,0.234375 V -0.125 c 0,0.171875 0,0.234375 0.109375,0.234375 0.046875,0 0.0625,-0.015625 0.25,-0.203125 0.015625,-0.015625 0.015625,-0.03125 0.203125,-0.21875 0.4375,0.40625 0.890625,0.421875 1.09375,0.421875 1.140625,0 1.609375,-0.671875 1.609375,-1.390625 0,-0.515625 -0.296875,-0.828125 -0.421875,-0.9375 C 2.84375,-2.546875 2.453125,-2.625 2.03125,-2.703125 1.46875,-2.8125 0.8125,-2.9375 0.8125,-3.515625 c 0,-0.359375 0.25,-0.765625 1.109375,-0.765625 1.09375,0 1.15625,0.90625 1.171875,1.203125 0,0.09375 0.09375,0.09375 0.109375,0.09375 0.140625,0 0.140625,-0.046875 0.140625,-0.234375 v -1.015625 c 0,-0.15625 0,-0.234375 -0.109375,-0.234375 -0.046875,0 -0.078125,0 -0.203125,0.125 -0.03125,0.03125 -0.125,0.125 -0.171875,0.15625 -0.375,-0.28125 -0.78125,-0.28125 -0.9375,-0.28125 -1.21875,0 -1.59375,0.671875 -1.59375,1.234375 0,0.34375 0.15625,0.625 0.421875,0.84375 0.328125,0.25 0.609375,0.3125 1.328125,0.453125 z m 0,0"
           style="stroke:none" />
      </symbol>
    </g>
    <g
       id="g3391">
      <symbol
         id="symbol5825"
         overflow="visible">
        <path
           id="path9880"
           d=""
           style="stroke:none" />
      </symbol>
      <symbol
         id="symbol2679"
         overflow="visible">
        <path
           id="path4757"
           d="M 1.09375,-3.421875 V -0.75 c 0,0.4375 -0.109375,0.4375 -0.78125,0.4375 V 0 c 0.359375,-0.015625 0.859375,-0.03125 1.140625,-0.03125 0.25,0 0.765625,0.015625 1.109375,0.03125 v -0.3125 c -0.671875,0 -0.78125,0 -0.78125,-0.4375 V -2.59375 C 1.78125,-3.625 2.5,-4.1875 3.125,-4.1875 c 0.640625,0 0.75,0.53125 0.75,1.109375 V -0.75 c 0,0.4375 -0.109375,0.4375 -0.78125,0.4375 V 0 c 0.34375,-0.015625 0.859375,-0.03125 1.125,-0.03125 0.25,0 0.78125,0.015625 1.109375,0.03125 v -0.3125 c -0.515625,0 -0.765625,0 -0.765625,-0.296875 v -1.90625 c 0,-0.859375 0,-1.15625 -0.3125,-1.515625 -0.140625,-0.171875 -0.46875,-0.375 -1.046875,-0.375 C 2.46875,-4.40625 2,-3.984375 1.71875,-3.359375 V -4.40625 L 0.3125,-4.296875 v 0.3125 c 0.703125,0 0.78125,0.0625 0.78125,0.5625 z m 0,0"
           style="stroke:none" />
      </symbol>
      <symbol
         id="symbol2940"
         overflow="visible">
        <path
           id="path2952"
           d="M 4.6875,-2.140625 C 4.6875,-3.40625 3.703125,-4.46875 2.5,-4.46875 c -1.25,0 -2.21875,1.09375 -2.21875,2.328125 0,1.296875 1.03125,2.25 2.203125,2.25 1.203125,0 2.203125,-0.984375 2.203125,-2.25 z m -2.1875,2 c -0.4375,0 -0.875,-0.203125 -1.140625,-0.671875 -0.25,-0.4375 -0.25,-1.046875 -0.25,-1.40625 0,-0.390625 0,-0.921875 0.234375,-1.359375 C 1.609375,-4.03125 2.078125,-4.25 2.484375,-4.25 c 0.4375,0 0.859375,0.21875 1.125,0.65625 0.265625,0.421875 0.265625,1 0.265625,1.375 0,0.359375 0,0.90625 -0.21875,1.34375 C 3.421875,-0.421875 2.984375,-0.140625 2.5,-0.140625 Z m 0,0"
           style="stroke:none" />
      </symbol>
      <symbol
         id="symbol9066"
         overflow="visible">
        <path
           id="path3742"
           d="M 2.75,-1.859375 V -2.4375 H 0.109375 v 0.578125 z m 0,0"
           style="stroke:none" />
      </symbol>
      <symbol
         id="symbol5921"
         overflow="visible">
        <path
           id="path7508"
           d="m 6.171875,-3.34375 c 0.171875,-0.5 0.484375,-0.640625 0.84375,-0.640625 v -0.3125 C 6.78125,-4.28125 6.5,-4.265625 6.28125,-4.265625 c -0.296875,0 -0.734375,-0.015625 -0.921875,-0.03125 v 0.3125 c 0.359375,0 0.578125,0.1875 0.578125,0.46875 0,0.0625 0,0.09375 -0.0625,0.21875 L 4.96875,-0.75 3.984375,-3.53125 C 3.953125,-3.65625 3.9375,-3.671875 3.9375,-3.71875 c 0,-0.265625 0.390625,-0.265625 0.59375,-0.265625 v -0.3125 c -0.296875,0.015625 -0.796875,0.03125 -1.046875,0.03125 -0.296875,0 -0.578125,-0.015625 -0.875,-0.03125 v 0.3125 c 0.359375,0 0.515625,0.015625 0.625,0.140625 0.046875,0.0625 0.15625,0.359375 0.21875,0.546875 L 2.609375,-0.875 1.65625,-3.53125 C 1.609375,-3.65625 1.609375,-3.671875 1.609375,-3.71875 1.609375,-3.984375 2,-3.984375 2.1875,-3.984375 v -0.3125 c -0.296875,0.015625 -0.859375,0.03125 -1.078125,0.03125 -0.046875,0 -0.578125,-0.015625 -0.9375,-0.03125 v 0.3125 c 0.5,0 0.625,0.03125 0.75,0.34375 l 1.25,3.53125 C 2.21875,0.03125 2.25,0.109375 2.375,0.109375 c 0.140625,0 0.15625,-0.0625 0.203125,-0.203125 l 1.015625,-2.8125 1.015625,2.828125 c 0.03125,0.109375 0.0625,0.1875 0.203125,0.1875 0.125,0 0.15625,-0.09375 0.1875,-0.1875 z m 0,0"
           style="stroke:none" />
      </symbol>
      <symbol
         id="symbol3381"
         overflow="visible">
        <path
           id="path8646"
           d="M 1.109375,-2.515625 C 1.171875,-4 2.015625,-4.25 2.359375,-4.25 c 1.015625,0 1.125,1.34375 1.125,1.734375 z m 0,0.21875 h 2.78125 c 0.21875,0 0.25,0 0.25,-0.21875 0,-0.984375 -0.546875,-1.953125 -1.78125,-1.953125 -1.15625,0 -2.078125,1.03125 -2.078125,2.28125 0,1.328125 1.046875,2.296875 2.1875,2.296875 C 3.6875,0.109375 4.140625,-1 4.140625,-1.1875 4.140625,-1.28125 4.0625,-1.3125 4,-1.3125 c -0.078125,0 -0.109375,0.0625 -0.125,0.140625 -0.34375,1.03125 -1.25,1.03125 -1.34375,1.03125 -0.5,0 -0.890625,-0.296875 -1.125,-0.671875 -0.296875,-0.46875 -0.296875,-1.125 -0.296875,-1.484375 z m 0,0"
           style="stroke:none" />
      </symbol>
      <symbol
         id="symbol200"
         overflow="visible">
        <path
           id="path7351"
           d="m 1.71875,-3.984375 h 1.4375 v -0.3125 H 1.71875 V -6.125 h -0.25 c 0,0.8125 -0.296875,1.875 -1.28125,1.921875 v 0.21875 h 0.84375 v 2.75 c 0,1.21875 0.9375,1.34375 1.296875,1.34375 0.703125,0 0.984375,-0.703125 0.984375,-1.34375 v -0.5625 h -0.25 V -1.25 c 0,0.734375 -0.296875,1.109375 -0.671875,1.109375 -0.671875,0 -0.671875,-0.90625 -0.671875,-1.078125 z m 0,0"
           style="stroke:none" />
      </symbol>
      <symbol
         id="symbol4105"
         overflow="visible">
        <path
           id="path7254"
           d="M 1.765625,-4.40625 0.375,-4.296875 v 0.3125 c 0.640625,0 0.734375,0.0625 0.734375,0.546875 V -0.75 c 0,0.4375 -0.109375,0.4375 -0.78125,0.4375 V 0 C 0.640625,-0.015625 1.1875,-0.03125 1.421875,-0.03125 1.78125,-0.03125 2.125,-0.015625 2.46875,0 v -0.3125 c -0.671875,0 -0.703125,-0.046875 -0.703125,-0.4375 z m 0.03125,-1.734375 c 0,-0.3125 -0.234375,-0.53125 -0.515625,-0.53125 -0.3125,0 -0.53125,0.265625 -0.53125,0.53125 0,0.265625 0.21875,0.53125 0.53125,0.53125 0.28125,0 0.515625,-0.21875 0.515625,-0.53125 z m 0,0"
           style="stroke:none" />
      </symbol>
      <symbol
         id="symbol8212"
         overflow="visible">
        <path
           id="path6933"
           d="m 2.21875,-1.71875 c -0.875,0 -0.875,-1 -0.875,-1.21875 0,-0.265625 0.015625,-0.59375 0.15625,-0.84375 0.078125,-0.109375 0.3125,-0.390625 0.71875,-0.390625 0.859375,0 0.859375,0.984375 0.859375,1.21875 0,0.265625 0,0.59375 -0.15625,0.84375 C 2.84375,-2 2.609375,-1.71875 2.21875,-1.71875 Z M 1.0625,-1.328125 c 0,-0.03125 0,-0.265625 0.15625,-0.46875 0.390625,0.28125 0.8125,0.3125 1,0.3125 0.921875,0 1.609375,-0.6875 1.609375,-1.453125 0,-0.375 -0.15625,-0.734375 -0.40625,-0.96875 C 3.78125,-4.25 4.140625,-4.296875 4.3125,-4.296875 c 0.03125,0 0.078125,0 0.109375,0.015625 C 4.3125,-4.25 4.25,-4.140625 4.25,-4.015625 c 0,0.171875 0.140625,0.28125 0.296875,0.28125 0.09375,0 0.28125,-0.0625 0.28125,-0.296875 0,-0.171875 -0.109375,-0.484375 -0.5,-0.484375 -0.203125,0 -0.640625,0.0625 -1.0625,0.46875 C 2.84375,-4.375 2.4375,-4.40625 2.21875,-4.40625 c -0.9375,0 -1.625,0.6875 -1.625,1.453125 0,0.4375 0.21875,0.8125 0.46875,1.03125 -0.125,0.140625 -0.3125,0.46875 -0.3125,0.828125 0,0.3125 0.140625,0.6875 0.453125,0.890625 -0.609375,0.15625 -0.921875,0.59375 -0.921875,0.984375 0,0.71875 0.984375,1.265625 2.203125,1.265625 1.171875,0 2.203125,-0.5 2.203125,-1.28125 0,-0.34375 -0.125,-0.859375 -0.640625,-1.140625 -0.53125,-0.265625 -1.109375,-0.265625 -1.71875,-0.265625 -0.25,0 -0.671875,0 -0.75,-0.015625 C 1.265625,-0.703125 1.0625,-1 1.0625,-1.328125 Z M 2.5,1.828125 c -1.015625,0 -1.703125,-0.515625 -1.703125,-1.046875 0,-0.453125 0.375,-0.828125 0.8125,-0.84375 h 0.59375 c 0.859375,0 1.96875,0 1.96875,0.84375 0,0.546875 -0.703125,1.046875 -1.671875,1.046875 z m 0,0"
           style="stroke:none" />
      </symbol>
    </g>
    <g
       id="g8909">
      <symbol
         id="symbol8168"
         overflow="visible">
        <path
           id="path9202"
           d=""
           style="stroke:none" />
      </symbol>
      <symbol
         id="symbol2622"
         overflow="visible">
        <path
           id="path9955"
           d="M 3.8125,-3.984375 V -0.75 c 0,0.4375 -0.109375,0.4375 -0.765625,0.4375 V 0 c 0.328125,-0.015625 0.84375,-0.03125 1.09375,-0.03125 0.25,0 0.75,0.015625 1.109375,0.03125 v -0.3125 c -0.671875,0 -0.78125,0 -0.78125,-0.4375 v -6.171875 l -0.359375,0.0625 C 4.078125,-6.859375 4.0625,-6.875 4.03125,-6.890625 3.703125,-7.03125 3.296875,-7.03125 3.1875,-7.03125 c -1.046875,0 -2.125,0.5625 -2.125,1.59375 v 1.140625 H 0.265625 v 0.3125 H 1.0625 V -0.75 c 0,0.4375 -0.109375,0.4375 -0.78125,0.4375 V 0 C 0.609375,-0.015625 1.140625,-0.03125 1.390625,-0.03125 1.640625,-0.03125 2.125,-0.015625 2.5,0 v -0.3125 c -0.671875,0 -0.78125,0 -0.78125,-0.4375 v -3.234375 z m 0,-0.3125 h -2.125 v -1.125 c 0,-0.921875 0.75,-1.390625 1.5,-1.390625 0.078125,0 0.34375,0 0.625,0.09375 -0.078125,0.046875 -0.25,0.140625 -0.25,0.40625 0,0.171875 0.09375,0.328125 0.25,0.375 z m 0,0"
           style="stroke:none" />
      </symbol>
      <symbol
         id="symbol2579"
         overflow="visible">
        <path
           id="path5668"
           d="M 3.890625,-0.78125 V 0.109375 L 5.328125,0 V -0.3125 C 4.640625,-0.3125 4.5625,-0.375 4.5625,-0.875 v -3.53125 l -1.46875,0.109375 v 0.3125 c 0.6875,0 0.78125,0.0625 0.78125,0.5625 v 1.765625 c 0,0.875 -0.484375,1.546875 -1.21875,1.546875 -0.828125,0 -0.875,-0.46875 -0.875,-0.984375 v -3.3125 L 0.3125,-4.296875 v 0.3125 c 0.78125,0 0.78125,0.03125 0.78125,0.90625 v 1.5 c 0,0.78125 0,1.6875 1.515625,1.6875 0.5625,0 1,-0.28125 1.28125,-0.890625 z m 0,0"
           style="stroke:none" />
      </symbol>
      <symbol
         id="symbol9546"
         overflow="visible">
        <path
           id="path7623"
           d="M 1.765625,-4.40625 0.375,-4.296875 v 0.3125 c 0.640625,0 0.734375,0.0625 0.734375,0.546875 V -0.75 c 0,0.4375 -0.109375,0.4375 -0.78125,0.4375 V 0 C 0.640625,-0.015625 1.1875,-0.03125 1.421875,-0.03125 1.78125,-0.03125 2.125,-0.015625 2.46875,0 v -0.3125 c -0.671875,0 -0.703125,-0.046875 -0.703125,-0.4375 z m 0.03125,-1.734375 c 0,-0.3125 -0.234375,-0.53125 -0.515625,-0.53125 -0.3125,0 -0.53125,0.265625 -0.53125,0.53125 0,0.265625 0.21875,0.53125 0.53125,0.53125 0.28125,0 0.515625,-0.21875 0.515625,-0.53125 z m 0,0"
           style="stroke:none" />
      </symbol>
      <symbol
         id="symbol2952"
         overflow="visible">
        <path
           id="path5097"
           d="m 3.78125,-0.546875 v 0.65625 L 5.25,0 v -0.3125 c -0.6875,0 -0.78125,-0.0625 -0.78125,-0.5625 V -6.921875 L 3.046875,-6.8125 V -6.5 c 0.6875,0 0.765625,0.0625 0.765625,0.5625 v 2.15625 c -0.28125,-0.359375 -0.71875,-0.625 -1.25,-0.625 -1.171875,0 -2.21875,0.984375 -2.21875,2.265625 0,1.265625 0.96875,2.25 2.109375,2.25 0.640625,0 1.078125,-0.34375 1.328125,-0.65625 z m 0,-2.671875 v 2.046875 c 0,0.171875 0,0.1875 -0.109375,0.359375 C 3.375,-0.328125 2.9375,-0.109375 2.5,-0.109375 2.046875,-0.109375 1.6875,-0.375 1.453125,-0.75 1.203125,-1.15625 1.171875,-1.71875 1.171875,-2.140625 1.171875,-2.5 1.1875,-3.09375 1.46875,-3.546875 1.6875,-3.859375 2.0625,-4.1875 2.609375,-4.1875 c 0.34375,0 0.765625,0.15625 1.0625,0.59375 0.109375,0.171875 0.109375,0.1875 0.109375,0.375 z m 0,0"
           style="stroke:none" />
      </symbol>
    </g>
    <g
       id="g3450">
      <symbol
         id="symbol4581"
         overflow="visible">
        <path
           id="path2987"
           d=""
           style="stroke:none" />
      </symbol>
      <symbol
         id="symbol3318"
         overflow="visible">
        <path
           id="path2207"
           d="m 2.078125,-1.9375 c 0.21875,0.046875 1.03125,0.203125 1.03125,0.921875 0,0.5 -0.34375,0.90625 -1.125,0.90625 -0.84375,0 -1.203125,-0.5625 -1.390625,-1.421875 C 0.5625,-1.65625 0.5625,-1.6875 0.453125,-1.6875 c -0.125,0 -0.125,0.0625 -0.125,0.234375 V -0.125 c 0,0.171875 0,0.234375 0.109375,0.234375 0.046875,0 0.0625,-0.015625 0.25,-0.203125 0.015625,-0.015625 0.015625,-0.03125 0.203125,-0.21875 0.4375,0.40625 0.890625,0.421875 1.09375,0.421875 1.140625,0 1.609375,-0.671875 1.609375,-1.390625 0,-0.515625 -0.296875,-0.828125 -0.421875,-0.9375 C 2.84375,-2.546875 2.453125,-2.625 2.03125,-2.703125 1.46875,-2.8125 0.8125,-2.9375 0.8125,-3.515625 c 0,-0.359375 0.25,-0.765625 1.109375,-0.765625 1.09375,0 1.15625,0.90625 1.171875,1.203125 0,0.09375 0.09375,0.09375 0.109375,0.09375 0.140625,0 0.140625,-0.046875 0.140625,-0.234375 v -1.015625 c 0,-0.15625 0,-0.234375 -0.109375,-0.234375 -0.046875,0 -0.078125,0 -0.203125,0.125 -0.03125,0.03125 -0.125,0.125 -0.171875,0.15625 -0.375,-0.28125 -0.78125,-0.28125 -0.9375,-0.28125 -1.21875,0 -1.59375,0.671875 -1.59375,1.234375 0,0.34375 0.15625,0.625 0.421875,0.84375 0.328125,0.25 0.609375,0.3125 1.328125,0.453125 z m 0,0"
           style="stroke:none" />
      </symbol>
      <symbol
         id="symbol9585"
         overflow="visible">
        <path
           id="path9749"
           d="m 1.71875,-3.75 v -0.65625 l -1.4375,0.109375 v 0.3125 c 0.703125,0 0.78125,0.0625 0.78125,0.5 v 4.65625 C 1.0625,1.625 0.953125,1.625 0.28125,1.625 V 1.9375 C 0.625,1.921875 1.140625,1.90625 1.390625,1.90625 c 0.28125,0 0.78125,0.015625 1.125,0.03125 V 1.625 C 1.859375,1.625 1.75,1.625 1.75,1.171875 V -0.59375 c 0.046875,0.171875 0.46875,0.703125 1.21875,0.703125 1.1875,0 2.21875,-0.984375 2.21875,-2.265625 0,-1.265625 -0.953125,-2.25 -2.078125,-2.25 -0.78125,0 -1.203125,0.4375 -1.390625,0.65625 z M 1.75,-1.140625 v -2.21875 C 2.03125,-3.875 2.515625,-4.15625 3.03125,-4.15625 c 0.734375,0 1.328125,0.875 1.328125,2 0,1.203125 -0.6875,2.046875 -1.421875,2.046875 -0.40625,0 -0.78125,-0.203125 -1.046875,-0.609375 C 1.75,-0.921875 1.75,-0.9375 1.75,-1.140625 Z m 0,0"
           style="stroke:none" />
      </symbol>
      <symbol
         id="symbol7509"
         overflow="visible">
        <path
           id="path6596"
           d="m 1.09375,-0.75 c 0,0.4375 -0.109375,0.4375 -0.78125,0.4375 V 0 c 0.359375,-0.015625 0.859375,-0.03125 1.140625,-0.03125 0.25,0 0.765625,0.015625 1.109375,0.03125 v -0.3125 c -0.671875,0 -0.78125,0 -0.78125,-0.4375 V -2.59375 C 1.78125,-3.625 2.5,-4.1875 3.125,-4.1875 c 0.640625,0 0.75,0.53125 0.75,1.109375 V -0.75 c 0,0.4375 -0.109375,0.4375 -0.78125,0.4375 V 0 c 0.34375,-0.015625 0.859375,-0.03125 1.125,-0.03125 0.25,0 0.78125,0.015625 1.109375,0.03125 v -0.3125 c -0.515625,0 -0.765625,0 -0.765625,-0.296875 v -1.90625 c 0,-0.859375 0,-1.15625 -0.3125,-1.515625 -0.140625,-0.171875 -0.46875,-0.375 -1.046875,-0.375 -0.84375,0 -1.28125,0.59375 -1.453125,0.984375 v -3.5 L 0.3125,-6.8125 V -6.5 c 0.703125,0 0.78125,0.0625 0.78125,0.5625 z m 0,0"
           style="stroke:none" />
      </symbol>
      <symbol
         id="symbol9617"
         overflow="visible">
        <path
           id="path7767"
           d="M 1.109375,-2.515625 C 1.171875,-4 2.015625,-4.25 2.359375,-4.25 c 1.015625,0 1.125,1.34375 1.125,1.734375 z m 0,0.21875 h 2.78125 c 0.21875,0 0.25,0 0.25,-0.21875 0,-0.984375 -0.546875,-1.953125 -1.78125,-1.953125 -1.15625,0 -2.078125,1.03125 -2.078125,2.28125 0,1.328125 1.046875,2.296875 2.1875,2.296875 C 3.6875,0.109375 4.140625,-1 4.140625,-1.1875 4.140625,-1.28125 4.0625,-1.3125 4,-1.3125 c -0.078125,0 -0.109375,0.0625 -0.125,0.140625 -0.34375,1.03125 -1.25,1.03125 -1.34375,1.03125 -0.5,0 -0.890625,-0.296875 -1.125,-0.671875 -0.296875,-0.46875 -0.296875,-1.125 -0.296875,-1.484375 z m 0,0"
           style="stroke:none" />
      </symbol>
      <symbol
         id="symbol1789"
         overflow="visible">
        <path
           id="path4310"
           d="M 1.671875,-3.3125 V -4.40625 L 0.28125,-4.296875 v 0.3125 c 0.703125,0 0.78125,0.0625 0.78125,0.5625 V -0.75 c 0,0.4375 -0.109375,0.4375 -0.78125,0.4375 V 0 c 0.390625,-0.015625 0.859375,-0.03125 1.140625,-0.03125 0.390625,0 0.859375,0 1.265625,0.03125 V -0.3125 H 2.46875 c -0.734375,0 -0.75,-0.109375 -0.75,-0.46875 V -2.3125 c 0,-0.984375 0.421875,-1.875 1.171875,-1.875 0.0625,0 0.09375,0 0.109375,0.015625 -0.03125,0 -0.234375,0.125 -0.234375,0.390625 0,0.265625 0.21875,0.421875 0.4375,0.421875 0.171875,0 0.421875,-0.125 0.421875,-0.4375 0,-0.3125 -0.3125,-0.609375 -0.734375,-0.609375 -0.734375,0 -1.09375,0.671875 -1.21875,1.09375 z m 0,0"
           style="stroke:none" />
      </symbol>
      <symbol
         id="symbol9819"
         overflow="visible">
        <path
           id="path2690"
           d="M 1.765625,-4.40625 0.375,-4.296875 v 0.3125 c 0.640625,0 0.734375,0.0625 0.734375,0.546875 V -0.75 c 0,0.4375 -0.109375,0.4375 -0.78125,0.4375 V 0 C 0.640625,-0.015625 1.1875,-0.03125 1.421875,-0.03125 1.78125,-0.03125 2.125,-0.015625 2.46875,0 v -0.3125 c -0.671875,0 -0.703125,-0.046875 -0.703125,-0.4375 z m 0.03125,-1.734375 c 0,-0.3125 -0.234375,-0.53125 -0.515625,-0.53125 -0.3125,0 -0.53125,0.265625 -0.53125,0.53125 0,0.265625 0.21875,0.53125 0.53125,0.53125 0.28125,0 0.515625,-0.21875 0.515625,-0.53125 z m 0,0"
           style="stroke:none" />
      </symbol>
      <symbol
         id="symbol9114"
         overflow="visible">
        <path
           id="path1143"
           d="m 1.171875,-2.171875 c 0,-1.625 0.8125,-2.046875 1.34375,-2.046875 0.09375,0 0.71875,0.015625 1.0625,0.375 -0.40625,0.03125 -0.46875,0.328125 -0.46875,0.453125 0,0.265625 0.1875,0.453125 0.453125,0.453125 0.265625,0 0.46875,-0.15625 0.46875,-0.46875 0,-0.671875 -0.765625,-1.0625 -1.53125,-1.0625 -1.25,0 -2.15625,1.078125 -2.15625,2.3125 0,1.28125 0.984375,2.265625 2.140625,2.265625 1.328125,0 1.65625,-1.203125 1.65625,-1.296875 0,-0.09375 -0.109375,-0.09375 -0.140625,-0.09375 -0.078125,0 -0.109375,0.03125 -0.125,0.09375 -0.28125,0.921875 -0.9375,1.046875 -1.296875,1.046875 -0.53125,0 -1.40625,-0.421875 -1.40625,-2.03125 z m 0,0"
           style="stroke:none" />
      </symbol>
      <symbol
         id="symbol4901"
         overflow="visible">
        <path
           id="path9255"
           d="m 3.3125,-0.75 c 0.046875,0.390625 0.3125,0.8125 0.78125,0.8125 0.21875,0 0.828125,-0.140625 0.828125,-0.953125 v -0.5625 h -0.25 v 0.5625 c 0,0.578125 -0.25,0.640625 -0.359375,0.640625 -0.328125,0 -0.375,-0.453125 -0.375,-0.5 v -1.984375 c 0,-0.421875 0,-0.8125 -0.359375,-1.1875 C 3.1875,-4.3125 2.6875,-4.46875 2.21875,-4.46875 c -0.828125,0 -1.515625,0.46875 -1.515625,1.125 0,0.296875 0.203125,0.46875 0.46875,0.46875 0.28125,0 0.453125,-0.203125 0.453125,-0.453125 0,-0.125 -0.046875,-0.453125 -0.515625,-0.453125 C 1.390625,-4.140625 1.875,-4.25 2.1875,-4.25 c 0.5,0 1.0625,0.390625 1.0625,1.28125 v 0.359375 c -0.515625,0.03125 -1.203125,0.0625 -1.828125,0.359375 -0.75,0.34375 -1,0.859375 -1,1.296875 0,0.8125 0.96875,1.0625 1.59375,1.0625 0.65625,0 1.109375,-0.40625 1.296875,-0.859375 z M 3.25,-2.390625 v 1 c 0,0.9375 -0.71875,1.28125 -1.171875,1.28125 -0.484375,0 -0.890625,-0.34375 -0.890625,-0.84375 0,-0.546875 0.421875,-1.375 2.0625,-1.4375 z m 0,0"
           style="stroke:none" />
      </symbol>
      <symbol
         id="symbol6316"
         overflow="visible">
        <path
           id="path5063"
           d="M 1.765625,-6.921875 0.328125,-6.8125 V -6.5 c 0.703125,0 0.78125,0.0625 0.78125,0.5625 V -0.75 c 0,0.4375 -0.109375,0.4375 -0.78125,0.4375 V 0 C 0.65625,-0.015625 1.1875,-0.03125 1.4375,-0.03125 c 0.25,0 0.734375,0.015625 1.109375,0.03125 v -0.3125 c -0.671875,0 -0.78125,0 -0.78125,-0.4375 z m 0,0"
           style="stroke:none" />
      </symbol>
    </g>
    <g
       id="g1949">
      <symbol
         id="symbol9521"
         overflow="visible">
        <path
           id="path5241"
           d=""
           style="stroke:none" />
      </symbol>
      <symbol
         id="symbol5971"
         overflow="visible">
        <path
           id="path2728"
           d="m 2.21875,-1.71875 c -0.875,0 -0.875,-1 -0.875,-1.21875 0,-0.265625 0.015625,-0.59375 0.15625,-0.84375 0.078125,-0.109375 0.3125,-0.390625 0.71875,-0.390625 0.859375,0 0.859375,0.984375 0.859375,1.21875 0,0.265625 0,0.59375 -0.15625,0.84375 C 2.84375,-2 2.609375,-1.71875 2.21875,-1.71875 Z M 1.0625,-1.328125 c 0,-0.03125 0,-0.265625 0.15625,-0.46875 0.390625,0.28125 0.8125,0.3125 1,0.3125 0.921875,0 1.609375,-0.6875 1.609375,-1.453125 0,-0.375 -0.15625,-0.734375 -0.40625,-0.96875 C 3.78125,-4.25 4.140625,-4.296875 4.3125,-4.296875 c 0.03125,0 0.078125,0 0.109375,0.015625 C 4.3125,-4.25 4.25,-4.140625 4.25,-4.015625 c 0,0.171875 0.140625,0.28125 0.296875,0.28125 0.09375,0 0.28125,-0.0625 0.28125,-0.296875 0,-0.171875 -0.109375,-0.484375 -0.5,-0.484375 -0.203125,0 -0.640625,0.0625 -1.0625,0.46875 C 2.84375,-4.375 2.4375,-4.40625 2.21875,-4.40625 c -0.9375,0 -1.625,0.6875 -1.625,1.453125 0,0.4375 0.21875,0.8125 0.46875,1.03125 -0.125,0.140625 -0.3125,0.46875 -0.3125,0.828125 0,0.3125 0.140625,0.6875 0.453125,0.890625 -0.609375,0.15625 -0.921875,0.59375 -0.921875,0.984375 0,0.71875 0.984375,1.265625 2.203125,1.265625 1.171875,0 2.203125,-0.5 2.203125,-1.28125 0,-0.34375 -0.125,-0.859375 -0.640625,-1.140625 -0.53125,-0.265625 -1.109375,-0.265625 -1.71875,-0.265625 -0.25,0 -0.671875,0 -0.75,-0.015625 C 1.265625,-0.703125 1.0625,-1 1.0625,-1.328125 Z M 2.5,1.828125 c -1.015625,0 -1.703125,-0.515625 -1.703125,-1.046875 0,-0.453125 0.375,-0.828125 0.8125,-0.84375 h 0.59375 c 0.859375,0 1.96875,0 1.96875,0.84375 0,0.546875 -0.703125,1.046875 -1.671875,1.046875 z m 0,0"
           style="stroke:none" />
      </symbol>
      <symbol
         id="symbol9315"
         overflow="visible">
        <path
           id="path1867"
           d="M 1.671875,-3.3125 V -4.40625 L 0.28125,-4.296875 v 0.3125 c 0.703125,0 0.78125,0.0625 0.78125,0.5625 V -0.75 c 0,0.4375 -0.109375,0.4375 -0.78125,0.4375 V 0 c 0.390625,-0.015625 0.859375,-0.03125 1.140625,-0.03125 0.390625,0 0.859375,0 1.265625,0.03125 V -0.3125 H 2.46875 c -0.734375,0 -0.75,-0.109375 -0.75,-0.46875 V -2.3125 c 0,-0.984375 0.421875,-1.875 1.171875,-1.875 0.0625,0 0.09375,0 0.109375,0.015625 -0.03125,0 -0.234375,0.125 -0.234375,0.390625 0,0.265625 0.21875,0.421875 0.4375,0.421875 0.171875,0 0.421875,-0.125 0.421875,-0.4375 0,-0.3125 -0.3125,-0.609375 -0.734375,-0.609375 -0.734375,0 -1.09375,0.671875 -1.21875,1.09375 z m 0,0"
           style="stroke:none" />
      </symbol>
      <symbol
         id="symbol4616"
         overflow="visible">
        <path
           id="path4212"
           d="m 3.3125,-0.75 c 0.046875,0.390625 0.3125,0.8125 0.78125,0.8125 0.21875,0 0.828125,-0.140625 0.828125,-0.953125 v -0.5625 h -0.25 v 0.5625 c 0,0.578125 -0.25,0.640625 -0.359375,0.640625 -0.328125,0 -0.375,-0.453125 -0.375,-0.5 v -1.984375 c 0,-0.421875 0,-0.8125 -0.359375,-1.1875 C 3.1875,-4.3125 2.6875,-4.46875 2.21875,-4.46875 c -0.828125,0 -1.515625,0.46875 -1.515625,1.125 0,0.296875 0.203125,0.46875 0.46875,0.46875 0.28125,0 0.453125,-0.203125 0.453125,-0.453125 0,-0.125 -0.046875,-0.453125 -0.515625,-0.453125 C 1.390625,-4.140625 1.875,-4.25 2.1875,-4.25 c 0.5,0 1.0625,0.390625 1.0625,1.28125 v 0.359375 c -0.515625,0.03125 -1.203125,0.0625 -1.828125,0.359375 -0.75,0.34375 -1,0.859375 -1,1.296875 0,0.8125 0.96875,1.0625 1.59375,1.0625 0.65625,0 1.109375,-0.40625 1.296875,-0.859375 z M 3.25,-2.390625 v 1 c 0,0.9375 -0.71875,1.28125 -1.171875,1.28125 -0.484375,0 -0.890625,-0.34375 -0.890625,-0.84375 0,-0.546875 0.421875,-1.375 2.0625,-1.4375 z m 0,0"
           style="stroke:none" />
      </symbol>
      <symbol
         id="symbol9861"
         overflow="visible">
        <path
           id="path4014"
           d="M 1.765625,-4.40625 0.375,-4.296875 v 0.3125 c 0.640625,0 0.734375,0.0625 0.734375,0.546875 V -0.75 c 0,0.4375 -0.109375,0.4375 -0.78125,0.4375 V 0 C 0.640625,-0.015625 1.1875,-0.03125 1.421875,-0.03125 1.78125,-0.03125 2.125,-0.015625 2.46875,0 v -0.3125 c -0.671875,0 -0.703125,-0.046875 -0.703125,-0.4375 z m 0.03125,-1.734375 c 0,-0.3125 -0.234375,-0.53125 -0.515625,-0.53125 -0.3125,0 -0.53125,0.265625 -0.53125,0.53125 0,0.265625 0.21875,0.53125 0.53125,0.53125 0.28125,0 0.515625,-0.21875 0.515625,-0.53125 z m 0,0"
           style="stroke:none" />
      </symbol>
      <symbol
         id="symbol6153"
         overflow="visible">
        <path
           id="path8839"
           d="M 1.09375,-3.421875 V -0.75 c 0,0.4375 -0.109375,0.4375 -0.78125,0.4375 V 0 c 0.359375,-0.015625 0.859375,-0.03125 1.140625,-0.03125 0.25,0 0.765625,0.015625 1.109375,0.03125 v -0.3125 c -0.671875,0 -0.78125,0 -0.78125,-0.4375 V -2.59375 C 1.78125,-3.625 2.5,-4.1875 3.125,-4.1875 c 0.640625,0 0.75,0.53125 0.75,1.109375 V -0.75 c 0,0.4375 -0.109375,0.4375 -0.78125,0.4375 V 0 c 0.34375,-0.015625 0.859375,-0.03125 1.125,-0.03125 0.25,0 0.78125,0.015625 1.109375,0.03125 v -0.3125 c -0.515625,0 -0.765625,0 -0.765625,-0.296875 v -1.90625 c 0,-0.859375 0,-1.15625 -0.3125,-1.515625 -0.140625,-0.171875 -0.46875,-0.375 -1.046875,-0.375 C 2.46875,-4.40625 2,-3.984375 1.71875,-3.359375 V -4.40625 L 0.3125,-4.296875 v 0.3125 c 0.703125,0 0.78125,0.0625 0.78125,0.5625 z m 0,0"
           style="stroke:none" />
      </symbol>
      <symbol
         id="symbol961"
         overflow="visible">
        <path
           id="path8381"
           d="m 2.078125,-1.9375 c 0.21875,0.046875 1.03125,0.203125 1.03125,0.921875 0,0.5 -0.34375,0.90625 -1.125,0.90625 -0.84375,0 -1.203125,-0.5625 -1.390625,-1.421875 C 0.5625,-1.65625 0.5625,-1.6875 0.453125,-1.6875 c -0.125,0 -0.125,0.0625 -0.125,0.234375 V -0.125 c 0,0.171875 0,0.234375 0.109375,0.234375 0.046875,0 0.0625,-0.015625 0.25,-0.203125 0.015625,-0.015625 0.015625,-0.03125 0.203125,-0.21875 0.4375,0.40625 0.890625,0.421875 1.09375,0.421875 1.140625,0 1.609375,-0.671875 1.609375,-1.390625 0,-0.515625 -0.296875,-0.828125 -0.421875,-0.9375 C 2.84375,-2.546875 2.453125,-2.625 2.03125,-2.703125 1.46875,-2.8125 0.8125,-2.9375 0.8125,-3.515625 c 0,-0.359375 0.25,-0.765625 1.109375,-0.765625 1.09375,0 1.15625,0.90625 1.171875,1.203125 0,0.09375 0.09375,0.09375 0.109375,0.09375 0.140625,0 0.140625,-0.046875 0.140625,-0.234375 v -1.015625 c 0,-0.15625 0,-0.234375 -0.109375,-0.234375 -0.046875,0 -0.078125,0 -0.203125,0.125 -0.03125,0.03125 -0.125,0.125 -0.171875,0.15625 -0.375,-0.28125 -0.78125,-0.28125 -0.9375,-0.28125 -1.21875,0 -1.59375,0.671875 -1.59375,1.234375 0,0.34375 0.15625,0.625 0.421875,0.84375 0.328125,0.25 0.609375,0.3125 1.328125,0.453125 z m 0,0"
           style="stroke:none" />
      </symbol>
    </g>
    <g
       id="g3809">
      <symbol
         id="symbol6347"
         overflow="visible">
        <path
           id="path2628"
           d=""
           style="stroke:none;" />
      </symbol>
      <symbol
         id="symbol6173"
         overflow="visible">
        <path
           id="path3254"
           d="M 4.25 -6.046875 C 4.328125 -6.328125 4.359375 -6.390625 4.484375 -6.421875 C 4.578125 -6.4375 4.90625 -6.4375 5.109375 -6.4375 C 6.125 -6.4375 6.5625 -6.40625 6.5625 -5.625 C 6.5625 -5.46875 6.53125 -5.078125 6.484375 -4.828125 C 6.484375 -4.78125 6.453125 -4.671875 6.453125 -4.640625 C 6.453125 -4.578125 6.484375 -4.5 6.578125 -4.5 C 6.6875 -4.5 6.703125 -4.578125 6.734375 -4.734375 L 7 -6.46875 C 7.015625 -6.515625 7.015625 -6.609375 7.015625 -6.640625 C 7.015625 -6.75 6.921875 -6.75 6.75 -6.75 L 1.21875 -6.75 C 0.984375 -6.75 0.96875 -6.734375 0.890625 -6.546875 L 0.296875 -4.796875 C 0.296875 -4.78125 0.234375 -4.640625 0.234375 -4.609375 C 0.234375 -4.5625 0.296875 -4.5 0.359375 -4.5 C 0.453125 -4.5 0.46875 -4.5625 0.53125 -4.71875 C 1.0625 -6.265625 1.328125 -6.4375 2.796875 -6.4375 L 3.1875 -6.4375 C 3.46875 -6.4375 3.46875 -6.40625 3.46875 -6.3125 C 3.46875 -6.265625 3.4375 -6.140625 3.421875 -6.109375 L 2.09375 -0.78125 C 2 -0.421875 1.96875 -0.3125 0.90625 -0.3125 C 0.546875 -0.3125 0.484375 -0.3125 0.484375 -0.125 C 0.484375 0 0.59375 0 0.65625 0 C 0.921875 0 1.203125 -0.015625 1.46875 -0.015625 C 1.75 -0.015625 2.046875 -0.03125 2.328125 -0.03125 C 2.609375 -0.03125 2.875 -0.015625 3.15625 -0.015625 C 3.4375 -0.015625 3.734375 0 4.015625 0 C 4.109375 0 4.234375 0 4.234375 -0.203125 C 4.234375 -0.3125 4.15625 -0.3125 3.890625 -0.3125 C 3.65625 -0.3125 3.515625 -0.3125 3.265625 -0.328125 C 2.96875 -0.359375 2.890625 -0.390625 2.890625 -0.546875 C 2.890625 -0.5625 2.890625 -0.609375 2.9375 -0.75 Z M 4.25 -6.046875 "
           style="stroke:none;" />
      </symbol>
      <symbol
         id="symbol1726"
         overflow="visible">
        <path
           id="path4262"
           d=""
           style="stroke:none;" />
      </symbol>
      <symbol
         id="symbol4696"
         overflow="visible">
        <path
           id="path360"
           d="M 3.515625 -1.265625 L 3.28125 -1.265625 C 3.265625 -1.109375 3.1875 -0.703125 3.09375 -0.640625 C 3.046875 -0.59375 2.515625 -0.59375 2.40625 -0.59375 L 1.125 -0.59375 C 1.859375 -1.234375 2.109375 -1.4375 2.515625 -1.765625 C 3.03125 -2.171875 3.515625 -2.609375 3.515625 -3.265625 C 3.515625 -4.109375 2.78125 -4.625 1.890625 -4.625 C 1.03125 -4.625 0.4375 -4.015625 0.4375 -3.375 C 0.4375 -3.03125 0.734375 -2.984375 0.8125 -2.984375 C 0.96875 -2.984375 1.171875 -3.109375 1.171875 -3.359375 C 1.171875 -3.484375 1.125 -3.734375 0.765625 -3.734375 C 0.984375 -4.21875 1.453125 -4.375 1.78125 -4.375 C 2.484375 -4.375 2.84375 -3.828125 2.84375 -3.265625 C 2.84375 -2.65625 2.40625 -2.1875 2.1875 -1.9375 L 0.515625 -0.265625 C 0.4375 -0.203125 0.4375 -0.1875 0.4375 0 L 3.3125 0 Z M 3.515625 -1.265625 "
           style="stroke:none;" />
      </symbol>
      <symbol
         id="symbol9136"
         overflow="visible">
        <path
           id="path7727"
           d="M 4.875 -2.328125 C 5.015625 -2.671875 5.25 -2.75 5.46875 -2.75 L 5.46875 -3 C 5.28125 -2.984375 5.15625 -2.96875 4.96875 -2.96875 C 4.75 -2.96875 4.484375 -2.984375 4.28125 -3 L 4.28125 -2.75 C 4.515625 -2.75 4.640625 -2.609375 4.640625 -2.453125 C 4.640625 -2.390625 4.640625 -2.375 4.59375 -2.28125 L 3.921875 -0.546875 L 3.171875 -2.453125 C 3.15625 -2.484375 3.140625 -2.53125 3.140625 -2.578125 C 3.140625 -2.734375 3.3125 -2.75 3.515625 -2.75 L 3.515625 -3 C 3.265625 -2.984375 3.015625 -2.96875 2.765625 -2.96875 C 2.5625 -2.96875 2.34375 -2.984375 2.140625 -3 L 2.140625 -2.75 C 2.3125 -2.75 2.453125 -2.75 2.546875 -2.703125 C 2.640625 -2.625 2.703125 -2.390625 2.703125 -2.390625 C 2.703125 -2.375 2.6875 -2.328125 2.671875 -2.3125 L 2.015625 -0.640625 L 1.3125 -2.453125 C 1.28125 -2.546875 1.28125 -2.546875 1.28125 -2.578125 C 1.28125 -2.75 1.53125 -2.75 1.65625 -2.75 L 1.65625 -3 C 1.640625 -3 1.140625 -2.96875 0.859375 -2.96875 C 0.640625 -2.96875 0.421875 -2.984375 0.203125 -3 L 0.203125 -2.75 C 0.484375 -2.75 0.640625 -2.75 0.703125 -2.546875 L 1.671875 -0.09375 C 1.71875 0.015625 1.734375 0.0625 1.875 0.0625 C 2 0.0625 2.015625 0.015625 2.046875 -0.078125 L 2.84375 -2.0625 L 3.609375 -0.09375 C 3.65625 0 3.671875 0.0625 3.8125 0.0625 C 3.9375 0.0625 3.953125 0.015625 4 -0.09375 Z M 4.875 -2.328125 "
           style="stroke:none;" />
      </symbol>
      <symbol
         id="symbol8284"
         overflow="visible">
        <path
           id="path4354"
           d="M 3.109375 -1.875 C 3.109375 -2.234375 3.109375 -2.5 2.78125 -2.765625 C 2.5 -3 2.171875 -3.109375 1.75 -3.109375 C 1.09375 -3.109375 0.625 -2.859375 0.625 -2.4375 C 0.625 -2.203125 0.78125 -2.09375 0.96875 -2.09375 C 1.15625 -2.09375 1.296875 -2.234375 1.296875 -2.421875 C 1.296875 -2.53125 1.234375 -2.6875 1.046875 -2.734375 C 1.296875 -2.90625 1.703125 -2.90625 1.734375 -2.90625 C 2.125 -2.90625 2.5625 -2.65625 2.5625 -2.0625 L 2.5625 -1.859375 C 2.171875 -1.84375 1.71875 -1.8125 1.203125 -1.625 C 0.578125 -1.40625 0.390625 -1.015625 0.390625 -0.703125 C 0.390625 -0.109375 1.109375 0.0625 1.609375 0.0625 C 2.15625 0.0625 2.484375 -0.25 2.640625 -0.515625 C 2.65625 -0.234375 2.84375 0.03125 3.171875 0.03125 C 3.1875 0.03125 3.859375 0.03125 3.859375 -0.625 L 3.859375 -1.015625 L 3.625 -1.015625 L 3.625 -0.640625 C 3.625 -0.5625 3.625 -0.234375 3.359375 -0.234375 C 3.109375 -0.234375 3.109375 -0.5625 3.109375 -0.640625 Z M 2.5625 -0.984375 C 2.5625 -0.3125 1.96875 -0.125 1.65625 -0.125 C 1.296875 -0.125 0.96875 -0.359375 0.96875 -0.703125 C 0.96875 -1.09375 1.296875 -1.625 2.5625 -1.671875 Z M 2.5625 -0.984375 "
           style="stroke:none;" />
      </symbol>
      <symbol
         id="symbol3317"
         overflow="visible">
        <path
           id="path3598"
           d="M 1.40625 -2.75 L 2.484375 -2.75 L 2.484375 -3 L 1.40625 -3 L 1.40625 -4.28125 L 1.15625 -4.28125 C 1.15625 -3.65625 0.875 -2.96875 0.203125 -2.953125 L 0.203125 -2.75 L 0.84375 -2.75 L 0.84375 -0.875 C 0.84375 -0.09375 1.4375 0.0625 1.828125 0.0625 C 2.296875 0.0625 2.609375 -0.328125 2.609375 -0.875 L 2.609375 -1.265625 L 2.375 -1.265625 L 2.375 -0.890625 C 2.375 -0.40625 2.15625 -0.15625 1.875 -0.15625 C 1.40625 -0.15625 1.40625 -0.734375 1.40625 -0.859375 Z M 1.40625 -2.75 "
           style="stroke:none;" />
      </symbol>
      <symbol
         id="symbol9533"
         overflow="visible">
        <path
           id="path4116"
           d="M 3.0625 -1.59375 C 3.21875 -1.59375 3.265625 -1.59375 3.265625 -1.734375 C 3.265625 -2.359375 2.921875 -3.109375 1.875 -3.109375 C 0.96875 -3.109375 0.265625 -2.390625 0.265625 -1.53125 C 0.265625 -0.640625 1.046875 0.0625 1.96875 0.0625 C 2.90625 0.0625 3.265625 -0.6875 3.265625 -0.84375 C 3.265625 -0.859375 3.25 -0.9375 3.140625 -0.9375 C 3.046875 -0.9375 3.03125 -0.890625 3.015625 -0.828125 C 2.796875 -0.265625 2.265625 -0.15625 2.015625 -0.15625 C 1.6875 -0.15625 1.375 -0.296875 1.171875 -0.5625 C 0.90625 -0.890625 0.90625 -1.3125 0.90625 -1.59375 Z M 0.90625 -1.765625 C 0.984375 -2.75 1.609375 -2.90625 1.875 -2.90625 C 2.734375 -2.90625 2.765625 -1.9375 2.78125 -1.765625 Z M 0.90625 -1.765625 "
           style="stroke:none;" />
      </symbol>
      <symbol
         id="symbol7858"
         overflow="visible">
        <path
           id="path2616"
           d="M 1.390625 -1.59375 C 1.390625 -2.171875 1.65625 -2.875 2.328125 -2.875 C 2.265625 -2.828125 2.203125 -2.734375 2.203125 -2.625 C 2.203125 -2.390625 2.390625 -2.3125 2.515625 -2.3125 C 2.6875 -2.3125 2.84375 -2.421875 2.84375 -2.625 C 2.84375 -2.859375 2.609375 -3.078125 2.28125 -3.078125 C 1.9375 -3.078125 1.546875 -2.859375 1.34375 -2.328125 L 1.34375 -3.078125 L 0.34375 -3 L 0.34375 -2.75 C 0.8125 -2.75 0.859375 -2.703125 0.859375 -2.359375 L 0.859375 -0.546875 C 0.859375 -0.25 0.796875 -0.25 0.34375 -0.25 L 0.34375 0 C 0.375 0 0.84375 -0.03125 1.140625 -0.03125 C 1.4375 -0.03125 1.734375 -0.015625 2.046875 0 L 2.046875 -0.25 L 1.90625 -0.25 C 1.390625 -0.25 1.390625 -0.328125 1.390625 -0.5625 Z M 1.390625 -1.59375 "
           style="stroke:none;" />
      </symbol>
      <symbol
         id="symbol2853"
         overflow="visible">
        <path
           id="path6979"
           d=""
           style="stroke:none;" />
      </symbol>
      <symbol
         id="symbol6701"
         overflow="visible">
        <path
           id="path103"
           d="M 1.46875 -0.109375 C 1.46875 0.265625 1.40625 0.71875 0.921875 1.15625 C 0.90625 1.1875 0.875 1.21875 0.875 1.25 C 0.875 1.296875 0.9375 1.34375 0.96875 1.34375 C 1.078125 1.34375 1.671875 0.78125 1.671875 -0.046875 C 1.671875 -0.46875 1.5 -0.796875 1.171875 -0.796875 C 0.953125 -0.796875 0.78125 -0.625 0.78125 -0.40625 C 0.78125 -0.1875 0.9375 0 1.1875 0 C 1.359375 0 1.46875 -0.109375 1.46875 -0.109375 Z M 1.46875 -0.109375 "
           style="stroke:none;" />
      </symbol>
    </g>
    <g
       id="g4746">
      <symbol
         id="symbol5214"
         overflow="visible">
        <path
           id="path5430"
           d=""
           style="stroke:none;" />
      </symbol>
      <symbol
         id="symbol637"
         overflow="visible">
        <path
           id="path6540"
           d="M 4.25 -6.046875 C 4.328125 -6.328125 4.359375 -6.390625 4.484375 -6.421875 C 4.578125 -6.4375 4.90625 -6.4375 5.109375 -6.4375 C 6.125 -6.4375 6.5625 -6.40625 6.5625 -5.625 C 6.5625 -5.46875 6.53125 -5.078125 6.484375 -4.828125 C 6.484375 -4.78125 6.453125 -4.671875 6.453125 -4.640625 C 6.453125 -4.578125 6.484375 -4.5 6.578125 -4.5 C 6.6875 -4.5 6.703125 -4.578125 6.734375 -4.734375 L 7 -6.46875 C 7.015625 -6.515625 7.015625 -6.609375 7.015625 -6.640625 C 7.015625 -6.75 6.921875 -6.75 6.75 -6.75 L 1.21875 -6.75 C 0.984375 -6.75 0.96875 -6.734375 0.890625 -6.546875 L 0.296875 -4.796875 C 0.296875 -4.78125 0.234375 -4.640625 0.234375 -4.609375 C 0.234375 -4.5625 0.296875 -4.5 0.359375 -4.5 C 0.453125 -4.5 0.46875 -4.5625 0.53125 -4.71875 C 1.0625 -6.265625 1.328125 -6.4375 2.796875 -6.4375 L 3.1875 -6.4375 C 3.46875 -6.4375 3.46875 -6.40625 3.46875 -6.3125 C 3.46875 -6.265625 3.4375 -6.140625 3.421875 -6.109375 L 2.09375 -0.78125 C 2 -0.421875 1.96875 -0.3125 0.90625 -0.3125 C 0.546875 -0.3125 0.484375 -0.3125 0.484375 -0.125 C 0.484375 0 0.59375 0 0.65625 0 C 0.921875 0 1.203125 -0.015625 1.46875 -0.015625 C 1.75 -0.015625 2.046875 -0.03125 2.328125 -0.03125 C 2.609375 -0.03125 2.875 -0.015625 3.15625 -0.015625 C 3.4375 -0.015625 3.734375 0 4.015625 0 C 4.109375 0 4.234375 0 4.234375 -0.203125 C 4.234375 -0.3125 4.15625 -0.3125 3.890625 -0.3125 C 3.65625 -0.3125 3.515625 -0.3125 3.265625 -0.328125 C 2.96875 -0.359375 2.890625 -0.390625 2.890625 -0.546875 C 2.890625 -0.5625 2.890625 -0.609375 2.9375 -0.75 Z M 4.25 -6.046875 "
           style="stroke:none;" />
      </symbol>
      <symbol
         id="symbol9015"
         overflow="visible">
        <path
           id="path5923"
           d=""
           style="stroke:none;" />
      </symbol>
      <symbol
         id="symbol3189"
         overflow="visible">
        <path
           id="path9983"
           d="M 3.515625 -1.265625 L 3.28125 -1.265625 C 3.265625 -1.109375 3.1875 -0.703125 3.09375 -0.640625 C 3.046875 -0.59375 2.515625 -0.59375 2.40625 -0.59375 L 1.125 -0.59375 C 1.859375 -1.234375 2.109375 -1.4375 2.515625 -1.765625 C 3.03125 -2.171875 3.515625 -2.609375 3.515625 -3.265625 C 3.515625 -4.109375 2.78125 -4.625 1.890625 -4.625 C 1.03125 -4.625 0.4375 -4.015625 0.4375 -3.375 C 0.4375 -3.03125 0.734375 -2.984375 0.8125 -2.984375 C 0.96875 -2.984375 1.171875 -3.109375 1.171875 -3.359375 C 1.171875 -3.484375 1.125 -3.734375 0.765625 -3.734375 C 0.984375 -4.21875 1.453125 -4.375 1.78125 -4.375 C 2.484375 -4.375 2.84375 -3.828125 2.84375 -3.265625 C 2.84375 -2.65625 2.40625 -2.1875 2.1875 -1.9375 L 0.515625 -0.265625 C 0.4375 -0.203125 0.4375 -0.1875 0.4375 0 L 3.3125 0 Z M 3.515625 -1.265625 "
           style="stroke:none;" />
      </symbol>
      <symbol
         id="symbol7208"
         overflow="visible">
        <path
           id="path6255"
           d="M 3.6875 -1.484375 C 3.6875 -2.359375 2.9375 -3.109375 1.984375 -3.109375 C 1.015625 -3.109375 0.265625 -2.359375 0.265625 -1.484375 C 0.265625 -0.625 1.03125 0.0625 1.984375 0.0625 C 2.921875 0.0625 3.6875 -0.625 3.6875 -1.484375 Z M 1.984375 -0.15625 C 1.71875 -0.15625 1.34375 -0.234375 1.109375 -0.578125 C 0.921875 -0.859375 0.90625 -1.21875 0.90625 -1.546875 C 0.90625 -1.84375 0.90625 -2.265625 1.15625 -2.5625 C 1.328125 -2.765625 1.625 -2.90625 1.984375 -2.90625 C 2.390625 -2.90625 2.6875 -2.71875 2.84375 -2.5 C 3.03125 -2.234375 3.046875 -1.875 3.046875 -1.546875 C 3.046875 -1.21875 3.03125 -0.84375 2.828125 -0.5625 C 2.640625 -0.296875 2.328125 -0.15625 1.984375 -0.15625 Z M 1.984375 -0.15625 "
           style="stroke:none;" />
      </symbol>
      <symbol
         id="symbol4827"
         overflow="visible">
        <path
           id="path8158"
           d="M 1.46875 -4.296875 C 1.46875 -4.5 1.296875 -4.703125 1.0625 -4.703125 C 0.859375 -4.703125 0.671875 -4.53125 0.671875 -4.296875 C 0.671875 -4.046875 0.875 -3.890625 1.0625 -3.890625 C 1.296875 -3.890625 1.46875 -4.0625 1.46875 -4.296875 Z M 0.40625 -3 L 0.40625 -2.75 C 0.84375 -2.75 0.90625 -2.703125 0.90625 -2.359375 L 0.90625 -0.546875 C 0.90625 -0.25 0.84375 -0.25 0.390625 -0.25 L 0.390625 0 C 0.40625 0 0.890625 -0.03125 1.171875 -0.03125 C 1.421875 -0.03125 1.671875 -0.015625 1.90625 0 L 1.90625 -0.25 C 1.5 -0.25 1.4375 -0.25 1.4375 -0.546875 L 1.4375 -3.078125 Z M 0.40625 -3 "
           style="stroke:none;" />
      </symbol>
      <symbol
         id="symbol9643"
         overflow="visible">
        <path
           id="path7695"
           d="M 1.4375 -4.84375 L 0.390625 -4.765625 L 0.390625 -4.515625 C 0.859375 -4.515625 0.90625 -4.453125 0.90625 -4.125 L 0.90625 -0.546875 C 0.90625 -0.25 0.84375 -0.25 0.390625 -0.25 L 0.390625 0 C 0.40625 0 0.890625 -0.03125 1.171875 -0.03125 C 1.4375 -0.03125 1.6875 -0.015625 1.953125 0 L 1.953125 -0.25 C 1.5 -0.25 1.4375 -0.25 1.4375 -0.546875 Z M 1.4375 -4.84375 "
           style="stroke:none;" />
      </symbol>
      <symbol
         id="symbol1099"
         overflow="visible">
        <path
           id="path8013"
           d=""
           style="stroke:none;" />
      </symbol>
      <symbol
         id="symbol2068"
         overflow="visible">
        <path
           id="path260"
           d="M 1.46875 -0.109375 C 1.46875 0.265625 1.40625 0.71875 0.921875 1.15625 C 0.90625 1.1875 0.875 1.21875 0.875 1.25 C 0.875 1.296875 0.9375 1.34375 0.96875 1.34375 C 1.078125 1.34375 1.671875 0.78125 1.671875 -0.046875 C 1.671875 -0.46875 1.5 -0.796875 1.171875 -0.796875 C 0.953125 -0.796875 0.78125 -0.625 0.78125 -0.40625 C 0.78125 -0.1875 0.9375 0 1.1875 0 C 1.359375 0 1.46875 -0.109375 1.46875 -0.109375 Z M 1.46875 -0.109375 "
           style="stroke:none;" />
      </symbol>
    </g>
  </defs>
  <sodipodi:namedview
     fit-margin-bottom="0"
     fit-margin-right="0"
     fit-margin-left="0"
     fit-margin-top="0"
     inkscape:window-maximized="0"
     inkscape:window-y="27"
     inkscape:window-x="123"
     inkscape:window-height="1016"
     inkscape:window-width="1427"
     showgrid="false"
     inkscape:document-rotation="0"
     inkscape:current-layer="layer1"
     inkscape:document-units="mm"
     inkscape:cy="178.82044"
     inkscape:cx="1083.8414"
     inkscape:zoom="0.175"
     inkscape:pageshadow="2"
     inkscape:pageopacity="0.0"
     borderopacity="1.0"
     bordercolor="#666666"
     pagecolor="#ffffff"
     id="base" />
  <metadata
     id="metadata5136">
    <rdf:RDF>
      <cc:Work
         rdf:about="">
        <dc:format>image/svg+xml</dc:format>
        <dc:type
           rdf:resource="http://purl.org/dc/dcmitype/StillImage" />
        <dc:title></dc:title>
      </cc:Work>
    </rdf:RDF>
  </metadata>
  <g
     transform="translate(-23.107271,-15.735149)"
     id="layer1"
     inkscape:groupmode="layer"
     inkscape:label="Layer 1">
    <circle
       style="fill:none;fill-opacity:0.568627;stroke:#000000;stroke-width:1.092;stroke-opacity:1"
       id="path1149"
       cx="-141.93782"
       cy="-123.43098"
       r="39.053158"
       transform="scale(-1)" />
    <use
       x="0"
       y="0"
       xlink:href="#path1149"
       id="use1151"
       transform="translate(-79.231392)"
       width="100%"
       height="100%" />
    <use
       x="0"
       y="0"
       xlink:href="#use1151"
       id="use1153"
       transform="translate(39.693342,-68.09667)"
       width="100%"
       height="100%" />
    <circle
       style="fill:#ff5959;fill-opacity:1;stroke:none;stroke-width:1.00097;stroke-opacity:1"
       id="path1155"
       cx="99.068993"
       cy="98.976219"
       r="4.2350349" />
    <use
       x="0"
       y="0"
       xlink:href="#path1155"
       id="use1157"
       transform="translate(6.4380507,0.08310335)"
       width="100%"
       height="100%" />
    <use
       x="0"
       y="0"
       xlink:href="#use1157"
       id="use1159"
       transform="translate(-3.1901183,5.6371134)"
       width="100%"
       height="100%" />
    <path
       style="fill:#ff5959;fill-opacity:1;stroke:none;stroke-width:0.137886;stroke-opacity:1"
       d="m 106.28907,106.16072 c 2.6e-4,-0.0259 0.15896,-0.60544 0.18552,-0.75244 0.10349,-0.57277 -8e-4,-1.40648 -0.17854,-1.98253 -0.0281,-0.091 -0.0321,-0.21722 -0.0321,-0.21722 0,0 0.17046,-0.0366 0.34272,-0.0855 0.43457,-0.12331 0.6944,-0.28065 1.03126,-0.49214 0.32452,-0.20376 0.48789,-0.24653 0.76087,-0.50951 0.10566,-0.10178 0.49649,-0.52599 0.49649,-0.51685 0,0.009 -0.40044,0.61432 -0.57762,0.89702 -0.44139,0.7042 -0.99733,1.67708 -1.44868,2.53517 -0.41755,0.79383 -0.58087,1.19012 -0.57995,1.12399 z"
       id="path1161"
       sodipodi:nodetypes="csscssssssc" />
    <path
       style="fill:#ff5959;fill-opacity:1;stroke:none;stroke-width:0.137886;stroke-opacity:1"
       d="m 98.020388,105.47358 c -0.392401,-0.79312 -1.12463,-2.07426 -1.69459,-2.98604 -0.162909,-0.2606 -0.568719,-0.88106 -0.568719,-0.89344 0,-0.0124 0.427048,0.40947 0.541887,0.51585 0.483362,0.44778 1.261661,0.82391 1.907943,0.95772 0.15603,0.0323 0.246708,0.0811 0.23391,0.12544 -0.009,0.0305 -0.0416,0.21304 -0.0877,0.36936 -0.170529,0.57771 -0.253791,1.4259 -0.12801,2.01937 0.0288,0.13595 0.16797,0.66191 0.1086,0.49485 0.009,0.0917 -0.224991,-0.42468 -0.313269,-0.60311 z"
       id="path1163"
       sodipodi:nodetypes="sssssssscss" />
    <path
       style="fill:#ff5959;fill-opacity:1;stroke:none;stroke-width:0.166618;stroke-opacity:1"
       d="m 102.13199,96.172276 c -0.49173,-0.493191 -1.09807,-0.88623 -1.7615,-1.141831 l -0.559333,-0.163779 2.786303,0.0594 2.5922,-0.0621 -0.37923,0.145471 c 0,0 -0.75502,0.272841 -1.13144,0.493061 -0.32944,0.192771 -1.00476,0.722069 -1.14366,0.896351 l -0.0788,0.0989 z"
       id="path1165"
       sodipodi:nodetypes="sscccssscs" />
    <path
       style="fill:#007fff;fill-opacity:0.568627;stroke:none;stroke-width:0.137886;stroke-opacity:1"
       d="m 78.261088,86.998645 c -1.664671,-0.727919 -3.953719,-1.50223 -5.84776,-1.978099 -1.640351,-0.412141 -3.743672,-0.796311 -5.172311,-0.944732 l -0.39611,-0.0412 0.229071,-0.0459 c 1.211008,-0.242879 2.316379,-1.078881 2.881598,-2.179381 0.489622,-0.953309 0.616191,-1.969428 0.372642,-2.991659 -0.0348,-0.145971 -0.0598,-0.268881 -0.0555,-0.273122 0.004,-0.004 0.19626,0.24375 0.426691,0.551101 1.91733,2.557341 4.176429,4.912151 6.647651,6.92931 0.427818,0.349211 1.28878,1.01921 1.515398,1.179291 0.144331,0.101938 -0.0498,0.0356 -0.601358,-0.205611 z"
       id="path1208" />
    <path
       style="fill:#007fff;fill-opacity:0.568627;stroke:none;stroke-width:0.137886;stroke-opacity:1"
       d="m 94.807317,100.20866 c -1.850999,-2.570674 -4.16333,-5.054604 -6.630689,-7.122743 -0.528812,-0.443262 -1.727379,-1.391682 -1.909561,-1.511062 -0.167219,-0.10957 -0.0398,-0.0725 0.376449,0.109431 3.596093,1.572049 7.843221,2.678528 11.756171,3.062791 0.0707,0.007 0.0312,0.02249 -0.133628,0.0528 -0.736362,0.135253 -1.519881,0.533112 -2.082102,1.057172 -1.24832,1.163608 -1.680329,2.899249 -1.126238,4.524801 0.0465,0.13631 0.0803,0.25199 0.0753,0.25707 -0.005,0.005 -0.151619,-0.18855 -0.325659,-0.43027 z"
       id="path1210" />
    <path
       style="fill:#007fff;fill-opacity:0.568627;stroke:none;stroke-width:0.137886;stroke-opacity:1"
       d="m 109.42549,100.73536 c 0.0118,-0.0368 0.0645,-0.19468 0.1172,-0.35094 0.13837,-0.410293 0.19925,-0.813016 0.19925,-1.317994 0,-0.532112 -0.067,-0.952032 -0.22386,-1.402612 -0.13945,-0.400629 -0.2302,-0.585578 -0.46004,-0.937498 -0.51459,-0.787932 -1.29074,-1.388451 -2.1865,-1.691719 -0.29847,-0.101042 -0.73197,-0.193601 -0.93353,-0.199343 l -0.12159,-0.003 0.11693,-0.0273 c 0.0643,-0.01511 0.36499,-0.0519 0.66818,-0.0819 3.59898,-0.356791 7.56755,-1.371939 11.05577,-2.8281 0.30181,-0.12597 0.55382,-0.223969 0.56004,-0.217781 0.006,0.006 -0.13509,0.1226 -0.31401,0.258652 -1.42003,1.07969 -2.62346,2.137759 -4.00268,3.519199 -1.56523,1.567759 -2.76332,2.969231 -4.04767,4.734746 -0.48376,0.665 -0.45301,0.62573 -0.42749,0.54602 z"
       id="path1212" />
    <path
       style="fill:#007fff;fill-opacity:0.568627;stroke:none;stroke-width:0.137886;stroke-opacity:1"
       d="m 102.2918,122.07107 c 0,-0.44304 -0.0525,-1.30587 -0.13558,-2.22594 -0.36969,-4.09672 -1.3935,-8.17158 -2.995192,-11.92112 -0.15562,-0.36431 -0.277831,-0.66698 -0.271582,-0.67265 0.006,-0.006 0.109591,0.10449 0.229643,0.24476 0.547909,0.64025 1.367601,1.13157 2.237271,1.3411 0.43633,0.10511 1.15999,0.12864 1.63632,0.0532 0.59318,-0.0939 1.17157,-0.32019 1.68785,-0.66022 0.28918,-0.19048 0.77765,-0.64161 0.9753,-0.90078 0.0677,-0.0888 0.12759,-0.15693 0.13309,-0.15141 0.005,0.006 -0.0967,0.25699 -0.22703,0.55887 -1.89926,4.39786 -2.99201,9.16388 -3.19979,13.95593 -0.0316,0.72771 -0.0703,0.9362 -0.0703,0.37827 z"
       id="path1214" />
    <path
       style="fill:#007fff;fill-opacity:0.568627;stroke:none;stroke-width:0.137886;stroke-opacity:1"
       d="m 126.19786,87.011686 c 0.38526,-0.286202 1.09289,-0.848891 1.58981,-1.264181 2.57394,-2.151071 4.85847,-4.6144 6.87296,-7.410911 0.12443,-0.172728 0.13195,-0.151468 0.0404,0.114541 -0.12471,0.362429 -0.18015,0.745421 -0.18148,1.25345 -0.001,0.541049 0.0412,0.83615 0.18835,1.302941 0.26355,0.836139 0.81061,1.60673 1.51301,2.131168 0.57917,0.43243 1.53026,0.794841 2.13348,0.812941 0.0761,0.0021 -0.0571,0.0249 -0.29601,0.0503 -4.03102,0.428691 -7.75735,1.361882 -11.2621,2.820381 -0.35097,0.14605 -0.65164,0.265078 -0.66816,0.264499 -0.0165,0 0.0148,-0.0344 0.0697,-0.0752 z"
       id="path1216" />
    <path
       style="fill:#007fff;fill-opacity:0.568627;stroke:none;stroke-width:0.137886;stroke-opacity:1"
       d="m 105.63168,139.50624 c -0.19321,-0.25334 -0.65669,-0.67646 -0.96767,-0.88336 -0.71551,-0.47609 -1.46858,-0.69871 -2.35985,-0.69758 -0.71858,0 -1.28297,0.13415 -1.921,0.45353 -0.482963,0.24177 -0.987563,0.63804 -1.307153,1.0265 -0.105529,0.1283 -0.196811,0.22831 -0.202841,0.22228 -0.006,-0.006 0.0434,-0.12981 0.1099,-0.27504 0.0665,-0.1452 0.245962,-0.57224 0.398841,-0.94893 1.815913,-4.4741 2.795733,-9.12674 2.919833,-13.86459 0.0222,-0.84682 0.0256,-0.88746 0.0306,-0.3675 0.003,0.32157 0.0209,0.87781 0.0395,1.23613 0.24786,4.76655 1.30122,9.30582 3.17446,13.67981 0.13124,0.30641 0.23252,0.56324 0.22507,0.57068 -0.007,0.007 -0.0703,-0.0609 -0.13973,-0.15193 z"
       id="path1218" />
    <g
       inkscape:label=""
       transform="translate(63.173924,-20.751488)"
       id="g6110">
      <g
         id="g2049">
        <g
           id="g6288"
           style="fill:#000000;fill-opacity:1">
          <use
             height="100%"
             width="100%"
             id="use1578"
             y="81.962997"
             x="91.925003"
             xlink:href="#symbol3066" />
        </g>
        <g
           id="g6119"
           style="fill:#000000;fill-opacity:1">
          <use
             height="100%"
             width="100%"
             id="use7385"
             y="81.962997"
             x="97.739174"
             xlink:href="#symbol8406" />
          <use
             height="100%"
             width="100%"
             id="use2104"
             y="81.962997"
             x="102.16655"
             xlink:href="#symbol2647" />
          <use
             height="100%"
             width="100%"
             id="use8502"
             y="81.962997"
             x="107.70177"
             xlink:href="#symbol4183" />
          <use
             height="100%"
             width="100%"
             id="use9018"
             y="81.962997"
             x="113.23699"
             xlink:href="#symbol441" />
          <use
             height="100%"
             width="100%"
             id="use7716"
             y="81.962997"
             x="118.77222"
             xlink:href="#symbol528" />
          <use
             height="100%"
             width="100%"
             id="use8408"
             y="81.962997"
             x="121.53983"
             xlink:href="#symbol8347" />
          <use
             height="100%"
             width="100%"
             id="use6654"
             y="81.962997"
             x="126.52113"
             xlink:href="#symbol8030" />
        </g>
      </g>
    </g>
    <g
       inkscape:label=""
       transform="translate(62.978366,-8.5450815)"
       id="g6214">
      <g
         id="g6159">
        <g
           id="g4292"
           style="fill:#000000;fill-opacity:1">
          <use
             height="100%"
             width="100%"
             id="use1846"
             y="81.962997"
             x="91.925003"
             xlink:href="#symbol142" />
          <use
             height="100%"
             width="100%"
             id="use7131"
             y="81.962997"
             x="95.827347"
             xlink:href="#symbol7372" />
          <use
             height="100%"
             width="100%"
             id="use2199"
             y="81.962997"
             x="98.594963"
             xlink:href="#symbol9875" />
          <use
             height="100%"
             width="100%"
             id="use5770"
             y="81.962997"
             x="104.13018"
             xlink:href="#symbol6648" />
          <use
             height="100%"
             width="100%"
             id="use527"
             y="81.962997"
             x="109.11148"
             xlink:href="#symbol8023" />
        </g>
      </g>
    </g>
    <g
       inkscape:label=""
       transform="translate(31.884466,31.721771)"
       id="g6342">
      <g
         id="g7170">
        <g
           id="g8660"
           style="fill:#000000;fill-opacity:1">
          <use
             height="100%"
             width="100%"
             id="use4464"
             y="81.962997"
             x="91.925003"
             xlink:href="#symbol2679" />
          <use
             height="100%"
             width="100%"
             id="use9135"
             y="81.962997"
             x="97.46022"
             xlink:href="#symbol2940" />
          <use
             height="100%"
             width="100%"
             id="use9567"
             y="81.962997"
             x="102.44152"
             xlink:href="#symbol2679" />
          <use
             height="100%"
             width="100%"
             id="use3389"
             y="81.962997"
             x="107.97674"
             xlink:href="#symbol9066" />
          <use
             height="100%"
             width="100%"
             id="use7204"
             y="81.962997"
             x="111.29728"
             xlink:href="#symbol5921" />
        </g>
        <g
           id="g2552"
           style="fill:#000000;fill-opacity:1">
          <use
             height="100%"
             width="100%"
             id="use306"
             y="81.962997"
             x="118.21331"
             xlink:href="#symbol3381" />
          <use
             height="100%"
             width="100%"
             id="use1269"
             y="81.962997"
             x="122.64069"
             xlink:href="#symbol200" />
          <use
             height="100%"
             width="100%"
             id="use8493"
             y="81.962997"
             x="126.51514"
             xlink:href="#symbol200" />
          <use
             height="100%"
             width="100%"
             id="use3714"
             y="81.962997"
             x="130.3896"
             xlink:href="#symbol4105" />
          <use
             height="100%"
             width="100%"
             id="use958"
             y="81.962997"
             x="133.15721"
             xlink:href="#symbol2679" />
          <use
             height="100%"
             width="100%"
             id="use8460"
             y="81.962997"
             x="138.69243"
             xlink:href="#symbol8212" />
        </g>
      </g>
    </g>
    <g
       inkscape:label=""
       transform="translate(32.857364,41.093528)"
       id="g6501">
      <g
         id="g1259">
        <g
           id="g2957"
           style="fill:#000000;fill-opacity:1">
          <use
             height="100%"
             width="100%"
             id="use5159"
             y="81.962997"
             x="91.925003"
             xlink:href="#symbol2622" />
          <use
             height="100%"
             width="100%"
             id="use5091"
             y="81.962997"
             x="97.46022"
             xlink:href="#symbol2579" />
          <use
             height="100%"
             width="100%"
             id="use5823"
             y="81.962997"
             x="102.99544"
             xlink:href="#symbol9546" />
          <use
             height="100%"
             width="100%"
             id="use3954"
             y="81.962997"
             x="105.76305"
             xlink:href="#symbol2952" />
        </g>
      </g>
    </g>
    <g
       transform="translate(-3.7041668,2.1166667)"
       id="g6946">
      <g
         id="g6678"
         transform="translate(-44.953565,31.431305)"
         inkscape:label="">
        <g
           id="g6484">
          <g
             style="fill:#000000;fill-opacity:1"
             id="g2991">
            <use
               xlink:href="#symbol3318"
               x="91.925003"
               y="81.962997"
               id="use5863"
               width="100%"
               height="100%" />
            <use
               xlink:href="#symbol9585"
               x="95.854248"
               y="81.962997"
               id="use5991"
               width="100%"
               height="100%" />
            <use
               xlink:href="#symbol7509"
               x="101.38947"
               y="81.962997"
               id="use9894"
               width="100%"
               height="100%" />
            <use
               xlink:href="#symbol9617"
               x="106.92469"
               y="81.962997"
               id="use9550"
               width="100%"
               height="100%" />
            <use
               xlink:href="#symbol1789"
               x="111.35207"
               y="81.962997"
               id="use6670"
               width="100%"
               height="100%" />
            <use
               xlink:href="#symbol9819"
               x="115.25442"
               y="81.962997"
               id="use5034"
               width="100%"
               height="100%" />
            <use
               xlink:href="#symbol9114"
               x="118.02203"
               y="81.962997"
               id="use4080"
               width="100%"
               height="100%" />
            <use
               xlink:href="#symbol4901"
               x="122.44941"
               y="81.962997"
               id="use2601"
               width="100%"
               height="100%" />
            <use
               xlink:href="#symbol6316"
               x="127.43071"
               y="81.962997"
               id="use2758"
               width="100%"
               height="100%" />
          </g>
        </g>
      </g>
      <g
         id="g6893"
         transform="translate(-45.595801,43.640643)"
         inkscape:label="">
        <g
           id="g9585">
          <g
             style="fill:#000000;fill-opacity:1"
             id="g729">
            <use
               xlink:href="#symbol5971"
               x="91.925003"
               y="81.962997"
               id="use2196"
               width="100%"
               height="100%" />
            <use
               xlink:href="#symbol9315"
               x="96.906303"
               y="81.962997"
               id="use2955"
               width="100%"
               height="100%" />
            <use
               xlink:href="#symbol4616"
               x="100.80865"
               y="81.962997"
               id="use2020"
               width="100%"
               height="100%" />
            <use
               xlink:href="#symbol9861"
               x="105.78995"
               y="81.962997"
               id="use6079"
               width="100%"
               height="100%" />
            <use
               xlink:href="#symbol6153"
               x="108.55756"
               y="81.962997"
               id="use7010"
               width="100%"
               height="100%" />
            <use
               xlink:href="#symbol961"
               x="114.09278"
               y="81.962997"
               id="use7772"
               width="100%"
               height="100%" />
          </g>
        </g>
      </g>
    </g>
    <path
       id="path6921"
       d="M 133.26361,82.189409 150.12076,64.335416"
       style="fill:none;stroke:#000000;stroke-width:0.465;stroke-linecap:butt;stroke-linejoin:miter;stroke-miterlimit:4;stroke-dasharray:none;stroke-opacity:1" />
    <path
       id="path6923"
       d="m 106.26395,103.20853 16.52145,9.78294"
       style="fill:none;stroke:#000000;stroke-width:0.465;stroke-linecap:butt;stroke-linejoin:miter;stroke-miterlimit:4;stroke-dasharray:none;stroke-opacity:1" />
    <g
       transform="matrix(-0.83957566,-1.3523238,1.3523238,-0.83957566,466.68598,651.77702)"
       id="g7307">
      <path
         d="m 355.48175,155.27132 c 0,-30.08569 19.93029,-55.516407 47.30826,-63.809554 m -46.72038,73.047944 c -0.45542,-3.14586 -0.69116,-6.36284 -0.69116,-9.63488"
         style="fill:none;fill-opacity:0.568627;stroke:#000000;stroke-width:1.86401;stroke-opacity:1"
         id="path1149-6"
         sodipodi:nodetypes="cccc" />
      <path
         d="m 305.39999,91.209624 c 27.81604,8.019029 48.16129,33.664416 48.16129,64.061696 0,3.23899 -0.231,6.42404 -0.67743,9.53955"
         style="fill:none;fill-opacity:0.568627;stroke:#000000;stroke-width:1.86401;stroke-opacity:1"
         id="use1151-7"
         sodipodi:nodetypes="csc" />
      <path
         d="m 399.60252,88.262315 c -1.02778,0.938926 -2.08507,1.846096 -3.17031,2.719957 -11.43008,9.203768 -25.96079,14.712638 -41.77816,14.712638 -15.51332,0 -29.78896,-5.29912 -41.11558,-14.185992 -1.4475,-1.135712 -3.89875,-2.563349 -5.24635,-3.812681"
         style="fill:none;fill-opacity:0.568627;stroke:#000000;stroke-width:1.86401;stroke-opacity:1"
         id="use1153-5"
         sodipodi:nodetypes="csssc" />
      <path
         d="m 356.19755,113.52776 a 7.2290778,7.2290778 0 0 1 -7.22907,7.22908 7.2290778,7.2290778 0 0 1 -7.22908,-7.22908 7.2290778,7.2290778 0 0 1 7.22908,-7.22907 7.2290778,7.2290778 0 0 1 7.22907,7.22907"
         style="fill:#ff5959;fill-opacity:1;stroke:none;stroke-width:1.70862;stroke-opacity:1"
         id="path1155-3" />
      <path
         d="m 367.18712,113.66963 a 7.2290778,7.2290778 0 0 1 -7.22908,7.22908 7.2290778,7.2290778 0 0 1 -7.22908,-7.22908 7.2290778,7.2290778 0 0 1 7.22908,-7.22908 7.2290778,7.2290778 0 0 1 7.22908,7.22908"
         style="fill:#ff5959;fill-opacity:1;stroke:none;stroke-width:1.70862;stroke-opacity:1"
         id="use1157-5" />
      <path
         d="m 361.74168,123.29202 a 7.2290778,7.2290778 0 0 1 -7.22908,7.22908 7.2290778,7.2290778 0 0 1 -7.22907,-7.22908 7.2290778,7.2290778 0 0 1 7.22907,-7.22908 7.2290778,7.2290778 0 0 1 7.22908,7.22908"
         style="fill:#ff5959;fill-opacity:1;stroke:none;stroke-width:1.70862;stroke-opacity:1"
         id="use1159-6" />
      <path
         style="fill:#ff5959;fill-opacity:1;stroke:none;stroke-width:0.235368;stroke-opacity:1"
         d="m 361.29293,125.79148 c 4.3e-4,-0.0442 0.27133,-1.03347 0.31667,-1.28438 0.17665,-0.9777 -10e-4,-2.40082 -0.30477,-3.38413 -0.0479,-0.15534 -0.0548,-0.37079 -0.0548,-0.37079 0,0 0.29096,-0.0624 0.58499,-0.14594 0.74181,-0.21048 1.18534,-0.47906 1.76035,-0.84007 0.55393,-0.34781 0.83281,-0.42082 1.29877,-0.86972 0.18036,-0.17374 0.8475,-0.89785 0.8475,-0.88224 0,0.0154 -0.68353,1.04863 -0.98598,1.53117 -0.75345,1.20206 -1.70241,2.86273 -2.47285,4.32747 -0.71275,1.35505 -0.99154,2.0315 -0.98996,1.91862 z"
         id="path1161-2"
         sodipodi:nodetypes="csscssssssc" />
      <path
         style="fill:#ff5959;fill-opacity:1;stroke:none;stroke-width:0.235368;stroke-opacity:1"
         d="m 347.17854,124.61856 c -0.66983,-1.35383 -1.91972,-3.5407 -2.89263,-5.09709 -0.27807,-0.44484 -0.97078,-1.50394 -0.97078,-1.52508 0,-0.0213 0.72895,0.69896 0.92498,0.88054 0.82509,0.76436 2.15361,1.4064 3.25681,1.63482 0.26633,0.0551 0.4211,0.13843 0.39928,0.21411 -0.0154,0.0521 -0.071,0.36366 -0.1497,0.63048 -0.2911,0.98615 -0.43322,2.43398 -0.21852,3.44702 0.0491,0.23205 0.28673,1.12986 0.18539,0.84469 0.0154,0.15652 -0.38406,-0.72491 -0.53476,-1.02949 z"
         id="path1163-9"
         sodipodi:nodetypes="sssssssscss" />
      <path
         style="fill:#ff5959;fill-opacity:1;stroke:none;stroke-width:0.284412;stroke-opacity:1"
         d="m 354.1969,108.74152 c -0.83935,-0.84186 -1.87436,-1.51276 -3.00681,-1.94908 l -0.95478,-0.27956 4.75615,0.10136 4.4248,-0.10598 -0.64733,0.24831 c 0,0 -1.2888,0.46573 -1.93134,0.84164 -0.56234,0.32905 -1.71509,1.23256 -1.95219,1.53004 l -0.13451,0.16882 z"
         id="path1165-1"
         sodipodi:nodetypes="sscccssscs" />
      <path
         style="fill:#007fff;fill-opacity:0.568627;stroke:none;stroke-width:0.235368;stroke-opacity:1"
         d="m 341.69391,115.6315 c -3.15959,-4.38807 -7.10669,-8.62805 -11.31837,-12.15831 -0.90268,-0.75663 -2.9486,-2.37556 -3.25958,-2.57933 -0.28543,-0.18704 -0.0679,-0.12382 0.64258,0.1868 6.13843,2.68344 13.38814,4.57216 20.06742,5.22809 0.1207,0.0125 0.0533,0.0384 -0.22807,0.0901 -1.25697,0.23089 -2.5944,0.91002 -3.55411,1.80456 -2.13084,1.98626 -2.86825,4.94894 -1.92244,7.7237 0.0794,0.23268 0.13707,0.43015 0.12854,0.43882 -0.008,0.008 -0.25881,-0.32185 -0.5559,-0.73446 z"
         id="path1210-7" />
      <path
         style="fill:#007fff;fill-opacity:0.568627;stroke:none;stroke-width:0.235368;stroke-opacity:1"
         d="m 366.64669,116.53056 c 0.0201,-0.0627 0.11009,-0.33231 0.20006,-0.59905 0.2362,-0.70035 0.34011,-1.38778 0.34011,-2.24977 0,-0.90829 -0.11433,-1.62508 -0.38211,-2.39421 -0.23804,-0.68386 -0.39295,-0.99957 -0.78527,-1.60029 -0.87839,-1.34496 -2.20327,-2.37003 -3.7323,-2.8877 -0.50948,-0.17247 -1.24945,-0.33048 -1.5935,-0.34027 l -0.20755,-0.005 0.19958,-0.0465 c 0.10972,-0.0257 0.62304,-0.0886 1.14057,-0.13979 6.14336,-0.60904 12.91758,-2.34186 18.87186,-4.82748 0.51519,-0.21503 0.94536,-0.38231 0.95597,-0.37175 0.009,0.01 -0.23059,0.20928 -0.53599,0.44151 -2.42395,1.843 -4.47817,3.64909 -6.83245,6.00716 -2.67181,2.67613 -4.71692,5.0684 -6.90927,8.08207 -0.82576,1.13512 -0.77327,1.0681 -0.72971,0.93204 z"
         id="path1212-0" />
      <path
         style="fill:#007fff;fill-opacity:0.568627;stroke:none;stroke-width:0.235368;stroke-opacity:1"
         d="m 354.4697,152.94997 c 0,-0.75625 -0.0896,-2.22908 -0.23142,-3.79961 -0.63106,-6.99298 -2.37868,-13.94864 -5.11272,-20.34898 -0.26563,-0.62188 -0.47425,-1.13852 -0.46359,-1.14822 0.009,-0.009 0.18707,0.17837 0.39201,0.41781 0.93526,1.0929 2.33445,1.93156 3.81895,2.28922 0.7448,0.17943 1.98007,0.21958 2.79315,0.0908 1.01255,-0.1603 1.99984,-0.54657 2.88111,-1.127 0.49363,-0.32513 1.32744,-1.0952 1.6648,-1.53759 0.11559,-0.15158 0.21781,-0.26787 0.22719,-0.25845 0.008,0.009 -0.16506,0.43867 -0.38752,0.95397 -3.24199,7.50702 -5.10729,15.64247 -5.46196,23.82235 -0.0539,1.24218 -0.11995,1.59807 -0.11995,0.6457 z"
         id="path1214-9" />
      <path
         style="fill:#007fff;fill-opacity:0.568627;stroke:none;stroke-width:0.443831;stroke-miterlimit:4;stroke-dasharray:none"
         d="m 1072.9863,277.50607 c -1.3832,1.45912 -3.1299,2.76314 -4.2714,4.36269 5.6798,2.14162 11.6151,3.66666 17.2625,5.9389 4.6113,1.74484 9.2285,3.58563 13.7543,5.48056 0.6728,-0.37439 -0.6179,-1.07411 -0.876,-1.40518 -7.1716,-5.75416 -14.4003,-11.48741 -20.9917,-17.90412 -1.0869,-1.2898 -2.2572,1.55658 -3.3576,2.07557 -0.5067,0.48386 -1.0134,0.96772 -1.5201,1.45158 z"
         id="path7282"
         transform="matrix(0.26458333,0,0,0.26458333,23.107271,15.735149)" />
      <path
         style="fill:#007fff;fill-opacity:0.568627;stroke:none;stroke-width:0.627672;stroke-miterlimit:4;stroke-dasharray:none"
         d="m 1425.1066,277.35325 c -4.3444,3.3521 -8.3488,7.19531 -12.6883,10.59221 -0.9869,1.13986 -6.0744,3.57131 -6.5673,4.998 1.1155,0.42056 5.7379,-2.59331 6.893,-2.74632 5.8682,-2.41555 12.0574,-4.30801 17.9067,-6.55483 -1.3678,-2.37545 -3.3174,-4.59356 -5.4743,-6.28697 l -0.034,-0.004 z"
         id="path7286"
         transform="matrix(0.26458333,0,0,0.26458333,23.107271,15.735149)"
         sodipodi:nodetypes="cccccccc" />
      <path
         style="opacity:0.999;fill:#007fff;fill-opacity:0.568627;stroke:none;stroke-width:0.627672;stroke-miterlimit:4;stroke-dasharray:none"
         d="m 1251.7494,547.00618 c -0.1014,2.43307 -0.2362,2.81546 -0.3718,4.89161 -0.3645,4.27143 -1.0426,8.63869 -1.4769,12.83836 1.5838,0.50329 3.5141,0.37616 5.1458,0.0474 0.1779,-1.65517 -0.5886,-3.60203 -0.6112,-5.35448 -0.782,-4.73673 -1.4934,-16.50254 -2.0338,-23.94063 -0.052,-0.0975 -0.5574,9.24525 -0.5625,9.36897 z"
         id="path7290"
         transform="matrix(0.26458333,0,0,0.26458333,23.107271,15.735149)"
         sodipodi:nodetypes="scccccss" />
    </g>
    <g
       inkscape:label=""
       transform="matrix(1.4408341,0,0,1.4408341,179.37681,-86.732328)"
       id="g7548">
      <g
         id="g8331">
        <g
           id="g2391"
           style="fill:#000000;fill-opacity:1">
          <use
             height="100%"
             width="100%"
             id="use9142"
             y="81.962997"
             x="91.925003"
             xlink:href="#symbol6173" />
        </g>
        <g
           id="g42"
           style="fill:#000000;fill-opacity:1">
          <use
             height="100%"
             width="100%"
             id="use9138"
             y="83.457001"
             x="97.747002"
             xlink:href="#symbol4696" />
        </g>
        <g
           id="g6430"
           style="fill:#000000;fill-opacity:1">
          <use
             height="100%"
             width="100%"
             id="use7051"
             y="83.457001"
             x="101.718"
             xlink:href="#symbol6701" />
        </g>
        <g
           id="g8744"
           style="fill:#000000;fill-opacity:1">
          <use
             height="100%"
             width="100%"
             id="use2491"
             y="83.457001"
             x="104.085"
             xlink:href="#symbol9136" />
        </g>
        <g
           id="g4036"
           style="fill:#000000;fill-opacity:1">
          <use
             height="100%"
             width="100%"
             id="use701"
             y="83.457001"
             x="109.55595"
             xlink:href="#symbol8284" />
          <use
             height="100%"
             width="100%"
             id="use188"
             y="83.457001"
             x="113.52753"
             xlink:href="#symbol3317" />
          <use
             height="100%"
             width="100%"
             id="use3949"
             y="83.457001"
             x="116.64063"
             xlink:href="#symbol9533" />
          <use
             height="100%"
             width="100%"
             id="use9536"
             y="83.457001"
             x="120.18262"
             xlink:href="#symbol7858" />
        </g>
      </g>
    </g>
    <g
       inkscape:label=""
       transform="matrix(1.3072943,0,0,1.3072943,235.16962,0.1443184)"
       id="g7860">
      <g
         id="g1730">
        <g
           id="g750"
           style="fill:#000000;fill-opacity:1">
          <use
             height="100%"
             width="100%"
             id="use9002"
             y="81.962997"
             x="91.925003"
             xlink:href="#symbol637" />
        </g>
        <g
           id="g978"
           style="fill:#000000;fill-opacity:1">
          <use
             height="100%"
             width="100%"
             id="use2049"
             y="83.457001"
             x="97.747002"
             xlink:href="#symbol3189" />
        </g>
        <g
           id="g4952"
           style="fill:#000000;fill-opacity:1">
          <use
             height="100%"
             width="100%"
             id="use9102"
             y="83.457001"
             x="101.718"
             xlink:href="#symbol2068" />
        </g>
        <g
           id="g8789"
           style="fill:#000000;fill-opacity:1">
          <use
             height="100%"
             width="100%"
             id="use5851"
             y="83.457001"
             x="104.085"
             xlink:href="#symbol7208" />
          <use
             height="100%"
             width="100%"
             id="use2135"
             y="83.457001"
             x="108.05658"
             xlink:href="#symbol4827" />
          <use
             height="100%"
             width="100%"
             id="use9598"
             y="83.457001"
             x="110.3119"
             xlink:href="#symbol9643" />
        </g>
      </g>
    </g>
    <path
       id="path7895"
       d="m 337.00288,78.474134 13.32117,18.20056"
       style="fill:none;stroke:#000000;stroke-width:0.565;stroke-linecap:butt;stroke-linejoin:miter;stroke-miterlimit:4;stroke-dasharray:none;stroke-opacity:1" />
    <path
       id="path7897"
       d="M 301.38372,59.117746 317.87597,38.320332"
       style="fill:none;stroke:#000000;stroke-width:0.565;stroke-linecap:butt;stroke-linejoin:miter;stroke-miterlimit:4;stroke-dasharray:none;stroke-opacity:1" />
  </g>
</svg>
