<?xml version="1.0" encoding="UTF-8" standalone="no"?>
<svg
   xmlns:osb="http://www.openswatchbook.org/uri/2009/osb"
   xmlns:dc="http://purl.org/dc/elements/1.1/"
   xmlns:cc="http://creativecommons.org/ns#"
   xmlns:rdf="http://www.w3.org/1999/02/22-rdf-syntax-ns#"
   xmlns:svg="http://www.w3.org/2000/svg"
   xmlns="http://www.w3.org/2000/svg"
   xmlns:xlink="http://www.w3.org/1999/xlink"
   xmlns:sodipodi="http://sodipodi.sourceforge.net/DTD/sodipodi-0.dtd"
   xmlns:inkscape="http://www.inkscape.org/namespaces/inkscape"
   width="26.157036"
   height="24.517519"
   id="svg2"
   version="1.1"
   inkscape:version="1.0.1 (3bc2e813f5, 2020-09-07, custom)"
   sodipodi:docname="fused_cap.svg">
  <defs
     id="defs4">
    <marker
       inkscape:stockid="Arrow2Mend"
       orient="auto"
       refY="0"
       refX="0"
       id="Arrow2Mend"
       style="overflow:visible">
      <path
         id="path3974"
         style="fill-rule:evenodd;stroke-width:0.625;stroke-linejoin:round"
         d="M 8.7185878,4.0337352 -2.2072895,0.01601326 8.7185884,-4.0017078 c -1.7454984,2.3720609 -1.7354408,5.6174519 -6e-7,8.035443 z"
         transform="scale(-0.6,-0.6)"
         inkscape:connector-curvature="0" />
    </marker>
    <marker
       inkscape:stockid="Arrow2Mstart"
       orient="auto"
       refY="0"
       refX="0"
       id="Arrow2Mstart"
       style="overflow:visible">
      <path
         id="path3971"
         style="fill-rule:evenodd;stroke-width:0.625;stroke-linejoin:round"
         d="M 8.7185878,4.0337352 -2.2072895,0.01601326 8.7185884,-4.0017078 c -1.7454984,2.3720609 -1.7354408,5.6174519 -6e-7,8.035443 z"
         transform="scale(0.6,0.6)"
         inkscape:connector-curvature="0" />
    </marker>
    <marker
       inkscape:stockid="Arrow2Lstart"
       orient="auto"
       refY="0"
       refX="0"
       id="Arrow2Lstart"
       style="overflow:visible">
      <path
         id="path3965"
         style="fill-rule:evenodd;stroke-width:0.625;stroke-linejoin:round"
         d="M 8.7185878,4.0337352 -2.2072895,0.01601326 8.7185884,-4.0017078 c -1.7454984,2.3720609 -1.7354408,5.6174519 -6e-7,8.035443 z"
         transform="matrix(1.1,0,0,1.1,1.1,0)"
         inkscape:connector-curvature="0" />
    </marker>
    <marker
       inkscape:stockid="Arrow1Send"
       orient="auto"
       refY="0"
       refX="0"
       id="Arrow1Send"
       style="overflow:visible">
      <path
         id="path3962"
         d="M 0,0 5,-5 -12.5,0 5,5 0,0 z"
         style="fill-rule:evenodd;stroke:#000000;stroke-width:1pt"
         transform="matrix(-0.2,0,0,-0.2,-1.2,0)"
         inkscape:connector-curvature="0" />
    </marker>
    <marker
       inkscape:stockid="Arrow1Mend"
       orient="auto"
       refY="0"
       refX="0"
       id="Arrow1Mend"
       style="overflow:visible">
      <path
         id="path3956"
         d="M 0,0 5,-5 -12.5,0 5,5 0,0 z"
         style="fill-rule:evenodd;stroke:#000000;stroke-width:1pt"
         transform="matrix(-0.4,0,0,-0.4,-4,0)"
         inkscape:connector-curvature="0" />
    </marker>
    <marker
       inkscape:stockid="Arrow1Lend"
       orient="auto"
       refY="0"
       refX="0"
       id="Arrow1Lend"
       style="overflow:visible">
      <path
         id="path3950"
         d="M 0,0 5,-5 -12.5,0 5,5 0,0 z"
         style="fill-rule:evenodd;stroke:#000000;stroke-width:1pt"
         transform="matrix(-0.8,0,0,-0.8,-10,0)"
         inkscape:connector-curvature="0" />
    </marker>
    <linearGradient
       id="linearGradient4096">
      <stop
         style="stop-color:#ededed;stop-opacity:1;"
         offset="0"
         id="stop4098" />
      <stop
         style="stop-color:#bbbbbb;stop-opacity:1;"
         offset="1"
         id="stop4100" />
    </linearGradient>
    <linearGradient
       id="linearGradient3858">
      <stop
         style="stop-color:#cd853f;stop-opacity:1;"
         offset="0"
         id="stop3860" />
      <stop
         style="stop-color:#9b9b9b;stop-opacity:1;"
         offset="1"
         id="stop3862" />
    </linearGradient>
    <linearGradient
       id="linearGradient3794">
      <stop
         style="stop-color:#9b9b9b;stop-opacity:1;"
         offset="0"
         id="stop3796" />
      <stop
         style="stop-color:#000000;stop-opacity:0;"
         offset="1"
         id="stop3798" />
    </linearGradient>
    <linearGradient
       id="linearGradient3765"
       osb:paint="solid">
      <stop
         style="stop-color:#000000;stop-opacity:1;"
         offset="0"
         id="stop3767" />
    </linearGradient>
    <linearGradient
       inkscape:collect="always"
       xlink:href="#linearGradient3858"
       id="linearGradient3864"
       x1="43.4375"
       y1="499.6998"
       x2="51.534286"
       y2="499.6998"
       gradientUnits="userSpaceOnUse" />
    <linearGradient
       inkscape:collect="always"
       xlink:href="#linearGradient3858"
       id="linearGradient3872"
       gradientUnits="userSpaceOnUse"
       x1="43.4375"
       y1="499.6998"
       x2="51.534286"
       y2="499.6998" />
    <linearGradient
       inkscape:collect="always"
       xlink:href="#linearGradient3858"
       id="linearGradient3874"
       gradientUnits="userSpaceOnUse"
       x1="43.4375"
       y1="499.6998"
       x2="51.534286"
       y2="499.6998" />
    <linearGradient
       inkscape:collect="always"
       xlink:href="#linearGradient3858"
       id="linearGradient3876"
       gradientUnits="userSpaceOnUse"
       x1="43.4375"
       y1="499.6998"
       x2="51.534286"
       y2="499.6998" />
    <linearGradient
       inkscape:collect="always"
       xlink:href="#linearGradient3858"
       id="linearGradient3905"
       gradientUnits="userSpaceOnUse"
       x1="43.4375"
       y1="499.6998"
       x2="51.534286"
       y2="499.6998" />
    <linearGradient
       inkscape:collect="always"
       xlink:href="#linearGradient3858"
       id="linearGradient4020"
       gradientUnits="userSpaceOnUse"
       x1="43.4375"
       y1="499.6998"
       x2="51.534286"
       y2="499.6998" />
    <linearGradient
       inkscape:collect="always"
       xlink:href="#linearGradient4096"
       id="linearGradient4104"
       x1="37.34375"
       y1="524.87476"
       x2="97.46875"
       y2="524.87476"
       gradientUnits="userSpaceOnUse" />
    <linearGradient
       inkscape:collect="always"
       xlink:href="#linearGradient3858"
       id="linearGradient4230"
       gradientUnits="userSpaceOnUse"
       x1="43.4375"
       y1="499.6998"
       x2="51.534286"
       y2="499.6998" />
    <linearGradient
       inkscape:collect="always"
       xlink:href="#linearGradient3858"
       id="linearGradient4232"
       gradientUnits="userSpaceOnUse"
       x1="43.4375"
       y1="499.6998"
       x2="51.534286"
       y2="499.6998" />
    <linearGradient
       inkscape:collect="always"
       xlink:href="#linearGradient3858"
       id="linearGradient4234"
       gradientUnits="userSpaceOnUse"
       x1="43.4375"
       y1="499.6998"
       x2="51.534286"
       y2="499.6998" />
    <linearGradient
       inkscape:collect="always"
       xlink:href="#linearGradient3858"
       id="linearGradient3965"
       gradientUnits="userSpaceOnUse"
       x1="43.4375"
       y1="499.6998"
       x2="51.534286"
       y2="499.6998" />
    <linearGradient
       inkscape:collect="always"
       xlink:href="#linearGradient3858"
       id="linearGradient3967"
       gradientUnits="userSpaceOnUse"
       x1="43.4375"
       y1="499.6998"
       x2="51.534286"
       y2="499.6998" />
    <linearGradient
       inkscape:collect="always"
       xlink:href="#linearGradient3858"
       id="linearGradient3969"
       gradientUnits="userSpaceOnUse"
       x1="43.4375"
       y1="499.6998"
       x2="51.534286"
       y2="499.6998" />
    <linearGradient
       inkscape:collect="always"
       xlink:href="#linearGradient3858"
       id="linearGradient3987"
       gradientUnits="userSpaceOnUse"
       x1="43.4375"
       y1="499.6998"
       x2="51.534286"
       y2="499.6998" />
    <linearGradient
       inkscape:collect="always"
       xlink:href="#linearGradient3858"
       id="linearGradient3989"
       gradientUnits="userSpaceOnUse"
       x1="43.4375"
       y1="499.6998"
       x2="51.534286"
       y2="499.6998" />
    <linearGradient
       inkscape:collect="always"
       xlink:href="#linearGradient3858"
       id="linearGradient3991"
       gradientUnits="userSpaceOnUse"
       x1="43.4375"
       y1="499.6998"
       x2="51.534286"
       y2="499.6998" />
    <linearGradient
       inkscape:collect="always"
       xlink:href="#linearGradient3858"
       id="linearGradient4009"
       gradientUnits="userSpaceOnUse"
       x1="43.4375"
       y1="499.6998"
       x2="51.534286"
       y2="499.6998" />
    <linearGradient
       inkscape:collect="always"
       xlink:href="#linearGradient3858"
       id="linearGradient4011"
       gradientUnits="userSpaceOnUse"
       x1="43.4375"
       y1="499.6998"
       x2="51.534286"
       y2="499.6998" />
    <linearGradient
       inkscape:collect="always"
       xlink:href="#linearGradient3858"
       id="linearGradient4013"
       gradientUnits="userSpaceOnUse"
       x1="43.4375"
       y1="499.6998"
       x2="51.534286"
       y2="499.6998" />
    <linearGradient
       inkscape:collect="always"
       xlink:href="#linearGradient3858"
       id="linearGradient4017"
       gradientUnits="userSpaceOnUse"
       x1="43.4375"
       y1="499.6998"
       x2="51.534286"
       y2="499.6998" />
    <linearGradient
       inkscape:collect="always"
       xlink:href="#linearGradient3858"
       id="linearGradient4023"
       gradientUnits="userSpaceOnUse"
       x1="43.4375"
       y1="499.6998"
       x2="51.534286"
       y2="499.6998" />
    <linearGradient
       inkscape:collect="always"
       xlink:href="#linearGradient3858"
       id="linearGradient4027"
       gradientUnits="userSpaceOnUse"
       x1="43.4375"
       y1="499.6998"
       x2="51.534286"
       y2="499.6998" />
    <linearGradient
       inkscape:collect="always"
       xlink:href="#linearGradient3858"
       id="linearGradient4033"
       gradientUnits="userSpaceOnUse"
       x1="43.4375"
       y1="499.6998"
       x2="51.534286"
       y2="499.6998" />
    <linearGradient
       inkscape:collect="always"
       xlink:href="#linearGradient3858"
       id="linearGradient4037"
       gradientUnits="userSpaceOnUse"
       x1="43.4375"
       y1="499.6998"
       x2="51.534286"
       y2="499.6998" />
    <linearGradient
       inkscape:collect="always"
       xlink:href="#linearGradient3858"
       id="linearGradient4041"
       gradientUnits="userSpaceOnUse"
       x1="43.4375"
       y1="499.6998"
       x2="51.534286"
       y2="499.6998" />
    <linearGradient
       inkscape:collect="always"
       xlink:href="#linearGradient3858"
       id="linearGradient4045"
       gradientUnits="userSpaceOnUse"
       x1="43.4375"
       y1="499.6998"
       x2="51.534286"
       y2="499.6998" />
    <linearGradient
       inkscape:collect="always"
       xlink:href="#linearGradient3858"
       id="linearGradient4049"
       gradientUnits="userSpaceOnUse"
       x1="43.4375"
       y1="499.6998"
       x2="51.534286"
       y2="499.6998" />
    <linearGradient
       id="linearGradient3858-1">
      <stop
         style="stop-color:#cd853f;stop-opacity:1;"
         offset="0"
         id="stop3860-9" />
      <stop
         style="stop-color:#9b9b9b;stop-opacity:1;"
         offset="1"
         id="stop3862-0" />
    </linearGradient>
    <linearGradient
       id="linearGradient3046">
      <stop
         style="stop-color:#cd853f;stop-opacity:1;"
         offset="0"
         id="stop3048" />
      <stop
         style="stop-color:#9b9b9b;stop-opacity:1;"
         offset="1"
         id="stop3050" />
    </linearGradient>
    <linearGradient
       id="linearGradient3053">
      <stop
         style="stop-color:#cd853f;stop-opacity:1;"
         offset="0"
         id="stop3055" />
      <stop
         style="stop-color:#9b9b9b;stop-opacity:1;"
         offset="1"
         id="stop3057" />
    </linearGradient>
    <linearGradient
       id="linearGradient3060">
      <stop
         style="stop-color:#cd853f;stop-opacity:1;"
         offset="0"
         id="stop3062" />
      <stop
         style="stop-color:#9b9b9b;stop-opacity:1;"
         offset="1"
         id="stop3064" />
    </linearGradient>
    <marker
       inkscape:stockid="Arrow1Send"
       orient="auto"
       refY="0"
       refX="0"
       id="Arrow1Send-1"
       style="overflow:visible">
      <path
         inkscape:connector-curvature="0"
         id="path3962-2"
         d="M 0,0 5,-5 -12.5,0 5,5 0,0 z"
         style="fill-rule:evenodd;stroke:#000000;stroke-width:1pt"
         transform="matrix(-0.2,0,0,-0.2,-1.2,0)" />
    </marker>
    <marker
       inkscape:stockid="Arrow2Mend"
       orient="auto"
       refY="0"
       refX="0"
       id="Arrow2Mend-1"
       style="overflow:visible">
      <path
         inkscape:connector-curvature="0"
         id="path3974-1"
         style="fill-rule:evenodd;stroke-width:0.625;stroke-linejoin:round"
         d="M 8.7185878,4.0337352 -2.2072895,0.01601326 8.7185884,-4.0017078 c -1.7454984,2.3720609 -1.7354408,5.6174519 -6e-7,8.035443 z"
         transform="scale(-0.6,-0.6)" />
    </marker>
    <marker
       inkscape:stockid="Arrow2Mstart"
       orient="auto"
       refY="0"
       refX="0"
       id="Arrow2Mstart-8"
       style="overflow:visible">
      <path
         inkscape:connector-curvature="0"
         id="path3971-5"
         style="fill-rule:evenodd;stroke-width:0.625;stroke-linejoin:round"
         d="M 8.7185878,4.0337352 -2.2072895,0.01601326 8.7185884,-4.0017078 c -1.7454984,2.3720609 -1.7354408,5.6174519 -6e-7,8.035443 z"
         transform="scale(0.6,0.6)" />
    </marker>
    <marker
       inkscape:stockid="Arrow2Mend"
       orient="auto"
       refY="0"
       refX="0"
       id="Arrow2Mend-4"
       style="overflow:visible">
      <path
         inkscape:connector-curvature="0"
         id="path3974-3"
         style="fill-rule:evenodd;stroke-width:0.625;stroke-linejoin:round"
         d="M 8.7185878,4.0337352 -2.2072895,0.01601326 8.7185884,-4.0017078 c -1.7454984,2.3720609 -1.7354408,5.6174519 -6e-7,8.035443 z"
         transform="scale(-0.6,-0.6)" />
    </marker>
    <marker
       inkscape:stockid="Arrow2Mstart"
       orient="auto"
       refY="0"
       refX="0"
       id="Arrow2Mstart-4"
       style="overflow:visible">
      <path
         inkscape:connector-curvature="0"
         id="path3971-0"
         style="fill-rule:evenodd;stroke-width:0.625;stroke-linejoin:round"
         d="M 8.7185878,4.0337352 -2.2072895,0.01601326 8.7185884,-4.0017078 c -1.7454984,2.3720609 -1.7354408,5.6174519 -6e-7,8.035443 z"
         transform="scale(0.6,0.6)" />
    </marker>
  </defs>
  <sodipodi:namedview
     id="base"
     pagecolor="#ffffff"
     bordercolor="#666666"
     borderopacity="1.0"
     inkscape:pageopacity="0.0"
     inkscape:pageshadow="2"
     inkscape:zoom="7.919596"
     inkscape:cx="13.052571"
     inkscape:cy="19.112263"
     inkscape:document-units="px"
     inkscape:current-layer="g4106"
     showgrid="false"
     inkscape:snap-bbox="false"
     inkscape:snap-bbox-midpoints="false"
     inkscape:snap-bbox-edge-midpoints="true"
     inkscape:snap-nodes="false"
     inkscape:snap-global="false"
     inkscape:window-width="1920"
     inkscape:window-height="1015"
     inkscape:window-x="0"
     inkscape:window-y="0"
     inkscape:window-maximized="1"
     fit-margin-top="0"
     fit-margin-left="0"
     fit-margin-right="0"
     fit-margin-bottom="0"
     inkscape:bbox-nodes="true"
     inkscape:document-rotation="0" />
  <metadata
     id="metadata7">
    <rdf:RDF>
      <cc:Work
         rdf:about="">
        <dc:format>image/svg+xml</dc:format>
        <dc:type
           rdf:resource="http://purl.org/dc/dcmitype/StillImage" />
        <dc:title></dc:title>
      </cc:Work>
    </rdf:RDF>
  </metadata>
  <g
     inkscape:label="Layer 1"
     inkscape:groupmode="layer"
     id="layer1"
     transform="translate(73.509888,-288.69122)">
    <g
       id="g4171">
      <g
         id="g4106">
        <g
           transform="matrix(1.6456094,0,0,0.04155036,-139.92206,283.33663)"
           id="use4028">
          <path
             style="fill:url(#linearGradient4027);fill-opacity:1;fill-rule:nonzero;stroke:#000000;stroke-width:0.5;stroke-linejoin:bevel;stroke-miterlimit:4;stroke-opacity:1;stroke-dasharray:none"
             d="m 44.4375,282.65657 0.03125,434.375 c 0.05727,0.92927 1.380614,1.65625 3,1.65625 1.619386,0 2.942725,-0.72698 3,-1.65625 C 50.530724,572.30872 50.5,427.43461 50.5,282.65657 z"
             id="use3973"
             inkscape:connector-curvature="0"
             sodipodi:nodetypes="ccsccc" />
          <path
             style="fill:url(#linearGradient3989);fill-opacity:1;fill-rule:nonzero;stroke:#000000;stroke-width:0.5;stroke-linejoin:bevel;stroke-miterlimit:4;stroke-opacity:1;stroke-dasharray:none"
             d="m 44.4375,282.65657 0.03125,434.375 c 0.05727,0.92927 1.380614,1.65625 3,1.65625 1.619386,0 2.942725,-0.72698 3,-1.65625 C 50.530724,572.30872 50.5,427.43461 50.5,282.65657 z"
             id="path3975"
             inkscape:connector-curvature="0"
             sodipodi:nodetypes="ccsccc" />
          <path
             sodipodi:type="arc"
             style="fill:url(#linearGradient3991);fill-opacity:1;fill-rule:nonzero;stroke:#000000;stroke-width:0.56621343;stroke-linejoin:bevel;stroke-miterlimit:4;stroke-opacity:1;stroke-dasharray:none"
             id="path3977"
             sodipodi:cx="46.138393"
             sodipodi:cy="281.40234"
             sodipodi:rx="2.7008929"
             sodipodi:ry="2.7008929"
             d="m 48.839286,281.40234 c 0,1.49167 -1.209231,2.7009 -2.700893,2.7009 -1.491662,0 -2.700893,-1.20923 -2.700893,-2.7009 0,-1.49166 1.209231,-2.70089 2.700893,-2.70089 1.491662,0 2.700893,1.20923 2.700893,2.70089 z"
             transform="matrix(1.1237024,0,0,0.69395035,-4.3465368,87.306832)" />
          <path
             sodipodi:type="arc"
             style="fill:url(#linearGradient4045);fill-opacity:1;fill-rule:nonzero;stroke:#000000;stroke-width:0.56621343;stroke-linejoin:bevel;stroke-miterlimit:4;stroke-opacity:1;stroke-dasharray:none"
             id="use3979"
             sodipodi:cx="46.138393"
             sodipodi:cy="281.40234"
             sodipodi:rx="2.7008929"
             sodipodi:ry="2.7008929"
             d="m 48.839286,281.40234 c 0,1.49167 -1.209231,2.7009 -2.700893,2.7009 -1.491662,0 -2.700893,-1.20923 -2.700893,-2.7009 0,-1.49166 1.209231,-2.70089 2.700893,-2.70089 1.491662,0 2.700893,1.20923 2.700893,2.70089 z"
             transform="matrix(1.1237024,0,0,0.69395035,-4.3465368,87.306832)" />
          <path
             sodipodi:type="arc"
             style="fill:#000000;fill-opacity:1;fill-rule:nonzero;stroke:none"
             id="path3981"
             sodipodi:cx="47.855976"
             sodipodi:cy="282.76801"
             sodipodi:rx="2.3991122"
             sodipodi:ry="1.2784743"
             d="m 50.255088,282.76801 c 0,0.70608 -1.074119,1.27847 -2.399112,1.27847 -1.324993,0 -2.399112,-0.57239 -2.399112,-1.27847 0,-0.70609 1.074119,-1.27848 2.399112,-1.27848 1.324993,0 2.399112,0.57239 2.399112,1.27848 z"
             transform="matrix(1.2961821,0,0,1.3518065,-14.70609,-99.750826)" />
          <path
             sodipodi:type="arc"
             style="fill:#ffffff;fill-opacity:1;fill-rule:nonzero;stroke:none"
             id="path3983"
             sodipodi:cx="54.895477"
             sodipodi:cy="283.93597"
             sodipodi:rx="0.15783633"
             sodipodi:ry="0.078918166"
             d="m 55.053314,283.93597 c 0,0.0436 -0.07067,0.0789 -0.157837,0.0789 -0.08717,0 -0.157836,-0.0353 -0.157836,-0.0789 0,-0.0436 0.07067,-0.0789 0.157836,-0.0789 0.08717,0 0.157837,0.0353 0.157837,0.0789 z"
             transform="matrix(5.2000001,0,0,5.2000001,-237.9572,-1193.881)" />
          <path
             sodipodi:type="arc"
             style="fill:#ffffff;fill-opacity:1;fill-rule:nonzero;stroke:none"
             id="use3985"
             sodipodi:cx="54.895477"
             sodipodi:cy="283.93597"
             sodipodi:rx="0.15783633"
             sodipodi:ry="0.078918166"
             d="m 55.053314,283.93597 c 0,0.0436 -0.07067,0.0789 -0.157837,0.0789 -0.08717,0 -0.157836,-0.0353 -0.157836,-0.0789 0,-0.0436 0.07067,-0.0789 0.157836,-0.0789 0.08717,0 0.157837,0.0353 0.157837,0.0789 z"
             transform="matrix(5.2000001,0,0,5.2000001,-237.9572,-1193.881)" />
        </g>
        <g
           transform="matrix(0.85994549,0,0,0.01159724,-102.49539,286.78186)"
           id="use4028-4"
           style="fill:#008080">
          <path
             style="fill:#008080;fill-opacity:1;fill-rule:nonzero;stroke:#000000;stroke-width:0.5;stroke-linejoin:bevel;stroke-miterlimit:4;stroke-opacity:1;stroke-dasharray:none"
             d="m 44.4375,282.65657 0.03125,434.375 c 0.05727,0.92927 1.380614,1.65625 3,1.65625 1.619386,0 2.942725,-0.72698 3,-1.65625 C 50.530724,572.30872 50.5,427.43461 50.5,282.65657 z"
             id="use3973-2"
             inkscape:connector-curvature="0"
             sodipodi:nodetypes="ccsccc" />
          <path
             style="fill:#008080;fill-opacity:1;fill-rule:nonzero;stroke:#000000;stroke-width:0.5;stroke-linejoin:bevel;stroke-miterlimit:4;stroke-opacity:1;stroke-dasharray:none"
             d="m 44.4375,282.65657 0.03125,434.375 c 0.05727,0.92927 1.380614,1.65625 3,1.65625 1.619386,0 2.942725,-0.72698 3,-1.65625 C 50.530724,572.30872 50.5,427.43461 50.5,282.65657 z"
             id="path3975-8"
             inkscape:connector-curvature="0"
             sodipodi:nodetypes="ccsccc" />
          <path
             sodipodi:type="arc"
             style="fill:#008080;fill-opacity:1;fill-rule:nonzero;stroke:#000000;stroke-width:0.56621343;stroke-linejoin:bevel;stroke-miterlimit:4;stroke-opacity:1;stroke-dasharray:none"
             id="path3977-0"
             sodipodi:cx="46.138393"
             sodipodi:cy="281.40234"
             sodipodi:rx="2.7008929"
             sodipodi:ry="2.7008929"
             d="m 48.839286,281.40234 c 0,1.49167 -1.209231,2.7009 -2.700893,2.7009 -1.491662,0 -2.700893,-1.20923 -2.700893,-2.7009 0,-1.49166 1.209231,-2.70089 2.700893,-2.70089 1.491662,0 2.700893,1.20923 2.700893,2.70089 z"
             transform="matrix(1.1237024,0,0,0.69395035,-4.3465368,87.306832)" />
          <path
             sodipodi:type="arc"
             style="fill:#008080;fill-opacity:1;fill-rule:nonzero;stroke:#000000;stroke-width:0.56621343;stroke-linejoin:bevel;stroke-miterlimit:4;stroke-opacity:1;stroke-dasharray:none"
             id="use3979-7"
             sodipodi:cx="46.138393"
             sodipodi:cy="281.40234"
             sodipodi:rx="2.7008929"
             sodipodi:ry="2.7008929"
             d="m 48.839286,281.40234 c 0,1.49167 -1.209231,2.7009 -2.700893,2.7009 -1.491662,0 -2.700893,-1.20923 -2.700893,-2.7009 0,-1.49166 1.209231,-2.70089 2.700893,-2.70089 1.491662,0 2.700893,1.20923 2.700893,2.70089 z"
             transform="matrix(1.1237024,0,0,0.69395035,-4.3465368,87.306832)" />
          <path
             sodipodi:type="arc"
             style="fill:#008080;fill-opacity:1;fill-rule:nonzero;stroke:none"
             id="path3981-5"
             sodipodi:cx="47.855976"
             sodipodi:cy="282.76801"
             sodipodi:rx="2.3991122"
             sodipodi:ry="1.2784743"
             d="m 50.255088,282.76801 c 0,0.70608 -1.074119,1.27847 -2.399112,1.27847 -1.324993,0 -2.399112,-0.57239 -2.399112,-1.27847 0,-0.70609 1.074119,-1.27848 2.399112,-1.27848 1.324993,0 2.399112,0.57239 2.399112,1.27848 z"
             transform="matrix(1.2961821,0,0,1.3518065,-14.70609,-99.750826)" />
          <path
             sodipodi:type="arc"
             style="fill:#008080;fill-opacity:1;fill-rule:nonzero;stroke:none"
             id="path3983-8"
             sodipodi:cx="54.895477"
             sodipodi:cy="283.93597"
             sodipodi:rx="0.15783633"
             sodipodi:ry="0.078918166"
             d="m 55.053314,283.93597 c 0,0.0436 -0.07067,0.0789 -0.157837,0.0789 -0.08717,0 -0.157836,-0.0353 -0.157836,-0.0789 0,-0.0436 0.07067,-0.0789 0.157836,-0.0789 0.08717,0 0.157837,0.0353 0.157837,0.0789 z"
             transform="matrix(5.2000001,0,0,5.2000001,-237.9572,-1193.881)" />
          <path
             sodipodi:type="arc"
             style="fill:#008080;fill-opacity:1;fill-rule:nonzero;stroke:none"
             id="use3985-6"
             sodipodi:cx="54.895477"
             sodipodi:cy="283.93597"
             sodipodi:rx="0.15783633"
             sodipodi:ry="0.078918166"
             d="m 55.053314,283.93597 c 0,0.0436 -0.07067,0.0789 -0.157837,0.0789 -0.08717,0 -0.157836,-0.0353 -0.157836,-0.0789 0,-0.0436 0.07067,-0.0789 0.157836,-0.0789 0.08717,0 0.157837,0.0353 0.157837,0.0789 z"
             transform="matrix(5.2000001,0,0,5.2000001,-237.9572,-1193.881)" />
        </g>
        <path
           style="fill:none;stroke:#000000;stroke-width:0.1;stroke-linecap:butt;stroke-linejoin:miter;stroke-miterlimit:4;stroke-opacity:1;stroke-dasharray:none"
           d="m -62.804658,288.76026 c 0,1.26269 0,1.29426 0,1.29426"
           id="path3131"
           inkscape:connector-curvature="0" />
        <path
           style="fill:none;stroke:#000000;stroke-width:0.1;stroke-linecap:butt;stroke-linejoin:miter;stroke-miterlimit:4;stroke-opacity:1;stroke-dasharray:none"
           d="m -60.405547,288.80761 c 0,1.26269 0,1.29426 0,1.29426"
           id="path3131-3"
           inkscape:connector-curvature="0" />
        <path
           style="fill:none;stroke:#000000;stroke-width:0.15000001;stroke-linecap:butt;stroke-linejoin:miter;stroke-miterlimit:4;stroke-opacity:1;stroke-dasharray:none;marker-end:url(#Arrow2Mend)"
           d="m -70.020657,289.51788 6.682493,0"
           id="path3923"
           inkscape:connector-curvature="0" />
        <path
           style="fill:none;stroke:#000000;stroke-width:0.15000001;stroke-linecap:butt;stroke-linejoin:miter;stroke-miterlimit:4;stroke-opacity:1;stroke-dasharray:none;marker-start:url(#Arrow2Mstart);marker-end:none"
           d="m -59.976277,289.58592 6.682493,0"
           id="path3923-3"
           inkscape:connector-curvature="0" />
        <path
           style="fill:none;stroke:#000000;stroke-width:0.15000001;stroke-linecap:butt;stroke-linejoin:miter;stroke-miterlimit:4;stroke-opacity:1;stroke-dasharray:none;marker-end:url(#Arrow2Mend)"
           d="m -70.109156,298.42139 2.486889,0"
           id="path3923-9-5"
           inkscape:connector-curvature="0" />
        <path
           style="fill:none;stroke:#000000;stroke-width:0.15000001;stroke-linecap:butt;stroke-linejoin:miter;stroke-miterlimit:4;stroke-opacity:1;stroke-dasharray:none;marker-start:url(#Arrow2Mstart);marker-end:none"
           d="m -56.176927,298.54461 2.985844,0"
           id="path3923-3-7-4"
           inkscape:connector-curvature="0" />
        <text
           xml:space="preserve"
           style="font-style:normal;font-weight:normal;line-height:0%;font-family:sans-serif;letter-spacing:0px;word-spacing:0px;fill:#000000;fill-opacity:1;stroke:none"
           x="-73.537537"
           y="290.14923"
           id="text5651"><tspan
             sodipodi:role="line"
             id="tspan5653"
             x="-73.537537"
             y="290.14923"
             style="font-size:2px;line-height:1.25;font-family:sans-serif">ID</tspan></text>
        <text
           xml:space="preserve"
           style="font-style:normal;font-weight:normal;line-height:0%;font-family:sans-serif;letter-spacing:0px;word-spacing:0px;fill:#000000;fill-opacity:1;stroke:none"
           x="-73.622192"
           y="299.08487"
           id="text5655"><tspan
             sodipodi:role="line"
             id="tspan5657"
             x="-73.622192"
             y="299.08487"
             style="font-size:2px;line-height:1.25;font-family:sans-serif">OD</tspan></text>
        <path
           style="fill:none;stroke:#000000;stroke-width:0.1;stroke-linecap:butt;stroke-linejoin:miter;stroke-miterlimit:4;stroke-opacity:1;stroke-dasharray:none"
           d="m -96.21703,19.216279 3.093592,0 0,-0.06313"
           id="path5659"
           inkscape:connector-curvature="0"
           transform="translate(37.200442,273.52146)" />
        <text
           xml:space="preserve"
           style="font-style:normal;font-weight:normal;line-height:0%;font-family:sans-serif;letter-spacing:0px;word-spacing:0px;fill:#000000;fill-opacity:1;stroke:none"
           x="-55.291649"
           y="293.36908"
           id="text5661"><tspan
             sodipodi:role="line"
             id="tspan5663"
             x="-55.291649"
             y="293.36908"
             style="font-size:2px;line-height:1.25;font-family:sans-serif">Silica</tspan></text>
        <path
           style="fill:none;stroke:#000000;stroke-width:0.1;stroke-linecap:butt;stroke-linejoin:miter;stroke-miterlimit:4;stroke-opacity:1;stroke-dasharray:none"
           d="m -56.772168,302.96854 1.426,0 0,-0.08"
           id="path5659-7"
           inkscape:connector-curvature="0" />
        <text
           xml:space="preserve"
           style="font-style:normal;font-weight:normal;line-height:0%;font-family:sans-serif;letter-spacing:0px;word-spacing:0px;fill:#000000;fill-opacity:1;stroke:none"
           x="-54.897774"
           y="303.60379"
           id="text5683"><tspan
             sodipodi:role="line"
             id="tspan5685"
             x="-54.897774"
             y="303.60379"
             style="font-size:2px;line-height:1.25;font-family:sans-serif">Coating</tspan></text>
      </g>
    </g>
  </g>
</svg>
