<?xml version="1.0" encoding="UTF-8" standalone="no"?>
<svg
   xmlns:osb="http://www.openswatchbook.org/uri/2009/osb"
   xmlns:dc="http://purl.org/dc/elements/1.1/"
   xmlns:cc="http://creativecommons.org/ns#"
   xmlns:rdf="http://www.w3.org/1999/02/22-rdf-syntax-ns#"
   xmlns:svg="http://www.w3.org/2000/svg"
   xmlns="http://www.w3.org/2000/svg"
   xmlns:xlink="http://www.w3.org/1999/xlink"
   xmlns:sodipodi="http://sodipodi.sourceforge.net/DTD/sodipodi-0.dtd"
   xmlns:inkscape="http://www.inkscape.org/namespaces/inkscape"
   width="60.659069"
   height="457.18054"
   id="svg2"
   version="1.1"
   inkscape:version="1.0.1 (3bc2e813f5, 2020-09-07, custom)"
   sodipodi:docname="stack_caps.svg"
   inkscape:export-filename="/home/sh/mri-vector-graphics/samples/stack_caps.png"
   inkscape:export-xdpi="200"
   inkscape:export-ydpi="200">
  <defs
     id="defs4">
    <linearGradient
       id="linearGradient4096">
      <stop
         style="stop-color:#ededed;stop-opacity:1;"
         offset="0"
         id="stop4098" />
      <stop
         style="stop-color:#bbbbbb;stop-opacity:1;"
         offset="1"
         id="stop4100" />
    </linearGradient>
    <linearGradient
       id="linearGradient3858">
      <stop
         style="stop-color:#cd853f;stop-opacity:1;"
         offset="0"
         id="stop3860" />
      <stop
         style="stop-color:#9b9b9b;stop-opacity:1;"
         offset="1"
         id="stop3862" />
    </linearGradient>
    <linearGradient
       id="linearGradient3794">
      <stop
         style="stop-color:#9b9b9b;stop-opacity:1;"
         offset="0"
         id="stop3796" />
      <stop
         style="stop-color:#000000;stop-opacity:0;"
         offset="1"
         id="stop3798" />
    </linearGradient>
    <linearGradient
       id="linearGradient3765"
       osb:paint="solid">
      <stop
         style="stop-color:#000000;stop-opacity:1;"
         offset="0"
         id="stop3767" />
    </linearGradient>
    <linearGradient
       inkscape:collect="always"
       xlink:href="#linearGradient3858"
       id="linearGradient3864"
       x1="43.4375"
       y1="499.6998"
       x2="51.534286"
       y2="499.6998"
       gradientUnits="userSpaceOnUse" />
    <linearGradient
       inkscape:collect="always"
       xlink:href="#linearGradient3858"
       id="linearGradient3872"
       gradientUnits="userSpaceOnUse"
       x1="43.4375"
       y1="499.6998"
       x2="51.534286"
       y2="499.6998" />
    <linearGradient
       inkscape:collect="always"
       xlink:href="#linearGradient3858"
       id="linearGradient3874"
       gradientUnits="userSpaceOnUse"
       x1="43.4375"
       y1="499.6998"
       x2="51.534286"
       y2="499.6998" />
    <linearGradient
       inkscape:collect="always"
       xlink:href="#linearGradient3858"
       id="linearGradient3876"
       gradientUnits="userSpaceOnUse"
       x1="43.4375"
       y1="499.6998"
       x2="51.534286"
       y2="499.6998" />
    <linearGradient
       inkscape:collect="always"
       xlink:href="#linearGradient3858"
       id="linearGradient3905"
       gradientUnits="userSpaceOnUse"
       x1="43.4375"
       y1="499.6998"
       x2="51.534286"
       y2="499.6998" />
    <linearGradient
       inkscape:collect="always"
       xlink:href="#linearGradient3858"
       id="linearGradient4020"
       gradientUnits="userSpaceOnUse"
       x1="43.4375"
       y1="499.6998"
       x2="51.534286"
       y2="499.6998" />
    <linearGradient
       inkscape:collect="always"
       xlink:href="#linearGradient4096"
       id="linearGradient4104"
       x1="37.34375"
       y1="524.87476"
       x2="97.46875"
       y2="524.87476"
       gradientUnits="userSpaceOnUse" />
    <linearGradient
       inkscape:collect="always"
       xlink:href="#linearGradient3858"
       id="linearGradient4230"
       gradientUnits="userSpaceOnUse"
       x1="43.4375"
       y1="499.6998"
       x2="51.534286"
       y2="499.6998" />
    <linearGradient
       inkscape:collect="always"
       xlink:href="#linearGradient3858"
       id="linearGradient4232"
       gradientUnits="userSpaceOnUse"
       x1="43.4375"
       y1="499.6998"
       x2="51.534286"
       y2="499.6998" />
    <linearGradient
       inkscape:collect="always"
       xlink:href="#linearGradient3858"
       id="linearGradient4234"
       gradientUnits="userSpaceOnUse"
       x1="43.4375"
       y1="499.6998"
       x2="51.534286"
       y2="499.6998" />
  </defs>
  <sodipodi:namedview
     id="base"
     pagecolor="#ffffff"
     bordercolor="#666666"
     borderopacity="1.0"
     inkscape:pageopacity="0.0"
     inkscape:pageshadow="2"
     inkscape:zoom="0.98994949"
     inkscape:cx="-195.73494"
     inkscape:cy="357.3497"
     inkscape:document-units="px"
     inkscape:current-layer="layer1"
     showgrid="false"
     inkscape:snap-bbox="false"
     inkscape:snap-bbox-midpoints="false"
     inkscape:snap-bbox-edge-midpoints="false"
     inkscape:snap-nodes="false"
     inkscape:snap-global="true"
     inkscape:window-width="1920"
     inkscape:window-height="1015"
     inkscape:window-x="0"
     inkscape:window-y="0"
     inkscape:window-maximized="1"
     fit-margin-top="0"
     fit-margin-left="0"
     fit-margin-right="0"
     fit-margin-bottom="0"
     inkscape:document-rotation="0" />
  <metadata
     id="metadata7">
    <rdf:RDF>
      <cc:Work
         rdf:about="">
        <dc:format>image/svg+xml</dc:format>
        <dc:type
           rdf:resource="http://purl.org/dc/dcmitype/StillImage" />
        <dc:title></dc:title>
      </cc:Work>
    </rdf:RDF>
  </metadata>
  <g
     inkscape:label="Layer 1"
     inkscape:groupmode="layer"
     id="layer1"
     transform="translate(-37.200442,-273.52146)">
    <g
       id="g4171">
      <g
         id="g4106">
        <path
           sodipodi:type="arc"
           style="fill:none;stroke:#000000;stroke-width:1.53734255;stroke-linejoin:bevel;stroke-miterlimit:4;stroke-opacity:1;stroke-dasharray:none"
           id="path4042-3-0"
           sodipodi:cx="67.14286"
           sodipodi:cy="375.93362"
           sodipodi:rx="28.571428"
           sodipodi:ry="28.571428"
           d="m 95.714289,375.93362 c 0,15.77957 -12.791864,28.57143 -28.571429,28.57143 -15.779564,0 -28.571428,-12.79186 -28.571428,-28.57143 0,-15.77956 12.791864,-28.57142 28.571428,-28.57142 15.779565,0 28.571429,12.79186 28.571429,28.57142 z"
           transform="matrix(1.034145,0,0,0.40914499,-1.9031662,205.76475)" />
        <use
           x="0"
           y="0"
           xlink:href="#use4032"
           id="use4034"
           transform="translate(1.5458668,-5.1785714)"
           width="744.09448"
           height="1052.3622" />
        <use
           x="0"
           y="0"
           xlink:href="#use4034"
           id="use4036"
           transform="translate(-14.581582,-10)"
           width="744.09448"
           height="1052.3622" />
        <use
           x="0"
           y="0"
           xlink:href="#use4036"
           id="use4038"
           transform="translate(9.6428572,3.5714286)"
           width="744.09448"
           height="1052.3622" />
        <use
           x="0"
           y="0"
           xlink:href="#use3990"
           id="use4000"
           transform="translate(-6.25,-0.35714284)"
           width="744.09448"
           height="1052.3622" />
        <use
           x="0"
           y="0"
           xlink:href="#use4000"
           id="use4002"
           transform="translate(6.25,-3.0357143)"
           width="744.09448"
           height="1052.3622" />
        <use
           x="0"
           y="0"
           xlink:href="#use4002"
           id="use4004"
           transform="translate(7.1428568,-0.17857143)"
           width="744.09448"
           height="1052.3622" />
        <use
           x="0"
           y="0"
           xlink:href="#use4004"
           id="use4006"
           transform="translate(6.9642858,1.25)"
           width="744.09448"
           height="1052.3622" />
        <use
           x="0"
           y="0"
           xlink:href="#use4006"
           id="use4008"
           transform="translate(6.7857143,0.89285715)"
           width="744.09448"
           height="1052.3622" />
        <use
           x="0"
           y="0"
           xlink:href="#use3990"
           id="use3992"
           transform="translate(6.0714286,0)"
           width="744.09448"
           height="1052.3622" />
        <use
           x="0"
           y="0"
           xlink:href="#use3992"
           id="use3994"
           transform="translate(6.0714286,1.0714286)"
           width="744.09448"
           height="1052.3622" />
        <use
           x="0"
           y="0"
           xlink:href="#use3994"
           id="use3996"
           transform="translate(7.1428572,1.4285714)"
           width="744.09448"
           height="1052.3622" />
        <use
           x="0"
           y="0"
           xlink:href="#use3996"
           id="use3998"
           transform="translate(6.7857143,0.35714286)"
           width="744.09448"
           height="1052.3622" />
        <use
           x="0"
           y="0"
           xlink:href="#use3988"
           id="use3990"
           transform="translate(-26.428571,-7.5)"
           width="744.09448"
           height="1052.3622" />
        <g
           id="g3924"
           transform="translate(-0.17857143,2.3214286)">
          <use
             style="fill:url(#linearGradient4230);fill-opacity:1;stroke-width:0.5;stroke-miterlimit:4;stroke-dasharray:none"
             id="use3788"
             xlink:href="#rect3774"
             y="0"
             x="0"
             width="744.09448"
             height="1052.3622" />
          <path
             sodipodi:nodetypes="ccsccc"
             inkscape:connector-curvature="0"
             id="rect3774"
             d="m 44.4375,282.65657 0.03125,434.375 c 0.05727,0.92927 1.380614,1.65625 3,1.65625 1.619386,0 2.942725,-0.72698 3,-1.65625 C 50.530724,572.30872 50.5,427.43461 50.5,282.65657 z"
             style="fill:url(#linearGradient4232);fill-opacity:1;fill-rule:nonzero;stroke:#000000;stroke-width:0.5;stroke-linejoin:bevel;stroke-miterlimit:4;stroke-opacity:1;stroke-dasharray:none" />
          <path
             transform="matrix(1.1237024,0,0,0.69395035,-4.3465368,87.306832)"
             d="m 48.839286,281.40234 c 0,1.49167 -1.209231,2.7009 -2.700893,2.7009 -1.491662,0 -2.700893,-1.20923 -2.700893,-2.7009 0,-1.49166 1.209231,-2.70089 2.700893,-2.70089 1.491662,0 2.700893,1.20923 2.700893,2.70089 z"
             sodipodi:ry="2.7008929"
             sodipodi:rx="2.7008929"
             sodipodi:cy="281.40234"
             sodipodi:cx="46.138393"
             id="path3780"
             style="fill:url(#linearGradient4234);fill-opacity:1;fill-rule:nonzero;stroke:#000000;stroke-width:0.56621343;stroke-linejoin:bevel;stroke-miterlimit:4;stroke-opacity:1;stroke-dasharray:none"
             sodipodi:type="arc" />
          <use
             id="use3790"
             xlink:href="#path3780"
             y="0"
             x="0"
             style="fill:#000000;fill-opacity:1;stroke-width:0.5;stroke-miterlimit:4;stroke-dasharray:none"
             width="744.09448"
             height="1052.3622" />
          <path
             transform="matrix(1.2961821,0,0,1.3518065,-14.70609,-99.750826)"
             d="m 50.255088,282.76801 c 0,0.70608 -1.074119,1.27847 -2.399112,1.27847 -1.324993,0 -2.399112,-0.57239 -2.399112,-1.27847 0,-0.70609 1.074119,-1.27848 2.399112,-1.27848 1.324993,0 2.399112,0.57239 2.399112,1.27848 z"
             sodipodi:ry="1.2784743"
             sodipodi:rx="2.3991122"
             sodipodi:cy="282.76801"
             sodipodi:cx="47.855976"
             id="path3894"
             style="fill:#000000;fill-opacity:1;fill-rule:nonzero;stroke:none"
             sodipodi:type="arc" />
          <path
             transform="matrix(5.2000001,0,0,5.2000001,-237.9572,-1193.881)"
             d="m 55.053314,283.93597 c 0,0.0436 -0.07067,0.0789 -0.157837,0.0789 -0.08717,0 -0.157836,-0.0353 -0.157836,-0.0789 0,-0.0436 0.07067,-0.0789 0.157836,-0.0789 0.08717,0 0.157837,0.0353 0.157837,0.0789 z"
             sodipodi:ry="0.078918166"
             sodipodi:rx="0.15783633"
             sodipodi:cy="283.93597"
             sodipodi:cx="54.895477"
             id="path3786"
             style="fill:#ffffff;fill-opacity:1;fill-rule:nonzero;stroke:none"
             sodipodi:type="arc" />
          <use
             id="use3792"
             xlink:href="#path3786"
             y="0"
             x="0"
             style="fill:#ffffff;fill-opacity:1;stroke-width:0.5;stroke-miterlimit:4;stroke-dasharray:none"
             width="744.09448"
             height="1052.3622" />
        </g>
        <use
           x="0"
           y="0"
           xlink:href="#g3924"
           id="use3933"
           transform="translate(6.4247273,-0.28642828)"
           width="744.09448"
           height="1052.3622" />
        <use
           x="0"
           y="0"
           xlink:href="#use3933"
           id="use3935"
           width="744.09448"
           height="1052.3622"
           transform="translate(6.5659916,0.52674062)" />
        <use
           x="0"
           y="0"
           xlink:href="#use3935"
           id="use3937"
           width="744.09448"
           height="1052.3622"
           transform="translate(6.5659916,0.9884882)" />
        <use
           x="0"
           y="0"
           xlink:href="#use3937"
           id="use3941"
           transform="translate(6.8698218,0.71428572)"
           width="744.09448"
           height="1052.3622" />
        <use
           x="0"
           y="0"
           xlink:href="#use3941"
           id="use3988"
           transform="translate(7.1428572,0.71428572)"
           width="744.09448"
           height="1052.3622" />
        <use
           x="0"
           y="0"
           xlink:href="#use4008"
           id="use4010"
           transform="translate(-21.607142,10.535714)"
           width="744.09448"
           height="1052.3622" />
        <use
           x="0"
           y="0"
           xlink:href="#use4010"
           id="use4012"
           transform="translate(6.6071428,0.53571434)"
           width="744.09448"
           height="1052.3622" />
        <use
           x="0"
           y="0"
           xlink:href="#use4012"
           id="use4014"
           transform="translate(6.7857143,0.71428574)"
           width="744.09448"
           height="1052.3622" />
        <use
           x="0"
           y="0"
           xlink:href="#use4014"
           id="use4016"
           transform="translate(5.8928571,-2.2103357e-8)"
           width="744.09448"
           height="1052.3622" />
        <use
           x="0"
           y="0"
           xlink:href="#use4016"
           id="use4018"
           transform="translate(-15,2.3214286)"
           width="744.09448"
           height="1052.3622" />
        <use
           x="0"
           y="0"
           xlink:href="#use4018"
           id="use4026"
           transform="translate(6.0714286,0.71428572)"
           width="744.09448"
           height="1052.3622" />
        <use
           x="0"
           y="0"
           xlink:href="#use4026"
           id="use4028"
           transform="translate(7.1428572,0.89285714)"
           width="744.09448"
           height="1052.3622" />
        <use
           x="0"
           y="0"
           xlink:href="#use4028"
           id="use4030"
           transform="translate(7.8571429,-2.6785714)"
           width="744.09448"
           height="1052.3622" />
        <use
           x="0"
           y="0"
           xlink:href="#use4030"
           id="use4032"
           transform="translate(6.4285714,-0.89285714)"
           width="744.09448"
           height="1052.3622" />
        <path
           style="opacity:0.79435485;fill:url(#linearGradient4104);fill-opacity:1;fill-rule:nonzero;stroke:#000000;stroke-width:1;stroke-miterlimit:4;stroke-opacity:1;stroke-dasharray:none"
           d="m 37.875,360.40625 0,316.625 c -0.02556,0.19924 -0.03125,0.392 -0.03125,0.59375 0,6.45613 13.244143,11.71875 29.5625,11.71875 16.318357,0 29.53125,-5.26262 29.53125,-11.71875 0,-0.0106 7.1e-5,-0.0207 0,-0.0312 l 0.03125,0 0,-317.1875 c -3.13e-4,0.002 -0.03093,-0.002 -0.03125,0 -1.182242,6.02749 -13.899226,10.78125 -29.4375,10.78125 -15.538274,0 -28.255258,-4.75376 -29.4375,-10.78125 l -0.1875,0 z"
           id="rect4040"
           inkscape:connector-curvature="0" />
      </g>
    </g>
  </g>
</svg>
