<?xml version="1.0" encoding="UTF-8" standalone="no"?>
<svg
   xmlns:dc="http://purl.org/dc/elements/1.1/"
   xmlns:cc="http://creativecommons.org/ns#"
   xmlns:rdf="http://www.w3.org/1999/02/22-rdf-syntax-ns#"
   xmlns:svg="http://www.w3.org/2000/svg"
   xmlns="http://www.w3.org/2000/svg"
   xmlns:xlink="http://www.w3.org/1999/xlink"
   xmlns:sodipodi="http://sodipodi.sourceforge.net/DTD/sodipodi-0.dtd"
   xmlns:inkscape="http://www.inkscape.org/namespaces/inkscape"
   width="205.72504mm"
   height="101.70232mm"
   viewBox="0 0 205.72504 101.70232"
   version="1.1"
   id="svg4685"
   inkscape:version="1.0.1 (3bc2e813f5, 2020-09-07)"
   sodipodi:docname="energy_levels_spins.svg"
   inkscape:export-filename="/home/sh/mri-vector-graphics/mr-physics/energy_levels_spins.png"
   inkscape:export-xdpi="96"
   inkscape:export-ydpi="96">
  <defs
     id="defs4679">
    <marker
       style="overflow:visible"
       id="Arrow2Send"
       refX="0"
       refY="0"
       orient="auto"
       inkscape:stockid="Arrow2Send"
       inkscape:isstock="true">
      <path
         transform="matrix(-0.3,0,0,-0.3,0.69,0)"
         d="M 8.7185878,4.0337352 -2.2072895,0.01601326 8.7185884,-4.0017078 c -1.7454984,2.3720609 -1.7354408,5.6174519 -6e-7,8.035443 z"
         style="fill:#000000;fill-opacity:1;fill-rule:evenodd;stroke:#000000;stroke-width:0.625;stroke-linejoin:round;stroke-opacity:1"
         id="path982" />
    </marker>
    <marker
       style="overflow:visible"
       id="Arrow2Mend"
       refX="0"
       refY="0"
       orient="auto"
       inkscape:stockid="Arrow2Mend"
       inkscape:isstock="true">
      <path
         transform="scale(-0.6)"
         d="M 8.7185878,4.0337352 -2.2072895,0.01601326 8.7185884,-4.0017078 c -1.7454984,2.3720609 -1.7354408,5.6174519 -6e-7,8.035443 z"
         style="fill:#000000;fill-opacity:1;fill-rule:evenodd;stroke:#000000;stroke-width:0.625;stroke-linejoin:round;stroke-opacity:1"
         id="path976" />
    </marker>
    <g
       id="g6814">
      <symbol
         overflow="visible"
         id="symbol5963">
        <path
           style="stroke:none"
           d=""
           id="path8455" />
      </symbol>
      <symbol
         overflow="visible"
         id="symbol4579">
        <path
           style="stroke:none"
           d="M 1.09375,-3.421875 V -0.75 c 0,0.4375 -0.109375,0.4375 -0.78125,0.4375 V 0 c 0.359375,-0.015625 0.859375,-0.03125 1.140625,-0.03125 0.25,0 0.765625,0.015625 1.109375,0.03125 v -0.3125 c -0.671875,0 -0.78125,0 -0.78125,-0.4375 V -2.59375 C 1.78125,-3.625 2.5,-4.1875 3.125,-4.1875 c 0.640625,0 0.75,0.53125 0.75,1.109375 V -0.75 c 0,0.4375 -0.109375,0.4375 -0.78125,0.4375 V 0 c 0.34375,-0.015625 0.859375,-0.03125 1.125,-0.03125 0.25,0 0.78125,0.015625 1.109375,0.03125 v -0.3125 c -0.515625,0 -0.765625,0 -0.765625,-0.296875 v -1.90625 c 0,-0.859375 0,-1.15625 -0.3125,-1.515625 -0.140625,-0.171875 -0.46875,-0.375 -1.046875,-0.375 C 2.46875,-4.40625 2,-3.984375 1.71875,-3.359375 V -4.40625 L 0.3125,-4.296875 v 0.3125 c 0.703125,0 0.78125,0.0625 0.78125,0.5625 z m 0,0"
           id="path1378" />
      </symbol>
      <symbol
         overflow="visible"
         id="symbol2090">
        <path
           style="stroke:none"
           d="M 4.6875,-2.140625 C 4.6875,-3.40625 3.703125,-4.46875 2.5,-4.46875 c -1.25,0 -2.21875,1.09375 -2.21875,2.328125 0,1.296875 1.03125,2.25 2.203125,2.25 1.203125,0 2.203125,-0.984375 2.203125,-2.25 z m -2.1875,2 c -0.4375,0 -0.875,-0.203125 -1.140625,-0.671875 -0.25,-0.4375 -0.25,-1.046875 -0.25,-1.40625 0,-0.390625 0,-0.921875 0.234375,-1.359375 C 1.609375,-4.03125 2.078125,-4.25 2.484375,-4.25 c 0.4375,0 0.859375,0.21875 1.125,0.65625 0.265625,0.421875 0.265625,1 0.265625,1.375 0,0.359375 0,0.90625 -0.21875,1.34375 C 3.421875,-0.421875 2.984375,-0.140625 2.5,-0.140625 Z m 0,0"
           id="path1515" />
      </symbol>
      <symbol
         overflow="visible"
         id="symbol6166">
        <path
           style="stroke:none"
           d="m 3.296875,-3.984375 c 0.453125,0 0.515625,0.125 0.515625,0.53125 V -0.75 c 0,0.4375 -0.109375,0.4375 -0.765625,0.4375 V 0 c 0.328125,-0.015625 0.84375,-0.03125 1.09375,-0.03125 0.25,0 0.75,0.015625 1.109375,0.03125 v -0.3125 c -0.671875,0 -0.78125,0 -0.78125,-0.4375 v -3.671875 l -1.25,0.09375 C 3.0625,-4.3125 3.046875,-4.3125 3.046875,-4.3125 3.015625,-4.296875 3,-4.296875 2.859375,-4.296875 H 1.6875 v -1.125 c 0,-0.984375 0.859375,-1.390625 1.46875,-1.390625 0.296875,0 0.65625,0.109375 0.859375,0.328125 -0.40625,0.03125 -0.46875,0.296875 -0.46875,0.46875 C 3.546875,-5.6875 3.8125,-5.5625 4,-5.5625 c 0.234375,0 0.453125,-0.15625 0.453125,-0.453125 0,-0.59375 -0.546875,-1.015625 -1.28125,-1.015625 C 2.25,-7.03125 1.0625,-6.515625 1.0625,-5.4375 v 1.140625 H 0.265625 v 0.3125 H 1.0625 V -0.75 c 0,0.4375 -0.109375,0.4375 -0.78125,0.4375 V 0 C 0.609375,-0.015625 1.140625,-0.03125 1.390625,-0.03125 1.640625,-0.03125 2.125,-0.015625 2.5,0 v -0.3125 c -0.671875,0 -0.78125,0 -0.78125,-0.4375 v -3.234375 z m 0,0"
           id="path732" />
      </symbol>
      <symbol
         overflow="visible"
         id="symbol2083">
        <path
           style="stroke:none"
           d="M 1.109375,-2.515625 C 1.171875,-4 2.015625,-4.25 2.359375,-4.25 c 1.015625,0 1.125,1.34375 1.125,1.734375 z m 0,0.21875 h 2.78125 c 0.21875,0 0.25,0 0.25,-0.21875 0,-0.984375 -0.546875,-1.953125 -1.78125,-1.953125 -1.15625,0 -2.078125,1.03125 -2.078125,2.28125 0,1.328125 1.046875,2.296875 2.1875,2.296875 C 3.6875,0.109375 4.140625,-1 4.140625,-1.1875 4.140625,-1.28125 4.0625,-1.3125 4,-1.3125 c -0.078125,0 -0.109375,0.0625 -0.125,0.140625 -0.34375,1.03125 -1.25,1.03125 -1.34375,1.03125 -0.5,0 -0.890625,-0.296875 -1.125,-0.671875 -0.296875,-0.46875 -0.296875,-1.125 -0.296875,-1.484375 z m 0,0"
           id="path329" />
      </symbol>
      <symbol
         overflow="visible"
         id="symbol8696">
        <path
           style="stroke:none"
           d="M 1.765625,-6.921875 0.328125,-6.8125 V -6.5 c 0.703125,0 0.78125,0.0625 0.78125,0.5625 V -0.75 c 0,0.4375 -0.109375,0.4375 -0.78125,0.4375 V 0 C 0.65625,-0.015625 1.1875,-0.03125 1.4375,-0.03125 c 0.25,0 0.734375,0.015625 1.109375,0.03125 v -0.3125 c -0.671875,0 -0.78125,0 -0.78125,-0.4375 z m 0,0"
           id="path3277" />
      </symbol>
      <symbol
         overflow="visible"
         id="symbol4684">
        <path
           style="stroke:none"
           d="m 3.78125,-0.546875 v 0.65625 L 5.25,0 v -0.3125 c -0.6875,0 -0.78125,-0.0625 -0.78125,-0.5625 V -6.921875 L 3.046875,-6.8125 V -6.5 c 0.6875,0 0.765625,0.0625 0.765625,0.5625 v 2.15625 c -0.28125,-0.359375 -0.71875,-0.625 -1.25,-0.625 -1.171875,0 -2.21875,0.984375 -2.21875,2.265625 0,1.265625 0.96875,2.25 2.109375,2.25 0.640625,0 1.078125,-0.34375 1.328125,-0.65625 z m 0,-2.671875 v 2.046875 c 0,0.171875 0,0.1875 -0.109375,0.359375 C 3.375,-0.328125 2.9375,-0.109375 2.5,-0.109375 2.046875,-0.109375 1.6875,-0.375 1.453125,-0.75 1.203125,-1.15625 1.171875,-1.71875 1.171875,-2.140625 1.171875,-2.5 1.1875,-3.09375 1.46875,-3.546875 1.6875,-3.859375 2.0625,-4.1875 2.609375,-4.1875 c 0.34375,0 0.765625,0.15625 1.0625,0.59375 0.109375,0.171875 0.109375,0.1875 0.109375,0.375 z m 0,0"
           id="path2774" />
      </symbol>
    </g>
    <g
       id="g4081">
      <symbol
         overflow="visible"
         id="symbol774">
        <path
           style="stroke:none"
           d=""
           id="path6075" />
      </symbol>
      <symbol
         overflow="visible"
         id="symbol7431">
        <path
           style="stroke:none"
           d="M 1.59375,-0.78125 C 1.5,-0.390625 1.46875,-0.3125 0.6875,-0.3125 c -0.171875,0 -0.265625,0 -0.265625,0.203125 C 0.421875,0 0.515625,0 0.6875,0 H 4.25 C 5.828125,0 7,-1.171875 7,-2.15625 7,-2.875 6.421875,-3.453125 5.453125,-3.5625 6.484375,-3.75 7.53125,-4.484375 7.53125,-5.4375 c 0,-0.734375 -0.65625,-1.375 -1.84375,-1.375 H 2.328125 c -0.1875,0 -0.28125,0 -0.28125,0.203125 0,0.109375 0.09375,0.109375 0.28125,0.109375 0.015625,0 0.203125,0 0.375,0.015625 0.171875,0.03125 0.265625,0.03125 0.265625,0.171875 0,0.03125 -0.015625,0.0625 -0.03125,0.1875 z m 1.5,-2.875 0.625,-2.46875 C 3.8125,-6.46875 3.828125,-6.5 4.25,-6.5 h 1.296875 c 0.875,0 1.078125,0.59375 1.078125,1.03125 0,0.875 -0.859375,1.8125 -2.0625,1.8125 z m -0.4375,3.34375 c -0.140625,0 -0.15625,0 -0.21875,0 -0.109375,-0.015625 -0.140625,-0.03125 -0.140625,-0.109375 0,-0.03125 0,-0.046875 0.0625,-0.21875 l 0.6875,-2.78125 h 1.875 c 0.953125,0 1.15625,0.734375 1.15625,1.15625 C 6.078125,-1.28125 5.1875,-0.3125 4,-0.3125 Z m 0,0"
           id="path7561" />
      </symbol>
      <symbol
         overflow="visible"
         id="symbol6493">
        <path
           style="stroke:none"
           d=""
           id="path7362" />
      </symbol>
      <symbol
         overflow="visible"
         id="symbol670">
        <path
           style="stroke:none"
           d="M 3.59375,-2.21875 C 3.59375,-2.984375 3.5,-3.546875 3.1875,-4.03125 2.96875,-4.34375 2.53125,-4.625 1.984375,-4.625 c -1.625,0 -1.625,1.90625 -1.625,2.40625 0,0.5 0,2.359375 1.625,2.359375 1.609375,0 1.609375,-1.859375 1.609375,-2.359375 z M 1.984375,-0.0625 c -0.328125,0 -0.75,-0.1875 -0.890625,-0.75 C 1,-1.21875 1,-1.796875 1,-2.3125 1,-2.828125 1,-3.359375 1.09375,-3.734375 1.25,-4.28125 1.6875,-4.4375 1.984375,-4.4375 c 0.375,0 0.734375,0.234375 0.859375,0.640625 0.109375,0.375 0.125,0.875 0.125,1.484375 0,0.515625 0,1.03125 -0.09375,1.46875 -0.140625,0.640625 -0.609375,0.78125 -0.890625,0.78125 z m 0,0"
           id="path2826" />
      </symbol>
    </g>
    <marker
       style="overflow:visible"
       id="Arrow2Mend-3"
       refX="0"
       refY="0"
       orient="auto"
       inkscape:stockid="Arrow2Mend"
       inkscape:isstock="true">
      <path
         transform="scale(-0.6)"
         d="M 8.7185878,4.0337352 -2.2072895,0.01601326 8.7185884,-4.0017078 c -1.7454984,2.3720609 -1.7354408,5.6174519 -6e-7,8.035443 z"
         style="fill:#0014ff;fill-opacity:1;fill-rule:evenodd;stroke:#0027ff;stroke-width:0.625;stroke-linejoin:round;stroke-opacity:1"
         id="path976-5" />
    </marker>
    <marker
       style="overflow:visible"
       id="Arrow2Send-6"
       refX="0"
       refY="0"
       orient="auto"
       inkscape:stockid="Arrow2Send"
       inkscape:isstock="true">
      <path
         transform="matrix(-0.3,0,0,-0.3,0.69,0)"
         d="M 8.7185878,4.0337352 -2.2072895,0.01601326 8.7185884,-4.0017078 c -1.7454984,2.3720609 -1.7354408,5.6174519 -6e-7,8.035443 z"
         style="fill:#000000;fill-opacity:1;fill-rule:evenodd;stroke:#000000;stroke-width:0.625;stroke-linejoin:round;stroke-opacity:1"
         id="path982-2" />
    </marker>
    <marker
       style="overflow:visible"
       id="marker5563"
       refX="0"
       refY="0"
       orient="auto"
       inkscape:stockid="Arrow2Send"
       inkscape:isstock="true">
      <path
         transform="matrix(-0.3,0,0,-0.3,0.69,0)"
         d="M 8.7185878,4.0337352 -2.2072895,0.01601326 8.7185884,-4.0017078 c -1.7454984,2.3720609 -1.7354408,5.6174519 -6e-7,8.035443 z"
         style="fill:#000000;fill-opacity:1;fill-rule:evenodd;stroke:#000000;stroke-width:0.625;stroke-linejoin:round;stroke-opacity:1"
         id="path5561" />
    </marker>
    <g
       id="g6544">
      <symbol
         overflow="visible"
         id="symbol6968">
        <path
           style="stroke:none"
           d=""
           id="path2170" />
      </symbol>
      <symbol
         overflow="visible"
         id="symbol8346">
        <path
           style="stroke:none"
           d="m 6.15625,-6.890625 c -0.046875,-0.203125 -0.0625,-0.25 -0.234375,-0.25 -0.09375,0 -0.171875,0 -0.3125,0.1875 l -5.046875,6.75 C 0.484375,-0.09375 0.484375,-0.078125 0.484375,-0.0625 0.484375,-0.015625 0.5,0 0.703125,0 H 7.59375 c 0.15625,0 0.25,0 0.25,-0.09375 0,-0.046875 -0.015625,-0.109375 -0.015625,-0.140625 z m -0.75,0.6875 1.359375,5.484375 h -5.46875 z m 0,0"
           id="path1739" />
      </symbol>
      <symbol
         overflow="visible"
         id="symbol2043">
        <path
           style="stroke:none"
           d="M 7.0625,-2.328125 C 7.078125,-2.375 7.109375,-2.4375 7.109375,-2.46875 c 0,0 0,-0.109375 -0.125,-0.109375 -0.09375,0 -0.109375,0.0625 -0.125,0.125 C 6.203125,-0.984375 5.84375,-0.3125 4.140625,-0.3125 H 2.6875 c -0.140625,0 -0.171875,0 -0.21875,0 -0.109375,-0.015625 -0.140625,-0.03125 -0.140625,-0.109375 0,-0.03125 0,-0.046875 0.046875,-0.21875 L 3.0625,-3.375 h 0.984375 c 0.84375,0 0.84375,0.21875 0.84375,0.46875 0,0.0625 0,0.1875 -0.0625,0.484375 C 4.8125,-2.375 4.796875,-2.34375 4.796875,-2.3125 c 0,0.046875 0.03125,0.109375 0.125,0.109375 C 5,-2.203125 5.03125,-2.25 5.078125,-2.40625 l 0.5625,-2.328125 c 0,-0.0625 -0.046875,-0.109375 -0.125,-0.109375 -0.078125,0 -0.109375,0.0625 -0.125,0.171875 -0.21875,0.765625 -0.390625,1 -1.3125,1 h -0.9375 l 0.59375,-2.40625 C 3.828125,-6.4375 3.84375,-6.46875 4.28125,-6.46875 H 5.6875 c 1.203125,0 1.515625,0.28125 1.515625,1.109375 0,0.234375 0,0.25 -0.046875,0.53125 0,0.046875 -0.015625,0.125 -0.015625,0.171875 0,0.046875 0.03125,0.125 0.125,0.125 0.109375,0 0.125,-0.0625 0.140625,-0.25 L 7.609375,-6.515625 C 7.640625,-6.78125 7.59375,-6.78125 7.34375,-6.78125 H 2.296875 c -0.1875,0 -0.296875,0 -0.296875,0.203125 0,0.109375 0.09375,0.109375 0.28125,0.109375 0.375,0 0.65625,0 0.65625,0.171875 0,0.046875 0,0.0625 -0.0625,0.25 L 1.5625,-0.78125 c -0.09375,0.390625 -0.109375,0.46875 -0.90625,0.46875 -0.171875,0 -0.28125,0 -0.28125,0.1875 C 0.375,0 0.46875,0 0.65625,0 h 5.171875 c 0.234375,0 0.25,-0.015625 0.3125,-0.171875 z m 0,0"
           id="path3847" />
      </symbol>
      <symbol
         overflow="visible"
         id="symbol5252">
        <path
           style="stroke:none"
           d="m 6.03125,-3.703125 c 0,-0.453125 -0.171875,-0.703125 -0.40625,-0.703125 -0.25,0 -0.515625,0.234375 -0.515625,0.46875 0,0.09375 0.046875,0.203125 0.140625,0.296875 0.171875,0.15625 0.359375,0.421875 0.359375,0.84375 0,0.390625 -0.203125,0.96875 -0.5,1.421875 C 4.8125,-0.953125 4.4375,-0.609375 3.96875,-0.609375 3.40625,-0.609375 3.09375,-0.96875 3,-1.5 c 0.109375,-0.265625 0.34375,-0.90625 0.34375,-1.1875 0,-0.109375 -0.046875,-0.21875 -0.1875,-0.21875 -0.078125,0 -0.1875,0.03125 -0.265625,0.171875 C 2.78125,-2.53125 2.65625,-1.890625 2.65625,-1.53125 2.328125,-1.0625 1.9375,-0.609375 1.3125,-0.609375 c -0.671875,0 -0.875,-0.59375 -0.875,-1.140625 0,-1.25 1.015625,-2.296875 1.015625,-2.421875 0,-0.109375 -0.078125,-0.1875 -0.1875,-0.1875 -0.125,0 -0.203125,0.125 -0.265625,0.21875 -0.5,0.734375 -0.875,1.921875 -0.875,2.828125 0,0.6875 0.21875,1.421875 1.046875,1.421875 0.703125,0 1.171875,-0.5 1.53125,-1.046875 0.09375,0.578125 0.484375,1.046875 1.09375,1.046875 0.78125,0 1.25,-0.609375 1.609375,-1.359375 0.25,-0.484375 0.625,-1.84375 0.625,-2.453125 z m 0,0"
           id="path5295" />
      </symbol>
      <symbol
         overflow="visible"
         id="symbol6379">
        <path
           style="stroke:none"
           d=""
           id="path2007" />
      </symbol>
      <symbol
         overflow="visible"
         id="symbol9498">
        <path
           style="stroke:none"
           d="m 6.84375,-3.265625 c 0.15625,0 0.34375,0 0.34375,-0.1875 C 7.1875,-3.65625 7,-3.65625 6.859375,-3.65625 h -5.96875 c -0.140625,0 -0.328125,0 -0.328125,0.203125 0,0.1875 0.1875,0.1875 0.328125,0.1875 z m 0.015625,1.9375 c 0.140625,0 0.328125,0 0.328125,-0.203125 0,-0.1875 -0.1875,-0.1875 -0.34375,-0.1875 H 0.890625 c -0.140625,0 -0.328125,0 -0.328125,0.1875 0,0.203125 0.1875,0.203125 0.328125,0.203125 z m 0,0"
           id="path749" />
      </symbol>
      <symbol
         overflow="visible"
         id="symbol9323">
        <path
           style="stroke:none"
           d=""
           id="path9900" />
      </symbol>
      <symbol
         overflow="visible"
         id="symbol3377">
        <path
           style="stroke:none"
           d="M 2.546875,-5.484375 H 4.46875 c 0.171875,0 0.28125,0 0.28125,-0.125 0,-0.125 -0.109375,-0.125 -0.296875,-0.125 H 2.609375 C 2.671875,-5.984375 2.671875,-6 2.734375,-6.25 2.78125,-6.4375 2.875,-6.78125 2.875,-6.796875 c 0,-0.09375 -0.0625,-0.125 -0.140625,-0.125 -0.1875,0 -0.984375,0.078125 -1.21875,0.109375 -0.078125,0 -0.1875,0.015625 -0.1875,0.203125 C 1.328125,-6.5 1.421875,-6.5 1.5625,-6.5 c 0.484375,0 0.5,0.0625 0.5,0.171875 0,0.0625 -0.09375,0.390625 -0.140625,0.59375 h -0.5625 c -0.1875,0 -0.296875,0 -0.296875,0.125 0,0.125 0.078125,0.125 0.265625,0.125 h 0.53125 L 0.59375,-0.40625 C 0.546875,-0.25 0.546875,-0.234375 0.546875,-0.171875 c 0,0.21875 0.171875,0.28125 0.296875,0.28125 0.1875,0 0.328125,-0.140625 0.359375,-0.265625 0.015625,-0.046875 0.125,-0.5 0.1875,-0.75 L 1.625,-1.796875 C 1.65625,-1.9375 1.75,-2.328125 1.78125,-2.46875 c 0.046875,-0.15625 0.125,-0.46875 0.125,-0.5 0.09375,-0.171875 0.625,-1.21875 1.625,-1.21875 0.4375,0 0.53125,0.359375 0.53125,0.6875 0,0.625 -0.453125,1.828125 -0.640625,2.296875 C 3.375,-1.046875 3.3125,-0.90625 3.3125,-0.71875 c 0,0.515625 0.375,0.828125 0.828125,0.828125 0.953125,0 1.296875,-1.46875 1.296875,-1.53125 0,-0.109375 -0.078125,-0.109375 -0.109375,-0.109375 -0.109375,0 -0.109375,0.03125 -0.15625,0.1875 -0.28125,1.015625 -0.734375,1.234375 -1,1.234375 -0.1875,0 -0.25,-0.125 -0.25,-0.328125 0,-0.25 0.109375,-0.53125 0.171875,-0.703125 0.15625,-0.4375 0.609375,-1.625 0.609375,-2.1875 C 4.703125,-4.0625 4.25,-4.40625 3.5625,-4.40625 c -0.3125,0 -0.90625,0.0625 -1.484375,0.75 z m 0,0"
           id="path6725" />
      </symbol>
      <symbol
         overflow="visible"
         id="symbol7373">
        <path
           style="stroke:none"
           d=""
           id="path8542" />
      </symbol>
      <symbol
         overflow="visible"
         id="symbol4406">
        <path
           style="stroke:none"
           d="M 3.59375,-2.21875 C 3.59375,-2.984375 3.5,-3.546875 3.1875,-4.03125 2.96875,-4.34375 2.53125,-4.625 1.984375,-4.625 c -1.625,0 -1.625,1.90625 -1.625,2.40625 0,0.5 0,2.359375 1.625,2.359375 1.609375,0 1.609375,-1.859375 1.609375,-2.359375 z M 1.984375,-0.0625 c -0.328125,0 -0.75,-0.1875 -0.890625,-0.75 C 1,-1.21875 1,-1.796875 1,-2.3125 1,-2.828125 1,-3.359375 1.09375,-3.734375 1.25,-4.28125 1.6875,-4.4375 1.984375,-4.4375 c 0.375,0 0.734375,0.234375 0.859375,0.640625 0.109375,0.375 0.125,0.875 0.125,1.484375 0,0.515625 0,1.03125 -0.09375,1.46875 -0.140625,0.640625 -0.609375,0.78125 -0.890625,0.78125 z m 0,0"
           id="path5402" />
      </symbol>
    </g>
    <style
       type="text/css"
       id="style6395">*{stroke-linecap:butt;stroke-linejoin:round;}</style>
    <clipPath
       id="pc667194e8f">
      <rect
         height="288"
         width="288"
         x="7.1999998"
         y="7.1999998"
         id="rect6407" />
    </clipPath>
    <marker
       style="overflow:visible"
       id="Arrow2Mstart"
       refX="0"
       refY="0"
       orient="auto"
       inkscape:stockid="Arrow2Mstart"
       inkscape:isstock="true">
      <path
         transform="scale(0.6)"
         d="M 8.7185878,4.0337352 -2.2072895,0.01601326 8.7185884,-4.0017078 c -1.7454984,2.3720609 -1.7354408,5.6174519 -6e-7,8.035443 z"
         style="fill:#ff0005;fill-opacity:1;fill-rule:evenodd;stroke:#ff0000;stroke-width:0.625;stroke-linejoin:round;stroke-opacity:1"
         id="path973" />
    </marker>
    <marker
       style="overflow:visible"
       id="marker3349"
       refX="0"
       refY="0"
       orient="auto"
       inkscape:stockid="Arrow2Mend"
       inkscape:isstock="true">
      <path
         transform="scale(-0.6)"
         d="M 8.7185878,4.0337352 -2.2072895,0.01601326 8.7185884,-4.0017078 c -1.7454984,2.3720609 -1.7354408,5.6174519 -6e-7,8.035443 z"
         style="fill:#ff0005;fill-opacity:1;fill-rule:evenodd;stroke:#ff0000;stroke-width:0.625;stroke-linejoin:round;stroke-opacity:1"
         id="path3347" />
    </marker>
  </defs>
  <sodipodi:namedview
     id="base"
     pagecolor="#ffffff"
     bordercolor="#666666"
     borderopacity="1.0"
     inkscape:pageopacity="0.0"
     inkscape:pageshadow="2"
     inkscape:zoom="0.7"
     inkscape:cx="277.4305"
     inkscape:cy="226.55612"
     inkscape:document-units="mm"
     inkscape:current-layer="layer1"
     inkscape:document-rotation="0"
     showgrid="false"
     inkscape:window-width="1920"
     inkscape:window-height="1015"
     inkscape:window-x="0"
     inkscape:window-y="0"
     inkscape:window-maximized="1"
     inkscape:snap-global="false"
     fit-margin-top="0"
     fit-margin-left="0"
     fit-margin-right="0"
     fit-margin-bottom="0" />
  <metadata
     id="metadata4682">
    <rdf:RDF>
      <cc:Work
         rdf:about="">
        <dc:format>image/svg+xml</dc:format>
        <dc:type
           rdf:resource="http://purl.org/dc/dcmitype/StillImage" />
        <dc:title></dc:title>
      </cc:Work>
    </rdf:RDF>
  </metadata>
  <g
     inkscape:label="Layer 1"
     inkscape:groupmode="layer"
     id="layer1"
     transform="translate(-21.452404,-55.452695)">
    <path
       style="fill:none;stroke:#000000;stroke-width:1;stroke-linecap:butt;stroke-linejoin:miter;stroke-miterlimit:4;stroke-dasharray:none;stroke-opacity:1"
       d="m 22.402224,110.61152 h 55.499698 l 27.094438,27.09444 h 39.26138"
       id="path5266" />
    <path
       style="fill:none;stroke:#000000;stroke-width:1;stroke-linecap:butt;stroke-linejoin:miter;stroke-miterlimit:4;stroke-dasharray:none;stroke-opacity:1"
       d="M 22.402224,110.61152 H 77.901922 L 104.99636,83.51708 h 39.26138"
       id="path5266-5" />
    <path
       style="fill:#000000;fill-opacity:1;stroke:#000000;stroke-width:1;stroke-linecap:butt;stroke-linejoin:miter;stroke-miterlimit:4;stroke-dasharray:none;stroke-opacity:1;marker-end:url(#Arrow2Send)"
       d="m 31.903651,105.69616 v 10.25439"
       id="path5283" />
    <g
       inkscape:label=""
       transform="translate(-70.785099,9.9081796)"
       id="g5353"
       style="fill:#0014ff;fill-opacity:1;stroke:#0027ff;stroke-opacity:1">
      <g
         id="g1841"
         style="fill:#0014ff;fill-opacity:1;stroke:#0027ff;stroke-opacity:1">
        <g
           style="fill:#0014ff;fill-opacity:1;stroke:#0027ff;stroke-opacity:1"
           id="g9623">
          <use
             xlink:href="#symbol4579"
             x="91.925003"
             y="81.962997"
             id="use7878"
             width="100%"
             height="100%"
             style="fill:#0014ff;fill-opacity:1;stroke:#0027ff;stroke-opacity:1" />
          <use
             xlink:href="#symbol2090"
             x="97.46022"
             y="81.962997"
             id="use265"
             width="100%"
             height="100%"
             style="fill:#0014ff;fill-opacity:1;stroke:#0027ff;stroke-opacity:1" />
        </g>
        <g
           style="fill:#0014ff;fill-opacity:1;stroke:#0027ff;stroke-opacity:1"
           id="g303">
          <use
             xlink:href="#symbol6166"
             x="105.75906"
             y="81.962997"
             id="use5490"
             width="100%"
             height="100%"
             style="fill:#0014ff;fill-opacity:1;stroke:#0027ff;stroke-opacity:1" />
          <use
             xlink:href="#symbol2083"
             x="111.29429"
             y="81.962997"
             id="use9181"
             width="100%"
             height="100%"
             style="fill:#0014ff;fill-opacity:1;stroke:#0027ff;stroke-opacity:1" />
          <use
             xlink:href="#symbol8696"
             x="115.72166"
             y="81.962997"
             id="use7772"
             width="100%"
             height="100%"
             style="fill:#0014ff;fill-opacity:1;stroke:#0027ff;stroke-opacity:1" />
          <use
             xlink:href="#symbol4684"
             x="118.48928"
             y="81.962997"
             id="use2733"
             width="100%"
             height="100%"
             style="fill:#0014ff;fill-opacity:1;stroke:#0027ff;stroke-opacity:1" />
        </g>
      </g>
    </g>
    <g
       inkscape:label=""
       transform="matrix(1.2308752,0,0,1.2308752,52.560044,-37.048191)"
       id="g5431"
       style="fill:#0014ff;fill-opacity:1">
      <g
         id="g6369"
         style="fill:#0014ff;fill-opacity:1">
        <g
           style="fill:#0014ff;fill-opacity:1"
           id="g3596">
          <use
             xlink:href="#symbol7431"
             x="91.925003"
             y="81.962997"
             id="use9629"
             width="100%"
             height="100%"
             style="fill:#0014ff;fill-opacity:1" />
        </g>
        <g
           style="fill:#0014ff;fill-opacity:1"
           id="g9779">
          <use
             xlink:href="#symbol670"
             x="99.482002"
             y="83.457001"
             id="use3821"
             width="100%"
             height="100%"
             style="fill:#0014ff;fill-opacity:1" />
        </g>
      </g>
    </g>
    <path
       style="fill:#0014ff;stroke:#0027ff;stroke-width:0.67431;stroke-linecap:butt;stroke-linejoin:miter;stroke-miterlimit:4;stroke-dasharray:none;stroke-opacity:1;marker-end:url(#Arrow2Mend-3);fill-opacity:1"
       d="M 160.50269,157.15501 V 62.436954"
       id="path947" />
    <use
       x="0"
       y="0"
       xlink:href="#path5283"
       id="use5537"
       style="fill:#0014ff;fill-opacity:1;stroke:#0027ff;stroke-width:1;stroke-miterlimit:4;stroke-dasharray:none;stroke-opacity:1"
       width="100%"
       height="100%" />
    <use
       x="0"
       y="0"
       xlink:href="#use5537"
       id="use5547"
       transform="translate(14.911465,0.00694402)"
       width="100%"
       height="100%" />
    <use
       x="0"
       y="0"
       xlink:href="#use5547"
       id="use5549"
       transform="translate(14.946347,-0.00694402)"
       width="100%"
       height="100%" />
    <use
       x="0"
       y="0"
       xlink:href="#path5283"
       id="use5537-9"
       width="100%"
       height="100%"
       transform="matrix(1,0,0,-1,7.2599043,222.69872)"
       style="fill:#0014ff;fill-opacity:1;stroke:#0027ff;stroke-opacity:1" />
    <use
       x="0"
       y="0"
       xlink:href="#use5537-9"
       id="use5610"
       transform="translate(14.725637)"
       width="100%"
       height="100%" />
    <use
       x="0"
       y="0"
       xlink:href="#use5610"
       id="use5612"
       transform="translate(14.540894)"
       width="100%"
       height="100%" />
    <use
       x="0"
       y="0"
       xlink:href="#use5537-9"
       id="use5614"
       transform="translate(73.15385,26.566692)"
       width="100%"
       height="100%" />
    <use
       x="0"
       y="0"
       xlink:href="#use5614"
       id="use5616"
       transform="translate(7.1086931)"
       width="100%"
       height="100%" />
    <use
       x="0"
       y="0"
       xlink:href="#use5616"
       id="use5618"
       transform="translate(7.6610772)"
       width="100%"
       height="100%" />
    <use
       x="0"
       y="0"
       xlink:href="#use5618"
       id="use5620"
       transform="translate(7.988715)"
       width="100%"
       height="100%" />
    <use
       x="0"
       y="0"
       xlink:href="#use5537"
       id="use5622"
       transform="translate(80.261297,-28.199668)"
       width="100%"
       height="100%" />
    <use
       x="0"
       y="0"
       xlink:href="#use5622"
       id="use5624"
       transform="translate(7.0614922)"
       width="100%"
       height="100%" />
    <g
       inkscape:label=""
       transform="matrix(4.5810134,0,0,4.5810134,270.4253,-42.957487)"
       id="g4578"
       style="fill:#ff0005;fill-opacity:1;stroke:#ff0000;stroke-opacity:1">
      <g
         id="g4576"
         style="fill:#ff0005;fill-opacity:1;stroke:#ff0000;stroke-opacity:1">
        <g
           style="fill:#ff0005;fill-opacity:1;stroke:#ff0000;stroke-opacity:1"
           id="g5121">
          <g
             id="use9485"
             style="fill:#ff0005;fill-opacity:1;stroke:#ff0000;stroke-opacity:1"
             transform="matrix(0.26458333,0,0,0.26458333,91.925003,81.962997)">
            <path
               style="stroke:none"
               d="m 4.40625,-6.953125 c -0.0625,-0.140625 -0.09375,-0.1875 -0.265625,-0.1875 -0.15625,0 -0.1875,0.046875 -0.25,0.1875 l -3.375,6.75 C 0.46875,-0.109375 0.46875,-0.09375 0.46875,-0.078125 0.46875,0 0.53125,0 0.6875,0 h 6.921875 c 0.15625,0 0.21875,0 0.21875,-0.078125 0,-0.015625 0,-0.03125 -0.046875,-0.125 z m -0.578125,0.8125 2.6875,5.390625 h -5.375 z m 0,0"
               id="path5810" />
          </g>
        </g>
        <g
           style="fill:#ff0005;fill-opacity:1;stroke:#ff0000;stroke-opacity:1"
           id="g4878">
          <g
             id="use6379"
             style="fill:#ff0005;fill-opacity:1;stroke:#ff0000;stroke-opacity:1"
             transform="matrix(0.26458333,0,0,0.26458333,100.227,81.962997)">
            <path
               style="stroke:none"
               d="M 7.0625,-2.328125 C 7.078125,-2.375 7.109375,-2.4375 7.109375,-2.46875 c 0,0 0,-0.109375 -0.125,-0.109375 -0.09375,0 -0.109375,0.0625 -0.125,0.125 C 6.203125,-0.984375 5.84375,-0.3125 4.140625,-0.3125 H 2.6875 c -0.140625,0 -0.171875,0 -0.21875,0 -0.109375,-0.015625 -0.140625,-0.03125 -0.140625,-0.109375 0,-0.03125 0,-0.046875 0.046875,-0.21875 L 3.0625,-3.375 h 0.984375 c 0.84375,0 0.84375,0.21875 0.84375,0.46875 0,0.0625 0,0.1875 -0.0625,0.484375 C 4.8125,-2.375 4.796875,-2.34375 4.796875,-2.3125 c 0,0.046875 0.03125,0.109375 0.125,0.109375 C 5,-2.203125 5.03125,-2.25 5.078125,-2.40625 l 0.5625,-2.328125 c 0,-0.0625 -0.046875,-0.109375 -0.125,-0.109375 -0.078125,0 -0.109375,0.0625 -0.125,0.171875 -0.21875,0.765625 -0.390625,1 -1.3125,1 h -0.9375 l 0.59375,-2.40625 C 3.828125,-6.4375 3.84375,-6.46875 4.28125,-6.46875 H 5.6875 c 1.203125,0 1.515625,0.28125 1.515625,1.109375 0,0.234375 0,0.25 -0.046875,0.53125 0,0.046875 -0.015625,0.125 -0.015625,0.171875 0,0.046875 0.03125,0.125 0.125,0.125 0.109375,0 0.125,-0.0625 0.140625,-0.25 L 7.609375,-6.515625 C 7.640625,-6.78125 7.59375,-6.78125 7.34375,-6.78125 H 2.296875 c -0.1875,0 -0.296875,0 -0.296875,0.203125 0,0.109375 0.09375,0.109375 0.28125,0.109375 0.375,0 0.65625,0 0.65625,0.171875 0,0.046875 0,0.0625 -0.0625,0.25 L 1.5625,-0.78125 c -0.09375,0.390625 -0.109375,0.46875 -0.90625,0.46875 -0.171875,0 -0.28125,0 -0.28125,0.1875 C 0.375,0 0.46875,0 0.65625,0 h 5.171875 c 0.234375,0 0.25,-0.015625 0.3125,-0.171875 z m 0,0"
               id="path5806" />
          </g>
        </g>
        <g
           style="fill:#ff0005;fill-opacity:1;stroke:#ff0000;stroke-opacity:1"
           id="g1366">
          <g
             id="use5395"
             style="fill:#ff0005;fill-opacity:1;stroke:#ff0000;stroke-opacity:1"
             transform="matrix(0.26458333,0,0,0.26458333,110.923,81.962997)">
            <path
               style="stroke:none"
               d="m 6.84375,-3.265625 c 0.15625,0 0.34375,0 0.34375,-0.1875 C 7.1875,-3.65625 7,-3.65625 6.859375,-3.65625 h -5.96875 c -0.140625,0 -0.328125,0 -0.328125,0.203125 0,0.1875 0.1875,0.1875 0.328125,0.1875 z m 0.015625,1.9375 c 0.140625,0 0.328125,0 0.328125,-0.203125 0,-0.1875 -0.1875,-0.1875 -0.34375,-0.1875 H 0.890625 c -0.140625,0 -0.328125,0 -0.328125,0.1875 0,0.203125 0.1875,0.203125 0.328125,0.203125 z m 0,0"
               id="path5798" />
          </g>
        </g>
        <g
           style="fill:#ff0005;fill-opacity:1;stroke:#ff0000;stroke-opacity:1"
           id="g3871">
          <g
             id="use709"
             style="fill:#ff0005;fill-opacity:1;stroke:#ff0000;stroke-opacity:1"
             transform="matrix(0.26458333,0,0,0.26458333,121.439,81.962997)">
            <path
               style="stroke:none"
               d="M 2.546875,-5.484375 H 4.46875 c 0.171875,0 0.28125,0 0.28125,-0.125 0,-0.125 -0.109375,-0.125 -0.296875,-0.125 H 2.609375 C 2.671875,-5.984375 2.671875,-6 2.734375,-6.25 2.78125,-6.4375 2.875,-6.78125 2.875,-6.796875 c 0,-0.09375 -0.0625,-0.125 -0.140625,-0.125 -0.1875,0 -0.984375,0.078125 -1.21875,0.109375 -0.078125,0 -0.1875,0.015625 -0.1875,0.203125 C 1.328125,-6.5 1.421875,-6.5 1.5625,-6.5 c 0.484375,0 0.5,0.0625 0.5,0.171875 0,0.0625 -0.09375,0.390625 -0.140625,0.59375 h -0.5625 c -0.1875,0 -0.296875,0 -0.296875,0.125 0,0.125 0.078125,0.125 0.265625,0.125 h 0.53125 L 0.59375,-0.40625 C 0.546875,-0.25 0.546875,-0.234375 0.546875,-0.171875 c 0,0.21875 0.171875,0.28125 0.296875,0.28125 0.1875,0 0.328125,-0.140625 0.359375,-0.265625 0.015625,-0.046875 0.125,-0.5 0.1875,-0.75 L 1.625,-1.796875 C 1.65625,-1.9375 1.75,-2.328125 1.78125,-2.46875 c 0.046875,-0.15625 0.125,-0.46875 0.125,-0.5 0.09375,-0.171875 0.625,-1.21875 1.625,-1.21875 0.4375,0 0.53125,0.359375 0.53125,0.6875 0,0.625 -0.453125,1.828125 -0.640625,2.296875 C 3.375,-1.046875 3.3125,-0.90625 3.3125,-0.71875 c 0,0.515625 0.375,0.828125 0.828125,0.828125 0.953125,0 1.296875,-1.46875 1.296875,-1.53125 0,-0.109375 -0.078125,-0.109375 -0.109375,-0.109375 -0.109375,0 -0.109375,0.03125 -0.15625,0.1875 -0.28125,1.015625 -0.734375,1.234375 -1,1.234375 -0.1875,0 -0.25,-0.125 -0.25,-0.328125 0,-0.25 0.109375,-0.53125 0.171875,-0.703125 0.15625,-0.4375 0.609375,-1.625 0.609375,-2.1875 C 4.703125,-4.0625 4.25,-4.40625 3.5625,-4.40625 c -0.3125,0 -0.90625,0.0625 -1.484375,0.75 z m 0,0"
               id="path5778" />
          </g>
        </g>
        <g
           style="fill:#ff0005;fill-opacity:1;stroke:#ff0000;stroke-opacity:1"
           id="g4480">
          <g
             id="use5374"
             style="fill:#ff0005;fill-opacity:1;stroke:#ff0000;stroke-opacity:1"
             transform="matrix(0.26458333,0,0,0.26458333,126.822,81.962997)">
            <path
               style="stroke:none"
               d="m 6.03125,-3.703125 c 0,-0.453125 -0.171875,-0.703125 -0.40625,-0.703125 -0.25,0 -0.515625,0.234375 -0.515625,0.46875 0,0.09375 0.046875,0.203125 0.140625,0.296875 0.171875,0.15625 0.359375,0.421875 0.359375,0.84375 0,0.390625 -0.203125,0.96875 -0.5,1.421875 C 4.8125,-0.953125 4.4375,-0.609375 3.96875,-0.609375 3.40625,-0.609375 3.09375,-0.96875 3,-1.5 c 0.109375,-0.265625 0.34375,-0.90625 0.34375,-1.1875 0,-0.109375 -0.046875,-0.21875 -0.1875,-0.21875 -0.078125,0 -0.1875,0.03125 -0.265625,0.171875 C 2.78125,-2.53125 2.65625,-1.890625 2.65625,-1.53125 2.328125,-1.0625 1.9375,-0.609375 1.3125,-0.609375 c -0.671875,0 -0.875,-0.59375 -0.875,-1.140625 0,-1.25 1.015625,-2.296875 1.015625,-2.421875 0,-0.109375 -0.078125,-0.1875 -0.1875,-0.1875 -0.125,0 -0.203125,0.125 -0.265625,0.21875 -0.5,0.734375 -0.875,1.921875 -0.875,2.828125 0,0.6875 0.21875,1.421875 1.046875,1.421875 0.703125,0 1.171875,-0.5 1.53125,-1.046875 0.09375,0.578125 0.484375,1.046875 1.09375,1.046875 0.78125,0 1.25,-0.609375 1.609375,-1.359375 0.25,-0.484375 0.625,-1.84375 0.625,-2.453125 z m 0,0"
               id="path5794" />
          </g>
        </g>
        <g
           style="fill:#ff0005;fill-opacity:1;stroke:#ff0000;stroke-opacity:1"
           id="g4242">
          <g
             id="use9888"
             style="fill:#ff0005;fill-opacity:1;stroke:#ff0000;stroke-opacity:1"
             transform="matrix(0.26458333,0,0,0.26458333,133.02299,83.457001)">
            <path
               style="stroke:none"
               d="M 3.59375,-2.21875 C 3.59375,-2.984375 3.5,-3.546875 3.1875,-4.03125 2.96875,-4.34375 2.53125,-4.625 1.984375,-4.625 c -1.625,0 -1.625,1.90625 -1.625,2.40625 0,0.5 0,2.359375 1.625,2.359375 1.609375,0 1.609375,-1.859375 1.609375,-2.359375 z M 1.984375,-0.0625 c -0.328125,0 -0.75,-0.1875 -0.890625,-0.75 C 1,-1.21875 1,-1.796875 1,-2.3125 1,-2.828125 1,-3.359375 1.09375,-3.734375 1.25,-4.28125 1.6875,-4.4375 1.984375,-4.4375 c 0.375,0 0.734375,0.234375 0.859375,0.640625 0.109375,0.375 0.125,0.875 0.125,1.484375 0,0.515625 0,1.03125 -0.09375,1.46875 -0.140625,0.640625 -0.609375,0.78125 -0.890625,0.78125 z m 0,0"
               id="path5770" />
          </g>
        </g>
        <g
           style="fill:#ff0005;fill-opacity:1;stroke:#ff0000;stroke-opacity:1"
           id="g5107">
          <g
             id="use5028"
             style="fill:#ff0005;fill-opacity:1;stroke:#ff0000;stroke-opacity:1"
             transform="matrix(0.26458333,0,0,0.26458333,140.25999,81.962997)">
            <path
               style="stroke:none"
               d="m 6.84375,-3.265625 c 0.15625,0 0.34375,0 0.34375,-0.1875 C 7.1875,-3.65625 7,-3.65625 6.859375,-3.65625 h -5.96875 c -0.140625,0 -0.328125,0 -0.328125,0.203125 0,0.1875 0.1875,0.1875 0.328125,0.1875 z m 0.015625,1.9375 c 0.140625,0 0.328125,0 0.328125,-0.203125 0,-0.1875 -0.1875,-0.1875 -0.34375,-0.1875 H 0.890625 c -0.140625,0 -0.328125,0 -0.328125,0.1875 0,0.203125 0.1875,0.203125 0.328125,0.203125 z m 0,0"
               id="path5802" />
          </g>
        </g>
        <g
           style="fill:#ff0005;fill-opacity:1;stroke:#ff0000;stroke-opacity:1"
           id="g4016">
          <g
             id="use9175"
             style="fill:#ff0005;fill-opacity:1;stroke:#ff0000;stroke-opacity:1"
             transform="matrix(0.26458333,0,0,0.26458333,150.776,81.962997)">
            <path
               style="stroke:none"
               d="M 0.40625,-2.53125 C 0.796875,-3.671875 1.890625,-3.6875 2,-3.6875 c 1.5,0 1.609375,1.75 1.609375,2.53125 0,0.609375 -0.046875,0.78125 -0.125,0.984375 -0.21875,0.71875 -0.515625,1.875 -0.515625,2.140625 0,0.109375 0.046875,0.171875 0.125,0.171875 0.140625,0 0.21875,-0.21875 0.328125,-0.59375 C 3.65625,0.703125 3.75,0.140625 3.78125,-0.171875 c 0.03125,-0.125 0.046875,-0.25 0.09375,-0.390625 0.3125,-0.984375 0.953125,-2.46875 1.34375,-3.25 0.078125,-0.125 0.1875,-0.34375 0.1875,-0.390625 0,-0.09375 -0.09375,-0.09375 -0.109375,-0.09375 -0.03125,0 -0.09375,0 -0.125,0.0625 C 4.65625,-3.28125 4.25,-2.28125 3.859375,-1.28125 3.84375,-1.578125 3.84375,-2.34375 3.453125,-3.3125 3.203125,-3.921875 2.8125,-4.40625 2.125,-4.40625 c -1.25,0 -1.953125,1.515625 -1.953125,1.828125 0,0.09375 0.09375,0.09375 0.203125,0.09375 z m 0,0"
               id="path5790" />
          </g>
        </g>
        <g
           style="fill:#ff0005;fill-opacity:1;stroke:#ff0000;stroke-opacity:1"
           id="g343">
          <g
             id="use7932"
             style="fill:#ff0005;fill-opacity:1;stroke:#ff0000;stroke-opacity:1"
             transform="matrix(0.26458333,0,0,0.26458333,156.48801,81.962997)">
            <path
               style="stroke:none"
               d="M 2.546875,-5.484375 H 4.46875 c 0.171875,0 0.28125,0 0.28125,-0.125 0,-0.125 -0.109375,-0.125 -0.296875,-0.125 H 2.609375 C 2.671875,-5.984375 2.671875,-6 2.734375,-6.25 2.78125,-6.4375 2.875,-6.78125 2.875,-6.796875 c 0,-0.09375 -0.0625,-0.125 -0.140625,-0.125 -0.1875,0 -0.984375,0.078125 -1.21875,0.109375 -0.078125,0 -0.1875,0.015625 -0.1875,0.203125 C 1.328125,-6.5 1.421875,-6.5 1.5625,-6.5 c 0.484375,0 0.5,0.0625 0.5,0.171875 0,0.0625 -0.09375,0.390625 -0.140625,0.59375 h -0.5625 c -0.1875,0 -0.296875,0 -0.296875,0.125 0,0.125 0.078125,0.125 0.265625,0.125 h 0.53125 L 0.59375,-0.40625 C 0.546875,-0.25 0.546875,-0.234375 0.546875,-0.171875 c 0,0.21875 0.171875,0.28125 0.296875,0.28125 0.1875,0 0.328125,-0.140625 0.359375,-0.265625 0.015625,-0.046875 0.125,-0.5 0.1875,-0.75 L 1.625,-1.796875 C 1.65625,-1.9375 1.75,-2.328125 1.78125,-2.46875 c 0.046875,-0.15625 0.125,-0.46875 0.125,-0.5 0.09375,-0.171875 0.625,-1.21875 1.625,-1.21875 0.4375,0 0.53125,0.359375 0.53125,0.6875 0,0.625 -0.453125,1.828125 -0.640625,2.296875 C 3.375,-1.046875 3.3125,-0.90625 3.3125,-0.71875 c 0,0.515625 0.375,0.828125 0.828125,0.828125 0.953125,0 1.296875,-1.46875 1.296875,-1.53125 0,-0.109375 -0.078125,-0.109375 -0.109375,-0.109375 -0.109375,0 -0.109375,0.03125 -0.15625,0.1875 -0.28125,1.015625 -0.734375,1.234375 -1,1.234375 -0.1875,0 -0.25,-0.125 -0.25,-0.328125 0,-0.25 0.109375,-0.53125 0.171875,-0.703125 0.15625,-0.4375 0.609375,-1.625 0.609375,-2.1875 C 4.703125,-4.0625 4.25,-4.40625 3.5625,-4.40625 c -0.3125,0 -0.90625,0.0625 -1.484375,0.75 z m 0,0"
               id="path5782" />
          </g>
        </g>
        <g
           style="fill:#ff0005;fill-opacity:1;stroke:#ff0000;stroke-opacity:1"
           id="g9157">
          <g
             id="use2353"
             style="fill:#ff0005;fill-opacity:1;stroke:#ff0000;stroke-opacity:1"
             transform="matrix(0.26458333,0,0,0.26458333,161.87,81.962997)">
            <path
               style="stroke:none"
               d="M 1.59375,-0.78125 C 1.5,-0.390625 1.46875,-0.3125 0.6875,-0.3125 c -0.171875,0 -0.265625,0 -0.265625,0.203125 C 0.421875,0 0.515625,0 0.6875,0 H 4.25 C 5.828125,0 7,-1.171875 7,-2.15625 7,-2.875 6.421875,-3.453125 5.453125,-3.5625 6.484375,-3.75 7.53125,-4.484375 7.53125,-5.4375 c 0,-0.734375 -0.65625,-1.375 -1.84375,-1.375 H 2.328125 c -0.1875,0 -0.28125,0 -0.28125,0.203125 0,0.109375 0.09375,0.109375 0.28125,0.109375 0.015625,0 0.203125,0 0.375,0.015625 0.171875,0.03125 0.265625,0.03125 0.265625,0.171875 0,0.03125 -0.015625,0.0625 -0.03125,0.1875 z m 1.5,-2.875 0.625,-2.46875 C 3.8125,-6.46875 3.828125,-6.5 4.25,-6.5 h 1.296875 c 0.875,0 1.078125,0.59375 1.078125,1.03125 0,0.875 -0.859375,1.8125 -2.0625,1.8125 z m -0.4375,3.34375 c -0.140625,0 -0.15625,0 -0.21875,0 -0.109375,-0.015625 -0.140625,-0.03125 -0.140625,-0.109375 0,-0.03125 0,-0.046875 0.0625,-0.21875 l 0.6875,-2.78125 h 1.875 c 0.953125,0 1.15625,0.734375 1.15625,1.15625 C 6.078125,-1.28125 5.1875,-0.3125 4,-0.3125 Z m 0,0"
               id="path5786" />
          </g>
        </g>
        <g
           style="fill:#ff0005;fill-opacity:1;stroke:#ff0000;stroke-opacity:1"
           id="g1357">
          <g
             id="use5369"
             style="fill:#ff0005;fill-opacity:1;stroke:#ff0000;stroke-opacity:1"
             transform="matrix(0.26458333,0,0,0.26458333,169.427,83.457001)">
            <path
               style="stroke:none"
               d="M 3.59375,-2.21875 C 3.59375,-2.984375 3.5,-3.546875 3.1875,-4.03125 2.96875,-4.34375 2.53125,-4.625 1.984375,-4.625 c -1.625,0 -1.625,1.90625 -1.625,2.40625 0,0.5 0,2.359375 1.625,2.359375 1.609375,0 1.609375,-1.859375 1.609375,-2.359375 z M 1.984375,-0.0625 c -0.328125,0 -0.75,-0.1875 -0.890625,-0.75 C 1,-1.21875 1,-1.796875 1,-2.3125 1,-2.828125 1,-3.359375 1.09375,-3.734375 1.25,-4.28125 1.6875,-4.4375 1.984375,-4.4375 c 0.375,0 0.734375,0.234375 0.859375,0.640625 0.109375,0.375 0.125,0.875 0.125,1.484375 0,0.515625 0,1.03125 -0.09375,1.46875 -0.140625,0.640625 -0.609375,0.78125 -0.890625,0.78125 z m 0,0"
               id="path5774" />
          </g>
        </g>
      </g>
    </g>
    <g
       inkscape:label=""
       transform="translate(115.677,114.721)"
       id="g5951">
      <g
         id="g2866"
         transform="matrix(1.0337819,0,0,1.0337819,-29.731478,-89.651408)"
         style="fill:#ff0005;fill-opacity:1;stroke:#ff0000;stroke-opacity:1">
        <g
           style="fill:#ff0005;fill-opacity:1;stroke:#ff0000;stroke-opacity:1"
           id="g4821">
          <use
             xlink:href="#symbol8346"
             x="91.925003"
             y="81.962997"
             id="use3638"
             width="100%"
             height="100%"
             style="fill:#ff0005;fill-opacity:1;stroke:#ff0000;stroke-opacity:1" />
          <use
             xlink:href="#symbol2043"
             x="100.22684"
             y="81.962997"
             id="use4130"
             width="100%"
             height="100%"
             style="fill:#ff0005;fill-opacity:1;stroke:#ff0000;stroke-opacity:1" />
        </g>
        <g
           style="fill:#ff0005;fill-opacity:1;stroke:#ff0000;stroke-opacity:1"
           id="g6760">
          <use
             xlink:href="#symbol9498"
             x="110.923"
             y="81.962997"
             id="use7384"
             width="100%"
             height="100%"
             style="fill:#ff0005;fill-opacity:1;stroke:#ff0000;stroke-opacity:1" />
        </g>
        <g
           style="fill:#ff0005;fill-opacity:1;stroke:#ff0000;stroke-opacity:1"
           id="g3344">
          <use
             xlink:href="#symbol3377"
             x="121.439"
             y="81.962997"
             id="use8335"
             width="100%"
             height="100%"
             style="fill:#ff0005;fill-opacity:1;stroke:#ff0000;stroke-opacity:1" />
        </g>
        <g
           style="fill:#ff0005;fill-opacity:1;stroke:#ff0000;stroke-opacity:1"
           id="g2595">
          <use
             xlink:href="#symbol5252"
             x="126.822"
             y="81.962997"
             id="use6569"
             width="100%"
             height="100%"
             style="fill:#ff0005;fill-opacity:1;stroke:#ff0000;stroke-opacity:1" />
        </g>
        <g
           style="fill:#ff0005;fill-opacity:1;stroke:#ff0000;stroke-opacity:1"
           id="g7027">
          <use
             xlink:href="#symbol4406"
             x="133.02299"
             y="83.457001"
             id="use5092"
             width="100%"
             height="100%"
             style="fill:#ff0005;fill-opacity:1;stroke:#ff0000;stroke-opacity:1" />
        </g>
      </g>
      <g
         style="stroke-width:1.41819794;stroke-linecap:butt;stroke-linejoin:round;stroke-miterlimit:4;stroke-dasharray:none"
         id="g6425"
         transform="matrix(0.45695887,0,0,0.22229314,-59.02307,-41.352338)">
        <g
           id="figure_1"
           style="stroke-width:1.41819794;stroke-miterlimit:4;stroke-dasharray:none">
          <g
             id="axes_1"
             transform="matrix(0.42211889,-0.00396015,-0.00265878,0.28051553,128.52752,31.118106)"
             style="fill:none;fill-opacity:1;stroke:#ff0000;stroke-width:4.12154751;stroke-miterlimit:4;stroke-dasharray:none;stroke-opacity:1">
            <g
               id="line2d_1"
               style="fill:none;fill-opacity:1;stroke:#ff0000;stroke-width:4.12154751;stroke-miterlimit:4;stroke-dasharray:none;stroke-opacity:1">
              <path
                 clip-path="url(#pc667194e8f)"
                 d="m 20.290909,151.2 2.096642,-63.123726 1.048321,-26.561822 1.048321,-20.915322 0.786241,-11.172976 0.524161,-5.065541 0.52416,-3.061206 0.26208,-0.762599 0.262081,-0.245899 0.26208,0.271774 0.26208,0.788372 0.524161,3.112038 0.52416,5.114753 0.786241,11.242068 0.786241,15.160146 1.048321,25.36051 1.310401,37.6706 3.669124,109.53447 1.048321,23.85674 0.786241,13.77901 0.78624,9.6976 0.524161,4.02126 0.52416,1.98752 0.262081,0.22003 0.26208,-0.29765 0.26208,-0.81414 0.524161,-3.16284 0.52416,-5.16391 0.786241,-11.31105 0.786241,-15.22125 1.048321,-25.42603 1.310401,-37.7213 3.669124,-109.467026 1.048321,-23.785618 0.786241,-13.714611 0.786241,-9.626239 0.52416,-3.971061 0.524161,-1.936141 0.26208,-0.194141 0.26208,0.323516 0.26208,0.839894 0.524161,3.213609 0.52416,5.213025 0.786241,11.379916 0.786241,15.282204 1.048321,25.491304 1.310401,37.771619 3.669124,109.3985 1.048321,23.71426 0.786241,13.65008 0.786241,9.55478 0.52416,3.92082 0.524161,1.88474 0.26208,0.16826 0.26208,-0.34938 0.26208,-0.86564 0.524161,-3.26435 0.524161,-5.26208 0.78624,-11.44867 0.786241,-15.34301 1.048321,-25.55632 1.310401,-37.82156 3.407044,-102.581815 1.048321,-25.029149 0.786241,-14.852389 0.78624,-10.895514 0.524161,-4.868195 0.524161,-2.857581 0.26208,-0.659435 0.26208,-0.142377 0.26208,0.375245 0.262081,0.891383 0.52416,3.315052 0.524161,5.311092 0.78624,11.517314 0.786241,15.403657 1.048321,25.621089 1.310402,37.871133 3.407043,102.52599 1.048321,24.96213 0.786241,14.7904 0.786241,10.82587 0.52416,4.81874 0.524161,2.8066 0.26208,0.63363 0.26208,0.11649 0.26208,-0.4011 0.262081,-0.91712 0.52416,-3.36572 0.524161,-5.36005 0.786241,-11.58584 0.78624,-15.46416 1.048321,-25.6856 1.572482,-45.98631 3.144963,-94.403173 1.04832,-24.894868 0.78624,-14.728253 0.78624,-10.756134 0.52416,-4.769231 0.52416,-2.755597 0.26208,-0.607813 0.26208,-0.09061 0.26208,0.426959 0.26209,0.942837 0.52416,3.416364 0.52416,5.408948 0.78624,11.654256 0.78624,15.524502 1.04832,25.74986 1.57248,46.040273 2.88288,87.35072 1.04832,26.13004 1.04832,20.35276 0.78625,10.68628 0.52416,4.71968 0.52416,2.70456 0.26208,0.58199 0.26208,0.0647 0.26208,-0.45281 0.26208,-0.96855 0.52416,-3.46697 0.52416,-5.45779 0.78624,-11.72256 0.78624,-15.58469 1.04832,-25.81387 1.57248,-46.09377 2.88289,-87.300512 1.04832,-26.067321 1.04832,-20.27158 0.78624,-10.616327 0.52416,-4.670079 0.52416,-2.653504 0.26208,-0.556167 0.26208,-0.03883 0.26208,0.478657 0.26208,0.994253 0.52416,3.517542 0.52416,5.50659 0.78624,11.790737 0.78624,15.644732 1.04832,25.877613 1.57249,46.146826 2.88288,87.24944 1.04832,26.00434 0.78624,15.76434 0.78624,11.92675 0.52416,5.60402 0.52416,3.61858 0.26208,1.04563 0.26208,0.53033 0.26208,0.0129 0.26208,-0.5045 0.26208,-1.01995 0.52416,-3.56808 0.52416,-5.55533 0.78625,-11.8588 0.78624,-15.70461 1.04832,-25.94111 1.57248,-46.19941 2.88288,-87.197513 1.04832,-25.941105 0.78624,-15.704615 0.78624,-11.858803 0.52416,-5.55533 0.52417,-3.568079 0.26208,-1.019946 0.26208,-0.504499 0.26208,0.01294 0.26208,0.530335 0.26208,1.04563 0.52416,3.61858 0.52416,5.604015 0.78624,11.926752 0.78624,15.764343 1.04832,26.004342 1.57248,46.251543 2.88289,87.14471 1.04832,25.87762 0.78624,15.64473 0.78624,11.79074 0.52416,5.50659 0.52416,3.51754 0.26208,0.99425 0.26208,0.47866 0.26208,-0.0388 0.26208,-0.55617 0.26208,-1.0713 0.52416,-3.66905 0.52416,-5.65264 0.78624,-11.99459 0.78624,-15.82391 1.04832,-26.06732 1.57249,-46.30322 2.88288,-87.091061 1.04832,-25.813864 0.78624,-15.584694 0.78624,-11.722554 0.52416,-5.457796 0.52416,-3.466971 0.26208,-0.968549 0.26208,-0.452811 0.26208,0.06472 0.26208,0.581992 0.26208,1.096965 0.52416,3.719476 0.52416,5.701217 0.78624,12.062295 0.78625,15.883331 1.04832,26.130042 1.57248,46.354432 2.88288,87.03655 1.04832,25.74986 0.78624,15.5245 0.78624,11.65426 0.52416,5.40894 0.52417,3.41637 0.26207,0.94284 0.26209,0.42695 0.26208,-0.0906 0.26208,-0.60781 0.26208,-1.12262 0.52416,-3.76987 0.52416,-5.74973 0.78624,-12.12989 0.78624,-15.94259 1.04832,-26.19251 1.57248,-46.4052 2.88288,-86.981159 1.04833,-25.685601 0.78624,-15.464156 0.78624,-11.585842 0.52416,-5.360047 0.52416,-3.365725 0.26208,-0.917114 0.26208,-0.401104 0.26208,0.116492 0.26208,0.633627 0.26208,1.148257 0.52416,3.820223 0.52416,5.798195 0.78624,12.197361 0.78624,16.001689 1.04832,26.25471 1.57248,46.455504 2.88289,86.92492 1.04832,25.62109 0.78624,15.40366 0.78624,11.51731 0.52416,5.31109 0.52416,3.31506 0.26208,0.89138 0.26208,0.37524 0.26208,-0.14237 0.26208,-0.65944 0.52416,-2.85758 0.52416,-4.86819 0.52416,-6.80188 0.78624,-13.58542 1.04833,-23.64267 1.3104,-36.28356 4.19328,-124.294836 1.04832,-22.765538 0.78624,-12.79911 0.52416,-6.231699 0.52416,-4.271661 0.52416,-2.244123 0.26208,-0.349382 0.26208,0.16826 0.26209,0.685236 0.52416,2.908531 0.52416,4.917605 0.52416,6.848969 0.78624,13.65008 1.04832,23.714261 1.3104,36.343407 4.19328,124.22467 1.04833,22.69096 0.78624,12.73275 0.52416,6.18377 0.52416,4.22167 0.52416,2.19284 0.26208,0.32352 0.26208,-0.19414 0.26208,-0.71104 0.52416,-2.95945 0.52416,-4.96696 0.52416,-6.89599 0.78624,-13.71462 1.04832,-23.78561 1.3104,-36.4029 4.19329,-124.153272 1.04832,-22.616162 0.78624,-12.666258 0.52416,-6.135783 0.52416,-4.171625 0.52416,-2.141546 0.26208,-0.297646 0.26208,0.220021 0.26208,0.736819 0.52416,3.010344 0.52416,5.016278 0.52416,6.942944 0.78624,13.779008 1.04832,23.85674 1.31041,36.462018 4.19328,124.08065 1.04832,22.54114 0.78624,12.59964 0.52416,6.08774 0.52416,4.12154 0.52416,2.09023 0.26208,0.27177 0.26208,-0.2459 0.26209,-0.7626 0.52416,-3.0612 0.52416,-5.06554 0.52416,-6.98983 0.78624,-13.84327 1.04832,-23.92763 1.3104,-36.52079 1.3104,-40.49233 v 0"
                 style="fill:none;fill-opacity:1;stroke:#ff0000;stroke-width:4.12154751;stroke-linecap:square;stroke-miterlimit:4;stroke-dasharray:none;stroke-opacity:1"
                 id="path6402"
                 transform="translate(24.449682,337.28752)" />
            </g>
          </g>
        </g>
      </g>
      <path
         style="fill:#ff0005;fill-opacity:1;stroke:#ff0000;stroke-width:0.623741;stroke-linecap:butt;stroke-linejoin:miter;stroke-miterlimit:4;stroke-dasharray:none;stroke-opacity:1;marker-start:url(#Arrow2Mstart);marker-end:url(#marker3349)"
         d="M 0.86290567,-21.186136 V 12.746285"
         id="path3319" />
    </g>
  </g>
</svg>
