<?xml version="1.0" encoding="UTF-8" standalone="no"?>
<svg
   xmlns:dc="http://purl.org/dc/elements/1.1/"
   xmlns:cc="http://creativecommons.org/ns#"
   xmlns:rdf="http://www.w3.org/1999/02/22-rdf-syntax-ns#"
   xmlns:svg="http://www.w3.org/2000/svg"
   xmlns="http://www.w3.org/2000/svg"
   xmlns:xlink="http://www.w3.org/1999/xlink"
   xmlns:sodipodi="http://sodipodi.sourceforge.net/DTD/sodipodi-0.dtd"
   xmlns:inkscape="http://www.inkscape.org/namespaces/inkscape"
   width="257.30237mm"
   height="214.06998mm"
   viewBox="0 0 257.30237 214.06998"
   version="1.1"
   id="svg8"
   sodipodi:docname="FID_induced_voltage.svg"
   inkscape:version="1.0.1 (3bc2e813f5, 2020-09-07, custom)"
   inkscape:export-filename="/home/sh/mri-vector-graphics/mr-physics/FID_induced_voltage.png"
   inkscape:export-xdpi="96"
   inkscape:export-ydpi="96">
  <defs
     id="defs2">
    <marker
       style="overflow:visible"
       id="Arrow2Mend"
       refX="0"
       refY="0"
       orient="auto"
       inkscape:stockid="Arrow2Mend"
       inkscape:isstock="true">
      <path
         transform="scale(-0.6)"
         d="M 8.7185878,4.0337352 -2.2072895,0.01601326 8.7185884,-4.0017078 c -1.7454984,2.3720609 -1.7354408,5.6174519 -6e-7,8.035443 z"
         style="fill:#000000;fill-opacity:1;fill-rule:evenodd;stroke:#000000;stroke-width:0.625;stroke-linejoin:round;stroke-opacity:1"
         id="path976" />
    </marker>
    <marker
       style="overflow:visible"
       id="Arrow1Send"
       refX="0"
       refY="0"
       orient="auto"
       inkscape:stockid="Arrow1Send"
       inkscape:isstock="true">
      <path
         transform="matrix(-0.2,0,0,-0.2,-1.2,0)"
         style="fill:#000000;fill-opacity:1;fill-rule:evenodd;stroke:#000000;stroke-width:1pt;stroke-opacity:1"
         d="M 0,0 5,-5 -12.5,0 5,5 Z"
         id="path964" />
    </marker>
    <marker
       style="overflow:visible"
       id="Arrow2Lend"
       refX="0"
       refY="0"
       orient="auto"
       inkscape:stockid="Arrow2Lend"
       inkscape:isstock="true">
      <path
         transform="matrix(-1.1,0,0,-1.1,-1.1,0)"
         d="M 8.7185878,4.0337352 -2.2072895,0.01601326 8.7185884,-4.0017078 c -1.7454984,2.3720609 -1.7354408,5.6174519 -6e-7,8.035443 z"
         style="fill:#000000;fill-opacity:1;fill-rule:evenodd;stroke:#000000;stroke-width:0.625;stroke-linejoin:round;stroke-opacity:1"
         id="path970" />
    </marker>
    <g
       id="g5213">
      <symbol
         overflow="visible"
         id="symbol261">
        <path
           style="stroke:none"
           d=""
           id="path2167" />
      </symbol>
      <symbol
         overflow="visible"
         id="symbol3880">
        <path
           style="stroke:none"
           d="M 1.109375,-2.515625 C 1.171875,-4 2.015625,-4.25 2.359375,-4.25 c 1.015625,0 1.125,1.34375 1.125,1.734375 z m 0,0.21875 h 2.78125 c 0.21875,0 0.25,0 0.25,-0.21875 0,-0.984375 -0.546875,-1.953125 -1.78125,-1.953125 -1.15625,0 -2.078125,1.03125 -2.078125,2.28125 0,1.328125 1.046875,2.296875 2.1875,2.296875 C 3.6875,0.109375 4.140625,-1 4.140625,-1.1875 4.140625,-1.28125 4.0625,-1.3125 4,-1.3125 c -0.078125,0 -0.109375,0.0625 -0.125,0.140625 -0.34375,1.03125 -1.25,1.03125 -1.34375,1.03125 -0.5,0 -0.890625,-0.296875 -1.125,-0.671875 -0.296875,-0.46875 -0.296875,-1.125 -0.296875,-1.484375 z m 0,0"
           id="path5664" />
      </symbol>
      <symbol
         overflow="visible"
         id="symbol6473">
        <path
           style="stroke:none"
           d="M 2.859375,-2.34375 C 3.15625,-2.71875 3.53125,-3.203125 3.78125,-3.46875 4.09375,-3.828125 4.5,-3.984375 4.96875,-3.984375 v -0.3125 c -0.265625,0.015625 -0.5625,0.03125 -0.828125,0.03125 -0.296875,0 -0.828125,-0.015625 -0.953125,-0.03125 v 0.3125 c 0.21875,0.015625 0.296875,0.140625 0.296875,0.3125 0,0.15625 -0.109375,0.28125 -0.15625,0.34375 L 2.71875,-2.546875 1.9375,-3.5625 C 1.84375,-3.65625 1.84375,-3.671875 1.84375,-3.734375 c 0,-0.15625 0.15625,-0.25 0.34375,-0.25 v -0.3125 c -0.25,0.015625 -0.90625,0.03125 -1.078125,0.03125 -0.203125,0 -0.671875,-0.015625 -0.9375,-0.03125 v 0.3125 c 0.703125,0 0.703125,0 1.171875,0.609375 l 0.984375,1.28125 -0.9375,1.1875 C 0.921875,-0.328125 0.328125,-0.3125 0.125,-0.3125 V 0 c 0.25,-0.015625 0.5625,-0.03125 0.828125,-0.03125 0.28125,0 0.703125,0.015625 0.9375,0.03125 v -0.3125 c -0.21875,-0.03125 -0.28125,-0.15625 -0.28125,-0.3125 0,-0.21875 0.28125,-0.546875 0.890625,-1.265625 l 0.765625,1 C 3.34375,-0.78125 3.46875,-0.625 3.46875,-0.5625 c 0,0.09375 -0.09375,0.25 -0.359375,0.25 V 0 C 3.40625,-0.015625 3.96875,-0.03125 4.1875,-0.03125 c 0.265625,0 0.65625,0.015625 0.953125,0.03125 v -0.3125 c -0.53125,0 -0.71875,-0.015625 -0.9375,-0.3125 z m 0,0"
           id="path7635" />
      </symbol>
      <symbol
         overflow="visible"
         id="symbol9975">
        <path
           style="stroke:none"
           d="m 1.71875,-3.75 v -0.65625 l -1.4375,0.109375 v 0.3125 c 0.703125,0 0.78125,0.0625 0.78125,0.5 v 4.65625 C 1.0625,1.625 0.953125,1.625 0.28125,1.625 V 1.9375 C 0.625,1.921875 1.140625,1.90625 1.390625,1.90625 c 0.28125,0 0.78125,0.015625 1.125,0.03125 V 1.625 C 1.859375,1.625 1.75,1.625 1.75,1.171875 V -0.59375 c 0.046875,0.171875 0.46875,0.703125 1.21875,0.703125 1.1875,0 2.21875,-0.984375 2.21875,-2.265625 0,-1.265625 -0.953125,-2.25 -2.078125,-2.25 -0.78125,0 -1.203125,0.4375 -1.390625,0.65625 z M 1.75,-1.140625 v -2.21875 C 2.03125,-3.875 2.515625,-4.15625 3.03125,-4.15625 c 0.734375,0 1.328125,0.875 1.328125,2 0,1.203125 -0.6875,2.046875 -1.421875,2.046875 -0.40625,0 -0.78125,-0.203125 -1.046875,-0.609375 C 1.75,-0.921875 1.75,-0.9375 1.75,-1.140625 Z m 0,0"
           id="path3995" />
      </symbol>
      <symbol
         overflow="visible"
         id="symbol6541">
        <path
           style="stroke:none"
           d=""
           id="path3339" />
      </symbol>
      <symbol
         overflow="visible"
         id="symbol2247">
        <path
           style="stroke:none"
           d="M 5.140625,17.421875 C 5.15625,17.4375 5.25,17.53125 5.25,17.53125 h 0.21875 c 0.03125,0 0.109375,0 0.109375,-0.09375 0,-0.04687 -0.015625,-0.0625 -0.03125,-0.09375 -0.359375,-0.359375 -0.90625,-0.90625 -1.515625,-2 -1.078125,-1.921875 -1.484375,-4.375 -1.484375,-6.765625 0,-4.4375 1.265625,-7.03125 3,-8.796875 0.03125,-0.03125 0.03125,-0.0625 0.03125,-0.078125 0,-0.109375 -0.0625,-0.109375 -0.1875,-0.109375 -0.125,0 -0.140625,0 -0.234375,0.09375 C 4.203125,0.5 3.140625,1.890625 2.453125,3.984375 2.03125,5.296875 1.796875,6.90625 1.796875,8.5625 c 0,2.359375 0.421875,5.03125 1.984375,7.34375 0.28125,0.390625 0.640625,0.796875 0.640625,0.8125 C 4.53125,16.84375 4.671875,17 4.75,17.0625 Z m 0,0"
           id="path8236" />
      </symbol>
      <symbol
         overflow="visible"
         id="symbol6682">
        <path
           style="stroke:none"
           d="m 4.140625,8.5625 c 0,-2.859375 -0.65625,-5.90625 -2.625,-8.140625 C 1.375,0.265625 1,-0.125 0.765625,-0.34375 c -0.0625,-0.0625 -0.09375,-0.0625 -0.21875,-0.0625 -0.09375,0 -0.1875,0 -0.1875,0.109375 0,0.03125 0.046875,0.078125 0.0625,0.09375 0.328125,0.359375 0.875,0.90625 1.484375,2 1.078125,1.90625 1.484375,4.375 1.484375,6.765625 0,4.328125 -1.203125,6.96875 -2.984375,8.796875 C 0.375,17.375 0.359375,17.40625 0.359375,17.4375 c 0,0.09375 0.09375,0.09375 0.1875,0.09375 0.125,0 0.15625,0 0.234375,-0.07813 0.953125,-0.8125 2.015625,-2.203125 2.703125,-4.296875 0.4375,-1.375 0.65625,-2.984375 0.65625,-4.59375 z m 0,0"
           id="path927" />
      </symbol>
      <symbol
         overflow="visible"
         id="symbol4176">
        <path
           style="stroke:none"
           d=""
           id="path2796" />
      </symbol>
      <symbol
         overflow="visible"
         id="symbol2432">
        <path
           style="stroke:none"
           d="m 6.5625,-2.296875 c 0.171875,0 0.359375,0 0.359375,-0.203125 0,-0.1875 -0.1875,-0.1875 -0.359375,-0.1875 H 1.171875 c -0.171875,0 -0.34375,0 -0.34375,0.1875 0,0.203125 0.171875,0.203125 0.34375,0.203125 z m 0,0"
           id="path3333" />
      </symbol>
      <symbol
         overflow="visible"
         id="symbol4162">
        <path
           style="stroke:none"
           d=""
           id="path6822" />
      </symbol>
      <symbol
         overflow="visible"
         id="symbol9364">
        <path
           style="stroke:none"
           d="m 1.71875,-2.75 h 0.703125 c 0.140625,0 0.21875,0 0.21875,-0.15625 C 2.640625,-3 2.5625,-3 2.4375,-3 H 1.78125 l 0.25,-1.03125 C 2.046875,-4.0625 2.0625,-4.109375 2.0625,-4.125 c 0,-0.140625 -0.109375,-0.234375 -0.25,-0.234375 -0.171875,0 -0.265625,0.125 -0.328125,0.296875 C 1.4375,-3.875 1.53125,-4.21875 1.21875,-3 H 0.515625 c -0.125,0 -0.21875,0 -0.21875,0.15625 C 0.296875,-2.75 0.375,-2.75 0.5,-2.75 H 1.15625 L 0.75,-1.109375 C 0.703125,-0.9375 0.640625,-0.6875 0.640625,-0.59375 c 0,0.40625 0.359375,0.65625 0.75,0.65625 0.78125,0 1.21875,-0.96875 1.21875,-1.0625 0,-0.09375 -0.09375,-0.09375 -0.109375,-0.09375 -0.09375,0 -0.09375,0.015625 -0.15625,0.140625 -0.1875,0.4375 -0.546875,0.828125 -0.921875,0.828125 -0.15625,0 -0.25,-0.09375 -0.25,-0.34375 0,-0.0625 0.03125,-0.21875 0.046875,-0.28125 z m 0,0"
           id="path8002" />
      </symbol>
      <symbol
         overflow="visible"
         id="symbol2167">
        <path
           style="stroke:none"
           d="m 3.390625,-4.21875 c 0.046875,-0.203125 0.0625,-0.21875 0.21875,-0.234375 0.03125,0 0.265625,0 0.40625,0 0.4375,0 0.609375,0 0.78125,0.046875 0.3125,0.09375 0.328125,0.296875 0.328125,0.546875 0,0.109375 0,0.203125 -0.046875,0.5625 L 5.0625,-3.21875 c 0,0.078125 0.046875,0.109375 0.125,0.109375 0.109375,0 0.109375,-0.0625 0.125,-0.171875 L 5.5,-4.609375 c 0,-0.09375 -0.078125,-0.09375 -0.203125,-0.09375 h -4.28125 c -0.171875,0 -0.1875,0 -0.234375,0.140625 l -0.453125,1.234375 c 0,0.03125 -0.03125,0.09375 -0.03125,0.125 0,0.03125 0.015625,0.09375 0.125,0.09375 0.09375,0 0.09375,-0.03125 0.140625,-0.171875 0.40625,-1.109375 0.640625,-1.171875 1.703125,-1.171875 h 0.28125 c 0.21875,0 0.21875,0 0.21875,0.0625 0,0 0,0.046875 -0.03125,0.140625 L 1.8125,-0.578125 C 1.75,-0.328125 1.734375,-0.25 1,-0.25 c -0.25,0 -0.3125,0 -0.3125,0.15625 C 0.6875,-0.078125 0.703125,0 0.8125,0 1,0 1.21875,-0.015625 1.40625,-0.015625 1.609375,-0.015625 1.8125,-0.03125 2,-0.03125 c 0.203125,0 0.4375,0 0.640625,0.015625 C 2.828125,-0.015625 3.03125,0 3.21875,0 3.28125,0 3.375,0 3.375,-0.15625 3.375,-0.25 3.3125,-0.25 3.09375,-0.25 c -0.125,0 -0.265625,-0.015625 -0.40625,-0.015625 -0.234375,-0.015625 -0.25,-0.046875 -0.25,-0.125 0,-0.0625 0,-0.0625 0.03125,-0.171875 z m 0,0"
           id="path93" />
      </symbol>
      <symbol
         overflow="visible"
         id="symbol2391">
        <path
           style="stroke:none"
           d=""
           id="path8307" />
      </symbol>
      <symbol
         overflow="visible"
         id="symbol9809">
        <path
           style="stroke:none"
           d="m 1.921875,-1.375 c 0,-0.09375 0.09375,-0.734375 0.09375,-0.78125 0,-0.09375 -0.078125,-0.15625 -0.1875,-0.15625 -0.09375,0 -0.171875,0.078125 -0.171875,0.15625 0,0.046875 0.078125,0.671875 0.09375,0.78125 L 0.984375,-1.84375 c -0.0625,-0.03125 -0.078125,-0.046875 -0.125,-0.046875 -0.078125,0 -0.171875,0.078125 -0.171875,0.1875 0,0.078125 0.0625,0.140625 0.109375,0.15625 0.28125,0.109375 0.5625,0.203125 0.84375,0.296875 -0.28125,0.109375 -0.75,0.265625 -0.828125,0.3125 -0.03125,0.015625 -0.125,0.046875 -0.125,0.15625 0,0.109375 0.09375,0.171875 0.171875,0.171875 0.0625,0 0.21875,-0.09375 0.890625,-0.5 C 1.734375,-1 1.65625,-0.375 1.65625,-0.328125 c 0,0.078125 0.078125,0.15625 0.171875,0.15625 0.109375,0 0.1875,-0.0625 0.1875,-0.15625 0,-0.046875 -0.09375,-0.6875 -0.09375,-0.78125 l 0.78125,0.46875 c 0.03125,0.015625 0.0625,0.03125 0.109375,0.03125 0.078125,0 0.15625,-0.0625 0.15625,-0.171875 C 2.96875,-0.875 2.921875,-0.921875 2.875,-0.9375 2.59375,-1.046875 2.3125,-1.140625 2.03125,-1.234375 2.3125,-1.34375 2.765625,-1.515625 2.859375,-1.546875 2.890625,-1.5625 2.96875,-1.59375 2.96875,-1.703125 c 0,-0.109375 -0.078125,-0.1875 -0.15625,-0.1875 -0.046875,0 -0.078125,0.015625 -0.125,0.046875 z m 0,0"
           id="path9425" />
      </symbol>
      <symbol
         overflow="visible"
         id="symbol2313">
        <path
           style="stroke:none"
           d=""
           id="path9637" />
      </symbol>
      <symbol
         overflow="visible"
         id="symbol8383">
        <path
           style="stroke:none"
           d="M 2.9375,-0.96875 H 2.71875 c 0,0.09375 -0.0625,0.40625 -0.140625,0.453125 -0.03125,0.03125 -0.453125,0.03125 -0.53125,0.03125 H 1.078125 C 1.40625,-0.71875 1.765625,-1 2.0625,-1.203125 c 0.453125,-0.3125 0.875,-0.59375 0.875,-1.125 0,-0.640625 -0.609375,-0.984375 -1.3125,-0.984375 -0.671875,0 -1.171875,0.375 -1.171875,0.875 0,0.25 0.21875,0.296875 0.296875,0.296875 0.125,0 0.28125,-0.09375 0.28125,-0.296875 0,-0.171875 -0.125,-0.28125 -0.28125,-0.28125 0.140625,-0.234375 0.4375,-0.375 0.765625,-0.375 0.484375,0 0.890625,0.28125 0.890625,0.765625 0,0.421875 -0.296875,0.75 -0.671875,1.0625 l -1.21875,1.03125 C 0.46875,-0.1875 0.453125,-0.1875 0.453125,-0.15625 V 0 h 2.3125 z m 0,0"
           id="path8242" />
      </symbol>
    </g>
    <marker
       style="overflow:visible"
       id="Arrow2Mend-3"
       refX="0"
       refY="0"
       orient="auto"
       inkscape:stockid="Arrow2Mend"
       inkscape:isstock="true">
      <path
         transform="scale(-0.6)"
         d="M 8.7185878,4.0337352 -2.2072895,0.01601326 8.7185884,-4.0017078 c -1.7454984,2.3720609 -1.7354408,5.6174519 -6e-7,8.035443 z"
         style="fill:#000000;fill-opacity:1;fill-rule:evenodd;stroke:#000000;stroke-width:0.625;stroke-linejoin:round;stroke-opacity:1"
         id="path976-6" />
    </marker>
    <g
       id="g4163">
      <symbol
         overflow="visible"
         id="symbol551">
        <path
           style="stroke:none"
           d=""
           id="path7969" />
      </symbol>
      <symbol
         overflow="visible"
         id="symbol5483">
        <path
           style="stroke:none"
           d="M 3.484375,-0.5625 C 3.59375,-0.15625 3.953125,0.109375 4.375,0.109375 4.71875,0.109375 4.953125,-0.125 5.109375,-0.4375 5.28125,-0.796875 5.40625,-1.40625 5.40625,-1.421875 c 0,-0.109375 -0.078125,-0.109375 -0.109375,-0.109375 -0.109375,0 -0.109375,0.046875 -0.140625,0.1875 -0.140625,0.5625 -0.328125,1.234375 -0.75,1.234375 -0.203125,0 -0.3125,-0.125 -0.3125,-0.453125 0,-0.21875 0.125,-0.6875 0.203125,-1.046875 L 4.578125,-2.6875 C 4.609375,-2.828125 4.703125,-3.203125 4.75,-3.359375 4.796875,-3.59375 4.890625,-3.96875 4.890625,-4.03125 c 0,-0.171875 -0.140625,-0.265625 -0.28125,-0.265625 -0.046875,0 -0.3125,0.015625 -0.390625,0.34375 -0.1875,0.734375 -0.625,2.484375 -0.75,3 -0.015625,0.046875 -0.40625,0.84375 -1.140625,0.84375 -0.515625,0 -0.609375,-0.453125 -0.609375,-0.8125 0,-0.5625 0.28125,-1.34375 0.53125,-2.03125 0.125,-0.3125 0.171875,-0.453125 0.171875,-0.640625 0,-0.4375 -0.3125,-0.8125 -0.8125,-0.8125 -0.953125,0 -1.3125,1.453125 -1.3125,1.53125 0,0.109375 0.09375,0.109375 0.109375,0.109375 0.109375,0 0.109375,-0.03125 0.15625,-0.1875 0.25,-0.859375 0.640625,-1.234375 1.015625,-1.234375 0.09375,0 0.25,0.015625 0.25,0.328125 0,0.234375 -0.109375,0.53125 -0.171875,0.671875 -0.375,1 -0.578125,1.609375 -0.578125,2.09375 0,0.953125 0.6875,1.203125 1.21875,1.203125 0.65625,0 1.015625,-0.453125 1.1875,-0.671875 z m 0,0"
           id="path6897" />
      </symbol>
      <symbol
         overflow="visible"
         id="symbol3924">
        <path
           style="stroke:none"
           d="m 2.046875,-3.984375 h 0.9375 c 0.203125,0 0.3125,0 0.3125,-0.203125 0,-0.109375 -0.109375,-0.109375 -0.28125,-0.109375 h -0.875 C 2.5,-5.71875 2.546875,-5.90625 2.546875,-5.96875 c 0,-0.171875 -0.125,-0.265625 -0.296875,-0.265625 -0.03125,0 -0.3125,0 -0.390625,0.359375 L 1.46875,-4.296875 h -0.9375 c -0.203125,0 -0.296875,0 -0.296875,0.1875 0,0.125 0.078125,0.125 0.28125,0.125 h 0.875 C 0.671875,-1.15625 0.625,-0.984375 0.625,-0.8125 0.625,-0.265625 1,0.109375 1.546875,0.109375 2.5625,0.109375 3.125,-1.34375 3.125,-1.421875 3.125,-1.53125 3.046875,-1.53125 3.015625,-1.53125 2.921875,-1.53125 2.90625,-1.5 2.859375,-1.390625 2.4375,-0.34375 1.90625,-0.109375 1.5625,-0.109375 c -0.203125,0 -0.3125,-0.125 -0.3125,-0.453125 0,-0.25 0.03125,-0.3125 0.0625,-0.484375 z m 0,0"
           id="path5568" />
      </symbol>
      <symbol
         overflow="visible"
         id="symbol2807">
        <path
           style="stroke:none"
           d=""
           id="path2056" />
      </symbol>
      <symbol
         overflow="visible"
         id="symbol3895">
        <path
           style="stroke:none"
           d="m 3.296875,2.390625 c 0,-0.03125 0,-0.046875 -0.171875,-0.21875 C 1.890625,0.921875 1.5625,-0.96875 1.5625,-2.5 c 0,-1.734375 0.375,-3.46875 1.609375,-4.703125 0.125,-0.125 0.125,-0.140625 0.125,-0.171875 0,-0.078125 -0.03125,-0.109375 -0.09375,-0.109375 -0.109375,0 -1,0.6875 -1.59375,1.953125 -0.5,1.09375 -0.625,2.203125 -0.625,3.03125 0,0.78125 0.109375,1.984375 0.65625,3.125 C 2.25,1.84375 3.09375,2.5 3.203125,2.5 c 0.0625,0 0.09375,-0.03125 0.09375,-0.109375 z m 0,0"
           id="path438" />
      </symbol>
      <symbol
         overflow="visible"
         id="symbol1342">
        <path
           style="stroke:none"
           d="m 2.875,-2.5 c 0,-0.765625 -0.109375,-1.96875 -0.65625,-3.109375 -0.59375,-1.21875 -1.453125,-1.875 -1.546875,-1.875 -0.0625,0 -0.109375,0.046875 -0.109375,0.109375 0,0.03125 0,0.046875 0.1875,0.234375 0.984375,0.984375 1.546875,2.5625 1.546875,4.640625 0,1.71875 -0.359375,3.46875 -1.59375,4.71875 C 0.5625,2.34375 0.5625,2.359375 0.5625,2.390625 0.5625,2.453125 0.609375,2.5 0.671875,2.5 0.765625,2.5 1.671875,1.8125 2.25,0.546875 2.765625,-0.546875 2.875,-1.65625 2.875,-2.5 Z m 0,0"
           id="path3704" />
      </symbol>
    </g>
    <g
       id="g1469">
      <symbol
         overflow="visible"
         id="symbol721">
        <path
           style="stroke:none"
           d=""
           id="path775" />
      </symbol>
      <symbol
         overflow="visible"
         id="symbol6136">
        <path
           style="stroke:none"
           d="m 2.046875,-3.984375 h 0.9375 c 0.203125,0 0.3125,0 0.3125,-0.203125 0,-0.109375 -0.109375,-0.109375 -0.28125,-0.109375 h -0.875 C 2.5,-5.71875 2.546875,-5.90625 2.546875,-5.96875 c 0,-0.171875 -0.125,-0.265625 -0.296875,-0.265625 -0.03125,0 -0.3125,0 -0.390625,0.359375 L 1.46875,-4.296875 h -0.9375 c -0.203125,0 -0.296875,0 -0.296875,0.1875 0,0.125 0.078125,0.125 0.28125,0.125 h 0.875 C 0.671875,-1.15625 0.625,-0.984375 0.625,-0.8125 0.625,-0.265625 1,0.109375 1.546875,0.109375 2.5625,0.109375 3.125,-1.34375 3.125,-1.421875 3.125,-1.53125 3.046875,-1.53125 3.015625,-1.53125 2.921875,-1.53125 2.90625,-1.5 2.859375,-1.390625 2.4375,-0.34375 1.90625,-0.109375 1.5625,-0.109375 c -0.203125,0 -0.3125,-0.125 -0.3125,-0.453125 0,-0.25 0.03125,-0.3125 0.0625,-0.484375 z m 0,0"
           id="path832" />
      </symbol>
    </g>
    <style
       type="text/css"
       id="style8877">*{stroke-linecap:butt;stroke-linejoin:round;}</style>
    <clipPath
       id="pcefa9357e3">
      <rect
         height="288"
         width="288"
         x="7.1999998"
         y="7.1999998"
         id="rect8889" />
    </clipPath>
    <clipPath
       id="p7dc21d055d">
      <rect
         height="288"
         width="288"
         x="7.1999998"
         y="7.1999998"
         id="rect16" />
    </clipPath>
  </defs>
  <sodipodi:namedview
     id="base"
     pagecolor="#ffffff"
     bordercolor="#666666"
     borderopacity="1.0"
     inkscape:pageopacity="0.0"
     inkscape:pageshadow="2"
     inkscape:zoom="0.49497475"
     inkscape:cx="-365.99697"
     inkscape:cy="177.7668"
     inkscape:document-units="mm"
     inkscape:current-layer="layer1"
     inkscape:document-rotation="0"
     showgrid="false"
     inkscape:window-width="1920"
     inkscape:window-height="1015"
     inkscape:window-x="0"
     inkscape:window-y="0"
     inkscape:window-maximized="1"
     fit-margin-top="0"
     fit-margin-left="0"
     fit-margin-right="0"
     fit-margin-bottom="0"
     inkscape:snap-global="false" />
  <metadata
     id="metadata5">
    <rdf:RDF>
      <cc:Work
         rdf:about="">
        <dc:format>image/svg+xml</dc:format>
        <dc:type
           rdf:resource="http://purl.org/dc/dcmitype/StillImage" />
        <dc:title />
      </cc:Work>
    </rdf:RDF>
  </metadata>
  <g
     inkscape:label="Layer 1"
     inkscape:groupmode="layer"
     id="layer1"
     transform="translate(1.8327344,-41.256914)">
    <g
       inkscape:label=""
       transform="matrix(1.610832,0,0,1.610832,-74.213185,-14.543956)"
       id="g889"
       style="fill:#0023ff;fill-opacity:1"
       inkscape:export-filename="/home/sh/g889.png"
       inkscape:export-xdpi="96"
       inkscape:export-ydpi="96">
      <g
         id="g4906"
         transform="translate(6.723628,-2.0312555)"
         style="fill:#0023ff;fill-opacity:1">
        <g
           style="fill:#0023ff;fill-opacity:1"
           id="g3620">
          <use
             xlink:href="#symbol3880"
             x="91.925003"
             y="83.457001"
             id="use6502"
             width="100%"
             height="100%"
             style="fill:#0023ff;fill-opacity:1" />
          <use
             xlink:href="#symbol6473"
             x="96.352379"
             y="83.457001"
             id="use9178"
             width="100%"
             height="100%"
             style="fill:#0023ff;fill-opacity:1" />
          <use
             xlink:href="#symbol9975"
             x="101.61064"
             y="83.457001"
             id="use6401"
             width="100%"
             height="100%"
             style="fill:#0023ff;fill-opacity:1" />
        </g>
        <g
           style="fill:#0023ff;fill-opacity:1"
           id="g5223">
          <use
             xlink:href="#symbol2247"
             x="108.806"
             y="72.399002"
             id="use2210"
             width="100%"
             height="100%"
             style="fill:#0023ff;fill-opacity:1" />
        </g>
        <g
           style="fill:#0023ff;fill-opacity:1"
           id="g8076">
          <use
             xlink:href="#symbol2432"
             x="114.756"
             y="83.457001"
             id="use9791"
             width="100%"
             height="100%"
             style="fill:#0023ff;fill-opacity:1" />
        </g>
        <g
           style="fill:#0023ff;fill-opacity:1"
           id="g3307">
          <use
             xlink:href="#symbol9364"
             x="127.167"
             y="79.535004"
             id="use995"
             width="100%"
             height="100%"
             style="fill:#0023ff;fill-opacity:1" />
        </g>
        <path
           style="fill:#0023ff;fill-opacity:1;stroke:#000000;stroke-width:0.398;stroke-linecap:butt;stroke-linejoin:miter;stroke-miterlimit:10;stroke-opacity:1"
           d="M -0.00178125,-0.00175 H 9.943531"
           transform="matrix(1,0,0,-1,123.701,80.967)"
           id="path8147" />
        <g
           style="fill:#0023ff;fill-opacity:1"
           id="g95">
          <use
             xlink:href="#symbol2167"
             x="123.701"
             y="86.892998"
             id="use8601"
             width="100%"
             height="100%"
             style="fill:#0023ff;fill-opacity:1" />
        </g>
        <g
           style="fill:#0023ff;fill-opacity:1"
           id="g8132">
          <use
             xlink:href="#symbol9809"
             x="129.479"
             y="84.490997"
             id="use1799"
             width="100%"
             height="100%"
             style="fill:#0023ff;fill-opacity:1" />
        </g>
        <g
           style="fill:#0023ff;fill-opacity:1"
           id="g181">
          <use
             xlink:href="#symbol8383"
             x="128.40601"
             y="89.056"
             id="use163"
             width="100%"
             height="100%"
             style="fill:#0023ff;fill-opacity:1" />
        </g>
        <g
           style="fill:#0023ff;fill-opacity:1"
           id="g6177">
          <use
             xlink:href="#symbol6682"
             x="134.839"
             y="72.399002"
             id="use4571"
             width="100%"
             height="100%"
             style="fill:#0023ff;fill-opacity:1" />
        </g>
      </g>
    </g>
    <path
       style="fill:none;stroke:#000000;stroke-width:1;stroke-linecap:butt;stroke-linejoin:miter;stroke-miterlimit:4;stroke-dasharray:none;stroke-opacity:1;marker-end:url(#Arrow2Mend)"
       d="M 29.913796,255.32689 V 47.014999"
       id="path947"
       inkscape:export-filename="/home/sh/g889.png"
       inkscape:export-xdpi="96"
       inkscape:export-ydpi="96" />
    <path
       style="fill:none;stroke:#000000;stroke-width:1;stroke-linecap:butt;stroke-linejoin:miter;stroke-miterlimit:4;stroke-dasharray:none;stroke-opacity:1;marker-end:url(#Arrow2Mend-3)"
       d="M 9.8210768,153.91443 H 253.95779"
       id="path947-7"
       inkscape:export-filename="/home/sh/g889.png"
       inkscape:export-xdpi="96"
       inkscape:export-ydpi="96" />
    <g
       inkscape:label=""
       transform="translate(96.311,162.284)"
       id="g1515">
      <g
         id="g265"
         transform="matrix(1.5795811,0,0,1.5795811,-243.81567,-238.67211)"
         inkscape:export-filename="/home/sh/g889.png"
         inkscape:export-xdpi="96"
         inkscape:export-ydpi="96">
        <g
           style="fill:#000000;fill-opacity:1"
           id="g4494">
          <use
             xlink:href="#symbol5483"
             x="91.925003"
             y="81.962997"
             id="use7729"
             width="100%"
             height="100%" />
        </g>
        <g
           style="fill:#000000;fill-opacity:1"
           id="g2234">
          <use
             xlink:href="#symbol3895"
             x="97.627998"
             y="81.962997"
             id="use67"
             width="100%"
             height="100%" />
        </g>
        <g
           style="fill:#000000;fill-opacity:1"
           id="g5604">
          <use
             xlink:href="#symbol3924"
             x="101.503"
             y="81.962997"
             id="use226"
             width="100%"
             height="100%" />
        </g>
        <g
           style="fill:#000000;fill-opacity:1"
           id="g3883">
          <use
             xlink:href="#symbol1342"
             x="105.1"
             y="81.962997"
             id="use7121"
             width="100%"
             height="100%" />
        </g>
      </g>
      <g
         inkscape:label=""
         transform="matrix(1.6803662,0,0,1.6803662,-2.313811,-126.30598)"
         id="g1639"
         inkscape:export-filename="/home/sh/g889.png"
         inkscape:export-xdpi="96"
         inkscape:export-ydpi="96">
        <g
           id="g9643">
          <g
             style="fill:#000000;fill-opacity:1"
             id="g6166">
            <use
               xlink:href="#symbol6136"
               x="91.925003"
               y="81.962997"
               id="use6372"
               width="100%"
               height="100%" />
          </g>
        </g>
      </g>
    </g>
    <path
       style="fill:none;fill-opacity:1;stroke:#001bff;stroke-width:1.5;stroke-linecap:butt;stroke-linejoin:miter;stroke-miterlimit:4;stroke-dasharray:9, 9;stroke-dashoffset:0;stroke-opacity:1"
       d="m 31.249151,64.354978 7.817703,23.494246 c 1.737881,4.5753 2.458176,6.394932 3.293619,8.446025 1.924396,4.724571 2.608289,5.684911 4.525292,8.729471 l 12.60372,18.90748 c 1.949262,0.87106 -1.081346,-1.27701 4.680682,4.55885 l 7.279769,5.60199 4.333499,2.85423 9.651009,4.66029 8.142742,2.54825 9.392594,3.14857 6.12399,1.47729 9.58633,1.38699 8.76341,0.92702 8.73925,0.92447 8.87494,0.55893 7.948,0.50055 8.99226,0.30263 9.52997,0.32072"
       id="path8909"
       sodipodi:nodetypes="ccscccccccccccccccc"
       inkscape:export-filename="/home/sh/g889.png"
       inkscape:export-xdpi="96"
       inkscape:export-ydpi="96" />
    <path
       clip-path="url(#p7dc21d055d)"
       d="m 20.290909,20.290909 0.26208,1.205261 0.524161,4.048981 0.52416,6.135431 0.786241,12.796382 0.786241,16.578186 1.048321,26.780168 1.834562,54.446142 2.358722,69.49825 1.310402,31.52123 1.048321,19.22135 0.78624,10.31222 0.524161,4.7879 0.52416,3.07822 0.262081,0.89549 0.26208,0.46834 0.26208,0.0446 0.26208,-0.37409 0.262081,-0.78628 0.52416,-2.77577 0.524161,-4.31043 0.786241,-9.1152 0.78624,-11.91334 1.048321,-19.36443 1.572482,-33.73946 2.620803,-56.8205 1.310401,-23.26835 1.048321,-14.28825 0.786241,-7.73861 0.52416,-3.640088 0.524161,-2.392966 0.52416,-1.140197 0.262081,-0.103734 0.26208,0.20304 0.26208,0.505306 0.524161,1.893995 0.52416,3.022529 0.786241,6.486985 0.786241,8.55664 1.048321,13.99749 1.572481,24.53528 2.620803,41.619 1.310401,17.17141 1.048321,10.61638 0.786241,5.80244 0.524161,2.76293 0.52416,1.85341 0.524161,0.93815 0.26208,0.12786 0.26208,-0.0969 0.26208,-0.31846 0.524161,-1.28536 0.52416,-2.11506 0.786241,-4.61206 0.786241,-6.14239 1.048321,-10.11455 1.572482,-17.83781 2.882883,-33.22134 1.048321,-9.92546 1.048321,-7.88467 0.78624,-4.34723 0.524161,-2.09397 0.524161,-1.4308 0.52416,-0.76224 0.26208,-0.13153 0.262081,0.0331 0.26208,0.19549 0.52416,0.86684 0.524161,1.4767 0.786241,3.27565 0.78624,4.40684 1.048321,7.30617 1.572482,12.96548 2.882883,24.33405 1.310401,8.93905 1.048321,5.43807 0.786241,2.90804 0.524161,1.34409 0.52416,0.8573 0.524161,0.36947 0.26208,0.003 0.52416,-0.34828 0.524161,-0.80728 0.52416,-1.24304 0.786241,-2.6163 0.786241,-3.40928 1.048321,-5.53003 1.572482,-9.61615 2.620802,-16.15575 1.310402,-6.59926 1.048321,-4.04302 0.78624,-2.18292 0.524161,-1.02245 0.524161,-0.66734 0.524161,-0.31084 0.52416,0.0417 0.52416,0.38504 0.52416,0.71431 0.78624,1.64681 0.78624,2.26431 1.04832,3.80803 1.57249,6.84491 3.14496,14.10576 1.04832,3.81282 1.04832,3.00448 0.78624,1.6372 0.78624,1.06779 0.52416,0.38718 0.52416,0.12745 0.52416,-0.1279 0.52416,-0.37514 0.52416,-0.61077 0.78624,-1.32464 0.78625,-1.75842 1.04832,-2.88914 1.57248,-5.08479 2.88288,-9.44573 1.3104,-3.43237 1.04832,-2.06797 0.78624,-1.09106 0.78624,-0.67089 0.52417,-0.20963 0.52416,-0.0208 0.52416,0.16372 0.52416,0.34134 0.78624,0.8238 0.78624,1.16049 1.04832,1.98176 1.57248,3.61007 3.40704,8.11738 1.31041,2.41091 1.04832,1.41553 0.78624,0.71933 0.78624,0.41004 0.78624,0.0982 0.78624,-0.20566 0.78624,-0.49165 0.78624,-0.75087 1.04832,-1.34383 1.3104,-2.08936 4.71745,-7.98875 1.04832,-1.22976 1.04832,-0.86844 0.78624,-0.39285 0.78624,-0.16489 0.78624,0.0603 0.78624,0.27542 1.04832,0.67155 1.04833,0.96657 1.3104,1.51368 4.71744,5.85166 1.3104,1.10079 1.04832,0.58015 1.04833,0.28876 1.04832,-0.006 1.04832,-0.28575 1.04832,-0.53552 1.3104,-0.95328 1.83456,-1.66962 3.14496,-2.89876 1.31041,-0.92396 1.3104,-0.63912 1.04832,-0.27725 1.04832,-0.0615 1.04832,0.14763 1.3104,0.44903 1.3104,0.68704 2.09665,1.39825 2.88288,1.93936 1.57248,0.79663 1.3104,0.43153 1.3104,0.19063 1.3104,-0.0534 1.3104,-0.27798 1.57249,-0.57437 2.35872,-1.15196 2.88288,-1.39726 1.83456,-0.62745 1.57249,-0.2838 1.57248,-0.0265 1.57248,0.21603 1.83456,0.49669 3.14496,1.14866 2.62081,0.85484 1.83456,0.37091 1.83456,0.12253 1.83456,-0.12692 2.09664,-0.39396 7.60033,-1.74243 2.09664,-0.094 2.09665,0.14028 2.6208,0.41929 5.76576,1.01413 2.35873,0.14539 2.35872,-0.0756 2.88288,-0.32349 6.28993,-0.78284 2.6208,-0.0721 2.88288,0.1399 10.48321,0.77604 3.40705,-0.13125 3.40704,-0.25564 v 0"
       style="fill:none;fill-opacity:1;stroke:#ff0000;stroke-width:4.25197;stroke-linecap:square;stroke-linejoin:round;stroke-miterlimit:4;stroke-dasharray:none;stroke-opacity:1"
       id="path11"
       transform="matrix(0.58240676,0,0,0.58240676,18.978762,54.247859)" />
  </g>
</svg>
