<?xml version="1.0" encoding="UTF-8" standalone="no"?>
<svg
   xmlns:dc="http://purl.org/dc/elements/1.1/"
   xmlns:cc="http://creativecommons.org/ns#"
   xmlns:rdf="http://www.w3.org/1999/02/22-rdf-syntax-ns#"
   xmlns:svg="http://www.w3.org/2000/svg"
   xmlns="http://www.w3.org/2000/svg"
   xmlns:xlink="http://www.w3.org/1999/xlink"
   xmlns:sodipodi="http://sodipodi.sourceforge.net/DTD/sodipodi-0.dtd"
   xmlns:inkscape="http://www.inkscape.org/namespaces/inkscape"
   width="257.30237mm"
   height="214.06998mm"
   viewBox="0 0 257.30237 214.06998"
   version="1.1"
   id="svg8"
   sodipodi:docname="FID_induced_voltage.svg"
   inkscape:version="1.0.1 (3bc2e813f5, 2020-09-07)"
   inkscape:export-filename="/home/sh/mri-vector-graphics/mr-physics/FID_induced_voltage.png"
   inkscape:export-xdpi="96"
   inkscape:export-ydpi="96">
  <defs
     id="defs2">
    <marker
       style="overflow:visible"
       id="Arrow2Mend"
       refX="0"
       refY="0"
       orient="auto"
       inkscape:stockid="Arrow2Mend"
       inkscape:isstock="true">
      <path
         transform="scale(-0.6)"
         d="M 8.7185878,4.0337352 -2.2072895,0.01601326 8.7185884,-4.0017078 c -1.7454984,2.3720609 -1.7354408,5.6174519 -6e-7,8.035443 z"
         style="fill:#000000;fill-opacity:1;fill-rule:evenodd;stroke:#000000;stroke-width:0.625;stroke-linejoin:round;stroke-opacity:1"
         id="path976" />
    </marker>
    <marker
       style="overflow:visible"
       id="Arrow1Send"
       refX="0"
       refY="0"
       orient="auto"
       inkscape:stockid="Arrow1Send"
       inkscape:isstock="true">
      <path
         transform="matrix(-0.2,0,0,-0.2,-1.2,0)"
         style="fill:#000000;fill-opacity:1;fill-rule:evenodd;stroke:#000000;stroke-width:1pt;stroke-opacity:1"
         d="M 0,0 5,-5 -12.5,0 5,5 Z"
         id="path964" />
    </marker>
    <marker
       style="overflow:visible"
       id="Arrow2Lend"
       refX="0"
       refY="0"
       orient="auto"
       inkscape:stockid="Arrow2Lend"
       inkscape:isstock="true">
      <path
         transform="matrix(-1.1,0,0,-1.1,-1.1,0)"
         d="M 8.7185878,4.0337352 -2.2072895,0.01601326 8.7185884,-4.0017078 c -1.7454984,2.3720609 -1.7354408,5.6174519 -6e-7,8.035443 z"
         style="fill:#000000;fill-opacity:1;fill-rule:evenodd;stroke:#000000;stroke-width:0.625;stroke-linejoin:round;stroke-opacity:1"
         id="path970" />
    </marker>
    <g
       id="g5213">
      <symbol
         overflow="visible"
         id="symbol261">
        <path
           style="stroke:none"
           d=""
           id="path2167" />
      </symbol>
      <symbol
         overflow="visible"
         id="symbol3880">
        <path
           style="stroke:none"
           d="M 1.109375,-2.515625 C 1.171875,-4 2.015625,-4.25 2.359375,-4.25 c 1.015625,0 1.125,1.34375 1.125,1.734375 z m 0,0.21875 h 2.78125 c 0.21875,0 0.25,0 0.25,-0.21875 0,-0.984375 -0.546875,-1.953125 -1.78125,-1.953125 -1.15625,0 -2.078125,1.03125 -2.078125,2.28125 0,1.328125 1.046875,2.296875 2.1875,2.296875 C 3.6875,0.109375 4.140625,-1 4.140625,-1.1875 4.140625,-1.28125 4.0625,-1.3125 4,-1.3125 c -0.078125,0 -0.109375,0.0625 -0.125,0.140625 -0.34375,1.03125 -1.25,1.03125 -1.34375,1.03125 -0.5,0 -0.890625,-0.296875 -1.125,-0.671875 -0.296875,-0.46875 -0.296875,-1.125 -0.296875,-1.484375 z m 0,0"
           id="path5664" />
      </symbol>
      <symbol
         overflow="visible"
         id="symbol6473">
        <path
           style="stroke:none"
           d="M 2.859375,-2.34375 C 3.15625,-2.71875 3.53125,-3.203125 3.78125,-3.46875 4.09375,-3.828125 4.5,-3.984375 4.96875,-3.984375 v -0.3125 c -0.265625,0.015625 -0.5625,0.03125 -0.828125,0.03125 -0.296875,0 -0.828125,-0.015625 -0.953125,-0.03125 v 0.3125 c 0.21875,0.015625 0.296875,0.140625 0.296875,0.3125 0,0.15625 -0.109375,0.28125 -0.15625,0.34375 L 2.71875,-2.546875 1.9375,-3.5625 C 1.84375,-3.65625 1.84375,-3.671875 1.84375,-3.734375 c 0,-0.15625 0.15625,-0.25 0.34375,-0.25 v -0.3125 c -0.25,0.015625 -0.90625,0.03125 -1.078125,0.03125 -0.203125,0 -0.671875,-0.015625 -0.9375,-0.03125 v 0.3125 c 0.703125,0 0.703125,0 1.171875,0.609375 l 0.984375,1.28125 -0.9375,1.1875 C 0.921875,-0.328125 0.328125,-0.3125 0.125,-0.3125 V 0 c 0.25,-0.015625 0.5625,-0.03125 0.828125,-0.03125 0.28125,0 0.703125,0.015625 0.9375,0.03125 v -0.3125 c -0.21875,-0.03125 -0.28125,-0.15625 -0.28125,-0.3125 0,-0.21875 0.28125,-0.546875 0.890625,-1.265625 l 0.765625,1 C 3.34375,-0.78125 3.46875,-0.625 3.46875,-0.5625 c 0,0.09375 -0.09375,0.25 -0.359375,0.25 V 0 C 3.40625,-0.015625 3.96875,-0.03125 4.1875,-0.03125 c 0.265625,0 0.65625,0.015625 0.953125,0.03125 v -0.3125 c -0.53125,0 -0.71875,-0.015625 -0.9375,-0.3125 z m 0,0"
           id="path7635" />
      </symbol>
      <symbol
         overflow="visible"
         id="symbol9975">
        <path
           style="stroke:none"
           d="m 1.71875,-3.75 v -0.65625 l -1.4375,0.109375 v 0.3125 c 0.703125,0 0.78125,0.0625 0.78125,0.5 v 4.65625 C 1.0625,1.625 0.953125,1.625 0.28125,1.625 V 1.9375 C 0.625,1.921875 1.140625,1.90625 1.390625,1.90625 c 0.28125,0 0.78125,0.015625 1.125,0.03125 V 1.625 C 1.859375,1.625 1.75,1.625 1.75,1.171875 V -0.59375 c 0.046875,0.171875 0.46875,0.703125 1.21875,0.703125 1.1875,0 2.21875,-0.984375 2.21875,-2.265625 0,-1.265625 -0.953125,-2.25 -2.078125,-2.25 -0.78125,0 -1.203125,0.4375 -1.390625,0.65625 z M 1.75,-1.140625 v -2.21875 C 2.03125,-3.875 2.515625,-4.15625 3.03125,-4.15625 c 0.734375,0 1.328125,0.875 1.328125,2 0,1.203125 -0.6875,2.046875 -1.421875,2.046875 -0.40625,0 -0.78125,-0.203125 -1.046875,-0.609375 C 1.75,-0.921875 1.75,-0.9375 1.75,-1.140625 Z m 0,0"
           id="path3995" />
      </symbol>
      <symbol
         overflow="visible"
         id="symbol6541">
        <path
           style="stroke:none"
           d=""
           id="path3339" />
      </symbol>
      <symbol
         overflow="visible"
         id="symbol2247">
        <path
           style="stroke:none"
           d="M 5.140625,17.421875 C 5.15625,17.4375 5.25,17.53125 5.25,17.53125 h 0.21875 c 0.03125,0 0.109375,0 0.109375,-0.09375 0,-0.04687 -0.015625,-0.0625 -0.03125,-0.09375 -0.359375,-0.359375 -0.90625,-0.90625 -1.515625,-2 -1.078125,-1.921875 -1.484375,-4.375 -1.484375,-6.765625 0,-4.4375 1.265625,-7.03125 3,-8.796875 0.03125,-0.03125 0.03125,-0.0625 0.03125,-0.078125 0,-0.109375 -0.0625,-0.109375 -0.1875,-0.109375 -0.125,0 -0.140625,0 -0.234375,0.09375 C 4.203125,0.5 3.140625,1.890625 2.453125,3.984375 2.03125,5.296875 1.796875,6.90625 1.796875,8.5625 c 0,2.359375 0.421875,5.03125 1.984375,7.34375 0.28125,0.390625 0.640625,0.796875 0.640625,0.8125 C 4.53125,16.84375 4.671875,17 4.75,17.0625 Z m 0,0"
           id="path8236" />
      </symbol>
      <symbol
         overflow="visible"
         id="symbol6682">
        <path
           style="stroke:none"
           d="m 4.140625,8.5625 c 0,-2.859375 -0.65625,-5.90625 -2.625,-8.140625 C 1.375,0.265625 1,-0.125 0.765625,-0.34375 c -0.0625,-0.0625 -0.09375,-0.0625 -0.21875,-0.0625 -0.09375,0 -0.1875,0 -0.1875,0.109375 0,0.03125 0.046875,0.078125 0.0625,0.09375 0.328125,0.359375 0.875,0.90625 1.484375,2 1.078125,1.90625 1.484375,4.375 1.484375,6.765625 0,4.328125 -1.203125,6.96875 -2.984375,8.796875 C 0.375,17.375 0.359375,17.40625 0.359375,17.4375 c 0,0.09375 0.09375,0.09375 0.1875,0.09375 0.125,0 0.15625,0 0.234375,-0.07813 0.953125,-0.8125 2.015625,-2.203125 2.703125,-4.296875 0.4375,-1.375 0.65625,-2.984375 0.65625,-4.59375 z m 0,0"
           id="path927" />
      </symbol>
      <symbol
         overflow="visible"
         id="symbol4176">
        <path
           style="stroke:none"
           d=""
           id="path2796" />
      </symbol>
      <symbol
         overflow="visible"
         id="symbol2432">
        <path
           style="stroke:none"
           d="m 6.5625,-2.296875 c 0.171875,0 0.359375,0 0.359375,-0.203125 0,-0.1875 -0.1875,-0.1875 -0.359375,-0.1875 H 1.171875 c -0.171875,0 -0.34375,0 -0.34375,0.1875 0,0.203125 0.171875,0.203125 0.34375,0.203125 z m 0,0"
           id="path3333" />
      </symbol>
      <symbol
         overflow="visible"
         id="symbol4162">
        <path
           style="stroke:none"
           d=""
           id="path6822" />
      </symbol>
      <symbol
         overflow="visible"
         id="symbol9364">
        <path
           style="stroke:none"
           d="m 1.71875,-2.75 h 0.703125 c 0.140625,0 0.21875,0 0.21875,-0.15625 C 2.640625,-3 2.5625,-3 2.4375,-3 H 1.78125 l 0.25,-1.03125 C 2.046875,-4.0625 2.0625,-4.109375 2.0625,-4.125 c 0,-0.140625 -0.109375,-0.234375 -0.25,-0.234375 -0.171875,0 -0.265625,0.125 -0.328125,0.296875 C 1.4375,-3.875 1.53125,-4.21875 1.21875,-3 H 0.515625 c -0.125,0 -0.21875,0 -0.21875,0.15625 C 0.296875,-2.75 0.375,-2.75 0.5,-2.75 H 1.15625 L 0.75,-1.109375 C 0.703125,-0.9375 0.640625,-0.6875 0.640625,-0.59375 c 0,0.40625 0.359375,0.65625 0.75,0.65625 0.78125,0 1.21875,-0.96875 1.21875,-1.0625 0,-0.09375 -0.09375,-0.09375 -0.109375,-0.09375 -0.09375,0 -0.09375,0.015625 -0.15625,0.140625 -0.1875,0.4375 -0.546875,0.828125 -0.921875,0.828125 -0.15625,0 -0.25,-0.09375 -0.25,-0.34375 0,-0.0625 0.03125,-0.21875 0.046875,-0.28125 z m 0,0"
           id="path8002" />
      </symbol>
      <symbol
         overflow="visible"
         id="symbol2167">
        <path
           style="stroke:none"
           d="m 3.390625,-4.21875 c 0.046875,-0.203125 0.0625,-0.21875 0.21875,-0.234375 0.03125,0 0.265625,0 0.40625,0 0.4375,0 0.609375,0 0.78125,0.046875 0.3125,0.09375 0.328125,0.296875 0.328125,0.546875 0,0.109375 0,0.203125 -0.046875,0.5625 L 5.0625,-3.21875 c 0,0.078125 0.046875,0.109375 0.125,0.109375 0.109375,0 0.109375,-0.0625 0.125,-0.171875 L 5.5,-4.609375 c 0,-0.09375 -0.078125,-0.09375 -0.203125,-0.09375 h -4.28125 c -0.171875,0 -0.1875,0 -0.234375,0.140625 l -0.453125,1.234375 c 0,0.03125 -0.03125,0.09375 -0.03125,0.125 0,0.03125 0.015625,0.09375 0.125,0.09375 0.09375,0 0.09375,-0.03125 0.140625,-0.171875 0.40625,-1.109375 0.640625,-1.171875 1.703125,-1.171875 h 0.28125 c 0.21875,0 0.21875,0 0.21875,0.0625 0,0 0,0.046875 -0.03125,0.140625 L 1.8125,-0.578125 C 1.75,-0.328125 1.734375,-0.25 1,-0.25 c -0.25,0 -0.3125,0 -0.3125,0.15625 C 0.6875,-0.078125 0.703125,0 0.8125,0 1,0 1.21875,-0.015625 1.40625,-0.015625 1.609375,-0.015625 1.8125,-0.03125 2,-0.03125 c 0.203125,0 0.4375,0 0.640625,0.015625 C 2.828125,-0.015625 3.03125,0 3.21875,0 3.28125,0 3.375,0 3.375,-0.15625 3.375,-0.25 3.3125,-0.25 3.09375,-0.25 c -0.125,0 -0.265625,-0.015625 -0.40625,-0.015625 -0.234375,-0.015625 -0.25,-0.046875 -0.25,-0.125 0,-0.0625 0,-0.0625 0.03125,-0.171875 z m 0,0"
           id="path93" />
      </symbol>
      <symbol
         overflow="visible"
         id="symbol2391">
        <path
           style="stroke:none"
           d=""
           id="path8307" />
      </symbol>
      <symbol
         overflow="visible"
         id="symbol9809">
        <path
           style="stroke:none"
           d="m 1.921875,-1.375 c 0,-0.09375 0.09375,-0.734375 0.09375,-0.78125 0,-0.09375 -0.078125,-0.15625 -0.1875,-0.15625 -0.09375,0 -0.171875,0.078125 -0.171875,0.15625 0,0.046875 0.078125,0.671875 0.09375,0.78125 L 0.984375,-1.84375 c -0.0625,-0.03125 -0.078125,-0.046875 -0.125,-0.046875 -0.078125,0 -0.171875,0.078125 -0.171875,0.1875 0,0.078125 0.0625,0.140625 0.109375,0.15625 0.28125,0.109375 0.5625,0.203125 0.84375,0.296875 -0.28125,0.109375 -0.75,0.265625 -0.828125,0.3125 -0.03125,0.015625 -0.125,0.046875 -0.125,0.15625 0,0.109375 0.09375,0.171875 0.171875,0.171875 0.0625,0 0.21875,-0.09375 0.890625,-0.5 C 1.734375,-1 1.65625,-0.375 1.65625,-0.328125 c 0,0.078125 0.078125,0.15625 0.171875,0.15625 0.109375,0 0.1875,-0.0625 0.1875,-0.15625 0,-0.046875 -0.09375,-0.6875 -0.09375,-0.78125 l 0.78125,0.46875 c 0.03125,0.015625 0.0625,0.03125 0.109375,0.03125 0.078125,0 0.15625,-0.0625 0.15625,-0.171875 C 2.96875,-0.875 2.921875,-0.921875 2.875,-0.9375 2.59375,-1.046875 2.3125,-1.140625 2.03125,-1.234375 2.3125,-1.34375 2.765625,-1.515625 2.859375,-1.546875 2.890625,-1.5625 2.96875,-1.59375 2.96875,-1.703125 c 0,-0.109375 -0.078125,-0.1875 -0.15625,-0.1875 -0.046875,0 -0.078125,0.015625 -0.125,0.046875 z m 0,0"
           id="path9425" />
      </symbol>
      <symbol
         overflow="visible"
         id="symbol2313">
        <path
           style="stroke:none"
           d=""
           id="path9637" />
      </symbol>
      <symbol
         overflow="visible"
         id="symbol8383">
        <path
           style="stroke:none"
           d="M 2.9375,-0.96875 H 2.71875 c 0,0.09375 -0.0625,0.40625 -0.140625,0.453125 -0.03125,0.03125 -0.453125,0.03125 -0.53125,0.03125 H 1.078125 C 1.40625,-0.71875 1.765625,-1 2.0625,-1.203125 c 0.453125,-0.3125 0.875,-0.59375 0.875,-1.125 0,-0.640625 -0.609375,-0.984375 -1.3125,-0.984375 -0.671875,0 -1.171875,0.375 -1.171875,0.875 0,0.25 0.21875,0.296875 0.296875,0.296875 0.125,0 0.28125,-0.09375 0.28125,-0.296875 0,-0.171875 -0.125,-0.28125 -0.28125,-0.28125 0.140625,-0.234375 0.4375,-0.375 0.765625,-0.375 0.484375,0 0.890625,0.28125 0.890625,0.765625 0,0.421875 -0.296875,0.75 -0.671875,1.0625 l -1.21875,1.03125 C 0.46875,-0.1875 0.453125,-0.1875 0.453125,-0.15625 V 0 h 2.3125 z m 0,0"
           id="path8242" />
      </symbol>
    </g>
    <marker
       style="overflow:visible"
       id="Arrow2Mend-3"
       refX="0"
       refY="0"
       orient="auto"
       inkscape:stockid="Arrow2Mend"
       inkscape:isstock="true">
      <path
         transform="scale(-0.6)"
         d="M 8.7185878,4.0337352 -2.2072895,0.01601326 8.7185884,-4.0017078 c -1.7454984,2.3720609 -1.7354408,5.6174519 -6e-7,8.035443 z"
         style="fill:#000000;fill-opacity:1;fill-rule:evenodd;stroke:#000000;stroke-width:0.625;stroke-linejoin:round;stroke-opacity:1"
         id="path976-6" />
    </marker>
    <g
       id="g4163">
      <symbol
         overflow="visible"
         id="symbol551">
        <path
           style="stroke:none"
           d=""
           id="path7969" />
      </symbol>
      <symbol
         overflow="visible"
         id="symbol5483">
        <path
           style="stroke:none"
           d="M 3.484375,-0.5625 C 3.59375,-0.15625 3.953125,0.109375 4.375,0.109375 4.71875,0.109375 4.953125,-0.125 5.109375,-0.4375 5.28125,-0.796875 5.40625,-1.40625 5.40625,-1.421875 c 0,-0.109375 -0.078125,-0.109375 -0.109375,-0.109375 -0.109375,0 -0.109375,0.046875 -0.140625,0.1875 -0.140625,0.5625 -0.328125,1.234375 -0.75,1.234375 -0.203125,0 -0.3125,-0.125 -0.3125,-0.453125 0,-0.21875 0.125,-0.6875 0.203125,-1.046875 L 4.578125,-2.6875 C 4.609375,-2.828125 4.703125,-3.203125 4.75,-3.359375 4.796875,-3.59375 4.890625,-3.96875 4.890625,-4.03125 c 0,-0.171875 -0.140625,-0.265625 -0.28125,-0.265625 -0.046875,0 -0.3125,0.015625 -0.390625,0.34375 -0.1875,0.734375 -0.625,2.484375 -0.75,3 -0.015625,0.046875 -0.40625,0.84375 -1.140625,0.84375 -0.515625,0 -0.609375,-0.453125 -0.609375,-0.8125 0,-0.5625 0.28125,-1.34375 0.53125,-2.03125 0.125,-0.3125 0.171875,-0.453125 0.171875,-0.640625 0,-0.4375 -0.3125,-0.8125 -0.8125,-0.8125 -0.953125,0 -1.3125,1.453125 -1.3125,1.53125 0,0.109375 0.09375,0.109375 0.109375,0.109375 0.109375,0 0.109375,-0.03125 0.15625,-0.1875 0.25,-0.859375 0.640625,-1.234375 1.015625,-1.234375 0.09375,0 0.25,0.015625 0.25,0.328125 0,0.234375 -0.109375,0.53125 -0.171875,0.671875 -0.375,1 -0.578125,1.609375 -0.578125,2.09375 0,0.953125 0.6875,1.203125 1.21875,1.203125 0.65625,0 1.015625,-0.453125 1.1875,-0.671875 z m 0,0"
           id="path6897" />
      </symbol>
      <symbol
         overflow="visible"
         id="symbol3924">
        <path
           style="stroke:none"
           d="m 2.046875,-3.984375 h 0.9375 c 0.203125,0 0.3125,0 0.3125,-0.203125 0,-0.109375 -0.109375,-0.109375 -0.28125,-0.109375 h -0.875 C 2.5,-5.71875 2.546875,-5.90625 2.546875,-5.96875 c 0,-0.171875 -0.125,-0.265625 -0.296875,-0.265625 -0.03125,0 -0.3125,0 -0.390625,0.359375 L 1.46875,-4.296875 h -0.9375 c -0.203125,0 -0.296875,0 -0.296875,0.1875 0,0.125 0.078125,0.125 0.28125,0.125 h 0.875 C 0.671875,-1.15625 0.625,-0.984375 0.625,-0.8125 0.625,-0.265625 1,0.109375 1.546875,0.109375 2.5625,0.109375 3.125,-1.34375 3.125,-1.421875 3.125,-1.53125 3.046875,-1.53125 3.015625,-1.53125 2.921875,-1.53125 2.90625,-1.5 2.859375,-1.390625 2.4375,-0.34375 1.90625,-0.109375 1.5625,-0.109375 c -0.203125,0 -0.3125,-0.125 -0.3125,-0.453125 0,-0.25 0.03125,-0.3125 0.0625,-0.484375 z m 0,0"
           id="path5568" />
      </symbol>
      <symbol
         overflow="visible"
         id="symbol2807">
        <path
           style="stroke:none"
           d=""
           id="path2056" />
      </symbol>
      <symbol
         overflow="visible"
         id="symbol3895">
        <path
           style="stroke:none"
           d="m 3.296875,2.390625 c 0,-0.03125 0,-0.046875 -0.171875,-0.21875 C 1.890625,0.921875 1.5625,-0.96875 1.5625,-2.5 c 0,-1.734375 0.375,-3.46875 1.609375,-4.703125 0.125,-0.125 0.125,-0.140625 0.125,-0.171875 0,-0.078125 -0.03125,-0.109375 -0.09375,-0.109375 -0.109375,0 -1,0.6875 -1.59375,1.953125 -0.5,1.09375 -0.625,2.203125 -0.625,3.03125 0,0.78125 0.109375,1.984375 0.65625,3.125 C 2.25,1.84375 3.09375,2.5 3.203125,2.5 c 0.0625,0 0.09375,-0.03125 0.09375,-0.109375 z m 0,0"
           id="path438" />
      </symbol>
      <symbol
         overflow="visible"
         id="symbol1342">
        <path
           style="stroke:none"
           d="m 2.875,-2.5 c 0,-0.765625 -0.109375,-1.96875 -0.65625,-3.109375 -0.59375,-1.21875 -1.453125,-1.875 -1.546875,-1.875 -0.0625,0 -0.109375,0.046875 -0.109375,0.109375 0,0.03125 0,0.046875 0.1875,0.234375 0.984375,0.984375 1.546875,2.5625 1.546875,4.640625 0,1.71875 -0.359375,3.46875 -1.59375,4.71875 C 0.5625,2.34375 0.5625,2.359375 0.5625,2.390625 0.5625,2.453125 0.609375,2.5 0.671875,2.5 0.765625,2.5 1.671875,1.8125 2.25,0.546875 2.765625,-0.546875 2.875,-1.65625 2.875,-2.5 Z m 0,0"
           id="path3704" />
      </symbol>
    </g>
    <g
       id="g1469">
      <symbol
         overflow="visible"
         id="symbol721">
        <path
           style="stroke:none"
           d=""
           id="path775" />
      </symbol>
      <symbol
         overflow="visible"
         id="symbol6136">
        <path
           style="stroke:none"
           d="m 2.046875,-3.984375 h 0.9375 c 0.203125,0 0.3125,0 0.3125,-0.203125 0,-0.109375 -0.109375,-0.109375 -0.28125,-0.109375 h -0.875 C 2.5,-5.71875 2.546875,-5.90625 2.546875,-5.96875 c 0,-0.171875 -0.125,-0.265625 -0.296875,-0.265625 -0.03125,0 -0.3125,0 -0.390625,0.359375 L 1.46875,-4.296875 h -0.9375 c -0.203125,0 -0.296875,0 -0.296875,0.1875 0,0.125 0.078125,0.125 0.28125,0.125 h 0.875 C 0.671875,-1.15625 0.625,-0.984375 0.625,-0.8125 0.625,-0.265625 1,0.109375 1.546875,0.109375 2.5625,0.109375 3.125,-1.34375 3.125,-1.421875 3.125,-1.53125 3.046875,-1.53125 3.015625,-1.53125 2.921875,-1.53125 2.90625,-1.5 2.859375,-1.390625 2.4375,-0.34375 1.90625,-0.109375 1.5625,-0.109375 c -0.203125,0 -0.3125,-0.125 -0.3125,-0.453125 0,-0.25 0.03125,-0.3125 0.0625,-0.484375 z m 0,0"
           id="path832" />
      </symbol>
    </g>
    <style
       type="text/css"
       id="style8877">*{stroke-linecap:butt;stroke-linejoin:round;}</style>
    <clipPath
       id="pcefa9357e3">
      <rect
         height="288"
         width="288"
         x="7.1999998"
         y="7.1999998"
         id="rect8889" />
    </clipPath>
  </defs>
  <sodipodi:namedview
     id="base"
     pagecolor="#ffffff"
     bordercolor="#666666"
     borderopacity="1.0"
     inkscape:pageopacity="0.0"
     inkscape:pageshadow="2"
     inkscape:zoom="0.35"
     inkscape:cx="122.2538"
     inkscape:cy="303.13431"
     inkscape:document-units="mm"
     inkscape:current-layer="layer1"
     inkscape:document-rotation="0"
     showgrid="false"
     inkscape:window-width="1920"
     inkscape:window-height="1015"
     inkscape:window-x="0"
     inkscape:window-y="0"
     inkscape:window-maximized="1"
     fit-margin-top="0"
     fit-margin-left="0"
     fit-margin-right="0"
     fit-margin-bottom="0" />
  <metadata
     id="metadata5">
    <rdf:RDF>
      <cc:Work
         rdf:about="">
        <dc:format>image/svg+xml</dc:format>
        <dc:type
           rdf:resource="http://purl.org/dc/dcmitype/StillImage" />
        <dc:title></dc:title>
      </cc:Work>
    </rdf:RDF>
  </metadata>
  <g
     inkscape:label="Layer 1"
     inkscape:groupmode="layer"
     id="layer1"
     transform="translate(1.8327344,-41.256914)">
    <g
       inkscape:label=""
       transform="matrix(1.610832,0,0,1.610832,-74.213185,-14.543956)"
       id="g889"
       style="fill:#0023ff;fill-opacity:1"
       inkscape:export-filename="/home/sh/g889.png"
       inkscape:export-xdpi="96"
       inkscape:export-ydpi="96">
      <g
         id="g4906"
         transform="translate(6.723628,-2.0312555)"
         style="fill:#0023ff;fill-opacity:1">
        <g
           style="fill:#0023ff;fill-opacity:1"
           id="g3620">
          <use
             xlink:href="#symbol3880"
             x="91.925003"
             y="83.457001"
             id="use6502"
             width="100%"
             height="100%"
             style="fill:#0023ff;fill-opacity:1" />
          <use
             xlink:href="#symbol6473"
             x="96.352379"
             y="83.457001"
             id="use9178"
             width="100%"
             height="100%"
             style="fill:#0023ff;fill-opacity:1" />
          <use
             xlink:href="#symbol9975"
             x="101.61064"
             y="83.457001"
             id="use6401"
             width="100%"
             height="100%"
             style="fill:#0023ff;fill-opacity:1" />
        </g>
        <g
           style="fill:#0023ff;fill-opacity:1"
           id="g5223">
          <use
             xlink:href="#symbol2247"
             x="108.806"
             y="72.399002"
             id="use2210"
             width="100%"
             height="100%"
             style="fill:#0023ff;fill-opacity:1" />
        </g>
        <g
           style="fill:#0023ff;fill-opacity:1"
           id="g8076">
          <use
             xlink:href="#symbol2432"
             x="114.756"
             y="83.457001"
             id="use9791"
             width="100%"
             height="100%"
             style="fill:#0023ff;fill-opacity:1" />
        </g>
        <g
           style="fill:#0023ff;fill-opacity:1"
           id="g3307">
          <use
             xlink:href="#symbol9364"
             x="127.167"
             y="79.535004"
             id="use995"
             width="100%"
             height="100%"
             style="fill:#0023ff;fill-opacity:1" />
        </g>
        <path
           style="fill:#0023ff;fill-opacity:1;stroke:#000000;stroke-width:0.398;stroke-linecap:butt;stroke-linejoin:miter;stroke-miterlimit:10;stroke-opacity:1"
           d="M -0.00178125,-0.00175 H 9.943531"
           transform="matrix(1,0,0,-1,123.701,80.967)"
           id="path8147" />
        <g
           style="fill:#0023ff;fill-opacity:1"
           id="g95">
          <use
             xlink:href="#symbol2167"
             x="123.701"
             y="86.892998"
             id="use8601"
             width="100%"
             height="100%"
             style="fill:#0023ff;fill-opacity:1" />
        </g>
        <g
           style="fill:#0023ff;fill-opacity:1"
           id="g8132">
          <use
             xlink:href="#symbol9809"
             x="129.479"
             y="84.490997"
             id="use1799"
             width="100%"
             height="100%"
             style="fill:#0023ff;fill-opacity:1" />
        </g>
        <g
           style="fill:#0023ff;fill-opacity:1"
           id="g181">
          <use
             xlink:href="#symbol8383"
             x="128.40601"
             y="89.056"
             id="use163"
             width="100%"
             height="100%"
             style="fill:#0023ff;fill-opacity:1" />
        </g>
        <g
           style="fill:#0023ff;fill-opacity:1"
           id="g6177">
          <use
             xlink:href="#symbol6682"
             x="134.839"
             y="72.399002"
             id="use4571"
             width="100%"
             height="100%"
             style="fill:#0023ff;fill-opacity:1" />
        </g>
      </g>
    </g>
    <path
       style="fill:none;stroke:#000000;stroke-width:1;stroke-linecap:butt;stroke-linejoin:miter;stroke-miterlimit:4;stroke-dasharray:none;stroke-opacity:1;marker-end:url(#Arrow2Mend)"
       d="M 29.913796,255.32689 V 47.014999"
       id="path947"
       inkscape:export-filename="/home/sh/g889.png"
       inkscape:export-xdpi="96"
       inkscape:export-ydpi="96" />
    <path
       style="fill:none;stroke:#000000;stroke-width:1;stroke-linecap:butt;stroke-linejoin:miter;stroke-miterlimit:4;stroke-dasharray:none;stroke-opacity:1;marker-end:url(#Arrow2Mend-3)"
       d="M 9.8210768,153.91443 H 253.95779"
       id="path947-7"
       inkscape:export-filename="/home/sh/g889.png"
       inkscape:export-xdpi="96"
       inkscape:export-ydpi="96" />
    <g
       inkscape:label=""
       transform="translate(96.311,162.284)"
       id="g1515">
      <g
         id="g265"
         transform="matrix(1.5795811,0,0,1.5795811,-243.81567,-238.67211)"
         inkscape:export-filename="/home/sh/g889.png"
         inkscape:export-xdpi="96"
         inkscape:export-ydpi="96">
        <g
           style="fill:#000000;fill-opacity:1"
           id="g4494">
          <use
             xlink:href="#symbol5483"
             x="91.925003"
             y="81.962997"
             id="use7729"
             width="100%"
             height="100%" />
        </g>
        <g
           style="fill:#000000;fill-opacity:1"
           id="g2234">
          <use
             xlink:href="#symbol3895"
             x="97.627998"
             y="81.962997"
             id="use67"
             width="100%"
             height="100%" />
        </g>
        <g
           style="fill:#000000;fill-opacity:1"
           id="g5604">
          <use
             xlink:href="#symbol3924"
             x="101.503"
             y="81.962997"
             id="use226"
             width="100%"
             height="100%" />
        </g>
        <g
           style="fill:#000000;fill-opacity:1"
           id="g3883">
          <use
             xlink:href="#symbol1342"
             x="105.1"
             y="81.962997"
             id="use7121"
             width="100%"
             height="100%" />
        </g>
      </g>
      <g
         inkscape:label=""
         transform="matrix(1.6803662,0,0,1.6803662,-2.313811,-126.30598)"
         id="g1639"
         inkscape:export-filename="/home/sh/g889.png"
         inkscape:export-xdpi="96"
         inkscape:export-ydpi="96">
        <g
           id="g9643">
          <g
             style="fill:#000000;fill-opacity:1"
             id="g6166">
            <use
               xlink:href="#symbol6136"
               x="91.925003"
               y="81.962997"
               id="use6372"
               width="100%"
               height="100%" />
          </g>
        </g>
      </g>
    </g>
    <g
       style="stroke-linecap:butt;stroke-linejoin:round"
       id="g8907"
       transform="matrix(0.35277776,0,0,0.35277776,89.672283,56.876481)"
       inkscape:export-filename="/home/sh/g889.png"
       inkscape:export-xdpi="96"
       inkscape:export-ydpi="96">
      <g
         id="figure_1"
         transform="translate(-7.04858,59.623917)">
        <g
           id="axes_1"
           transform="translate(-130.00149,30.599672)">
          <g
             id="line2d_1">
            <path
               clip-path="url(#pcefa9357e3)"
               d="m 20.290909,171.59101 1.572482,-62.52334 1.048321,-34.819076 1.048321,-27.07408 0.786241,-14.418328 0.52416,-6.613274 0.524161,-4.156584 0.26208,-1.154101 0.26208,-0.541318 0.26208,0.06595 0.262081,0.665371 0.26208,1.254655 0.52416,4.225645 0.524161,6.407384 0.786241,13.354582 0.786241,17.269268 1.048321,27.801878 1.834561,56.068218 2.096643,63.12481 1.310401,32.44603 1.048321,19.69734 0.786241,10.46672 0.52416,4.78577 0.524161,2.99096 0.26208,0.82051 0.26208,0.37309 0.26208,-0.0702 0.262081,-0.5077 0.26208,-0.9377 0.524161,-3.12747 0.52416,-4.71844 0.786241,-9.80596 0.786241,-12.65672 1.048321,-20.34886 1.834562,-40.9802 2.096642,-46.06788 1.310401,-23.64296 1.048321,-14.33017 0.786241,-7.597794 0.52416,-3.462955 0.524161,-2.15172 0.26208,-0.582912 0.26208,-0.256236 0.262081,0.06737 0.26208,0.386668 0.52416,1.707944 0.524161,2.903778 0.786241,6.428387 0.78624,8.62611 1.048322,14.24748 1.572481,25.10036 2.620803,42.41617 1.310401,17.22804 1.048321,10.42522 0.786241,5.51499 0.52416,2.50554 0.524161,1.5476 0.26208,0.41379 0.26208,0.17528 0.262081,-0.0609 0.26208,-0.29399 0.52416,-1.26989 0.524161,-2.14211 0.786241,-4.72412 0.786241,-6.32502 1.048321,-10.43115 1.572481,-18.35155 2.620803,-30.96066 1.310401,-12.55347 1.048321,-7.58419 0.786241,-4.00296 0.52416,-1.81266 0.524161,-1.11283 0.26208,-0.2935 0.262081,-0.11935 0.26208,0.0531 0.26208,0.22317 0.524161,0.94388 0.52416,1.58005 0.786241,3.47151 0.786241,4.63764 1.048321,7.63692 1.572481,13.41717 2.620803,22.59875 1.310401,9.14715 1.048321,5.51724 0.786241,2.90536 0.524161,1.31126 0.52416,0.8 0.524161,0.28883 0.26208,-0.045 0.52416,-0.46022 0.524161,-0.93667 0.52416,-1.38651 0.786241,-2.8494 1.048321,-5.01929 1.310402,-7.68899 3.931204,-24.39915 1.04832,-4.93178 0.78624,-2.8892 0.78624,-2.10861 0.52416,-0.94846 0.52416,-0.57496 0.52416,-0.20168 0.52416,0.1655 0.52417,0.52096 0.52416,0.85938 0.78624,1.87433 0.78624,2.49306 1.04832,4.09325 1.57248,7.1717 2.6208,12.03982 1.3104,4.85634 1.04832,2.91957 0.78625,1.53029 0.52416,0.68597 0.52416,0.41312 0.52416,0.14054 0.52416,-0.12749 0.52416,-0.38687 0.52416,-0.63368 0.78624,-1.37715 0.78624,-1.82781 1.04832,-2.99663 1.57248,-5.24318 2.6208,-8.78782 1.31041,-3.53846 1.04832,-2.12373 0.78624,-1.11053 0.78624,-0.66942 0.52416,-0.19699 0.52416,7.4e-4 0.52416,0.19356 0.52416,0.37852 0.78624,0.89081 0.78624,1.23678 1.04832,2.08868 1.57249,3.75395 2.88288,7.07815 1.3104,2.57817 1.04832,1.5448 0.78624,0.80587 0.78624,0.4835 0.78624,0.15606 0.78624,-0.16476 0.78624,-0.46788 0.78624,-0.74333 1.04833,-1.3557 1.3104,-2.1299 4.45536,-7.77037 1.04832,-1.30346 1.04832,-0.93061 0.78624,-0.42853 0.78625,-0.1896 0.78624,0.0472 0.78624,0.27349 0.78624,0.48181 1.04832,0.92303 1.3104,1.49924 2.6208,3.49682 1.83456,2.23325 1.31041,1.22355 1.04832,0.67609 1.04832,0.37474 0.78624,0.0775 1.04832,-0.16111 1.04832,-0.43942 1.04832,-0.67684 1.57248,-1.3406 4.71745,-4.3301 1.3104,-0.77321 1.04832,-0.3827 1.04832,-0.15759 1.04832,0.0662 1.04832,0.27498 1.31041,0.59471 1.57248,0.98105 4.71744,3.16045 1.3104,0.56251 1.3104,0.32132 1.31041,0.064 1.3104,-0.18381 1.3104,-0.39885 1.83456,-0.81924 4.71744,-2.30672 1.57249,-0.47054 1.57248,-0.21203 1.57248,0.0567 1.57248,0.29818 2.09664,0.66904 4.97953,1.75257 1.83456,0.34626 1.57248,0.0872 1.83456,-0.13978 2.09665,-0.41608 7.07616,-1.68066 1.83456,-0.11507 2.09665,0.10302 2.35872,0.35295 6.81409,1.17827 2.35872,0.0804 2.35872,-0.14332 3.40704,-0.45708 4.19329,-0.53431 2.6208,-0.11707 2.88288,0.10764 4.45537,0.44863 3.9312,0.31686 3.14496,0.0277 3.66913,-0.20444 2.09664,-0.16685 v 0"
               style="fill:none;fill-opacity:1;stroke:#ff002b;stroke-width:2.83465;stroke-linecap:square;stroke-miterlimit:4;stroke-dasharray:none;stroke-opacity:1"
               id="path8884"
               transform="matrix(1.8379397,0,0,1.8379397,-68.012453,-129.49434)" />
          </g>
        </g>
      </g>
    </g>
    <path
       style="fill:none;fill-opacity:1;stroke:#001bff;stroke-width:1.5;stroke-linecap:butt;stroke-linejoin:miter;stroke-miterlimit:4;stroke-dasharray:9, 9;stroke-dashoffset:0;stroke-opacity:1"
       d="m 34.395458,56.178944 8.951323,28.061581 8.041547,17.696385 9.525535,15.88047 7.637266,8.56976 8.185529,6.32199 8.637412,6.67099 9.151056,3.71462 8.011744,3.25214 7.59211,1.79737 8.55112,2.02441 8.76341,0.92702 8.73925,0.92447 8.87494,0.55893 7.948,0.50055 8.99226,0.30263 9.52997,0.32072"
       id="path8909"
       sodipodi:nodetypes="ccccccccccccccccc"
       inkscape:export-filename="/home/sh/g889.png"
       inkscape:export-xdpi="96"
       inkscape:export-ydpi="96" />
  </g>
</svg>
