<?xml version="1.0" encoding="UTF-8" standalone="no"?>
<svg
   xmlns:dc="http://purl.org/dc/elements/1.1/"
   xmlns:cc="http://creativecommons.org/ns#"
   xmlns:rdf="http://www.w3.org/1999/02/22-rdf-syntax-ns#"
   xmlns:svg="http://www.w3.org/2000/svg"
   xmlns="http://www.w3.org/2000/svg"
   xmlns:sodipodi="http://sodipodi.sourceforge.net/DTD/sodipodi-0.dtd"
   xmlns:inkscape="http://www.inkscape.org/namespaces/inkscape"
   height="302.4pt"
   version="1.1"
   viewBox="0 0 302.4 302.4"
   width="302.4pt"
   id="svg21"
   sodipodi:docname="FID_exp_decay.svg"
   inkscape:version="1.0.1 (3bc2e813f5, 2020-09-07, custom)">
  <sodipodi:namedview
     pagecolor="#ffffff"
     bordercolor="#666666"
     borderopacity="1"
     objecttolerance="10"
     gridtolerance="10"
     guidetolerance="10"
     inkscape:pageopacity="0"
     inkscape:pageshadow="2"
     inkscape:window-width="1920"
     inkscape:window-height="1015"
     id="namedview23"
     showgrid="false"
     inkscape:zoom="0.73569271"
     inkscape:cx="257.70603"
     inkscape:cy="147.45627"
     inkscape:window-x="0"
     inkscape:window-y="0"
     inkscape:window-maximized="1"
     inkscape:current-layer="axes_1" />
  <metadata
     id="metadata2">
    <rdf:RDF>
      <cc:Work>
        <dc:type
           rdf:resource="http://purl.org/dc/dcmitype/StillImage" />
        <dc:date>2021-01-22T15:26:33.336451</dc:date>
        <dc:format>image/svg+xml</dc:format>
        <dc:creator>
          <cc:Agent>
            <dc:title>Matplotlib v3.3.3, https://matplotlib.org/</dc:title>
          </cc:Agent>
        </dc:creator>
      </cc:Work>
    </rdf:RDF>
  </metadata>
  <defs
     id="defs6">
    <style
       type="text/css"
       id="style4">*{stroke-linecap:butt;stroke-linejoin:round;}</style>
  </defs>
  <g
     id="figure_1">
    <g
       id="axes_1">
      <g
         id="line2d_1"
         style="fill:none;fill-opacity:1;stroke:#ff0000;stroke-opacity:1;stroke-width:2.47500011;stroke-miterlimit:4;stroke-dasharray:none">
        <path
           clip-path="url(#p7dc21d055d)"
           d="M 20.290909 20.290909  L 20.552989 21.49617  L 21.07715 25.545151  L 21.60131 31.680582  L 22.387551 44.476964  L 23.173792 61.05515  L 24.222113 87.835318  L 26.056675 142.281461  L 28.415397 211.779708  L 29.725799 243.300937  L 30.77412 262.52229  L 31.56036 272.834509  L 32.084521 277.622407  L 32.608681 280.700628  L 32.870762 281.59612  L 33.132842 282.064461  L 33.394922 282.109091  L 33.657002 281.735005  L 33.919083 280.94872  L 34.443243 278.172947  L 34.967404 273.862517  L 35.753645 264.747318  L 36.539885 252.833982  L 37.588206 233.469548  L 39.160688 199.730095  L 41.781491 142.909595  L 43.091892 119.641239  L 44.140213 105.352989  L 44.926454 97.61438  L 45.450614 93.974292  L 45.974775 91.581326  L 46.498935 90.441129  L 46.761016 90.337395  L 47.023096 90.540435  L 47.285176 91.045741  L 47.809337 92.939736  L 48.333497 95.962265  L 49.119738 102.449251  L 49.905979 111.005885  L 50.9543 125.003383  L 52.526781 149.538658  L 55.147584 191.15766  L 56.457985 208.329065  L 57.506306 218.945455  L 58.292547 224.747895  L 58.816708 227.510825  L 59.340868 229.364234  L 59.865029 230.302381  L 60.127109 230.430237  L 60.389189 230.333382  L 60.651269 230.01492  L 61.17543 228.72956  L 61.69959 226.614505  L 62.485831 222.002443  L 63.272072 215.860055  L 64.320393 205.745503  L 65.892875 187.907691  L 68.775758 154.686346  L 69.824079 144.76089  L 70.8724 136.876218  L 71.65864 132.528987  L 72.182801 130.43502  L 72.706962 129.004225  L 73.231122 128.241977  L 73.493202 128.110455  L 73.755283 128.143502  L 74.017363 128.338987  L 74.541523 129.20583  L 75.065684 130.682527  L 75.851925 133.958177  L 76.638165 138.365018  L 77.686486 145.671189  L 79.258968 158.636674  L 82.141851 182.970719  L 83.452252 191.909774  L 84.500573 197.347837  L 85.286814 200.255884  L 85.810975 201.599966  L 86.335135 202.457268  L 86.859296 202.826735  L 87.121376 202.830214  L 87.645536 202.48193  L 88.169697 201.674655  L 88.693857 200.431608  L 89.480098 197.815311  L 90.266339 194.406029  L 91.31466 188.876002  L 92.887142 179.259846  L 95.507944 163.104105  L 96.818346 156.504841  L 97.866667 152.461816  L 98.652907 150.278897  L 99.177068 149.256449  L 99.701229 148.589107  L 100.225389 148.278268  L 100.74955 148.319953  L 101.27371 148.704995  L 101.797871 149.419304  L 102.584111 151.066109  L 103.370352 153.330418  L 104.418673 157.138455  L 105.991155 163.983359  L 109.136118 178.089123  L 110.184439 181.901936  L 111.23276 184.906416  L 112.019001 186.543625  L 112.805242 187.611406  L 113.329402 187.998589  L 113.853563 188.126039  L 114.377723 187.998141  L 114.901884 187.622999  L 115.426044 187.012227  L 116.212285 185.68759  L 116.998526 183.92917  L 118.046847 181.040032  L 119.619328 175.955241  L 122.502211 166.509511  L 123.812613 163.077138  L 124.860934 161.009173  L 125.647174 159.918114  L 126.433415 159.247225  L 126.957576 159.037591  L 127.481736 159.016765  L 128.005897 159.180483  L 128.530057 159.52182  L 129.316298 160.345623  L 130.102539 161.506114  L 131.15086 163.487874  L 132.723342 167.097942  L 136.130385 175.21532  L 137.440786 177.626231  L 138.489107 179.041761  L 139.275348 179.76109  L 140.061589 180.171132  L 140.84783 180.269336  L 141.63407 180.063681  L 142.420311 179.572026  L 143.206552 178.821158  L 144.254873 177.477327  L 145.565274 175.38797  L 150.282719 167.399222  L 151.33104 166.169456  L 152.379361 165.30102  L 153.165602 164.908173  L 153.951843 164.743278  L 154.738084 164.803618  L 155.524324 165.079037  L 156.572645 165.750586  L 157.620966 166.717157  L 158.931368 168.230836  L 163.648812 174.082497  L 164.959214 175.183286  L 166.007535 175.763438  L 167.055856 176.052204  L 168.104177 176.046496  L 169.152498 175.760748  L 170.200819 175.225227  L 171.51122 174.271946  L 173.345782 172.602335  L 176.490745 169.703571  L 177.801147 168.779607  L 179.111548 168.140495  L 180.159869 167.863238  L 181.20819 167.801774  L 182.256511 167.949399  L 183.566912 168.398426  L 184.877314 169.085468  L 186.973956 170.483724  L 189.856839 172.423076  L 191.42932 173.219714  L 192.739722 173.651242  L 194.050123 173.841867  L 195.360524 173.788498  L 196.670925 173.510524  L 198.243407 172.936146  L 200.602129 171.784187  L 203.485012 170.386932  L 205.319574 169.759477  L 206.892056 169.475679  L 208.464537 169.449199  L 210.037019 169.665232  L 211.871581 170.161924  L 215.016544 171.310584  L 217.637346 172.165421  L 219.471908 172.536326  L 221.30647 172.658862  L 223.141032 172.531944  L 225.237674 172.137977  L 232.838002 170.395552  L 234.934644 170.301499  L 237.031286 170.441782  L 239.652088 170.86107  L 245.417854 171.875204  L 247.776577 172.020595  L 250.135299 171.944985  L 253.018182 171.621491  L 259.308108 170.838653  L 261.928911 170.766565  L 264.811794 170.906472  L 275.295004 171.682506  L 278.702048 171.551261  L 282.109091 171.295623  L 282.109091 171.295623  "
           style="fill:none;stroke:#ff0000;stroke-linecap:square;stroke-width:2.47500011;fill-opacity:1;stroke-opacity:1;stroke-miterlimit:4;stroke-dasharray:none"
           id="path11" />
      </g>
    </g>
  </g>
  <defs
     id="defs19">
    <clipPath
       id="p7dc21d055d">
      <rect
         height="288"
         width="288"
         x="7.2"
         y="7.2"
         id="rect16" />
    </clipPath>
  </defs>
</svg>
