<?xml version="1.0" encoding="utf-8" standalone="no"?>
<!DOCTYPE svg PUBLIC "-//W3C//DTD SVG 1.1//EN"
  "http://www.w3.org/Graphics/SVG/1.1/DTD/svg11.dtd">
<!-- Created with matplotlib (https://matplotlib.org/) -->
<svg height="302.4pt" version="1.1" viewBox="0 0 302.4 302.4" width="302.4pt" xmlns="http://www.w3.org/2000/svg" xmlns:xlink="http://www.w3.org/1999/xlink">
 <metadata>
  <rdf:RDF xmlns:cc="http://creativecommons.org/ns#" xmlns:dc="http://purl.org/dc/elements/1.1/" xmlns:rdf="http://www.w3.org/1999/02/22-rdf-syntax-ns#">
   <cc:Work>
    <dc:type rdf:resource="http://purl.org/dc/dcmitype/StillImage"/>
    <dc:date>2021-01-22T10:37:49.014301</dc:date>
    <dc:format>image/svg+xml</dc:format>
    <dc:creator>
     <cc:Agent>
      <dc:title>Matplotlib v3.3.3, https://matplotlib.org/</dc:title>
     </cc:Agent>
    </dc:creator>
   </cc:Work>
  </rdf:RDF>
 </metadata>
 <defs>
  <style type="text/css">*{stroke-linecap:butt;stroke-linejoin:round;}</style>
 </defs>
 <g id="figure_1">
  <g id="patch_1">
   <path d="M 0 302.4 
L 302.4 302.4 
L 302.4 0 
L 0 0 
z
" style="fill:#ffffff;"/>
  </g>
  <g id="axes_1">
   <g id="line2d_1">
    <path clip-path="url(#p3247591702)" d="M 20.290909 171.591007 
L 21.863391 109.067671 
L 22.911712 74.248594 
L 23.960033 47.174514 
L 24.746274 32.756186 
L 25.270434 26.142912 
L 25.794595 21.986328 
L 26.056675 20.832227 
L 26.318755 20.290909 
L 26.580835 20.356862 
L 26.842916 21.022233 
L 27.104996 22.276888 
L 27.629156 26.502533 
L 28.153317 32.909917 
L 28.939558 46.264499 
L 29.725799 63.533767 
L 30.77412 91.335645 
L 32.608681 147.403864 
L 34.705324 210.528674 
L 36.015725 242.9747 
L 37.064046 262.672042 
L 37.850287 273.138762 
L 38.374447 277.924529 
L 38.898608 280.915488 
L 39.160688 281.735998 
L 39.422768 282.109091 
L 39.684848 282.038878 
L 39.946929 281.531179 
L 40.209009 280.593478 
L 40.73317 277.466014 
L 41.25733 272.747567 
L 42.043571 262.941607 
L 42.829812 250.284888 
L 43.878133 229.93603 
L 45.712695 188.955827 
L 47.809337 142.887947 
L 49.119738 119.244994 
L 50.168059 104.914818 
L 50.9543 97.317029 
L 51.47846 93.854074 
L 52.002621 91.702354 
L 52.264701 91.119442 
L 52.526781 90.863206 
L 52.788862 90.930578 
L 53.050942 91.317246 
L 53.575102 93.02519 
L 54.099263 95.928968 
L 54.885504 102.357355 
L 55.671744 110.983463 
L 56.720066 125.230944 
L 58.292547 150.331297 
L 60.91335 192.747481 
L 62.223751 209.975518 
L 63.272072 220.400741 
L 64.058313 225.915726 
L 64.582473 228.421271 
L 65.106634 229.968873 
L 65.368714 230.382664 
L 65.630794 230.557941 
L 65.892875 230.496989 
L 66.154955 230.203004 
L 66.679115 228.933109 
L 67.203276 226.791002 
L 67.989517 222.066877 
L 68.775758 215.741856 
L 69.824079 205.310715 
L 71.39656 186.959159 
L 74.017363 155.9985 
L 75.327764 143.445031 
L 76.376085 135.860845 
L 77.162326 131.857878 
L 77.686486 130.045218 
L 78.210647 128.932389 
L 78.472727 128.638895 
L 78.734808 128.519545 
L 78.996888 128.572635 
L 79.258968 128.795801 
L 79.783129 129.739683 
L 80.307289 131.319728 
L 81.09353 134.791239 
L 81.879771 139.428881 
L 82.928092 147.065799 
L 84.500573 160.482969 
L 87.121376 183.081721 
L 88.431777 192.228865 
L 89.480098 197.746112 
L 90.266339 200.651471 
L 90.7905 201.962731 
L 91.31466 202.762729 
L 91.838821 203.051559 
L 92.100901 203.006526 
L 92.625061 202.546309 
L 93.149222 201.609643 
L 93.673382 200.223129 
L 94.459623 197.373732 
L 95.507944 192.354438 
L 96.818346 184.665451 
L 100.74955 160.266296 
L 101.797871 155.334522 
L 102.584111 152.445323 
L 103.370352 150.336707 
L 103.894513 149.388247 
L 104.418673 148.813286 
L 104.942834 148.611606 
L 105.466994 148.777111 
L 105.991155 149.298072 
L 106.515315 150.157446 
L 107.301556 152.031782 
L 108.087797 154.524841 
L 109.136118 158.618094 
L 110.7086 165.789792 
L 113.329402 177.829609 
L 114.639803 182.685965 
L 115.688124 185.60553 
L 116.474365 187.135824 
L 116.998526 187.821795 
L 117.522686 188.234912 
L 118.046847 188.375443 
L 118.571007 188.247946 
L 119.095168 187.861088 
L 119.619328 187.227411 
L 120.405569 185.850264 
L 121.19181 184.022447 
L 122.240131 181.025819 
L 123.812613 175.782636 
L 126.433415 166.994817 
L 127.743817 163.456362 
L 128.792138 161.332627 
L 129.578378 160.222094 
L 130.364619 159.55267 
L 130.88878 159.35568 
L 131.41294 159.356423 
L 131.937101 159.549976 
L 132.461261 159.928497 
L 133.247502 160.819305 
L 134.033743 162.056094 
L 135.082064 164.144771 
L 136.654545 167.898722 
L 139.537428 174.976875 
L 140.84783 177.555039 
L 141.896151 179.099838 
L 142.682391 179.905712 
L 143.468632 180.389214 
L 144.254873 180.545269 
L 145.041114 180.380515 
L 145.827355 179.912629 
L 146.613595 179.169298 
L 147.661916 177.813604 
L 148.972318 175.683701 
L 153.427682 167.913326 
L 154.476003 166.609866 
L 155.524324 165.679259 
L 156.310565 165.25073 
L 157.096806 165.061136 
L 157.883047 165.108298 
L 158.669287 165.381789 
L 159.455528 165.863605 
L 160.503849 166.786632 
L 161.814251 168.285869 
L 164.435053 171.782696 
L 166.269615 174.015949 
L 167.580016 175.239504 
L 168.628337 175.915594 
L 169.676658 176.290332 
L 170.462899 176.36779 
L 171.51122 176.206685 
L 172.559541 175.767259 
L 173.607862 175.090418 
L 175.180344 173.749817 
L 179.897789 169.419716 
L 181.20819 168.646507 
L 182.256511 168.263812 
L 183.304832 168.106221 
L 184.353153 168.172463 
L 185.401474 168.447444 
L 186.711876 169.042146 
L 188.284357 170.023203 
L 193.001802 173.183646 
L 194.312203 173.746158 
L 195.622604 174.067478 
L 196.933006 174.131462 
L 198.243407 173.947653 
L 199.553808 173.548803 
L 201.38837 172.729557 
L 206.105815 170.422844 
L 207.678296 169.952299 
L 209.250778 169.740275 
L 210.82326 169.797002 
L 212.395741 170.095178 
L 214.492383 170.764218 
L 219.471908 172.516791 
L 221.30647 172.863048 
L 222.878952 172.950244 
L 224.713514 172.810458 
L 226.810156 172.394376 
L 233.886323 170.713716 
L 235.720885 170.598654 
L 237.817527 170.701666 
L 240.176249 171.05462 
L 246.990336 172.232889 
L 249.349058 172.313264 
L 251.707781 172.16994 
L 255.114824 171.712859 
L 259.308108 171.178555 
L 261.928911 171.061484 
L 264.811794 171.169119 
L 269.267158 171.617749 
L 273.198362 171.934613 
L 276.343325 171.962299 
L 280.012449 171.757864 
L 282.109091 171.591007 
L 282.109091 171.591007 
" style="fill:none;stroke:#1f77b4;stroke-linecap:square;stroke-width:1.5;"/>
   </g>
  </g>
 </g>
 <defs>
  <clipPath id="p3247591702">
   <rect height="288" width="288" x="7.2" y="7.2"/>
  </clipPath>
 </defs>
</svg>
